<svg version="1.1" id="Layer_1" xmlns="http://www.w3.org/2000/svg" xmlns:xlink="http://www.w3.org/1999/xlink" viewBox="0 0 20 7.3" preserveAspectRatio="xMinYMin meet" xml:space="preserve"><a xlink:href="/"><rect visibility="hidden" pointer-events="all" height="100%" width="100%"></rect>
  <path fill="#999" d="M3.294,1.566c0,0-0.212,0.066-0.172-0.12l0.026-0.305c0,0-0.026-0.093,0.146-0.053l0.159,0.053
    c0,0,0.08,0.013,0.053,0.146L3.493,1.54C3.493,1.54,3.533,1.633,3.294,1.566z"/>
  <path fill="#999" d="M8.948,1.606c0,0-0.186,0-0.12-0.106l0.08-0.172c0,0-0.159,0.04-0.146-0.04c0,0-0.026-0.08,0.12-0.093
    c0,0,0.279-0.04,0.106-0.372c0,0-0.026-0.186,0.093-0.12l0.186,0.08c0,0,0.08,0.146,0.093,0.266l0.093-0.04
    c0,0,0.159,0.106,0.252,0.159c0,0-0.332,0.013-0.305,0.106c0,0,0.146,0.465,0.212,0.518c0,0-0.159-0.04-0.239-0.026
    c0,0-0.08,0.026-0.106-0.04c0,0-0.146-0.266-0.146-0.345L9.107,1.593L8.948,1.606z"/>
  <path fill="#999" d="M0.188,3.916c0,0-0.186,0-0.12-0.106l0.08-0.172c0,0-0.159,0.04-0.146-0.04c0,0-0.026-0.08,0.12-0.093
    c0,0,0.279-0.04,0.106-0.372c0,0-0.026-0.186,0.093-0.12l0.186,0.08c0,0,0.08,0.146,0.093,0.266l0.093-0.04
    c0,0,0.159,0.106,0.252,0.159c0,0-0.332,0.013-0.305,0.106c0,0,0.146,0.465,0.212,0.518c0,0-0.159-0.04-0.239-0.026
    c0,0-0.08,0.026-0.106-0.04c0,0-0.146-0.266-0.146-0.345L0.347,3.903L0.188,3.916z"/>
  <path fill="#999" d="M1.773,4.977c0,0,0.053-1.292,0-1.663L1.49,3.367L1.236,3.146c0,0-0.026-0.066,0.093-0.093l0.412-0.106
    c0,0-0.066-0.624-0.106-0.836c0,0-0.863,0.345-1.102,0.465c0,0-0.106,0.093-0.252,0.04L0.134,2.562c0,0-0.12-0.066-0.04-0.159
    c0,0,0.12-0.199,0.186-0.425c0,0,0-0.266,0.146-0.159l0.172,0.12c0,0,0.133,0.12,0,0.226c0,0,0.743-0.332,0.982-0.398
    c0,0-0.026-0.332-0.08-0.425c0,0-0.093-0.159,0.08-0.133l0.305,0.066c0,0,0.226,1.301,0.226,1.58l0.412-0.08
    c0,0-0.066-1.526,0.013-1.925c0,0-0.942-0.013-0.624-0.704c0,0,0.066-0.106,0.199-0.12L2.391,0c0,0-0.478,0.531,0.133,0.65
    l0.053-0.332c0,0,0.066-0.12,0.12-0.04c0,0,0.146,0.159,0.186,0.199c0,0,0.066,0.053,0.066,0.172l0.69-0.266
    c0,0-0.504-0.212-0.518-0.319c0,0,0.026-0.066,0.12-0.04c0,0,0.199,0.013,0.252,0.013c0,0,0.212,0.199,0.398,0.226l0.04-0.053
    c0,0,0.345,0.026,0.465,0.106c0,0,0.12,0.053-0.106,0.172c0,0-0.239,0.133-0.305,0.252c0,0-0.04,0.08-0.133,0.066
    c0,0-0.133-0.013-0.172,0.013c0,0-0.08,0.093-0.106-0.013c0,0-0.026-0.066,0.026-0.106l0.106-0.133c0,0-0.558,0.212-0.77,0.212
    c0,0-0.106,1.606-0.04,1.938l0.279-0.04c0,0-0.04-0.677-0.04-0.836c0,0-0.066-0.159,0.106-0.133l0.266,0.093
    c0,0,0.013,1.487,0.146,1.938c0,0,0.08,0.239-0.12,0.239c0,0-0.186,0.066-0.212-0.04c0,0-0.12-0.757-0.12-0.903
    c0,0-0.252,0.013-0.292,0.04c0,0,0.172,2.044,0.345,2.336c0,0,0.863,0.332,1.115,0.465c0,0-0.398-1.301-0.438-1.633
    c0,0-0.332,0.093-0.412,0.172L3.44,4.314c0,0,0.358-0.212,0.438-0.239c0,0-0.212-1.845-0.159-2.137c0,0-0.212-0.412-0.04-0.385
    c0,0,0.026-0.385,0.013-0.438c0,0-0.04-0.12,0.106-0.08l0.186,0.08c0,0,0.066,0.04,0.066,0.133c0,0-0.093,0.624,0.239,1.049
    c0,0,0.451,0.796,1.128,1.221c0,0,0.133,0.159,0.12-0.04c0,0-0.133-1.487-0.212-1.619c0,0-0.332,0.332-0.69,0.412
    c0,0-0.08,0.04-0.146-0.026L4.329,2.044c0,0,0-0.08,0.106-0.066c0,0,0.637-0.239,0.796-0.571c0,0-0.12-0.172,0.066-0.146
    l0.146,0.026c0,0,0.08-0.026,0.133,0.133c0,0,0.266,0.916,0.319,2.004l0.398-0.106c0,0-0.159-1.964-0.106-2.23
    c0,0-0.226-0.226-0.305-0.358c0,0-0.106-0.12,0.04-0.133c0,0,0.133,0.013,0.186-0.04c0,0,0.093-0.026,0.146,0.053
    c0,0,0.451,0.597,0.916,0.743c0,0,0.093,0.04,0.172,0.04c0,0,0.08,0.066,0.186-0.146c0,0,0.172-0.465-0.066-0.558
    c0,0-0.12-0.133-0.186,0.04c0,0-0.013,0.12-0.093,0.159L7.05,0.969c0,0-0.066,0.04-0.106-0.013c0,0-0.053-0.04,0.053-0.186
    c0,0,0.12-0.292,0.544-0.266c0,0,0.558,0,0.412,0.584c0,0-0.08,0.531-0.77,0.491c0,0-0.412-0.013-0.584-0.186
    c0,0-0.04,1.46,0.066,1.858l0.279-0.053c0,0-0.066-0.531-0.053-0.69c0,0,0.013-0.106-0.093-0.159c0,0-0.199-0.08-0.053-0.199
    c0,0,0.106-0.093,0.172-0.186c0,0,0.066-0.12,0.172-0.04l0.159,0.093c0,0,0.08,0.013,0.053,0.133c0,0-0.106,0.266,0.226,0.491
    c0,0,0.637,0.478,0.717,0.757c0,0,0.292,0.451,0.12,0.889L8.51,4.194c0,0-0.319-1.925-0.305-2.137c0,0-0.026-0.226-0.066-0.266
    c0,0,0-0.106-0.106,0.013c0,0-0.465,0.345-0.172,0.637l0.186,0.186l-0.08,0.066c0,0-0.518-0.305-0.518-0.558
    c0,0-0.026-0.332,0.226-0.478c0,0,0.358-0.305,0.451-0.465c0,0,0.066-0.12,0.159-0.053c0,0,0.093,0.08,0.239,0.08
    c0,0-0.026,0.677,0.199,0.916c0,0,0.412,0.69,0.677,0.903c0,0,0.319,0.292,0.398,0.372c0,0,0.252,0.239-0.013,0.358L8.882,4.114
    c0,0,0.305,1.5,0.478,1.646c0,0,0.385-0.85,1.566-0.73c0,0,0.451,0.04,0.558,0.106c0,0-0.518-0.743-0.558-0.916
    c0,0-0.146-0.172,0.066-0.186l0.133-0.013c0,0,0.066-0.093,0.159,0.093c0,0,0.597,0.982,0.836,1.128c0,0,0.08,0.093,0.146,0.133
    c0,0,0.106,0.026-0.066,0.159c0,0-0.106,0.133-0.398,0.106c0,0-0.624-0.066-0.796-0.013c0,0-0.266,0.106-0.292,0.026
    c0,0-0.053-0.08,0.08-0.12c0,0,0.65-0.146,0.929-0.066c0,0-1.208-0.704-1.885,0.066c0,0-0.292,0.398,0,0.783
    c0,0,0.013,0.133-0.159,0.146c0,0-0.172,0-0.226-0.053c0,0-0.199-0.319-0.982,0.159c0,0-0.066,0.053-0.08,0.093
    c0,0-0.04,0.106-0.159,0l-0.12-0.12c0,0-0.12-0.08,0.013-0.186c0,0,0.358-0.305,0.704-0.358c0,0-1.049-0.266-1.58-0.292
    c0,0,0.212,0.544,0.358,0.757c0,0,0.146,0.292-0.292,0.372c0,0-0.77,0.252-1.301-0.345c0,0-0.558-0.611-0.305-0.823
    c0,0,0.239-0.252,1.062-0.133c0,0-0.398-1.5-0.438-1.885L5.935,3.756c0,0,0.12,1.341,0.252,1.46l-0.266,0.12
    c0,0-0.093,0.026-0.199-0.053c0,0-0.717-0.624-0.558,0.12c0,0,0.08,0.319,0.212,0.478c0,0,0.159,0.12-0.026,0.226L5.218,6.198
    c0,0-0.08,0.04-0.133-0.053c0,0-0.438-0.584-0.305-0.969c0,0,0.12-0.398,0.823-0.319c0,0,0.04-0.77-0.026-0.969
    c0,0-0.743,0.252-0.398,0.571c0,0-0.558-0.093-0.425-0.438c0,0-0.332,0.053-0.451,0.106c0,0,0.292,1.566,0.584,1.991
    c0,0,0.106,0.146-0.146,0.186c0,0-0.146,0.053-0.199-0.04c0,0-0.412-0.425-1.858-0.876c0,0-0.889-0.358-1.434-0.292
    c0,0-0.425-0.093-0.465,0.319c0,0-0.133,0.85,0.518,0.996c0,0,0.292,0.026,0.465-0.146c0,0-0.438-0.08-0.518-0.385
    c0,0-0.026-0.199,0.12-0.08c0,0,0.252,0.226,0.717,0.133c0,0,0.146-0.08,0.186,0.013l0.106,0.212c0,0,0.026,0.093-0.08,0.199
    c0,0-0.292,0.279-0.372,0.81c0,0-0.013,0.093-0.12,0.106c0,0-0.226,0.066-0.199-0.093c0,0,0.093-0.69,0.199-0.757
    c0,0-1.075,0.717-1.394-0.491c0,0-0.066-0.398,0.026-0.637l0.08-0.12C0.52,5.177,0.836,4.83,1.773,4.977z M4.674,3.889
    c0.252-0.04,0.398-0.133,0.398-0.133c0.106-0.093,0-0.159,0-0.159C4.98,3.544,4.741,3.332,4.741,3.332
    C4.502,3.159,4.13,2.708,4.13,2.708C4.09,2.986,4.276,3.942,4.276,3.942L4.674,3.889z M7.289,2.681c0,0,0.053,0.172-0.013,0.212
    c0,0,0.04,1.142,0.398,1.473c0,0,0.053,0.146,0.199,0c0,0,0.345-0.385,0.12-0.863c0,0-0.172-0.438-0.504-0.637
    C7.488,2.867,7.382,2.761,7.289,2.681z M9.373,3.796c0.279-0.12-0.106-0.425-0.106-0.425c-0.159-0.133-0.611-0.65-0.611-0.65
    c0.013,0.146,0.226,1.248,0.226,1.248L9.373,3.796z M2.803,5.243C2.736,5.057,2.55,3.146,2.55,3.146L2.152,3.212
    c-0.026,0.319,0.04,1.832,0.04,1.832C2.351,5.11,2.803,5.243,2.803,5.243z M6.811,5.681l-0.544-0.04c0,0-0.412-0.026-0.252,0.252
    c0,0,0.186,0.558,0.77,0.796c0,0,0.558,0.226,0.398-0.186C7.183,6.504,6.851,5.787,6.811,5.681z M8.975,5.867
    C8.789,5.694,8.55,4.394,8.55,4.394L8.138,4.606C7.913,4.699,7.528,4.553,7.528,4.553C7.143,4.407,6.997,3.544,6.997,3.544
    l-0.279,0.04c0.08,0.903,0.518,1.964,0.518,1.964C7.754,5.588,8.975,5.867,8.975,5.867z"/>
  <path fill="#999" d="M11.705,2.546c0,0.363-0.224,0.642-0.532,0.735c-0.004,0.011,0.004,0.02,0.018,0.033c0.112,0.108,0.315,0.288,0.491,0.345
    c0.081,0.026,0.154,0.031,0.205,0.031c0.022,0,0.075-0.007,0.106-0.02c0.013,0.002,0.018,0.022,0.011,0.033
    c-0.07,0.04-0.169,0.057-0.246,0.057c-0.101,0-0.227-0.022-0.356-0.081c-0.18-0.084-0.326-0.211-0.407-0.29
    c-0.066-0.066-0.086-0.07-0.147-0.081c-0.057-0.009-0.136-0.022-0.216-0.053c-0.293-0.11-0.471-0.372-0.471-0.686
    c0-0.44,0.33-0.776,0.783-0.776C11.45,1.791,11.705,2.158,11.705,2.546z M11.485,2.614c0-0.363-0.161-0.754-0.581-0.754
    c-0.229,0-0.526,0.156-0.526,0.638c0,0.326,0.158,0.748,0.592,0.748C11.234,3.245,11.485,3.047,11.485,2.614z"/>
  <path fill="#999" d="M12.989,2.378c0-0.136-0.004-0.389-0.042-0.455c-0.015-0.026-0.055-0.042-0.11-0.046l-0.055-0.004
    c-0.013-0.015-0.009-0.044,0.004-0.053c0.084,0.004,0.165,0.007,0.251,0.007c0.092,0,0.152-0.002,0.231-0.007
    c0.018,0.011,0.015,0.04,0.004,0.053L13.22,1.877c-0.055,0.004-0.097,0.024-0.11,0.053c-0.031,0.073-0.031,0.326-0.031,0.449v0.249
    c0,0.191-0.031,0.394-0.154,0.526c-0.095,0.103-0.257,0.161-0.42,0.161c-0.152,0-0.304-0.029-0.411-0.121
    c-0.117-0.097-0.172-0.257-0.172-0.519V2.154c0-0.229-0.004-0.266-0.132-0.277l-0.055-0.004c-0.013-0.009-0.009-0.046,0.004-0.053
    c0.11,0.004,0.185,0.007,0.273,0.007c0.09,0,0.163-0.002,0.271-0.007c0.013,0.007,0.018,0.044,0.004,0.053l-0.053,0.004
    c-0.128,0.011-0.132,0.048-0.132,0.277v0.475c0,0.354,0.11,0.587,0.447,0.587c0.319,0,0.44-0.251,0.44-0.585L12.989,2.378
    L12.989,2.378z"/>
  <path fill="#999" d="M13.281,2.568c0-0.44,0.33-0.776,0.783-0.776c0.508,0,0.763,0.367,0.763,0.754c0,0.444-0.339,0.768-0.763,0.768
    C13.576,3.313,13.281,2.963,13.281,2.568z M14.607,2.614c0-0.363-0.161-0.754-0.581-0.754c-0.229,0-0.526,0.156-0.526,0.638
    c0,0.326,0.158,0.748,0.592,0.748C14.357,3.245,14.607,3.047,14.607,2.614z"/>
  <path fill="#999" d="M15.687,2.948c0,0.231,0.004,0.264,0.132,0.275l0.07,0.007c0.013,0.009,0.009,0.048-0.004,0.055
    c-0.125-0.004-0.2-0.007-0.288-0.007c-0.088,0-0.165,0.002-0.306,0.007c-0.013-0.007-0.018-0.044,0-0.055l0.079-0.007
    c0.125-0.011,0.136-0.044,0.136-0.275V1.965c0-0.068,0-0.07-0.066-0.07H15.32c-0.095,0-0.216,0.004-0.271,0.055
    c-0.053,0.048-0.075,0.097-0.099,0.152c-0.018,0.013-0.048,0.002-0.057-0.015c0.035-0.099,0.068-0.24,0.084-0.328
    c0.007-0.004,0.035-0.007,0.042,0c0.013,0.07,0.086,0.068,0.187,0.068h0.891c0.119,0,0.139-0.004,0.172-0.062
    c0.011-0.004,0.035-0.002,0.04,0.007c-0.024,0.09-0.04,0.268-0.033,0.334c-0.009,0.018-0.046,0.018-0.057,0.004
    c-0.007-0.055-0.022-0.136-0.055-0.161c-0.051-0.037-0.134-0.055-0.255-0.055h-0.156c-0.066,0-0.064,0.002-0.064,0.075
    L15.687,2.948L15.687,2.948z"/>
  <path fill="#999" d="M16.661,2.156c0-0.229-0.004-0.262-0.134-0.277l-0.035-0.004c-0.013-0.009-0.009-0.048,0.004-0.055
    c0.095,0.004,0.169,0.007,0.26,0.007h0.414c0.141,0,0.271,0,0.297-0.007c0.013,0.037,0.026,0.196,0.035,0.293
    c-0.009,0.013-0.044,0.018-0.055,0.004c-0.033-0.103-0.053-0.18-0.167-0.209c-0.046-0.011-0.117-0.013-0.213-0.013h-0.158
    c-0.066,0-0.066,0.004-0.066,0.088v0.44c0,0.062,0.007,0.062,0.073,0.062h0.128c0.092,0,0.161-0.004,0.187-0.013
    c0.026-0.009,0.042-0.022,0.053-0.077l0.018-0.09c0.011-0.013,0.048-0.013,0.057,0.002c0,0.053-0.009,0.139-0.009,0.222
    c0,0.079,0.009,0.163,0.009,0.211c-0.009,0.015-0.046,0.015-0.057,0.002l-0.02-0.086c-0.009-0.04-0.024-0.073-0.068-0.084
    c-0.031-0.009-0.084-0.011-0.169-0.011h-0.128c-0.066,0-0.073,0.002-0.073,0.059v0.31c0,0.117,0.007,0.191,0.042,0.229
    C16.91,3.186,16.956,3.21,17.15,3.21c0.169,0,0.233-0.009,0.282-0.033c0.04-0.022,0.099-0.099,0.156-0.213
    c0.015-0.011,0.046-0.004,0.055,0.015c-0.015,0.077-0.07,0.246-0.099,0.306c-0.198-0.004-0.394-0.007-0.59-0.007h-0.198
    c-0.095,0-0.169,0.002-0.299,0.007c-0.013-0.007-0.018-0.042-0.004-0.055l0.073-0.007c0.125-0.011,0.136-0.044,0.136-0.275
    L16.661,2.156L16.661,2.156z"/>
  <path fill="#999" d="M17.902,2.112c0-0.154-0.011-0.2-0.103-0.213L17.75,1.892c-0.018-0.011-0.02-0.046,0.002-0.055
    c0.187-0.011,0.365-0.018,0.552-0.018c0.185,0,0.341,0.013,0.484,0.066c0.297,0.108,0.447,0.359,0.447,0.649
    c0,0.279-0.134,0.519-0.385,0.656c-0.143,0.077-0.323,0.106-0.493,0.106c-0.141,0-0.282-0.018-0.359-0.018
    c-0.092,0-0.172,0.002-0.275,0.007c-0.013-0.007-0.018-0.042-0.004-0.055l0.051-0.007c0.128-0.018,0.132-0.044,0.132-0.275
    L17.902,2.112L17.902,2.112z M18.082,2.898c0,0.117,0.007,0.187,0.044,0.24c0.048,0.068,0.132,0.09,0.271,0.09
    c0.427,0,0.618-0.279,0.618-0.688c0-0.242-0.117-0.651-0.693-0.651c-0.13,0-0.2,0.018-0.218,0.031
    c-0.018,0.013-0.022,0.068-0.022,0.167L18.082,2.898L18.082,2.898z"/>
  <path fill="#999" d="M19.995,2.139c-0.001,0-0.001-0.001-0.002-0.001l-0.157-0.062c-0.003-0.001-0.006-0.001-0.009,0
    c-0.003,0.002-0.005,0.004-0.006,0.007c-0.001,0.004-0.087,0.379-0.132,0.45c-0.003,0.005-0.002,0.011,0.002,0.014l0.075,0.062
    c0.002,0.002,0.006,0.003,0.009,0.002c0.003-0.001,0.006-0.003,0.008-0.006C19.791,2.592,19.965,2.274,20,2.151
    C20.001,2.146,19.999,2.142,19.995,2.139z"/>
  <path fill="#999" d="M19.754,2.102c0-0.004-0.002-0.008-0.005-0.01c-0.001-0.001-0.003-0.001-0.004-0.002l-0.167-0.029
    c-0.003-0.001-0.006,0-0.009,0.002c-0.002,0.002-0.004,0.005-0.004,0.008c0,0.004-0.008,0.388-0.037,0.468
    c-0.002,0.005,0,0.011,0.005,0.014l0.086,0.045c0.003,0.002,0.006,0.002,0.009,0c0.003-0.001,0.005-0.004,0.006-0.007
    C19.64,2.577,19.745,2.23,19.754,2.102z"/>
  <path fill="#999" d="M9.424,2.132c0.001,0,0.001-0.001,0.002-0.001l0.157-0.062c0.003-0.001,0.006-0.001,0.009,0
    c0.003,0.002,0.005,0.004,0.006,0.007C9.599,2.08,9.685,2.455,9.73,2.527c0.003,0.005,0.002,0.011-0.002,0.014L9.652,2.603
    C9.65,2.605,9.646,2.606,9.643,2.605S9.637,2.602,9.635,2.6C9.628,2.586,9.454,2.268,9.42,2.145C9.418,2.14,9.42,2.135,9.424,2.132
    z"/>
  <path fill="#999" d="M9.665,2.096c0-0.004,0.002-0.008,0.005-0.01c0.001-0.001,0.003-0.001,0.004-0.002l0.167-0.029
    c0.003-0.001,0.006,0,0.009,0.002c0.002,0.002,0.004,0.005,0.004,0.008c0,0.004,0.008,0.388,0.037,0.468
    c0.002,0.005,0,0.011-0.005,0.014L9.799,2.592c-0.003,0.002-0.006,0.002-0.009,0C9.787,2.591,9.784,2.588,9.784,2.585
    C9.779,2.57,9.674,2.223,9.665,2.096z"/>
</a>
</svg>