<?xml version="1.0" standalone="no"?>
<!DOCTYPE svg PUBLIC "-//W3C//DTD SVG 1.1//EN" "http://www.w3.org/Graphics/SVG/1.1/DTD/svg11.dtd" >
<svg xmlns="http://www.w3.org/2000/svg">
<metadata>
This is a custom SVG webfont generated by Font Squirrel.
Designer    : M. Fahrenwaldt
Foundry URL : http://www.adobe.com/type
</metadata>
<defs>
<font id="webfontcWKQIcLk" horiz-adv-x="593" >
<font-face units-per-em="1000" ascent="796" descent="-204" />
<missing-glyph horiz-adv-x="296" />
<glyph unicode=" "  horiz-adv-x="296" />
<glyph unicode="&#x09;" horiz-adv-x="296" />
<glyph unicode="&#xa0;" horiz-adv-x="296" />
<glyph unicode="!" horiz-adv-x="315" d="M158 130q29 0 44.5 -21t15.5 -53t-15.5 -53t-44.5 -21t-44.5 21t-15.5 53t15.5 53t44.5 21zM176 194h-36q-4 184 -21.5 298.5t-40.5 147.5q7 22 35 58t44 36t44 -36t35 -58q-23 -33 -40 -148t-20 -298z" />
<glyph unicode="&#x22;" horiz-adv-x="333" d="M207 679q0 55 41 55t41 -55q0 -48 -19 -230q-3 -31 -22 -31t-22 31q-19 182 -19 230zM44 679q0 55 41 55t41 -55q0 -48 -19 -230q-3 -31 -22 -31t-22 31q-19 182 -19 230z" />
<glyph unicode="#" d="M518 279v-66h-101l-31 -213h-73l30 213h-121l-31 -213h-73l30 213h-102v66h112l20 138h-102v66h111l30 213h74l-30 -213h121l30 213h74l-31 -213h92v-66h-101l-20 -138h92zM373 417h-122l-20 -138h121z" />
<glyph unicode="$" d="M138 212l29 -21q-21 -27 -21 -57q0 -29 38 -57.5t87 -28.5h12v252q-82 30 -140 79.5t-58 120.5q0 84 58.5 139t139.5 55v77h40v-77q39 0 73 -15.5t56.5 -31t33.5 -15.5q1 0 16 3l19 -23q-36 -33 -80 -91l-27 15q7 13 7 30q0 34 -26 58.5t-72 25.5v-241q41 -19 63 -30.5 t53.5 -33t48 -42t29 -51.5t12.5 -68q0 -74 -66 -125.5t-140 -58.5v-85h-40v85q-41 0 -77.5 13t-57.5 28t-47 28t-48 13l-19 22q73 69 104 108zM323 288v-240q39 0 77.5 29.5t38.5 69.5q0 50 -31 81.5t-85 59.5zM283 425v225q-47 -2 -81.5 -28t-34.5 -73q0 -26 9.5 -46.5 t28.5 -35t35.5 -23t42.5 -19.5z" />
<glyph unicode="%" horiz-adv-x="796" d="M596 344q-78 0 -78 -158t78 -158t78 158t-78 158zM654 712l-443 -728h-63l443 728h63zM200 668q-78 0 -78 -158t78 -158t78 158t-78 158zM596 388q70 0 115 -54.5t45 -147.5t-45 -147.5t-115 -54.5t-115 54.5t-45 147.5t45 147.5t115 54.5zM200 712q70 0 115 -54.5 t45 -147.5t-45 -147.5t-115 -54.5t-115 54.5t-45 147.5t45 147.5t115 54.5z" />
<glyph unicode="&#x26;" horiz-adv-x="852" d="M810 452v-36q-46 -4 -71 -29t-35 -57.5t-38.5 -85.5t-72.5 -99q52 -87 114 -87q44 0 82 54l27 -16q-32 -55 -68.5 -86.5t-89.5 -31.5q-84 0 -146 95q-121 -95 -240 -95q-101 0 -158.5 48.5t-57.5 133.5q0 50 15 89t45.5 66.5t60 45t73.5 35.5q-48 54 -48 120 q0 64 52.5 111t118.5 47q52 0 93.5 -27.5t41.5 -76.5q0 -31 -17.5 -52.5t-48.5 -21.5q-47 0 -50 52q12 -4 17 -4q23 0 23 30q0 23 -19.5 40.5t-42.5 17.5q-38 0 -65 -26.5t-27 -65.5q0 -30 33 -68t77.5 -74t98.5 -96t86 -124q75 73 75 155q0 39 -23.5 58t-75.5 19v42 q22 0 67.5 -4t67.5 -4q32 0 72.5 4t53.5 4zM335 48q38 0 81.5 16.5t73.5 41.5q-21 34 -50.5 72.5t-49.5 61.5l-62 68l-56 60q-63 -32 -92.5 -67.5t-29.5 -90.5q0 -77 53 -119.5t132 -42.5z" />
<glyph unicode="'" horiz-adv-x="222" d="M70 679q0 55 41 55t41 -55q0 -48 -19 -230q-3 -31 -22 -31t-22 31q-19 182 -19 230z" />
<glyph unicode="(" horiz-adv-x="407" d="M282 752h41q-135 -220 -135 -492t135 -492h-41q-198 224 -198 492t198 492z" />
<glyph unicode=")" horiz-adv-x="407" d="M125 -232h-41q135 220 135 492t-135 492h41q198 -224 198 -492t-198 -492z" />
<glyph unicode="*" d="M82 622l5 23l95 7l39 -20q0 -44 35 -44q13 0 23 11t10 23q0 35 -35 35v41l32 98h21l32 -98v-41q-36 0 -36 -35q0 -12 10.5 -23t23.5 -11q35 0 35 44l39 20l95 -7l5 -23l-66 -57l-43 -9q-3 10 -13 17t-20 7q-16 0 -25.5 -10t-9.5 -26q0 -15 11.5 -25.5t27.5 -10.5 q10 0 17 4l22 -34l23 -88l-18 -14l-75 54l-21 34q14 10 14 30q0 15 -11 25t-26 10q-17 0 -28.5 -10t-11.5 -25q0 -20 14 -30l-21 -34l-75 -54l-18 14l23 88l22 34q7 -4 17 -4q16 0 27.5 10.5t11.5 25.5q0 16 -9.5 26t-25.5 10q-10 0 -20 -7t-13 -17l-43 9z" />
<glyph unicode="+" horiz-adv-x="600" d="M262 266v190h76v-190h190v-76h-190v-190h-76v190h-190v76h190z" />
<glyph unicode="," horiz-adv-x="296" d="M84 -154v36q27 5 46.5 38t19.5 61q0 2 -0.5 6.5t-0.5 7.5q-1 -1 -4 -2t-5 -2q-1 0 -4 -0.5t-5 -0.5q-23 0 -36 17.5t-13 41.5q0 31 15 56t44 25q67 0 67 -102q0 -59 -34.5 -115.5t-89.5 -66.5z" />
<glyph unicode="-" horiz-adv-x="352" d="M42 179v98h268v-98h-268z" />
<glyph unicode="." horiz-adv-x="296" d="M148 130q29 0 44.5 -21t15.5 -53t-15.5 -53t-44.5 -21t-44.5 21t-15.5 53t15.5 53t44.5 21z" />
<glyph unicode="/" horiz-adv-x="315" d="M337 734l-283 -756h-76l283 756h76z" />
<glyph unicode="0" d="M162 348q0 -320 134 -320t134 320t-134 320t-134 -320zM42 348q0 160 71.5 262t182.5 102t182.5 -102t71.5 -262t-71.5 -262t-182.5 -102t-182.5 102t-71.5 262z" />
<glyph unicode="1" d="M126 583v41q61 12 126.5 38t104.5 60h33q-19 -80 -19 -199v-295q0 -89 12.5 -131t37 -54.5t78.5 -12.5v-40q-150 10 -180 10q-47 0 -175 -10v40q74 0 98.5 29.5t24.5 114.5v337q0 49 -9 69t-33 20q-45 0 -99 -17z" />
<glyph unicode="2" d="M190 96h242q39 0 74 56l30 -12q-7 -26 -38 -80.5t-36 -87.5q-35 28 -96 28h-220q-59 0 -114 -22h-2l-9 32q226 177 298.5 264.5t72.5 191.5q0 70 -45.5 126t-112.5 56q-55 0 -91.5 -29.5t-36.5 -70.5q0 -30 21 -40q-8 -28 -41 -28q-21 0 -36.5 18t-15.5 43 q0 72 69.5 121.5t156.5 49.5q111 0 181.5 -60t70.5 -157q0 -34 -9 -67.5t-22.5 -60t-37 -55.5t-43.5 -49.5t-52.5 -46.5t-53.5 -41l-55 -40l-51 -37z" />
<glyph unicode="3" d="M193 355l-5 43q72 3 128 37t56 101q0 54 -36 87t-91 33q-44 0 -77.5 -29.5t-33.5 -66.5q0 -21 18 -30q-4 -9 -15.5 -15.5t-22.5 -6.5q-21 0 -36.5 14.5t-15.5 35.5q0 64 63 109t159 45q95 0 147.5 -44t52.5 -110q0 -133 -158 -160v-2q81 0 140.5 -47.5t59.5 -136.5 q0 -97 -83 -162.5t-209 -65.5q-94 0 -144 31.5t-50 82.5q0 24 13.5 40t36.5 16q15 0 32 -12q-10 -14 -10 -33q0 -25 32.5 -50t89.5 -25q69 0 120.5 42t51.5 107q0 177 -179 177q-7 0 -34 -5z" />
<glyph unicode="4" d="M532 269v-120q-13 21 -76 21v-50q0 -43 7 -67t29 -49l-5 -14q-19 10 -82 10t-82 -10l-7 14q22 24 29 48t7 68v50h-238q-27 0 -90 -9v14q0 7 1.5 14t3.5 12.5t7 12.5l8 12q3 5 11 15.5t12 16.5l204 276l32 43l34 45q13 18 29.5 43t29.5 47h76q-1 -4 -8.5 -51t-7.5 -71 v-344q61 0 76 23zM119 246h233v320h-4z" />
<glyph unicode="5" d="M104 720h42q16 -14 39 -19t86 -5q150 0 207 46q-5 -142 -194 -142q-90 0 -124 16v-182q68 46 146 46q95 0 160.5 -66.5t65.5 -157.5q0 -126 -92.5 -199t-221.5 -73q-82 0 -129 33t-47 77q0 26 16.5 44t44.5 18q14 0 21 -12q-10 -17 -10 -35q0 -37 31 -59t80 -22 q82 0 134.5 62t52.5 148q0 76 -42 123t-106 47q-81 0 -128 -64l-32 21q12 37 12 181q0 111 -12 174z" />
<glyph unicode="6" d="M448 168q0 86 -42 156t-114 70q-49 0 -87.5 -37.5t-38.5 -103.5q0 -52 17.5 -101.5t55 -84.5t86.5 -35q60 0 91.5 38t31.5 98zM552 214q0 -100 -68 -165t-184 -65q-83 0 -142.5 48t-85.5 117t-26 148q0 86 32 164.5t82.5 132.5t112.5 86t123 32q47 0 76.5 -17.5 t29.5 -47.5q0 -19 -12.5 -32t-29.5 -13q-10 0 -10 14q0 21 -20 32.5t-43 11.5q-95 0 -164 -94t-69 -192h2q29 37 74.5 59.5t98.5 22.5q90 0 156.5 -65t66.5 -177z" />
<glyph unicode="7" d="M564 712l23 -27q-21 -15 -78 -117l-316 -590h-64l302 622h-220q-55 0 -79 -19t-24 -75h-36q-4 28 -4 44q0 18 2 51.5t2 46.5q0 14 -10 74q15 0 69 -13q61 -13 94 -13h227q58 0 112 16z" />
<glyph unicode="8" d="M70 517q0 90 68 142.5t160 52.5q94 0 153 -46t59 -128q0 -55 -33.5 -90t-83.5 -51q157 -66 157 -194q0 -101 -79 -160t-181 -59q-60 0 -114 18.5t-93 63.5t-39 110q0 56 39 107.5t109 72.5v1q-57 30 -89.5 67t-32.5 93zM164 561q0 -22 11 -41t23 -31t39 -26t40 -19.5 t45 -16.5t36 -13q80 39 80 114q0 140 -150 140q-56 0 -90 -30t-34 -77zM446 154q0 29 -10.5 53t-25.5 39.5t-40.5 30t-44.5 21.5l-51 20l-46 18q-112 -58 -112 -157q0 -69 48.5 -110t119.5 -41q67 0 114.5 33.5t47.5 92.5z" />
<glyph unicode="9" d="M431 443q0 76 -45.5 148.5t-117.5 72.5q-64 0 -95.5 -45.5t-31.5 -106.5q0 -85 41.5 -151.5t114.5 -66.5q66 0 100 41t34 108zM545 399q0 -180 -100 -297.5t-241 -117.5q-56 0 -86.5 17.5t-30.5 47.5q0 18 14 31.5t32 13.5q10 0 10 -14q0 -20 22.5 -32t56.5 -12 q86 0 147 84.5t61 187.5h-2q-21 -32 -71.5 -54t-104.5 -22q-88 0 -151.5 65t-63.5 162q0 113 68 183t179 70q84 0 145 -48t88.5 -117.5t27.5 -147.5z" />
<glyph unicode=":" horiz-adv-x="296" d="M148 458q29 0 44.5 -21t15.5 -53t-15.5 -53t-44.5 -21t-44.5 21t-15.5 53t15.5 53t44.5 21zM148 130q29 0 44.5 -21t15.5 -53t-15.5 -53t-44.5 -21t-44.5 21t-15.5 53t15.5 53t44.5 21z" />
<glyph unicode=";" horiz-adv-x="296" d="M148 458q29 0 44.5 -21t15.5 -53t-15.5 -53t-44.5 -21t-44.5 21t-15.5 53t15.5 53t44.5 21zM84 -154v36q27 5 46.5 38t19.5 61q0 2 -0.5 6.5t-0.5 7.5q-1 -1 -4 -2t-5 -2q-1 0 -4 -0.5t-5 -0.5q-23 0 -36 17.5t-13 41.5q0 31 15 56t44 25q67 0 67 -102 q0 -59 -34.5 -115.5t-89.5 -66.5z" />
<glyph unicode="&#x3c;" horiz-adv-x="600" d="M528 67v-75l-456 204v64l456 204v-75l-361 -161z" />
<glyph unicode="=" horiz-adv-x="600" d="M528 358v-76h-456v76h456zM528 174v-76h-456v76h456z" />
<glyph unicode="&#x3e;" horiz-adv-x="600" d="M72 -8v75l361 161l-361 161v75l456 -204v-64z" />
<glyph unicode="?" horiz-adv-x="407" d="M194 130q29 0 44.5 -21t15.5 -53t-15.5 -53t-44.5 -21t-44.5 21t-15.5 53t15.5 53t44.5 21zM219 200l-41 -9q-6 19 -50 89t-44 93q0 21 23 39t55.5 33t65 32t55.5 43t23 59q0 43 -31 73t-74 30q-26 0 -46.5 -13t-20.5 -38q0 -11 5 -23q-7 -10 -31 -10q-21 0 -35.5 14.5 t-14.5 35.5q0 47 37 66.5t88 19.5q80 0 131.5 -59.5t51.5 -140.5q0 -41 -19.5 -73.5t-47.5 -52.5t-56 -36t-47.5 -31.5t-19.5 -31.5q0 -18 15 -54.5t28 -54.5z" />
<glyph unicode="@" horiz-adv-x="800" d="M331 295q0 -44 17.5 -67t43.5 -23q43 0 84.5 71t41.5 152q0 70 -46 70q-45 0 -93 -59t-48 -144zM537 497l12 42h77l-63 -258q-8 -34 -8 -40q0 -49 39 -49q54 0 92 71t38 147q0 64 -34.5 126t-106 106t-162.5 44q-123 0 -210 -93t-87 -265q0 -120 89 -207t218 -87 q110 0 217 51l13 -42q-128 -65 -229 -65q-102 0 -184 35.5t-130 90.5t-73 116t-25 119q0 173 117 284t284 111q152 0 255.5 -92.5t103.5 -230.5q0 -58 -22.5 -116.5t-70.5 -101.5t-110 -43q-47 0 -73 30t-25 49h-2q-14 -23 -49 -51t-77 -28q-16 0 -31.5 5.5t-33.5 18.5 t-29.5 42t-11.5 70q0 26 8 60t26 70.5t42.5 67t61 50.5t78.5 20q9 0 17.5 -1.5t14 -3.5t11.5 -6.5t9 -7t7.5 -9.5t6 -9t5.5 -10.5t5 -9.5z" />
<glyph unicode="A" horiz-adv-x="759" d="M466 338l-106 286l-117 -286q72 -4 107 -4q38 0 116 4zM-24 -10v42q76 0 128 122q1 2 26 57l55 119l61 136q31 70 51.5 121.5t20.5 62.5q0 30 -36 30v42q68 0 113 18t79 18q-12 -21 -12 -48q0 -38 18 -86l191 -493q38 -99 112 -99v-42q-11 1 -53.5 5.5t-106.5 4.5 q-65 0 -108 -4l-53 -6v42q89 0 89 59q0 17 -3.5 31.5t-9.5 27.5l-22 52l-31 78q-59 6 -172 6q-36 0 -93 -6l-29 -70l-21 -50q-7 -14 -11.5 -30.5t-4.5 -32.5q0 -26 25 -45.5t71 -19.5v-42l-45 6q-37 4 -92 4t-92 -4z" />
<glyph unicode="B" horiz-adv-x="741" d="M260 359v-201q0 -71 27.5 -95.5t95.5 -24.5q92 0 135.5 45t43.5 105q0 81 -58 128.5t-160 48.5q-12 0 -84 -6zM140 160v392q0 73 -18.5 98t-71.5 30v42q21 0 54.5 -5t55.5 -5q20 0 90 5t142 5q123 0 190 -46t67 -120q0 -57 -44 -102t-119 -56v-2q83 -7 144.5 -58.5 t61.5 -129.5q0 -38 -15 -74t-47.5 -69.5t-93.5 -54t-144 -20.5q-30 0 -92 5t-106 5q-56 0 -144 -10v42q53 5 71.5 30t18.5 98zM260 661v-244q42 -4 70 -4q102 -1 145.5 29.5t43.5 94.5q0 137 -173 137q-34 0 -86 -13z" />
<glyph unicode="C" horiz-adv-x="833" d="M710 502h-36q0 106 -56 145t-158 39q-132 0 -213 -91.5t-81 -238.5t83.5 -238.5t218.5 -91.5q193 0 256 144h36q-3 -19 -26.5 -86t-23.5 -106q-19 13 -36 17q-14 5 -34 5q-22 0 -81 -11q-68 -11 -129 -11q-188 0 -291 102t-103 262q0 166 112 279t288 113q93 0 161 -19 q11 -3 29.5 -8.5t29.5 -8t21 -2.5q36 0 65 16q-21 -84 -32 -210z" />
<glyph unicode="D" horiz-adv-x="889" d="M258 663v-488q0 -81 32 -109t110 -28q142 0 230.5 88.5t88.5 221.5q0 146 -93 236t-254 90q-22 0 -41 -1.5t-40.5 -5t-32.5 -4.5zM138 160v392q0 73 -18 98t-70 30v42q23 0 70.5 -5t78.5 -5t107 5t136 5q189 0 298 -98.5t109 -265.5q0 -154 -123.5 -261t-311.5 -107 q-56 0 -121 5t-99 5q-54 0 -144 -10v42q52 5 70 30t18 98z" />
<glyph unicode="E" horiz-adv-x="722" d="M140 160v392q0 73 -18.5 98t-71.5 30v42h2q49 0 136 -5q130 -5 216 -5q122 0 164.5 3t81.5 19q-4 -16 -5.5 -86t-6.5 -85h-30q0 59 -43 80t-169 21q-64 0 -136 -8v-266q94 -4 116 -4q90 0 123 21.5t35 70.5h36q-8 -60 -8 -116t8 -116h-36q-2 49 -35 70.5t-123 21.5 q-22 0 -116 -4v-176q0 -70 27.5 -90t104.5 -20q254 0 254 141h36q0 -35 -11 -92.5t-11 -118.5q-40 17 -94 19q-50 3 -292 3q-129 0 -181 -5q-13 -1 -22.5 -2t-13.5 -2t-5 -1h-2v42q53 5 71.5 30t18.5 98z" />
<glyph unicode="F" horiz-adv-x="685" d="M140 160v392q0 73 -18.5 98t-71.5 30v42h2q6 0 83 -5q113 -5 241 -5q78 0 117.5 0.5t87.5 6t69 15.5q-4 -16 -5.5 -86t-6.5 -85h-30q0 59 -43 80t-169 21q-64 0 -136 -8v-266q94 -4 122 -4q90 0 123 21.5t35 70.5h36q-8 -60 -8 -116t8 -116h-36q-2 49 -35 70.5t-123 21.5 q-28 0 -122 -4v-174q0 -77 24 -102.5t102 -25.5v-42q-130 10 -198 10q-48 0 -138 -10v42q53 5 71.5 30t18.5 98z" />
<glyph unicode="G" horiz-adv-x="889" d="M746 512h-36q0 48 -19 83t-52.5 54t-71.5 28t-83 9q-139 0 -223.5 -93t-84.5 -255q0 -137 80 -224.5t210 -87.5q200 0 200 154q0 55 -24 74.5t-77 21.5v36q17 -1 70 -4.5t82 -3.5q26 0 72.5 3.5t61.5 4.5v-36q-87 -3 -87 -114q0 -50 11 -66.5t43 -19.5v-26 q-36 0 -67.5 -5.5t-50 -11.5t-53.5 -19q-34 -13 -55 -19.5t-54.5 -11.5t-73.5 -5q-107 0 -189 28.5t-131 78t-73.5 111t-24.5 132.5q0 175 119.5 290.5t298.5 115.5q70 0 118 -9t74 -18t42 -9q27 0 74 14q-11 -15 -16 -54.5t-6.5 -86.5t-3.5 -59z" />
<glyph unicode="H" horiz-adv-x="907" d="M260 552v-154q90 -4 193 -4t193 4v154q0 73 -18.5 98t-71.5 30v42q13 0 69.5 -5t80.5 -5t80.5 5t69.5 5v-42q-53 -5 -71.5 -30t-18.5 -98v-392q0 -73 18.5 -98t71.5 -30v-42q-10 1 -50 5.5t-100 4.5t-100 -4.5t-50 -5.5v42q53 5 71.5 30t18.5 98v176q-90 4 -193 4 t-193 -4v-176q0 -73 18.5 -98t71.5 -30v-42q-10 1 -50 5.5t-100 4.5t-100 -4.5t-50 -5.5v42q53 5 71.5 30t18.5 98v392q0 73 -18.5 98t-71.5 30v42q13 0 69.5 -5t80.5 -5t80.5 5t69.5 5v-42q-53 -5 -71.5 -30t-18.5 -98z" />
<glyph unicode="I" horiz-adv-x="407" d="M143 160v392q0 73 -18.5 98t-71.5 30v42q13 0 69.5 -5t80.5 -5t80.5 5t69.5 5v-42q-53 -5 -71.5 -30t-18.5 -98v-392q0 -73 18.5 -98t71.5 -30v-42q-10 1 -50 5.5t-100 4.5t-100 -4.5t-50 -5.5v42q53 5 71.5 30t18.5 98z" />
<glyph unicode="J" horiz-adv-x="407" d="M369 722v-42q-55 0 -74 -26t-19 -100v-454q0 -71 -20 -131.5t-49 -98t-63 -64.5t-60.5 -38.5t-42.5 -11.5q-29 0 -51 18t-22 46q0 19 13.5 31.5t31.5 12.5q22 0 44.5 -22t31.5 -22q18 0 33 24t24.5 82.5t9.5 145.5v482q0 66 -25 96t-93 30v42q52 0 111.5 -5t78.5 -5 q26 0 76 5t65 5z" />
<glyph unicode="K" horiz-adv-x="778" d="M260 364l234 208q56 51 56 72q0 19 -14.5 27.5t-48.5 8.5v42q12 0 62.5 -5t72.5 -5q21 0 71.5 5t62.5 5v-42q-74 0 -143 -62l-227 -204l233 -277q43 -51 91 -78t78 -27v-42l-52 6q-43 4 -106 4t-106 -4l-52 -6v42q46 0 46 28q0 3 -1 7t-4.5 9.5t-6.5 9.5l-9 12l-10 13 l-13 15l-13 16l-159 192l-42 -37v-137q0 -73 18.5 -98t71.5 -30v-42q-10 1 -50 5.5t-100 4.5t-100 -4.5t-50 -5.5v42q53 5 71.5 30t18.5 98v392q0 73 -18.5 98t-71.5 30v42q13 0 69.5 -5t80.5 -5t80.5 5t69.5 5v-42q-53 -5 -71.5 -30t-18.5 -98v-188z" />
<glyph unicode="L" horiz-adv-x="685" d="M140 160v392q0 73 -18.5 98t-71.5 30v42q13 0 69.5 -5t80.5 -5t80.5 5t69.5 5v-42q-53 -5 -71.5 -30t-18.5 -98v-394q0 -69 29.5 -89.5t102.5 -20.5q32 0 59 3t47.5 7t38.5 13t29 15t22 20l18 22q5 7 12 26l10 24q3 7 10 28h36q0 -20 -21 -102t-21 -126q-49 17 -89 19 q-37 3 -188 3q-179 0 -247 -5q-14 -1 -24 -2l-16 -1q-6 -1 -10 -1.5t-6 -0.5h-2v42q53 5 71.5 30t18.5 98z" />
<glyph unicode="M" horiz-adv-x="1037" d="M36 -10v42q49 0 70 31t31 111q20 162 20 355q0 84 -21.5 117.5t-71.5 33.5v42q88 -10 117 -10q15 0 80 10q0 -48 50 -125l220 -363l216 376q32 58 32 112q70 -10 88 -10q31 0 119 10v-42q-56 0 -75.5 -26t-19.5 -100l1 -396q0 -69 25.5 -97.5t73.5 -28.5v-42 q-10 1 -50.5 5.5t-101.5 4.5t-102 -4.5t-51 -5.5v42q47 0 66 27t19 99v388h-2l-71 -128q-57 -102 -79 -145t-58 -123t-58 -150h-23q-23 89 -65 175.5t-113 204t-95 160.5h-2q-1 -31 -4.5 -107.5t-5.5 -142t-2 -134.5q0 -68 29 -96t81 -28v-42q-9 1 -44.5 5.5t-88.5 4.5 q-54 0 -90 -4z" />
<glyph unicode="N" horiz-adv-x="889" d="M36 680v42q72 -10 122 -10q22 0 69 10q7 -33 62 -90l416 -432v312q0 97 -26 132.5t-83 35.5v42q11 0 58.5 -5t68.5 -5q19 0 68 5t62 5v-42q-53 0 -76.5 -35.5t-23.5 -132.5v-380q0 -38 2 -86t2 -68h-26l-538 578v-356q0 -99 26.5 -133.5t93.5 -34.5v-42q-9 1 -46 5.5 t-92 4.5q-56 0 -93 -4.5t-46 -5.5v42q57 0 83 35.5t26 132.5v329q0 80 -32.5 115.5t-76.5 35.5z" />
<glyph unicode="O" horiz-adv-x="889" d="M715 308q0 101 -31.5 185t-101 138.5t-166.5 54.5q-106 0 -174 -82.5t-68 -199.5q0 -101 31.5 -185t101 -138.5t166.5 -54.5q106 0 174 82.5t68 199.5zM44 340q0 175 114.5 284.5t286.5 109.5q174 0 287 -103t113 -271q0 -160 -114.5 -271t-308.5 -111 q-161 0 -269.5 102.5t-108.5 259.5z" />
<glyph unicode="P" horiz-adv-x="685" d="M286 344v42q48 -26 90 -26q68 0 105 38t37 106q0 76 -46 123t-126 47q-50 0 -86 -10v-504q0 -74 23.5 -101t82.5 -27v-42l-52 6q-43 4 -106 4t-106 -4l-52 -6v42q53 5 71.5 30t18.5 98v392q0 73 -18.5 98t-71.5 30v42q122 -10 147 -10q31 0 93 5t102 5q122 0 189 -56.5 t67 -142.5q0 -92 -66 -154.5t-164 -62.5q-94 0 -132 38z" />
<glyph unicode="Q" horiz-adv-x="889" d="M715 308q0 101 -31.5 185t-101 138.5t-166.5 54.5q-106 0 -174 -82.5t-68 -199.5q0 -101 31.5 -185t101 -138.5t166.5 -54.5q106 0 174 82.5t68 199.5zM840 -146l16 -30q-71 -68 -184 -68q-55 0 -108.5 20t-92.5 48t-72 56t-59 48t-42 20q-14 0 -50 -12l-12 38 q34 16 74 18v4q-102 15 -184 117.5t-82 226.5q0 172 115 283t288 111q169 0 283.5 -102t114.5 -256q0 -188 -120 -293t-329 -105v-2q47 -11 100 -36t91 -47t85.5 -39.5t88.5 -17.5q39 0 79 18z" />
<glyph unicode="R" horiz-adv-x="741" d="M260 664v-288h84q91 0 140 38.5t49 101.5q0 77 -50.5 117.5t-144.5 40.5q-28 0 -78 -10zM140 160v392q0 73 -18.5 98t-71.5 30v42q19 0 58.5 -5t66.5 -5q38 0 99 5t124 5q129 0 197 -48t68 -128q0 -45 -19 -82t-50 -60t-56.5 -35.5t-50.5 -20.5l29 -66q22 -48 34.5 -73 t37 -66t46.5 -65t55.5 -48t70.5 -36v-36q-265 7 -393 370h-107v-170q0 -69 20.5 -97.5t77.5 -28.5v-42l-50 6q-42 4 -104 4t-104 -4l-50 -6v42q53 5 71.5 30t18.5 98z" />
<glyph unicode="S" horiz-adv-x="611" d="M506 548h-36q0 72 -43 108t-123 36q-57 0 -92.5 -32t-35.5 -74q0 -44 38.5 -78.5t93.5 -59.5l108 -54q55 -28 93.5 -74t38.5 -106q0 -96 -70.5 -166t-199.5 -70q-32 0 -86 9q-41 9 -72 9q-26 0 -78 -13q15 23 21 65.5t7.5 94t3.5 65.5h36v-16q0 -67 44 -116.5t129 -49.5 q63 0 113 32.5t50 87.5q0 37 -20 66.5t-52 50t-71 39.5l-78 40q-39 20 -71 44.5t-52 62.5t-20 85q0 92 60 146t160 54q60 0 100 -10t50 -10q22 0 42 8q22 8 33 8q-12 -25 -14 -94t-7 -88z" />
<glyph unicode="T" horiz-adv-x="630" d="M487 32v-42q-11 1 -57 5.5t-115 4.5t-115 -4.5t-57 -5.5v42q66 0 89 30.5t23 97.5v502q-9 0 -26.5 1t-25.5 1q-94 0 -132.5 -24t-38.5 -82h-36q1 38 11.5 87.5t10.5 80.5q0 6 -2 16t-2 14q13 0 28.5 -11t40.5 -22t62 -11h340q37 0 62 11t40.5 22t28.5 11q0 -4 -2 -14 t-2 -16q0 -31 10.5 -80.5t11.5 -87.5h-36q0 58 -38.5 82t-132.5 24q-8 0 -25.5 -1t-26.5 -1v-502q0 -67 23 -97.5t89 -30.5z" />
<glyph unicode="U" horiz-adv-x="870" d="M15 680v42q15 0 76.5 -5t87.5 -5t87.5 5t76.5 5v-42q-56 0 -77 -29.5t-21 -96.5v-236q0 -135 64 -204.5t167 -69.5q110 0 166.5 78t56.5 224v166q0 99 -29 133.5t-100 34.5v42q13 0 66.5 -5t76.5 -5q22 0 76 5t66 5v-42q-58 0 -83 -35t-25 -133v-146q0 -87 -15 -153.5 t-50 -121.5t-99.5 -84t-156.5 -29q-140 0 -220.5 83.5t-80.5 236.5v256q0 75 -21.5 100.5t-88.5 25.5z" />
<glyph unicode="V" horiz-adv-x="704" d="M301 722v-42q-48 0 -67.5 -13t-19.5 -45q0 -10 1.5 -19.5t7 -27t12.5 -35.5l23 -55l32 -76l45 -108l58 -142l71 174l52 122l31 74q14 35 18.5 53t4.5 35q0 31 -18.5 47t-66.5 16v42q11 0 55.5 -5t62.5 -5q19 0 63.5 5t55.5 5v-42q-35 0 -58 -24.5t-44 -79.5 q-17 -43 -76 -178l-106 -254q-48 -117 -60 -166h-48q-58 163 -94 252l-133 321q-34 81 -57.5 105t-63.5 24v42q14 0 74 -5t85 -5t85.5 5t74.5 5z" />
<glyph unicode="W" horiz-adv-x="1000" d="M273 722v-42q-75 0 -75 -42q0 -13 2.5 -26.5t13.5 -45.5l23 -68l41 -123l60 -181h2l142 353q-15 81 -42 107t-74 26v42q13 0 66.5 -5t76.5 -5q22 0 76 5t66 5v-42q-43 0 -55 -8.5t-12 -33.5q0 -22 3 -41t14 -54.5t23 -70.5l42 -116l56 -167h2l36 95l30 79l24 63l19 50 l15 38l10.5 30.5t6.5 21.5t4.5 18t2 13t0.5 13q0 37 -23.5 53.5t-80.5 16.5v42q12 0 60 -5t69 -5t69 5t60 5v-42q-23 0 -37.5 -8.5t-20.5 -17t-20 -34.5q-41 -76 -132.5 -314t-113.5 -328h-42q-44 174 -156 494l-48 -117l-52 -127q-20 -49 -44.5 -119t-39.5 -131h-44 l-48 158l-50 168q-19 65 -48 149t-56 149q-19 45 -41.5 61.5t-58.5 16.5v42q13 0 69.5 -5t80.5 -5q23 0 79.5 5t69.5 5z" />
<glyph unicode="X" horiz-adv-x="759" d="M743 722v-42q-44 0 -77.5 -21.5t-68.5 -66.5l-163 -207l185 -266q61 -87 137 -87v-42q-11 1 -54.5 5.5t-108.5 4.5q-66 0 -110 -4l-54 -6v42q41 0 56 7.5t15 26.5q0 17 -25 56.5t-124 174.5q-128 -153 -145 -180q-16 -25 -16 -41q0 -44 79 -44v-42q-9 1 -47 5.5t-95 4.5 t-95 -4.5t-47 -5.5v42q76 0 135 68l203 238l-170 252q-26 39 -66 64.5t-79 25.5v42q14 0 75 -5t87 -5t87 5t75 5v-42q-72 0 -72 -32q0 -7 3 -14.5t15 -24.5l24 -35l44 -62l61 -86q66 81 100.5 129t42.5 64t8 27q0 17 -13 25.5t-53 8.5v42q11 0 58.5 -5t67.5 -5q19 0 66.5 5 t58.5 5z" />
<glyph unicode="Y" horiz-adv-x="667" d="M690 722v-42q-68 0 -126 -93l-163 -260v-169q0 -75 22.5 -100.5t91.5 -25.5v-42q-12 1 -57.5 5.5t-113.5 4.5t-113.5 -4.5t-57.5 -5.5v42q65 0 86.5 26t21.5 100v133l-152 277q-36 67 -68 89.5t-85 22.5v42q14 0 75 -5t87 -5q25 0 86 5t75 5v-42q-66 0 -66 -36 q0 -19 21 -58.5t102 -176.5l20 -34l41 63l33 51l24 39l20 30q6 10 12.5 22.5t9 18t4.5 13.5t2.5 13.5t0.5 13.5q0 20 -17 30.5t-61 10.5v42q11 0 57.5 -5t65.5 -5t65 5t57 5z" />
<glyph unicode="Z" horiz-adv-x="704" d="M185 48h269q177 0 188 149h34q2 -10 2 -30q0 -29 -14 -88t-14 -89q0 -3 1 -10.5t1 -11.5q-46 23 -95.5 27.5t-252.5 4.5q-185 0 -250 -5q-14 -1 -24 -2t-14.5 -1.5t-7.5 -1t-4 -0.5h-2v40q29 24 62.5 62.5t51.5 61.5l54 75l316 435h-246q-76 0 -109 -26t-33 -88h-34 q0 4 -1 12t-1 12q0 44 9 82t9 53q0 11 -2 25t-2 20q12 -4 27 -13t26 -14.5t42 -10t78 -4.5q168 0 318 5q102 5 106 5h2v-28q-69 -63 -147 -169z" />
<glyph unicode="[" horiz-adv-x="407" d="M322 -184v-36h-219q1 30 3.5 84t4 98t1.5 84v428q0 40 -1.5 84t-4 98t-3.5 84h219v-36q-73 0 -98.5 -26.5t-25.5 -98.5v-638q0 -72 25.5 -98.5t98.5 -26.5z" />
<glyph unicode="\" horiz-adv-x="278" d="M-69 734h75l342 -756h-75z" />
<glyph unicode="]" horiz-adv-x="407" d="M85 704v36h219q-1 -30 -3.5 -84t-4 -98t-1.5 -84v-428q0 -40 1.5 -84t4 -98t3.5 -84h-219v36q73 0 98.5 26.5t25.5 98.5v638q0 72 -25.5 98.5t-98.5 26.5z" />
<glyph unicode="^" horiz-adv-x="600" d="M166 331h-82l180 365h72l180 -365h-83l-133 277z" />
<glyph unicode="_" horiz-adv-x="500" d="M500 -125h-500v50h500v-50z" />
<glyph unicode="`" horiz-adv-x="296" d="M226 522h-52l-150 94q-34 21 -34 46q0 16 12.5 27t32.5 11q8 0 15 -1.5t11.5 -3.5t10.5 -7l9 -8q3 -2 10 -10.5t11 -12.5z" />
<glyph unicode="a" horiz-adv-x="519" d="M320 188v44q-27 -4 -54.5 -12.5t-57 -23t-48 -37.5t-18.5 -51q0 -30 17.5 -47t47.5 -17q52 0 82.5 40.5t30.5 103.5zM486 74l16 -24q-18 -28 -54 -48t-68 -20q-26 0 -43 20t-23 49q-33 -30 -81 -49.5t-93 -19.5q-47 0 -79.5 25t-32.5 71q0 44 31 81t79 60t94 37t88 20v48 q0 44 -23.5 66t-58.5 22q-49 0 -78.5 -16.5t-29.5 -38.5q0 -15 11 -32l-25 -21q-6 7 -17 22t-20 26t-17 18q42 47 100.5 75.5t118.5 28.5q143 0 143 -157q0 -35 -6 -104t-6 -104q0 -57 32 -57q20 0 42 22z" />
<glyph unicode="b" d="M194 370v-210q0 -142 105 -142q68 0 107 54t39 132q0 85 -41.5 146.5t-111.5 61.5q-48 0 -98 -42zM35 -18v38q34 15 44.5 39t10.5 85v404q0 86 -13 118t-56 32v36q49 5 92.5 22.5t56.5 39.5h32q-8 -28 -8 -122v-261q64 61 140 61q96 0 160.5 -65t64.5 -157 q0 -113 -77.5 -191.5t-186.5 -78.5q-46 0 -93.5 9t-68.5 9q-51 0 -98 -18z" />
<glyph unicode="c" horiz-adv-x="500" d="M454 129l23 -25q-83 -122 -226 -122q-90 0 -153.5 60.5t-63.5 151.5q0 119 77.5 199.5t193.5 80.5q46 0 84.5 -17.5t38.5 -53.5q0 -49 -42 -49q-24 0 -58 35t-60 35q-62 0 -104 -47.5t-42 -118.5q0 -76 59 -134t141 -58q80 0 132 63z" />
<glyph unicode="d" d="M566 28v-36q-67 0 -132 -10q-28 28 -40 65q-67 -65 -144 -65q-95 0 -155.5 67t-60.5 164q0 103 69.5 182t157.5 79q76 0 139 -36v110q0 86 -13 118t-56 32v36q49 5 92.5 22.5t56.5 39.5h32q-8 -28 -8 -122v-528q0 -66 11.5 -89t50.5 -29zM400 200v188q-15 14 -42.5 25 t-53.5 11q-74 0 -115 -53.5t-41 -137.5q0 -66 39 -127.5t98 -61.5q62 0 88.5 45t26.5 111z" />
<glyph unicode="e" horiz-adv-x="519" d="M468 262h-330v-36q0 -61 49.5 -110.5t126.5 -49.5q37 0 75 20.5t65 54.5l25 -19q-75 -140 -212 -140q-106 0 -169.5 63t-63.5 163q0 110 71.5 188t183.5 78q169 0 179 -212zM140 306h224q0 52 -28 85t-76 33t-80.5 -36t-39.5 -82z" />
<glyph unicode="f" horiz-adv-x="352" d="M211 556v-100h105v-48h-105v-268q0 -65 22.5 -86t80.5 -26v-36q-9 0 -34 2.5t-56 4t-74 1.5q-23 0 -65 -3.5t-55 -4.5v36q34 4 55.5 27t21.5 85v268h-71v48h71v32q0 134 70 221t168 87q36 0 59 -16.5t23 -45.5q0 -20 -14 -34t-34 -14q-21 0 -50 22t-42 22q-76 0 -76 -174 z" />
<glyph unicode="g" horiz-adv-x="537" d="M128 -123q0 -77 128 -77q82 0 131 29.5t49 76.5q0 26 -36.5 44t-98.5 18q-84 0 -128.5 -24.5t-44.5 -66.5zM545 460l-19 -86q-13 -8 -36 -8t-44 9l-2 -2q10 -26 10 -62q0 -49 -19.5 -82.5t-49.5 -48.5t-64 -25.5t-64 -15.5t-49.5 -16.5t-19.5 -30.5q0 -22 35 -26.5 t85.5 -3t101 -3.5t85.5 -37.5t35 -95.5q0 -75 -84 -122.5t-208 -47.5q-93 0 -144.5 29.5t-51.5 73.5q0 24 11 43.5t33 33.5t39 22t44 17v2q-42 4 -72.5 29.5t-30.5 65.5q0 4 2 18q57 0 120 55q-56 6 -99 49t-43 98q0 74 55 128t147 54q56 0 122.5 -22t79.5 -22q47 0 62 30 h33zM350 287q0 52 -26.5 97.5t-81.5 45.5q-38 0 -60 -29.5t-22 -72.5q0 -57 26 -101t82 -44q36 0 59 31.5t23 72.5z" />
<glyph unicode="h" d="M195 346v-234q0 -47 16 -63t53 -21v-36q-14 1 -56.5 4.5t-65.5 3.5t-65 -3.5t-55 -4.5v36q36 2 52.5 19t16.5 65v436q0 86 -13 118t-56 32v36q49 5 92.5 22.5t56.5 39.5h32q-8 -28 -8 -122v-272q87 72 161 72q77 0 114.5 -52.5t37.5 -135.5v-174q0 -47 16 -63t53 -21v-36 q-14 1 -56.5 4.5t-65.5 3.5t-65 -3.5t-55 -4.5v36q36 2 52.5 19t16.5 65v140q0 146 -107 146q-50 0 -102 -52z" />
<glyph unicode="i" horiz-adv-x="296" d="M38 -8v36q34 2 47.5 18.5t13.5 65.5v126q0 99 -11 124.5t-50 25.5v36q34 0 77.5 14.5t63.5 35.5h32q-8 -28 -8 -122v-240q0 -48 18.5 -65t58.5 -19v-36q-14 1 -56.5 4.5t-65.5 3.5t-65 -3.5t-55 -4.5zM169 728q24 0 37 -13.5t13 -32.5q0 -35 -29 -58.5t-65 -23.5 q-24 0 -37 13.5t-13 32.5q0 35 29 58.5t65 23.5z" />
<glyph unicode="j" horiz-adv-x="278" d="M27 384v36q98 12 157 54h30q-10 -46 -10 -143v-251q0 -120 -60 -222t-146 -102q-31 0 -50.5 17.5t-19.5 44.5q0 21 12 33.5t32 12.5q16 0 41.5 -21t33.5 -21q22 0 37.5 54t15.5 146v246q0 76 -14.5 96t-58.5 20zM170 728q24 0 37 -13.5t13 -32.5q0 -35 -29 -58.5 t-65 -23.5q-24 0 -37 13.5t-13 32.5q0 35 29 58.5t65 23.5z" />
<glyph unicode="k" horiz-adv-x="574" d="M103 140v408q0 86 -13 118t-56 32v36q49 5 92.5 22.5t56.5 39.5h32q-8 -28 -8 -122v-432l145 113q35 27 35 49q0 24 -54 24v36q21 0 61 -4t60 -4q19 0 55 4t54 4v-36q-56 0 -106 -39l-138 -107l152 -176q28 -32 59 -55t53 -23v-36q-14 1 -55 4.5t-64 3.5 q-25 0 -70.5 -3.5t-60.5 -4.5v36q40 0 40 23q0 13 -17 33l-117 138l-32 -20v-90q0 -46 15.5 -65t49.5 -19v-36q-2 0 -45 4t-67 4q-23 0 -65 -3.5t-57 -4.5v36q32 3 48.5 26t16.5 86z" />
<glyph unicode="l" horiz-adv-x="278" d="M22 -8v36q33 2 46 18.5t13 65.5v436q0 86 -13 118t-56 32v36q49 5 92.5 22.5t56.5 39.5h32q-8 -28 -8 -122v-562q0 -48 18.5 -65t58.5 -19v-36q-14 1 -56.5 4.5t-65.5 3.5t-65 -3.5t-53 -4.5z" />
<glyph unicode="m" horiz-adv-x="889" d="M701 112v140q0 146 -108 146q-45 0 -99 -49q5 -23 5 -63v-174q0 -47 18 -63t56 -21v-36q-14 1 -56.5 4.5t-65.5 3.5t-65 -3.5t-55 -4.5v36q35 2 51.5 19t16.5 65v140q0 146 -106 146q-49 0 -96 -52v-234q0 -47 16 -63t53 -21v-36q-14 1 -56.5 4.5t-65.5 3.5t-65 -3.5 t-57 -4.5v36q37 2 54 19t17 65v126q0 67 -7 99t-20.5 41.5t-43.5 9.5v36q35 0 79.5 14.5t67.5 35.5h32q-4 -34 -4 -72q81 72 155 72q102 0 131 -83q98 83 169 83q77 0 115 -53t38 -135v-174q0 -47 15.5 -63t52.5 -21v-36q-14 1 -56.5 4.5t-65.5 3.5t-65 -3.5t-55 -4.5v36 q36 2 53 19t17 65z" />
<glyph unicode="n" d="M201 346v-234q0 -47 16 -63t53 -21v-36q-14 1 -56.5 4.5t-65.5 3.5t-65 -3.5t-55 -4.5v36q36 2 52.5 19t16.5 65v126q0 96 -14 123t-55 27v36q33 0 77.5 14.5t67.5 35.5h32q-4 -34 -4 -72q81 72 155 72q77 0 114.5 -52.5t37.5 -135.5v-174q0 -47 16 -63t53 -21v-36 q-14 1 -56.5 4.5t-65.5 3.5t-65 -3.5t-55 -4.5v36q36 2 52.5 19t16.5 65v140q0 146 -107 146q-49 0 -96 -52z" />
<glyph unicode="o" horiz-adv-x="574" d="M426 178q0 104 -43.5 178t-111.5 74q-55 0 -89 -43t-34 -109q0 -104 43.5 -178t111.5 -74q55 0 89 43t34 109zM540 236q0 -113 -72 -183.5t-187 -70.5q-105 0 -176 67t-71 171q0 113 72 183.5t187 70.5q105 0 176 -67t71 -171z" />
<glyph unicode="p" d="M194 330v-254q22 -18 56 -34t59 -16q60 0 98 46t38 114q0 87 -41 150.5t-110 63.5q-38 0 -66 -22t-34 -48zM294 -200v-36q-7 0 -57.5 5t-82.5 5q-25 0 -74 -5t-58 -5v36q38 0 53 29t15 98v355q0 63 -14 82.5t-54 19.5v36q76 12 148 54h30q-6 -33 -6 -74q24 23 41 36.5 t46.5 25.5t62.5 12q85 0 150 -68t65 -170t-64 -178t-169 -76q-81 0 -132 27v-97q0 -62 26 -87t74 -25z" />
<glyph unicode="q" d="M396 133v241q-43 50 -112 50q-71 0 -108.5 -53t-37.5 -129t46 -137t119 -61q93 0 93 89zM579 -200v-36q-1 0 -55.5 5t-77.5 5q-24 0 -69.5 -4.5t-63.5 -5.5v36q49 4 66 31t17 85v116l-2 2q-15 -23 -57 -37.5t-76 -14.5q-104 0 -165.5 63.5t-61.5 168.5q0 113 78 186.5 t190 73.5q70 0 145 -55q31 45 45 55h38q-30 -68 -30 -164v-380q0 -71 17 -98t62 -32z" />
<glyph unicode="r" horiz-adv-x="407" d="M29 384v36q38 5 79 19.5t66 34.5h32q-8 -44 -7 -86l19 19l22 21l21 17t25 16t24.5 8.5t28.5 4.5q30 0 46 -18.5t16 -48.5q0 -24 -19 -44.5t-43 -20.5q-15 0 -35 22t-39 22q-16 0 -34 -12t-28 -32v-202q0 -53 25 -82.5t66 -29.5v-36q-23 1 -67.5 4.5t-66.5 3.5t-65.5 -3.5 t-66.5 -4.5v36q71 0 71 112v146q0 54 -15.5 76t-54.5 22z" />
<glyph unicode="s" horiz-adv-x="444" d="M362 334h-26q0 43 -31 72.5t-74 29.5q-41 0 -62 -16.5t-21 -41.5q0 -23 25.5 -43t61.5 -37.5t72 -37.5t61.5 -53t25.5 -75q0 -65 -50 -107.5t-126 -42.5q-36 0 -77 9q-32 9 -45 9q-24 0 -33 -14h-26q11 19 14.5 83t8.5 84l30 -4q-2 -14 -2 -20q0 -45 38.5 -74t86.5 -29 q37 0 60 16.5t23 47.5q0 26 -24.5 48.5t-59 40.5t-69 38t-59 50.5t-24.5 68.5q0 67 51 102.5t116 35.5q26 0 60 -8t41 -8q26 0 28 16h26q-11 -27 -14.5 -78.5t-5.5 -61.5z" />
<glyph unicode="t" horiz-adv-x="370" d="M158 645h42q-8 -114 -8 -146v-43h144v-48h-144v-270q0 -80 67 -80q48 0 87 54l24 -22q-24 -49 -64 -78.5t-88 -29.5q-69 0 -99.5 35.5t-30.5 116.5v274h-88v42q67 7 109 65t49 130z" />
<glyph unicode="u" d="M573 50v-36q-28 0 -70.5 -10t-69.5 -22q-27 22 -37 62q-74 -62 -160 -62q-83 0 -116.5 40.5t-33.5 129.5q0 54 2 114t2 73q0 41 -13 61t-50 20v36q96 0 153 18h26q-16 -61 -16 -168v-134q0 -124 106 -124q30 0 57 16t41 40v198q0 65 -15 91.5t-49 26.5v36q114 0 150 18 h28q-10 -73 -10 -141v-228q0 -32 19.5 -43.5t55.5 -11.5z" />
<glyph unicode="v" horiz-adv-x="500" d="M519 464v-36q-51 0 -86 -78l-168 -368h-42l-140 343q-42 103 -102 103v36q11 0 59 -4t69 -4t69 4t59 4v-36q-34 -1 -48.5 -11.5t-14.5 -30.5q0 -16 22 -70l51 -118q28 -63 34 -80q11 26 40 86t47 104.5t18 69.5t-15 37.5t-54 12.5v36q9 0 47 -4t54 -4t54 4t47 4z" />
<glyph unicode="w" horiz-adv-x="759" d="M259 -18h-37l-152 373q-30 73 -82 73v36q10 0 54 -4t63 -4q18 0 62 4t55 4v-36q-50 0 -50 -41q0 -15 21.5 -69t50.5 -120t33 -76l81 191q-27 84 -38 98q-13 17 -44 17v36q10 0 51.5 -4t59.5 -4q17 0 59 4t52 4v-36q-52 0 -52 -42q0 -34 103 -268q10 29 37.5 86.5 t45.5 102.5t18 71q0 25 -15 37.5t-53 12.5v36q8 0 45 -4t53 -4q15 0 52 4t46 4v-36q-25 0 -42 -14t-33 -50l-174 -382h-36l-113 284z" />
<glyph unicode="x" horiz-adv-x="537" d="M258 464v-36q-47 0 -44 -23q1 -9 13.5 -26.5t47.5 -62.5l24 -30q17 23 36.5 47t25 31.5t9.5 17.5t4 23q0 23 -44 23v36q9 0 47 -4t54 -4t54 4t47 4v-36q-64 0 -112 -55l-101 -116l151 -193q28 -36 66 -36v-36q-11 0 -43 4t-82 4t-82.5 -4t-43.5 -4v36q53 0 53 25 q0 13 -18 40.5t-75 97.5q-61 -73 -76 -94.5t-15 -36.5q0 -12 11.5 -22t34.5 -10v-36q-8 0 -32.5 4t-62.5 4t-62.5 -4t-32.5 -4v36q29 0 51 13t49 45l112 136l-98 130q-34 45 -55.5 60.5t-48.5 15.5v36q11 0 55.5 -4t63.5 -4t63.5 4t55.5 4z" />
<glyph unicode="y" horiz-adv-x="519" d="M226 464v-36q-22 0 -37 -12t-15 -34q0 -5 0.5 -9t2.5 -11l4 -12q2 -6 7 -18l11 -24l15 -32l20 -42l26 -54l32 -67l34 72l28 57l20 42l14 32q4 10 8 23.5t5 22.5t1 20q0 23 -20 34.5t-48 11.5v36q9 0 48 -4t56 -4t56 4t48 4v-36q-50 0 -82 -58l-21 -44l-114 -238 q-81 -168 -142.5 -250t-123.5 -82q-29 0 -50 15t-21 43q0 19 13.5 34.5t32.5 15.5t38 -16t34 -16q22 0 51 34.5t46 65t30 59.5l-170 374q-15 33 -31.5 48t-45.5 15v36q11 0 56 -4t64 -4t64 4t56 4z" />
<glyph unicode="z" horiz-adv-x="519" d="M473 470l9 -26q-17 -10 -32 -23.5t-30 -32.5l-24 -32q-9 -12 -25 -37.5t-22 -33.5l-166 -245h79q62 0 104 9.5t62.5 27.5t29 33.5t14.5 39.5h28q0 -42 -27 -95.5t-27 -84.5q-60 30 -131 30h-199q-32 0 -89 -12l-13 24q58 47 142 170l159 234h-123q-65 0 -94.5 -24.5 t-29.5 -75.5h-28q0 38 5 84t5 49q0 9 -4 33q72 -26 128 -26h146q83 0 153 14z" />
<glyph unicode="{" horiz-adv-x="407" d="M114 -73v203q0 58 -14 86.5t-54 43.5q40 15 54 43.5t14 86.5v203q0 96 45.5 127.5t149.5 31.5v-36q-59 0 -84 -28t-25 -89v-192q0 -29 -1 -45t-4.5 -35t-11.5 -29.5t-22 -20.5t-36 -16v-2q50 -14 62.5 -44.5t12.5 -101.5v-192q0 -61 25 -89t84 -28v-36 q-104 0 -149.5 31.5t-45.5 127.5z" />
<glyph unicode="|" horiz-adv-x="222" d="M73 750h76v-1000h-76v1000z" />
<glyph unicode="}" horiz-adv-x="407" d="M293 593v-203q0 -58 14 -86.5t54 -43.5q-40 -15 -54 -43.5t-14 -86.5v-203q0 -96 -45.5 -127.5t-149.5 -31.5v36q59 0 84 28t25 89v192q0 29 1 45t4.5 35t11.5 29.5t22 20.5t36 16v2q-50 14 -62.5 44.5t-12.5 101.5v192q0 61 -25 89t-84 28v36q104 0 149.5 -31.5 t45.5 -127.5z" />
<glyph unicode="~" horiz-adv-x="600" d="M495 304l36 -62q-20 -27 -33 -42t-38 -29.5t-54 -14.5q-38 0 -104 34t-113 34q-51 0 -84 -72l-36 62q45 86 125 86q41 0 115 -34q76 -34 98 -34q19 0 36.5 12t27 24.5t24.5 35.5z" />
<glyph unicode="&#xa1;" horiz-adv-x="315" d="M157 490q29 0 44.5 -21t15.5 -53t-15.5 -53t-44.5 -21t-44.5 21t-15.5 53t15.5 53t44.5 21zM139 278h36q4 -184 21.5 -298.5t40.5 -147.5q-7 -22 -35 -58t-44 -36t-44 36t-35 58q23 33 40 148t20 298z" />
<glyph unicode="&#xa2;" d="M252 233v286q-50 -7 -74 -43.5t-24 -90.5q0 -50 27.5 -90.5t70.5 -61.5zM292 522v-302q16 -6 35 -6q28 0 61 15.5t54 36.5l20 -26q-32 -43 -76.5 -71t-93.5 -31v-99h-40v99q-78 7 -129 63.5t-51 134.5q0 88 53.5 151t126.5 79v90h40v-86q136 -6 136 -73q0 -57 -48 -57 q-12 0 -20 6q6 14 6 20q0 29 -22 42.5t-52 13.5z" />
<glyph unicode="&#xa3;" d="M94 61q0 -16 13 -24.5t30 -8.5q52 0 81 50q-36 28 -72 28q-20 0 -36 -13.5t-16 -31.5zM458 386v-44h-145q29 -54 29 -93q0 -60 -38 -116q8 -4 46 -26t66.5 -34.5t50.5 -12.5q45 0 45 33q0 16 -18 29q3 12 22 12q17 0 28.5 -13.5t11.5 -29.5q0 -50 -39 -78.5t-93 -28.5 q-99 0 -175 65q-21 -28 -50.5 -46.5t-58.5 -18.5q-41 0 -67.5 20t-26.5 55q0 41 39.5 71t96.5 30q23 0 66 -8q6 20 6 40q0 28 -11 52t-37 56.5t-32 41.5h-105v44h84q-31 57 -31 110q0 88 70.5 152t154.5 64q77 0 133 -34.5t56 -99.5q0 -33 -20 -53.5t-51 -20.5 q-19 0 -30 13.5t-13 34.5q19 1 29.5 12.5t10.5 28.5q0 32 -27.5 53.5t-80.5 21.5q-55 0 -91.5 -30.5t-36.5 -81.5q0 -26 13.5 -61.5t23.5 -53.5l32 -55h163z" />
<glyph unicode="&#xa4;" d="M130 348q0 -70 49 -121t117 -51t117 51t49 121t-49 121t-117 51t-117 -51t-49 -121zM494 201l56 -56l-50 -50l-55 55q-68 -50 -149 -50t-149 50l-55 -55l-50 50l56 56q-50 64 -50 147t50 147l-56 56l50 50l55 -55q68 50 149 50t149 -50l55 55l50 -50l-56 -56 q50 -64 50 -147t-50 -147z" />
<glyph unicode="&#xa5;" d="M208 394h-120v44h100l-25 54q-35 79 -60 116t-43.5 46.5t-48.5 9.5v42q100 -10 137 -10q21 0 121 10v-42q-53 0 -53 -34q0 -12 5.5 -30.5t18.5 -47.5l25 -52l33 -66l33 -67l29 58l24 48l19 38q10 20 16 31t11 24l9 20q3 7 5 15t3 13t1 11q0 20 -13.5 30t-49.5 9v42 q87 -10 103 -10q43 0 93 10v-42q-54 0 -102 -90l-69 -136h106v-44h-129l-33 -64v-2h162v-44h-162v-130q0 -72 19.5 -97t79.5 -25v-42q-145 10 -150 10t-147 -10v42q56 0 75 25t19 97v130h-162v44h151z" />
<glyph unicode="&#xa6;" horiz-adv-x="222" d="M73 675h76v-350h-76v350zM73 175h76v-350h-76v350z" />
<glyph unicode="&#xa7;" d="M449 158q0 45 -36 92.5t-81.5 81.5t-95.5 78.5t-69 79.5q-23 -37 -23 -79q0 -43 23 -80.5t58 -66.5t72 -56t71.5 -60t49.5 -67q31 27 31 77zM507 196q0 -37 -22.5 -80t-52.5 -66q15 -33 15 -62q0 -90 -64.5 -155t-147.5 -65q-42 0 -71.5 18t-29.5 44q0 19 11.5 33.5 t27.5 14.5q23 0 56.5 -25t67.5 -25q40 0 61 28t21 69q0 46 -29.5 83.5t-71.5 67.5t-83.5 63.5t-71 86.5t-29.5 122q0 90 58 171q-17 27 -17 71q0 89 63 147.5t147 58.5q36 0 65 -20t29 -49q0 -18 -14.5 -29.5t-32.5 -11.5q-15 0 -26.5 15.5t-25.5 31t-37 15.5 q-42 0 -71 -29.5t-29 -71.5q0 -40 31.5 -78.5t76 -73.5t89 -75t76 -98t31.5 -126z" />
<glyph unicode="&#xa8;" horiz-adv-x="296" d="M114 606q0 -30 -27 -52t-54 -22q-20 0 -31.5 11.5t-11.5 29.5q0 30 26.5 51.5t53.5 21.5q20 0 32 -11t12 -29zM306 606q0 -30 -27 -52t-54 -22q-20 0 -31.5 11.5t-11.5 29.5q0 30 26.5 51.5t53.5 21.5q20 0 32 -11t12 -29z" />
<glyph unicode="&#xa9;" horiz-adv-x="800" d="M400 734q157 0 263.5 -109.5t106.5 -268.5t-106.5 -268.5t-263.5 -109.5t-263.5 109.5t-106.5 268.5t106.5 268.5t263.5 109.5zM400 682q-125 0 -212.5 -96.5t-87.5 -229.5t87.5 -229.5t212.5 -96.5t212.5 96.5t87.5 229.5t-87.5 229.5t-212.5 96.5zM564 458h-20 q-7 40 -35.5 67.5t-82.5 27.5q-68 0 -102 -53t-34 -137t34 -137t102 -53q95 0 136 95h20l-17 -78q0 -3 -1 -5t-2.5 -4t-2.5 -3t-4.5 -2.5t-5 -2t-6.5 -2t-7 -2.5q-57 -20 -110 -20q-108 0 -172 54t-64 160t64 160t172 54q54 0 115 -19q23 -7 23 -23v-77z" />
<glyph unicode="&#xaa;" horiz-adv-x="311" d="M200 541v23q-40 -6 -74 -24t-34 -47q0 -15 10 -25t29 -10q28 0 48.5 24t20.5 59zM312 477l10 -19q-12 -17 -35 -29.5t-44 -12.5q-34 0 -43 38q-43 -38 -113 -38q-30 0 -51.5 15.5t-21.5 43.5t19.5 51.5t50 38t59.5 23t57 12.5v18q0 26 -13.5 39t-35.5 13q-58 -4 -66 -28 q0 -13 5 -19l-19 -13l-35 46q54 56 143 56q97 0 97 -94q0 -20 -4 -62t-4 -63q0 -29 17 -29q12 0 27 13z" />
<glyph unicode="&#xab;" horiz-adv-x="519" d="M436 425l25 -25q-91 -132 -123 -172q113 -157 123 -172l-25 -25q-25 29 -100 97l-89 82v35q24 20 50 45l45 42l49 48zM228 425l25 -25q-91 -132 -123 -172q113 -157 123 -172l-25 -25q-25 29 -100 97l-89 82v35q24 20 50 45l45 42l49 48z" />
<glyph unicode="&#xac;" horiz-adv-x="600" d="M452 97v185h-380v76h456v-261h-76z" />
<glyph unicode="&#xad;" horiz-adv-x="352" d="M42 179v98h268v-98h-268z" />
<glyph unicode="&#xae;" horiz-adv-x="800" d="M224 548v20h201q52 0 86.5 -26.5t34.5 -76.5q0 -40 -22.5 -70.5t-60.5 -41.5l62 -89q46 -62 77 -90v-12h-80q-13 8 -27 25.5t-25 36.5l-34 54l-39 62h-43v-110q0 -32 6.5 -39t43.5 -11v-18h-180v18q37 4 43.5 11t6.5 39v269q0 33 -6.5 39.5t-43.5 9.5zM354 544v-180h41 q36 -1 53.5 26t17.5 70q0 84 -71 84h-41zM400 734q157 0 263.5 -109.5t106.5 -268.5t-106.5 -268.5t-263.5 -109.5t-263.5 109.5t-106.5 268.5t106.5 268.5t263.5 109.5zM400 682q-125 0 -212.5 -96.5t-87.5 -229.5t87.5 -229.5t212.5 -96.5t212.5 96.5t87.5 229.5 t-87.5 229.5t-212.5 96.5z" />
<glyph unicode="&#xaf;" horiz-adv-x="296" d="M304 560h-323v66h323v-66z" />
<glyph unicode="&#xb0;" horiz-adv-x="400" d="M200 470q40 0 65 28t25 69t-25 69t-65 28t-65 -28t-25 -69t25 -69t65 -28zM200 422q-61 0 -103.5 42t-42.5 103t42.5 103t103.5 42t103.5 -42t42.5 -103t-42.5 -103t-103.5 -42z" />
<glyph unicode="&#xb1;" horiz-adv-x="600" d="M262 320v136h76v-136h190v-76h-190v-136h-76v136h-190v76h190zM72 0v76h456v-76h-456z" />
<glyph unicode="&#xb2;" horiz-adv-x="355" d="M319 375l25 -7q-4 -16 -22 -48.5t-22 -52.5q-30 17 -72 17h-142q-32 0 -71 -13l-5 19q139 105 187 159t48 110q0 43 -26.5 75t-70.5 32q-32 0 -54 -15t-22 -38q0 -18 13 -23q-8 -22 -33 -22q-15 0 -24.5 12.5t-9.5 28.5q0 45 41.5 74t105.5 29q68 0 116 -35t48 -96 q0 -23 -6 -45t-20 -42t-26.5 -35t-34.5 -33l-36 -28l-37 -26.5t-33 -22.5l2 -1h132q30 0 49 27z" />
<glyph unicode="&#xb3;" horiz-adv-x="355" d="M121 491l-3 37q49 2 84 21t35 57q0 31 -23 49.5t-55 18.5q-28 0 -47.5 -14t-19.5 -34q0 -19 11 -24q-15 -18 -28 -18q-15 0 -25 9.5t-10 25.5q0 48 45.5 70.5t102.5 22.5q54 0 90.5 -24.5t36.5 -65.5q0 -42 -25.5 -66.5t-65.5 -31.5v-2q45 0 83 -29.5t38 -76.5 q0 -69 -58 -106.5t-135 -37.5q-20 0 -40 3t-40.5 10t-33.5 22t-13 36q0 14 9.5 25.5t24.5 11.5q11 0 24 -10q-6 -10 -6 -21q0 -19 25 -29t50 -10q43 0 74 23.5t31 60.5q0 52 -28.5 78t-80.5 22q-4 0 -13 -1.5t-14 -1.5z" />
<glyph unicode="&#xb4;" horiz-adv-x="296" d="M122 522h-52l124 135q4 4 11 12.5t10 10.5l9 8q6 5 10.5 7t11.5 3.5t15 1.5q20 0 32.5 -11t12.5 -27q0 -25 -34 -46z" />
<glyph unicode="&#xb5;" d="M573 50v-36q-28 0 -70.5 -10t-69.5 -22q-27 22 -37 62q-74 -62 -154 -62q-30 0 -52 6v-120q0 -53 8 -104h-53q-23 0 -65 -3.5t-53 -4.5v36q34 0 46.5 22.5t12.5 89.5v435q0 43 -11 62t-48 19v36q96 0 153 18h26q-16 -61 -16 -168v-134q0 -124 106 -124q27 0 56 16t42 40 v198q0 64 -15 91t-49 27v36q114 0 150 18h28q-10 -73 -10 -141v-228q0 -32 19.5 -43.5t55.5 -11.5z" />
<glyph unicode="&#xb6;" horiz-adv-x="600" d="M317 -226h-78v528q-91 0 -138 57t-47 155q0 100 49.5 149t159.5 49h269v-24q-40 -6 -59 -29t-19 -72v-813h-78v902h-59v-902z" />
<glyph unicode="&#xb7;" horiz-adv-x="296" d="M148 296q28 0 48 -20t20 -48t-20 -48t-48 -20t-48 20t-20 48t20 48t48 20z" />
<glyph unicode="&#xb8;" horiz-adv-x="296" d="M81 -96l43 96h42l-32 -64q2 0 14 3t20 3q28 0 55 -18t27 -58q0 -44 -38.5 -63t-85.5 -19q-58 0 -92 16l16 49q38 -17 63 -17q26 0 40.5 9t14.5 23q0 17 -13.5 26.5t-32.5 9.5q-11 0 -29 -4z" />
<glyph unicode="&#xb9;" horiz-adv-x="355" d="M62 628v30q103 21 150 59h22q-8 -33 -8 -119v-171q0 -78 14.5 -98.5t63.5 -20.5v-30l-117 6q-14 0 -113 -6v30q48 0 62 17t14 69v191q0 31 -4.5 42.5t-19.5 11.5q-27 0 -64 -11z" />
<glyph unicode="&#xba;" horiz-adv-x="344" d="M87 595q0 -61 26.5 -103t68.5 -42q37 0 55.5 23t18.5 62q0 61 -25 103t-70 42q-34 0 -54 -24t-20 -61zM175 712q68 0 114.5 -40t46.5 -102q0 -69 -47 -111.5t-121 -42.5q-68 0 -114.5 41t-46.5 103q0 68 47 110t121 42z" />
<glyph unicode="&#xbb;" horiz-adv-x="519" d="M291 31l-25 25q91 132 123 172q-113 157 -123 172l25 25q25 -29 100 -97l89 -82v-35q-24 -20 -51 -45l-44 -42l-50 -48zM83 31l-25 25q91 132 123 172q-113 157 -123 172l25 25q25 -29 100 -97l89 -82v-35q-24 -20 -51 -45l-44 -42l-50 -48z" />
<glyph unicode="&#xbc;" horiz-adv-x="889" d="M70 628v30q103 21 150 59h22q-8 -33 -8 -119v-171q0 -78 14.5 -98.5t63.5 -20.5v-30l-117 6q-14 0 -113 -6v30q48 0 62 17t14 69v191q0 31 -4.5 42.5t-19.5 11.5q-27 0 -64 -11zM822 165v-78q-9 13 -45 13v-28q0 -22 0.5 -30t4.5 -18.5t14 -20.5l-3 -8q-25 5 -58 5 q-27 0 -49 -5l-5 8q15 14 18.5 27.5t3.5 41.5v28h-167q-9 0 -18 -1.5t-17 -3.5l-12 -3q0 28 29 65l132 165q10 13 28.5 34.5t31.5 38t23 33.5h50q-6 -50 -6 -74v-202q36 0 45 13zM565 152h138v176h-2zM653 712h69l-432 -728h-69z" />
<glyph unicode="&#xbd;" horiz-adv-x="889" d="M70 628v30q103 21 150 59h22q-8 -33 -8 -119v-171q0 -78 14.5 -98.5t63.5 -20.5v-30l-117 6q-14 0 -113 -6v30q48 0 62 17t14 69v191q0 31 -4.5 42.5t-19.5 11.5q-27 0 -64 -11zM625 712h69l-432 -728h-69zM833 91l25 -7q-4 -16 -22 -48.5t-22 -52.5q-12 8 -28 12 q-20 5 -44 5h-142q-32 0 -71 -13l-5 19q139 105 187 159t48 110q0 43 -26.5 75t-70.5 32q-32 0 -54 -15t-22 -38q0 -18 13 -23q-8 -22 -33 -22q-15 0 -24.5 12.5t-9.5 28.5q0 45 41.5 74t105.5 29q68 0 116 -35t48 -96q0 -23 -6 -45t-20 -42t-26.5 -35t-34.5 -33l-36 -28 l-37 -26.5t-33 -22.5l2 -1h132q30 0 49 27z" />
<glyph unicode="&#xbe;" horiz-adv-x="889" d="M133 491l-3 37q49 2 84 21t35 57q0 31 -23 49.5t-55 18.5q-28 0 -47.5 -14t-19.5 -34q0 -19 11 -24q-15 -18 -28 -18q-15 0 -25 9.5t-10 25.5q0 48 45.5 70.5t102.5 22.5q54 0 90.5 -24.5t36.5 -65.5q0 -42 -25.5 -66.5t-65.5 -31.5v-2q45 0 83 -29.5t38 -76.5 q0 -69 -58 -106.5t-135 -37.5q-20 0 -40 3t-40.5 10t-33.5 22t-13 36q0 14 9.5 25.5t24.5 11.5q11 0 24 -10q-6 -10 -6 -21q0 -19 25 -29t50 -10q43 0 74 23.5t31 60.5q0 52 -28.5 78t-80.5 22q-4 0 -13 -1.5t-14 -1.5zM822 165v-78q-9 13 -45 13v-28q0 -22 0.5 -30 t4.5 -18.5t14 -20.5l-3 -8q-25 5 -58 5q-27 0 -49 -5l-5 8q15 14 18.5 27.5t3.5 41.5v28h-167q-9 0 -18 -1.5t-17 -3.5l-12 -3q0 28 29 65l132 165q10 13 28.5 34.5t31.5 38t23 33.5h50q-6 -50 -6 -74v-202q36 0 45 13zM565 152h138v176h-2zM653 712h69l-432 -728h-69z" />
<glyph unicode="&#xbf;" horiz-adv-x="407" d="M213 490q29 0 44.5 -21t15.5 -53t-15.5 -53t-44.5 -21t-44.5 21t-15.5 53t15.5 53t44.5 21zM188 272l41 9q6 -19 50 -89t44 -93q0 -21 -23 -39t-55.5 -33t-65 -32t-55.5 -43t-23 -59q0 -43 31 -73t74 -30q26 0 46.5 13t20.5 38q0 11 -5 23q7 10 31 10q21 0 35.5 -14.5 t14.5 -35.5q0 -47 -37 -66.5t-88 -19.5q-80 0 -131.5 59.5t-51.5 140.5q0 41 19.5 73.5t47.5 52.5t56 36t47.5 31.5t19.5 31.5q0 18 -15 54.5t-28 54.5z" />
<glyph unicode="&#xc0;" horiz-adv-x="759" d="M475 764h-52l-150 94q-34 21 -34 46q0 16 12.5 27t32.5 11q8 0 15 -1.5t11.5 -3.5t10.5 -7l9 -8q3 -2 10 -10.5t11 -12.5zM466 338l-106 286l-117 -286q72 -4 107 -4q38 0 116 4zM-24 -10v42q76 0 128 122q1 2 26 57l55 119l61 136q31 70 51.5 121.5t20.5 62.5 q0 30 -36 30v42q68 0 113 18t79 18q-12 -21 -12 -48q0 -38 18 -86l191 -493q38 -99 112 -99v-42q-11 1 -53.5 5.5t-106.5 4.5q-65 0 -108 -4l-53 -6v42q89 0 89 59q0 17 -3.5 31.5t-9.5 27.5l-22 52l-31 78q-59 6 -172 6q-36 0 -93 -6l-29 -70l-21 -50q-7 -14 -11.5 -30.5 t-4.5 -32.5q0 -26 25 -45.5t71 -19.5v-42l-45 6q-37 4 -92 4t-92 -4z" />
<glyph unicode="&#xc1;" horiz-adv-x="759" d="M371 764h-52l124 135q4 4 11 12.5t10 10.5l9 8q6 5 10.5 7t11.5 3.5t15 1.5q20 0 32.5 -11t12.5 -27q0 -25 -34 -46zM466 338l-106 286l-117 -286q72 -4 107 -4q38 0 116 4zM-24 -10v42q76 0 128 122q1 2 26 57l55 119l61 136q31 70 51.5 121.5t20.5 62.5q0 30 -36 30v42 q68 0 113 18t79 18q-12 -21 -12 -48q0 -38 18 -86l191 -493q38 -99 112 -99v-42q-11 1 -53.5 5.5t-106.5 4.5q-65 0 -108 -4l-53 -6v42q89 0 89 59q0 17 -3.5 31.5t-9.5 27.5l-22 52l-31 78q-59 6 -172 6q-36 0 -93 -6l-29 -70l-21 -50q-7 -14 -11.5 -30.5t-4.5 -32.5 q0 -26 25 -45.5t71 -19.5v-42l-45 6q-37 4 -92 4t-92 -4z" />
<glyph unicode="&#xc2;" horiz-adv-x="759" d="M357 936h79l125 -172h-51l-113 101l-115 -101h-49zM466 338l-106 286l-117 -286q72 -4 107 -4q38 0 116 4zM-24 -10v42q76 0 128 122q1 2 26 57l55 119l61 136q31 70 51.5 121.5t20.5 62.5q0 30 -36 30v42q68 0 113 18t79 18q-12 -21 -12 -48q0 -38 18 -86l191 -493 q38 -99 112 -99v-42q-11 1 -53.5 5.5t-106.5 4.5q-65 0 -108 -4l-53 -6v42q89 0 89 59q0 17 -3.5 31.5t-9.5 27.5l-22 52l-31 78q-59 6 -172 6q-36 0 -93 -6l-29 -70l-21 -50q-7 -14 -11.5 -30.5t-4.5 -32.5q0 -26 25 -45.5t71 -19.5v-42l-45 6q-37 4 -92 4t-92 -4z" />
<glyph unicode="&#xc3;" horiz-adv-x="759" d="M530 902h37q-25 -116 -115 -116q-36 0 -82 23q-46 24 -65 24q-35 0 -54 -47h-36q7 48 37.5 82t76.5 34q32 0 80 -24q50 -24 71 -24q35 0 50 48zM466 338l-106 286l-117 -286q72 -4 107 -4q38 0 116 4zM-24 -10v42q76 0 128 122q1 2 26 57l55 119l61 136q31 70 51.5 121.5 t20.5 62.5q0 30 -36 30v42q68 0 113 18t79 18q-12 -21 -12 -48q0 -38 18 -86l191 -493q38 -99 112 -99v-42q-11 1 -53.5 5.5t-106.5 4.5q-65 0 -108 -4l-53 -6v42q89 0 89 59q0 17 -3.5 31.5t-9.5 27.5l-22 52l-31 78q-59 6 -172 6q-36 0 -93 -6l-29 -70l-21 -50 q-7 -14 -11.5 -30.5t-4.5 -32.5q0 -26 25 -45.5t71 -19.5v-42l-45 6q-37 4 -92 4t-92 -4z" />
<glyph unicode="&#xc4;" horiz-adv-x="759" d="M363 848q0 -30 -27 -52t-54 -22q-20 0 -31.5 11.5t-11.5 29.5q0 30 26.5 51.5t53.5 21.5q20 0 32 -11t12 -29zM555 848q0 -30 -27 -52t-54 -22q-20 0 -31.5 11.5t-11.5 29.5q0 30 26.5 51.5t53.5 21.5q20 0 32 -11t12 -29zM466 338l-106 286l-117 -286q72 -4 107 -4 q38 0 116 4zM-24 -10v42q76 0 128 122q1 2 26 57l55 119l61 136q31 70 51.5 121.5t20.5 62.5q0 30 -36 30v42q68 0 113 18t79 18q-12 -21 -12 -48q0 -38 18 -86l191 -493q38 -99 112 -99v-42q-11 1 -53.5 5.5t-106.5 4.5q-65 0 -108 -4l-53 -6v42q89 0 89 59q0 17 -3.5 31.5 t-9.5 27.5l-22 52l-31 78q-59 6 -172 6q-36 0 -93 -6l-29 -70l-21 -50q-7 -14 -11.5 -30.5t-4.5 -32.5q0 -26 25 -45.5t71 -19.5v-42l-45 6q-37 4 -92 4t-92 -4z" />
<glyph unicode="&#xc5;" horiz-adv-x="759" d="M466 338l-106 286l-117 -286q72 -4 107 -4q38 0 116 4zM-24 -10v42q76 0 128 122q1 2 26 57l55 119l61 136q31 70 51.5 121.5t20.5 62.5q0 30 -36 30v42q68 0 113 18t79 18q-12 -21 -12 -48q0 -38 18 -86l191 -493q38 -99 112 -99v-42q-11 1 -53.5 5.5t-106.5 4.5 q-65 0 -108 -4l-53 -6v42q89 0 89 59q0 17 -3.5 31.5t-9.5 27.5l-22 52l-31 78q-59 6 -172 6q-36 0 -93 -6l-29 -70l-21 -50q-7 -14 -11.5 -30.5t-4.5 -32.5q0 -26 25 -45.5t71 -19.5v-42l-45 6q-37 4 -92 4t-92 -4zM397 926q-24 0 -40 -15.5t-16 -40.5t16 -40.5t40 -15.5 t40 15.5t16 40.5t-16 40.5t-40 15.5zM397 976q44 0 75 -30.5t31 -75.5t-31 -75.5t-75 -30.5t-75 30.5t-31 75.5t31 75.5t75 30.5z" />
<glyph unicode="&#xc6;" horiz-adv-x="1074" d="M516 160v120q-25 0 -75 3t-74 3q-21 0 -58 -3t-57 -3q-10 -12 -24 -31l-22 -29l-20 -25q-11 -15 -16 -23l-14 -20q-7 -11 -11 -19t-7.5 -16.5t-5 -16.5t-1.5 -15q0 -53 86 -53v-42q-9 1 -44.5 5.5t-88.5 4.5t-88.5 -4.5t-44.5 -5.5v42q76 13 176 159l285 417q15 22 15 42 q0 30 -66 30v42h2q41 0 91 -5q78 -5 138 -5q234 0 292 3t117 19q-4 -16 -5.5 -86t-6.5 -85h-30q0 59 -43 80t-169 21q-89 0 -111 -8v-266q44 -4 91 -4q90 0 123 21.5t35 70.5h36q-8 -60 -8 -116t8 -116h-36q-2 49 -35 70.5t-123 21.5q-47 0 -91 -4v-176q0 -72 22.5 -91 t96.5 -19q242 0 243 141h36q0 -35 -11.5 -92.5t-11.5 -118.5q-40 17 -88 19q-47 3 -277 3q-89 0 -149 -5q-15 -1 -40 -3t-34 -2h-2v42q57 5 76 29.5t19 98.5zM516 338v326h-19l-212 -326q82 -4 118 -4q39 0 113 4z" />
<glyph unicode="&#xc7;" horiz-adv-x="833" d="M710 502h-36q0 106 -56 145t-158 39q-132 0 -213 -91.5t-81 -238.5t83.5 -238.5t218.5 -91.5q193 0 256 144h36q-3 -19 -26.5 -86t-23.5 -106q-19 13 -36 17q-14 5 -34 5q-22 0 -81 -11q-47 -8 -94 -9l-21 -44q2 0 14 3t20 3q28 0 55 -18t27 -58q0 -44 -38.5 -63 t-85.5 -19q-58 0 -92 16l16 49q38 -17 63 -17q26 0 40.5 9t14.5 23q0 17 -13.5 26.5t-32.5 9.5q-11 0 -29 -4l-12 8l33 74q-185 2 -286.5 104t-101.5 260q0 166 112 279t288 113q93 0 161 -19q11 -3 29.5 -8.5t29.5 -8t21 -2.5q36 0 65 16q-21 -84 -32 -210z" />
<glyph unicode="&#xc8;" horiz-adv-x="722" d="M456 764h-52l-150 94q-34 21 -34 46q0 16 12.5 27t32.5 11q8 0 15 -1.5t11.5 -3.5t10.5 -7l9 -8q3 -2 10 -10.5t11 -12.5zM140 160v392q0 73 -18.5 98t-71.5 30v42h2q49 0 136 -5q130 -5 216 -5q122 0 164.5 3t81.5 19q-4 -16 -5.5 -86t-6.5 -85h-30q0 59 -43 80t-169 21 q-64 0 -136 -8v-266q94 -4 116 -4q90 0 123 21.5t35 70.5h36q-8 -60 -8 -116t8 -116h-36q-2 49 -35 70.5t-123 21.5q-22 0 -116 -4v-176q0 -70 27.5 -90t104.5 -20q254 0 254 141h36q0 -35 -11 -92.5t-11 -118.5q-40 17 -94 19q-50 3 -292 3q-129 0 -181 -5q-13 -1 -22.5 -2 t-13.5 -2t-5 -1h-2v42q53 5 71.5 30t18.5 98z" />
<glyph unicode="&#xc9;" horiz-adv-x="722" d="M352 764h-52l124 135q4 4 11 12.5t10 10.5l9 8q6 5 10.5 7t11.5 3.5t15 1.5q20 0 32.5 -11t12.5 -27q0 -25 -34 -46zM140 160v392q0 73 -18.5 98t-71.5 30v42h2q49 0 136 -5q130 -5 216 -5q122 0 164.5 3t81.5 19q-4 -16 -5.5 -86t-6.5 -85h-30q0 59 -43 80t-169 21 q-64 0 -136 -8v-266q94 -4 116 -4q90 0 123 21.5t35 70.5h36q-8 -60 -8 -116t8 -116h-36q-2 49 -35 70.5t-123 21.5q-22 0 -116 -4v-176q0 -70 27.5 -90t104.5 -20q254 0 254 141h36q0 -35 -11 -92.5t-11 -118.5q-40 17 -94 19q-50 3 -292 3q-129 0 -181 -5q-13 -1 -22.5 -2 t-13.5 -2t-5 -1h-2v42q53 5 71.5 30t18.5 98z" />
<glyph unicode="&#xca;" horiz-adv-x="722" d="M338 936h79l125 -172h-51l-113 101l-115 -101h-49zM140 160v392q0 73 -18.5 98t-71.5 30v42h2q49 0 136 -5q130 -5 216 -5q122 0 164.5 3t81.5 19q-4 -16 -5.5 -86t-6.5 -85h-30q0 59 -43 80t-169 21q-64 0 -136 -8v-266q94 -4 116 -4q90 0 123 21.5t35 70.5h36 q-8 -60 -8 -116t8 -116h-36q-2 49 -35 70.5t-123 21.5q-22 0 -116 -4v-176q0 -70 27.5 -90t104.5 -20q254 0 254 141h36q0 -35 -11 -92.5t-11 -118.5q-40 17 -94 19q-50 3 -292 3q-129 0 -181 -5q-13 -1 -22.5 -2t-13.5 -2t-5 -1h-2v42q53 5 71.5 30t18.5 98z" />
<glyph unicode="&#xcb;" horiz-adv-x="722" d="M344 848q0 -30 -27 -52t-54 -22q-20 0 -31.5 11.5t-11.5 29.5q0 30 26.5 51.5t53.5 21.5q20 0 32 -11t12 -29zM536 848q0 -30 -27 -52t-54 -22q-20 0 -31.5 11.5t-11.5 29.5q0 30 26.5 51.5t53.5 21.5q20 0 32 -11t12 -29zM140 160v392q0 73 -18.5 98t-71.5 30v42h2 q49 0 136 -5q130 -5 216 -5q122 0 164.5 3t81.5 19q-4 -16 -5.5 -86t-6.5 -85h-30q0 59 -43 80t-169 21q-64 0 -136 -8v-266q94 -4 116 -4q90 0 123 21.5t35 70.5h36q-8 -60 -8 -116t8 -116h-36q-2 49 -35 70.5t-123 21.5q-22 0 -116 -4v-176q0 -70 27.5 -90t104.5 -20 q254 0 254 141h36q0 -35 -11 -92.5t-11 -118.5q-40 17 -94 19q-50 3 -292 3q-129 0 -181 -5q-13 -1 -22.5 -2t-13.5 -2t-5 -1h-2v42q53 5 71.5 30t18.5 98z" />
<glyph unicode="&#xcc;" horiz-adv-x="407" d="M288 764h-52l-150 94q-34 21 -34 46q0 16 12.5 27t32.5 11q8 0 15 -1.5t11.5 -3.5t10.5 -7l9 -8q3 -2 10 -10.5t11 -12.5zM143 160v392q0 73 -18.5 98t-71.5 30v42q13 0 69.5 -5t80.5 -5t80.5 5t69.5 5v-42q-53 -5 -71.5 -30t-18.5 -98v-392q0 -73 18.5 -98t71.5 -30v-42 q-10 1 -50 5.5t-100 4.5t-100 -4.5t-50 -5.5v42q53 5 71.5 30t18.5 98z" />
<glyph unicode="&#xcd;" horiz-adv-x="407" d="M184 764h-52l124 135q4 4 11 12.5t10 10.5l9 8q6 5 10.5 7t11.5 3.5t15 1.5q20 0 32.5 -11t12.5 -27q0 -25 -34 -46zM143 160v392q0 73 -18.5 98t-71.5 30v42q13 0 69.5 -5t80.5 -5t80.5 5t69.5 5v-42q-53 -5 -71.5 -30t-18.5 -98v-392q0 -73 18.5 -98t71.5 -30v-42 q-10 1 -50 5.5t-100 4.5t-100 -4.5t-50 -5.5v42q53 5 71.5 30t18.5 98z" />
<glyph unicode="&#xce;" horiz-adv-x="407" d="M170 936h79l125 -172h-51l-113 101l-115 -101h-49zM143 160v392q0 73 -18.5 98t-71.5 30v42q13 0 69.5 -5t80.5 -5t80.5 5t69.5 5v-42q-53 -5 -71.5 -30t-18.5 -98v-392q0 -73 18.5 -98t71.5 -30v-42q-10 1 -50 5.5t-100 4.5t-100 -4.5t-50 -5.5v42q53 5 71.5 30t18.5 98 z" />
<glyph unicode="&#xcf;" horiz-adv-x="407" d="M176 848q0 -30 -27 -52t-54 -22q-20 0 -31.5 11.5t-11.5 29.5q0 30 26.5 51.5t53.5 21.5q20 0 32 -11t12 -29zM368 848q0 -30 -27 -52t-54 -22q-20 0 -31.5 11.5t-11.5 29.5q0 30 26.5 51.5t53.5 21.5q20 0 32 -11t12 -29zM143 160v392q0 73 -18.5 98t-71.5 30v42 q13 0 69.5 -5t80.5 -5t80.5 5t69.5 5v-42q-53 -5 -71.5 -30t-18.5 -98v-392q0 -73 18.5 -98t71.5 -30v-42q-10 1 -50 5.5t-100 4.5t-100 -4.5t-50 -5.5v42q53 5 71.5 30t18.5 98z" />
<glyph unicode="&#xd0;" horiz-adv-x="889" d="M258 394h270v-54h-270v-165q0 -81 32 -109t110 -28q142 0 230.5 88.5t88.5 221.5q0 146 -93 236t-254 90q-22 0 -41 -1.5t-40.5 -5t-32.5 -4.5v-269zM48 394h90v158q0 73 -18 98t-70 30v42q23 0 70.5 -5t78.5 -5t107 5t136 5q189 0 298 -98.5t109 -265.5 q0 -154 -123.5 -261t-311.5 -107q-56 0 -121 5t-99 5q-54 0 -144 -10v42q52 5 70 30t18 98v180h-90v54z" />
<glyph unicode="&#xd1;" horiz-adv-x="889" d="M590 902h37q-25 -116 -115 -116q-36 0 -82 23q-46 24 -65 24q-35 0 -54 -47h-36q7 48 37.5 82t76.5 34q32 0 80 -24q50 -24 71 -24q35 0 50 48zM36 680v42q72 -10 122 -10q22 0 69 10q7 -33 62 -90l416 -432v312q0 97 -26 132.5t-83 35.5v42q11 0 58.5 -5t68.5 -5 q19 0 68 5t62 5v-42q-53 0 -76.5 -35.5t-23.5 -132.5v-380q0 -38 2 -86t2 -68h-26l-538 578v-356q0 -99 26.5 -133.5t93.5 -34.5v-42q-9 1 -46 5.5t-92 4.5q-56 0 -93 -4.5t-46 -5.5v42q57 0 83 35.5t26 132.5v329q0 80 -32.5 115.5t-76.5 35.5z" />
<glyph unicode="&#xd2;" horiz-adv-x="889" d="M523 764h-52l-150 94q-34 21 -34 46q0 16 12.5 27t32.5 11q8 0 15 -1.5t11.5 -3.5t10.5 -7l9 -8q3 -2 10 -10.5t11 -12.5zM715 308q0 101 -31.5 185t-101 138.5t-166.5 54.5q-106 0 -174 -82.5t-68 -199.5q0 -101 31.5 -185t101 -138.5t166.5 -54.5q106 0 174 82.5 t68 199.5zM44 340q0 175 114.5 284.5t286.5 109.5q174 0 287 -103t113 -271q0 -160 -114.5 -271t-308.5 -111q-161 0 -269.5 102.5t-108.5 259.5z" />
<glyph unicode="&#xd3;" horiz-adv-x="889" d="M419 764h-52l124 135q4 4 11 12.5t10 10.5l9 8q6 5 10.5 7t11.5 3.5t15 1.5q20 0 32.5 -11t12.5 -27q0 -25 -34 -46zM715 308q0 101 -31.5 185t-101 138.5t-166.5 54.5q-106 0 -174 -82.5t-68 -199.5q0 -101 31.5 -185t101 -138.5t166.5 -54.5q106 0 174 82.5t68 199.5z M44 340q0 175 114.5 284.5t286.5 109.5q174 0 287 -103t113 -271q0 -160 -114.5 -271t-308.5 -111q-161 0 -269.5 102.5t-108.5 259.5z" />
<glyph unicode="&#xd4;" horiz-adv-x="889" d="M405 936h79l125 -172h-51l-113 101l-115 -101h-49zM715 308q0 101 -31.5 185t-101 138.5t-166.5 54.5q-106 0 -174 -82.5t-68 -199.5q0 -101 31.5 -185t101 -138.5t166.5 -54.5q106 0 174 82.5t68 199.5zM44 340q0 175 114.5 284.5t286.5 109.5q174 0 287 -103t113 -271 q0 -160 -114.5 -271t-308.5 -111q-161 0 -269.5 102.5t-108.5 259.5z" />
<glyph unicode="&#xd5;" horiz-adv-x="889" d="M578 902h37q-25 -116 -115 -116q-36 0 -82 23q-46 24 -65 24q-35 0 -54 -47h-36q7 48 37.5 82t76.5 34q32 0 80 -24q50 -24 71 -24q35 0 50 48zM715 308q0 101 -31.5 185t-101 138.5t-166.5 54.5q-106 0 -174 -82.5t-68 -199.5q0 -101 31.5 -185t101 -138.5t166.5 -54.5 q106 0 174 82.5t68 199.5zM44 340q0 175 114.5 284.5t286.5 109.5q174 0 287 -103t113 -271q0 -160 -114.5 -271t-308.5 -111q-161 0 -269.5 102.5t-108.5 259.5z" />
<glyph unicode="&#xd6;" horiz-adv-x="889" d="M411 848q0 -30 -27 -52t-54 -22q-20 0 -31.5 11.5t-11.5 29.5q0 30 26.5 51.5t53.5 21.5q20 0 32 -11t12 -29zM603 848q0 -30 -27 -52t-54 -22q-20 0 -31.5 11.5t-11.5 29.5q0 30 26.5 51.5t53.5 21.5q20 0 32 -11t12 -29zM715 308q0 101 -31.5 185t-101 138.5 t-166.5 54.5q-106 0 -174 -82.5t-68 -199.5q0 -101 31.5 -185t101 -138.5t166.5 -54.5q106 0 174 82.5t68 199.5zM44 340q0 175 114.5 284.5t286.5 109.5q174 0 287 -103t113 -271q0 -160 -114.5 -271t-308.5 -111q-161 0 -269.5 102.5t-108.5 259.5z" />
<glyph unicode="&#xd7;" horiz-adv-x="600" d="M354 228l174 -174l-53 -54l-175 175l-175 -175l-53 54l174 174l-174 174l53 54l175 -175l175 175l53 -54z" />
<glyph unicode="&#xd8;" horiz-adv-x="889" d="M641 571l-353 -475q75 -70 185 -70q106 0 174 82.5t68 199.5q0 159 -74 263zM234 23l-101 -135h-73l124 166q-66 49 -103 123t-37 163q0 175 114.5 284.5t286.5 109.5q117 0 209 -49l103 139h72l-126 -169q67 -49 104.5 -125t37.5 -170q0 -160 -114.5 -271t-308.5 -111 q-103 0 -188 45zM248 141l354 474q-76 71 -186 71q-106 0 -174 -82.5t-68 -199.5q0 -158 74 -263z" />
<glyph unicode="&#xd9;" horiz-adv-x="870" d="M536 764h-52l-150 94q-34 21 -34 46q0 16 12.5 27t32.5 11q8 0 15 -1.5t11.5 -3.5t10.5 -7l9 -8q3 -2 10 -10.5t11 -12.5zM15 680v42q15 0 76.5 -5t87.5 -5t87.5 5t76.5 5v-42q-56 0 -77 -29.5t-21 -96.5v-236q0 -135 64 -204.5t167 -69.5q110 0 166.5 78t56.5 224v166 q0 99 -29 133.5t-100 34.5v42q13 0 66.5 -5t76.5 -5q22 0 76 5t66 5v-42q-58 0 -83 -35t-25 -133v-146q0 -87 -15 -153.5t-50 -121.5t-99.5 -84t-156.5 -29q-140 0 -220.5 83.5t-80.5 236.5v256q0 75 -21.5 100.5t-88.5 25.5z" />
<glyph unicode="&#xda;" horiz-adv-x="870" d="M432 764h-52l124 135q4 4 11 12.5t10 10.5l9 8q6 5 10.5 7t11.5 3.5t15 1.5q20 0 32.5 -11t12.5 -27q0 -25 -34 -46zM15 680v42q15 0 76.5 -5t87.5 -5t87.5 5t76.5 5v-42q-56 0 -77 -29.5t-21 -96.5v-236q0 -135 64 -204.5t167 -69.5q110 0 166.5 78t56.5 224v166 q0 99 -29 133.5t-100 34.5v42q13 0 66.5 -5t76.5 -5q22 0 76 5t66 5v-42q-58 0 -83 -35t-25 -133v-146q0 -87 -15 -153.5t-50 -121.5t-99.5 -84t-156.5 -29q-140 0 -220.5 83.5t-80.5 236.5v256q0 75 -21.5 100.5t-88.5 25.5z" />
<glyph unicode="&#xdb;" horiz-adv-x="870" d="M418 936h79l125 -172h-51l-113 101l-115 -101h-49zM15 680v42q15 0 76.5 -5t87.5 -5t87.5 5t76.5 5v-42q-56 0 -77 -29.5t-21 -96.5v-236q0 -135 64 -204.5t167 -69.5q110 0 166.5 78t56.5 224v166q0 99 -29 133.5t-100 34.5v42q13 0 66.5 -5t76.5 -5q22 0 76 5t66 5v-42 q-58 0 -83 -35t-25 -133v-146q0 -87 -15 -153.5t-50 -121.5t-99.5 -84t-156.5 -29q-140 0 -220.5 83.5t-80.5 236.5v256q0 75 -21.5 100.5t-88.5 25.5z" />
<glyph unicode="&#xdc;" horiz-adv-x="870" d="M424 848q0 -30 -27 -52t-54 -22q-20 0 -31.5 11.5t-11.5 29.5q0 30 26.5 51.5t53.5 21.5q20 0 32 -11t12 -29zM616 848q0 -30 -27 -52t-54 -22q-20 0 -31.5 11.5t-11.5 29.5q0 30 26.5 51.5t53.5 21.5q20 0 32 -11t12 -29zM15 680v42q15 0 76.5 -5t87.5 -5t87.5 5t76.5 5 v-42q-56 0 -77 -29.5t-21 -96.5v-236q0 -135 64 -204.5t167 -69.5q110 0 166.5 78t56.5 224v166q0 99 -29 133.5t-100 34.5v42q13 0 66.5 -5t76.5 -5q22 0 76 5t66 5v-42q-58 0 -83 -35t-25 -133v-146q0 -87 -15 -153.5t-50 -121.5t-99.5 -84t-156.5 -29q-140 0 -220.5 83.5 t-80.5 236.5v256q0 75 -21.5 100.5t-88.5 25.5z" />
<glyph unicode="&#xdd;" horiz-adv-x="667" d="M354 764h-52l124 135q4 4 11 12.5t10 10.5l9 8q6 5 10.5 7t11.5 3.5t15 1.5q20 0 32.5 -11t12.5 -27q0 -25 -34 -46zM690 722v-42q-68 0 -126 -93l-163 -260v-169q0 -75 22.5 -100.5t91.5 -25.5v-42q-12 1 -57.5 5.5t-113.5 4.5t-113.5 -4.5t-57.5 -5.5v42q65 0 86.5 26 t21.5 100v133l-152 277q-36 67 -68 89.5t-85 22.5v42q14 0 75 -5t87 -5q25 0 86 5t75 5v-42q-66 0 -66 -36q0 -19 21 -58.5t102 -176.5l20 -34l41 63l33 51l24 39l20 30q6 10 12.5 22.5t9 18t4.5 13.5t2.5 13.5t0.5 13.5q0 20 -17 30.5t-61 10.5v42q11 0 57.5 -5t65.5 -5 t65 5t57 5z" />
<glyph unicode="&#xde;" horiz-adv-x="685" d="M260 517v-357q0 -73 18.5 -98t71.5 -30v-42q-10 1 -50 5.5t-100 4.5t-100 -4.5t-50 -5.5v42q53 5 71.5 30t18.5 98v392q0 73 -18.5 98t-71.5 30v42q13 0 69.5 -5t80.5 -5t80.5 5t69.5 5v-42q-51 -5 -69.5 -27.5t-19.5 -88.5q68 10 127 10q133 0 196.5 -58t63.5 -147 q0 -92 -66 -154.5t-164 -62.5q-94 0 -132 38v42q48 -26 90 -26q68 0 105 38t37 106q0 76 -48 126t-124 50q-45 0 -86 -9z" />
<glyph unicode="&#xdf;" horiz-adv-x="611" d="M31 420v36h69v37q0 133 76.5 218t191.5 85q74 0 125 -42.5t51 -111.5q0 -34 -11 -62.5t-35 -53.5t-44 -40.5t-55 -39.5q175 -117 175 -228q0 -102 -62 -169t-122 -67q-33 0 -57.5 16t-24.5 44q0 21 12 36.5t26 15.5q20 0 32 -12q0 -18 8 -33t24 -15q35 0 61.5 35t26.5 80 q0 12 -4 25.5t-13 29t-17.5 28.5t-23.5 30l-26 30q-10 11 -29 29l-28 27l-28 27q-19 18 -25 23v35q59 22 100.5 74.5t41.5 114.5q0 56 -29 91t-88 35q-125 0 -125 -238v-370q0 -66 16 -89t55 -23v-36q-10 1 -52 4.5t-66 3.5q-21 0 -65.5 -3.5t-68.5 -4.5v36q44 0 60.5 22.5 t16.5 89.5v182q0 98 -69 98z" />
<glyph unicode="&#xe0;" horiz-adv-x="519" d="M320 188v44q-27 -4 -54.5 -12.5t-57 -23t-48 -37.5t-18.5 -51q0 -30 17.5 -47t47.5 -17q52 0 82.5 40.5t30.5 103.5zM486 74l16 -24q-18 -28 -54 -48t-68 -20q-26 0 -43 20t-23 49q-33 -30 -81 -49.5t-93 -19.5q-47 0 -79.5 25t-32.5 71q0 44 31 81t79 60t94 37t88 20v48 q0 44 -23.5 66t-58.5 22q-49 0 -78.5 -16.5t-29.5 -38.5q0 -15 11 -32l-25 -21q-6 7 -17 22t-20 26t-17 18q42 47 100.5 75.5t118.5 28.5q143 0 143 -157q0 -35 -6 -104t-6 -104q0 -57 32 -57q20 0 42 22zM338 522h-52l-150 94q-34 21 -34 46q0 16 12.5 27t32.5 11 q8 0 15 -1.5t11.5 -3.5t10.5 -7l9 -8q3 -2 10 -10.5t11 -12.5z" />
<glyph unicode="&#xe1;" horiz-adv-x="519" d="M234 522h-52l124 135q4 4 11 12.5t10 10.5l9 8q6 5 10.5 7t11.5 3.5t15 1.5q20 0 32.5 -11t12.5 -27q0 -25 -34 -46zM320 188v44q-27 -4 -54.5 -12.5t-57 -23t-48 -37.5t-18.5 -51q0 -30 17.5 -47t47.5 -17q52 0 82.5 40.5t30.5 103.5zM486 74l16 -24q-18 -28 -54 -48 t-68 -20q-26 0 -43 20t-23 49q-33 -30 -81 -49.5t-93 -19.5q-47 0 -79.5 25t-32.5 71q0 44 31 81t79 60t94 37t88 20v48q0 44 -23.5 66t-58.5 22q-49 0 -78.5 -16.5t-29.5 -38.5q0 -15 11 -32l-25 -21q-6 7 -17 22t-20 26t-17 18q42 47 100.5 75.5t118.5 28.5 q143 0 143 -157q0 -35 -6 -104t-6 -104q0 -57 32 -57q20 0 42 22z" />
<glyph unicode="&#xe2;" horiz-adv-x="519" d="M220 694h79l125 -172h-51l-113 101l-115 -101h-49zM320 188v44q-27 -4 -54.5 -12.5t-57 -23t-48 -37.5t-18.5 -51q0 -30 17.5 -47t47.5 -17q52 0 82.5 40.5t30.5 103.5zM486 74l16 -24q-18 -28 -54 -48t-68 -20q-26 0 -43 20t-23 49q-33 -30 -81 -49.5t-93 -19.5 q-47 0 -79.5 25t-32.5 71q0 44 31 81t79 60t94 37t88 20v48q0 44 -23.5 66t-58.5 22q-49 0 -78.5 -16.5t-29.5 -38.5q0 -15 11 -32l-25 -21q-6 7 -17 22t-20 26t-17 18q42 47 100.5 75.5t118.5 28.5q143 0 143 -157q0 -35 -6 -104t-6 -104q0 -57 32 -57q20 0 42 22z" />
<glyph unicode="&#xe3;" horiz-adv-x="519" d="M393 660h37q-25 -116 -115 -116q-36 0 -82 23q-46 24 -65 24q-35 0 -54 -47h-36q7 48 37.5 82t76.5 34q32 0 80 -24q50 -24 71 -24q35 0 50 48zM320 188v44q-27 -4 -54.5 -12.5t-57 -23t-48 -37.5t-18.5 -51q0 -30 17.5 -47t47.5 -17q52 0 82.5 40.5t30.5 103.5zM486 74 l16 -24q-18 -28 -54 -48t-68 -20q-26 0 -43 20t-23 49q-33 -30 -81 -49.5t-93 -19.5q-47 0 -79.5 25t-32.5 71q0 44 31 81t79 60t94 37t88 20v48q0 44 -23.5 66t-58.5 22q-49 0 -78.5 -16.5t-29.5 -38.5q0 -15 11 -32l-25 -21q-6 7 -17 22t-20 26t-17 18q42 47 100.5 75.5 t118.5 28.5q143 0 143 -157q0 -35 -6 -104t-6 -104q0 -57 32 -57q20 0 42 22z" />
<glyph unicode="&#xe4;" horiz-adv-x="519" d="M226 606q0 -30 -27 -52t-54 -22q-20 0 -31.5 11.5t-11.5 29.5q0 30 26.5 51.5t53.5 21.5q20 0 32 -11t12 -29zM418 606q0 -30 -27 -52t-54 -22q-20 0 -31.5 11.5t-11.5 29.5q0 30 26.5 51.5t53.5 21.5q20 0 32 -11t12 -29zM320 188v44q-27 -4 -54.5 -12.5t-57 -23 t-48 -37.5t-18.5 -51q0 -30 17.5 -47t47.5 -17q52 0 82.5 40.5t30.5 103.5zM486 74l16 -24q-18 -28 -54 -48t-68 -20q-26 0 -43 20t-23 49q-33 -30 -81 -49.5t-93 -19.5q-47 0 -79.5 25t-32.5 71q0 44 31 81t79 60t94 37t88 20v48q0 44 -23.5 66t-58.5 22q-49 0 -78.5 -16.5 t-29.5 -38.5q0 -15 11 -32l-25 -21q-6 7 -17 22t-20 26t-17 18q42 47 100.5 75.5t118.5 28.5q143 0 143 -157q0 -35 -6 -104t-6 -104q0 -57 32 -57q20 0 42 22z" />
<glyph unicode="&#xe5;" horiz-adv-x="519" d="M320 188v44q-27 -4 -54.5 -12.5t-57 -23t-48 -37.5t-18.5 -51q0 -30 17.5 -47t47.5 -17q52 0 82.5 40.5t30.5 103.5zM486 74l16 -24q-18 -28 -54 -48t-68 -20q-26 0 -43 20t-23 49q-33 -30 -81 -49.5t-93 -19.5q-47 0 -79.5 25t-32.5 71q0 44 31 81t79 60t94 37t88 20v48 q0 44 -23.5 66t-58.5 22q-49 0 -78.5 -16.5t-29.5 -38.5q0 -15 11 -32l-25 -21q-6 7 -17 22t-20 26t-17 18q42 47 100.5 75.5t118.5 28.5q143 0 143 -157q0 -35 -6 -104t-6 -104q0 -57 32 -57q20 0 42 22zM260 684q-24 0 -40 -15.5t-16 -40.5t16 -40.5t40 -15.5t40 15.5 t16 40.5t-16 40.5t-40 15.5zM260 734q44 0 75 -30.5t31 -75.5t-31 -75.5t-75 -30.5t-75 30.5t-31 75.5t31 75.5t75 30.5z" />
<glyph unicode="&#xe6;" horiz-adv-x="778" d="M153 324l-29 -17q-40 58 -51 68q36 43 91 71t107 28q84 0 119 -69q23 31 66.5 50t85.5 19q55 0 93.5 -16t59 -46.5t29 -66.5t8.5 -83h-324q0 -88 42.5 -142t122.5 -54q37 0 75 20.5t65 54.5l25 -19q-75 -140 -212 -140q-48 0 -93.5 22t-72.5 64q-102 -86 -206 -86 q-54 0 -90 26.5t-36 77.5q0 50 54.5 95t119 69t114.5 28v31q0 44 -18.5 73.5t-59.5 29.5q-44 0 -69 -14.5t-25 -40.5q0 -19 9 -33zM316 206v28q-61 -5 -117.5 -40.5t-56.5 -88.5q0 -26 19.5 -43.5t45.5 -17.5q63 0 131 60q-22 46 -22 102zM408 306h220q-6 118 -100 118 q-49 0 -84.5 -37.5t-35.5 -80.5z" />
<glyph unicode="&#xe7;" horiz-adv-x="500" d="M454 129l23 -25q-82 -120 -218 -121l-23 -47q2 0 14 3t20 3q28 0 55 -18t27 -58q0 -44 -38.5 -63t-85.5 -19q-58 0 -92 16l16 49q38 -17 63 -17q26 0 40.5 9t14.5 23q0 17 -13.5 26.5t-32.5 9.5q-11 0 -29 -4l-12 8l36 81q-79 11 -132 69t-53 140q0 119 77.5 199.5 t193.5 80.5q46 0 84.5 -17.5t38.5 -53.5q0 -49 -42 -49q-24 0 -58 35t-60 35q-62 0 -104 -47.5t-42 -118.5q0 -76 59 -134t141 -58q80 0 132 63z" />
<glyph unicode="&#xe8;" horiz-adv-x="519" d="M468 262h-330v-36q0 -61 49.5 -110.5t126.5 -49.5q37 0 75 20.5t65 54.5l25 -19q-75 -140 -212 -140q-106 0 -169.5 63t-63.5 163q0 110 71.5 188t183.5 78q169 0 179 -212zM140 306h224q0 52 -28 85t-76 33t-80.5 -36t-39.5 -82zM344 522h-52l-150 94q-34 21 -34 46 q0 16 12.5 27t32.5 11q8 0 15 -1.5t11.5 -3.5t10.5 -7l9 -8q3 -2 10 -10.5t11 -12.5z" />
<glyph unicode="&#xe9;" horiz-adv-x="519" d="M240 522h-52l124 135q4 4 11 12.5t10 10.5l9 8q6 5 10.5 7t11.5 3.5t15 1.5q20 0 32.5 -11t12.5 -27q0 -25 -34 -46zM468 262h-330v-36q0 -61 49.5 -110.5t126.5 -49.5q37 0 75 20.5t65 54.5l25 -19q-75 -140 -212 -140q-106 0 -169.5 63t-63.5 163q0 110 71.5 188 t183.5 78q169 0 179 -212zM140 306h224q0 52 -28 85t-76 33t-80.5 -36t-39.5 -82z" />
<glyph unicode="&#xea;" horiz-adv-x="519" d="M226 694h79l125 -172h-51l-113 101l-115 -101h-49zM468 262h-330v-36q0 -61 49.5 -110.5t126.5 -49.5q37 0 75 20.5t65 54.5l25 -19q-75 -140 -212 -140q-106 0 -169.5 63t-63.5 163q0 110 71.5 188t183.5 78q169 0 179 -212zM140 306h224q0 52 -28 85t-76 33t-80.5 -36 t-39.5 -82z" />
<glyph unicode="&#xeb;" horiz-adv-x="519" d="M232 606q0 -30 -27 -52t-54 -22q-20 0 -31.5 11.5t-11.5 29.5q0 30 26.5 51.5t53.5 21.5q20 0 32 -11t12 -29zM424 606q0 -30 -27 -52t-54 -22q-20 0 -31.5 11.5t-11.5 29.5q0 30 26.5 51.5t53.5 21.5q20 0 32 -11t12 -29zM468 262h-330v-36q0 -61 49.5 -110.5 t126.5 -49.5q37 0 75 20.5t65 54.5l25 -19q-75 -140 -212 -140q-106 0 -169.5 63t-63.5 163q0 110 71.5 188t183.5 78q169 0 179 -212zM140 306h224q0 52 -28 85t-76 33t-80.5 -36t-39.5 -82z" />
<glyph unicode="&#xec;" horiz-adv-x="296" d="M232 522h-52l-150 94q-34 21 -34 46q0 16 12.5 27t32.5 11q8 0 15 -1.5t11.5 -3.5t10.5 -7l9 -8q3 -2 10 -10.5t11 -12.5zM38 -8v36q34 2 47.5 18.5t13.5 65.5v126q0 99 -11 124.5t-50 25.5v36q34 0 77.5 14.5t63.5 35.5h32q-8 -28 -8 -122v-240q0 -48 18.5 -65t58.5 -19 v-36q-14 1 -56.5 4.5t-65.5 3.5t-65 -3.5t-55 -4.5z" />
<glyph unicode="&#xed;" horiz-adv-x="296" d="M128 522h-52l124 135q4 4 11 12.5t10 10.5l9 8q6 5 10.5 7t11.5 3.5t15 1.5q20 0 32.5 -11t12.5 -27q0 -25 -34 -46zM38 -8v36q34 2 47.5 18.5t13.5 65.5v126q0 99 -11 124.5t-50 25.5v36q34 0 77.5 14.5t63.5 35.5h32q-8 -28 -8 -122v-240q0 -48 18.5 -65t58.5 -19v-36 q-14 1 -56.5 4.5t-65.5 3.5t-65 -3.5t-55 -4.5z" />
<glyph unicode="&#xee;" horiz-adv-x="296" d="M114 694h79l125 -172h-51l-113 101l-115 -101h-49zM38 -8v36q34 2 47.5 18.5t13.5 65.5v126q0 99 -11 124.5t-50 25.5v36q34 0 77.5 14.5t63.5 35.5h32q-8 -28 -8 -122v-240q0 -48 18.5 -65t58.5 -19v-36q-14 1 -56.5 4.5t-65.5 3.5t-65 -3.5t-55 -4.5z" />
<glyph unicode="&#xef;" horiz-adv-x="296" d="M120 606q0 -30 -27 -52t-54 -22q-20 0 -31.5 11.5t-11.5 29.5q0 30 26.5 51.5t53.5 21.5q20 0 32 -11t12 -29zM312 606q0 -30 -27 -52t-54 -22q-20 0 -31.5 11.5t-11.5 29.5q0 30 26.5 51.5t53.5 21.5q20 0 32 -11t12 -29zM38 -8v36q34 2 47.5 18.5t13.5 65.5v126 q0 99 -11 124.5t-50 25.5v36q34 0 77.5 14.5t63.5 35.5h32q-8 -28 -8 -122v-240q0 -48 18.5 -65t58.5 -19v-36q-14 1 -56.5 4.5t-65.5 3.5t-65 -3.5t-55 -4.5z" />
<glyph unicode="&#xf0;" horiz-adv-x="574" d="M148 278q0 -104 43.5 -178t111.5 -74q55 0 89 43t34 109q0 104 -43.5 178t-111.5 74q-55 0 -89 -43t-34 -109zM110 768l20 28q73 -30 159 -105l139 101l28 -38l-132 -95q93 -89 154.5 -197.5t61.5 -205.5q0 -127 -71.5 -200.5t-187.5 -73.5q-105 0 -176 67t-71 171 q0 113 72 183.5t187 70.5q44 0 71 -10q-25 68 -95 156l-127 -92l-28 36l125 91q-68 76 -129 113z" />
<glyph unicode="&#xf1;" d="M430 660h37q-25 -116 -115 -116q-36 0 -82 23q-46 24 -65 24q-35 0 -54 -47h-36q7 48 37.5 82t76.5 34q32 0 80 -24q50 -24 71 -24q35 0 50 48zM201 346v-234q0 -47 16 -63t53 -21v-36q-14 1 -56.5 4.5t-65.5 3.5t-65 -3.5t-55 -4.5v36q36 2 52.5 19t16.5 65v126 q0 96 -14 123t-55 27v36q33 0 77.5 14.5t67.5 35.5h32q-4 -34 -4 -72q81 72 155 72q77 0 114.5 -52.5t37.5 -135.5v-174q0 -47 16 -63t53 -21v-36q-14 1 -56.5 4.5t-65.5 3.5t-65 -3.5t-55 -4.5v36q36 2 52.5 19t16.5 65v140q0 146 -107 146q-49 0 -96 -52z" />
<glyph unicode="&#xf2;" horiz-adv-x="574" d="M426 178q0 104 -43.5 178t-111.5 74q-55 0 -89 -43t-34 -109q0 -104 43.5 -178t111.5 -74q55 0 89 43t34 109zM540 236q0 -113 -72 -183.5t-187 -70.5q-105 0 -176 67t-71 171q0 113 72 183.5t187 70.5q105 0 176 -67t71 -171zM365 522h-52l-150 94q-34 21 -34 46 q0 16 12.5 27t32.5 11q8 0 15 -1.5t11.5 -3.5t10.5 -7l9 -8q3 -2 10 -10.5t11 -12.5z" />
<glyph unicode="&#xf3;" horiz-adv-x="574" d="M261 522h-52l124 135q4 4 11 12.5t10 10.5l9 8q6 5 10.5 7t11.5 3.5t15 1.5q20 0 32.5 -11t12.5 -27q0 -25 -34 -46zM426 178q0 104 -43.5 178t-111.5 74q-55 0 -89 -43t-34 -109q0 -104 43.5 -178t111.5 -74q55 0 89 43t34 109zM540 236q0 -113 -72 -183.5t-187 -70.5 q-105 0 -176 67t-71 171q0 113 72 183.5t187 70.5q105 0 176 -67t71 -171z" />
<glyph unicode="&#xf4;" horiz-adv-x="574" d="M247 694h79l125 -172h-51l-113 101l-115 -101h-49zM426 178q0 104 -43.5 178t-111.5 74q-55 0 -89 -43t-34 -109q0 -104 43.5 -178t111.5 -74q55 0 89 43t34 109zM540 236q0 -113 -72 -183.5t-187 -70.5q-105 0 -176 67t-71 171q0 113 72 183.5t187 70.5q105 0 176 -67 t71 -171z" />
<glyph unicode="&#xf5;" horiz-adv-x="574" d="M420 660h37q-25 -116 -115 -116q-36 0 -82 23q-46 24 -65 24q-35 0 -54 -47h-36q7 48 37.5 82t76.5 34q32 0 80 -24q50 -24 71 -24q35 0 50 48zM426 178q0 104 -43.5 178t-111.5 74q-55 0 -89 -43t-34 -109q0 -104 43.5 -178t111.5 -74q55 0 89 43t34 109zM540 236 q0 -113 -72 -183.5t-187 -70.5q-105 0 -176 67t-71 171q0 113 72 183.5t187 70.5q105 0 176 -67t71 -171z" />
<glyph unicode="&#xf6;" horiz-adv-x="574" d="M253 606q0 -30 -27 -52t-54 -22q-20 0 -31.5 11.5t-11.5 29.5q0 30 26.5 51.5t53.5 21.5q20 0 32 -11t12 -29zM445 606q0 -30 -27 -52t-54 -22q-20 0 -31.5 11.5t-11.5 29.5q0 30 26.5 51.5t53.5 21.5q20 0 32 -11t12 -29zM426 178q0 104 -43.5 178t-111.5 74 q-55 0 -89 -43t-34 -109q0 -104 43.5 -178t111.5 -74q55 0 89 43t34 109zM540 236q0 -113 -72 -183.5t-187 -70.5q-105 0 -176 67t-71 171q0 113 72 183.5t187 70.5q105 0 176 -67t71 -171z" />
<glyph unicode="&#xf7;" horiz-adv-x="600" d="M528 190h-456v76h456v-76zM235 409q0 27 19 46t46 19t46 -19t19 -46t-19 -46t-46 -19t-46 19t-19 46zM235 47q0 27 19 46t46 19t46 -19t19 -46t-19 -46t-46 -19t-46 19t-19 46z" />
<glyph unicode="&#xf8;" horiz-adv-x="574" d="M395 330l-188 -251q39 -53 96 -53q55 0 89 43t34 109q0 87 -31 152zM179 125l188 252q-41 53 -96 53t-89 -43t-34 -109q0 -86 31 -153zM556 546l-98 -131q82 -66 82 -179t-72 -183.5t-187 -70.5q-70 0 -123 31l-77 -103h-63l98 131q-82 66 -82 179t72 183.5t187 70.5 q68 0 124 -31l77 103h62z" />
<glyph unicode="&#xf9;" d="M573 50v-36q-28 0 -70.5 -10t-69.5 -22q-27 22 -37 62q-74 -62 -160 -62q-83 0 -116.5 40.5t-33.5 129.5q0 54 2 114t2 73q0 41 -13 61t-50 20v36q96 0 153 18h26q-16 -61 -16 -168v-134q0 -124 106 -124q30 0 57 16t41 40v198q0 65 -15 91.5t-49 26.5v36q114 0 150 18 h28q-10 -73 -10 -141v-228q0 -32 19.5 -43.5t55.5 -11.5zM375 522h-52l-150 94q-34 21 -34 46q0 16 12.5 27t32.5 11q8 0 15 -1.5t11.5 -3.5t10.5 -7l9 -8q3 -2 10 -10.5t11 -12.5z" />
<glyph unicode="&#xfa;" d="M271 522h-52l124 135q4 4 11 12.5t10 10.5l9 8q6 5 10.5 7t11.5 3.5t15 1.5q20 0 32.5 -11t12.5 -27q0 -25 -34 -46zM573 50v-36q-28 0 -70.5 -10t-69.5 -22q-27 22 -37 62q-74 -62 -160 -62q-83 0 -116.5 40.5t-33.5 129.5q0 54 2 114t2 73q0 41 -13 61t-50 20v36 q96 0 153 18h26q-16 -61 -16 -168v-134q0 -124 106 -124q30 0 57 16t41 40v198q0 65 -15 91.5t-49 26.5v36q114 0 150 18h28q-10 -73 -10 -141v-228q0 -32 19.5 -43.5t55.5 -11.5z" />
<glyph unicode="&#xfb;" d="M257 694h79l125 -172h-51l-113 101l-115 -101h-49zM573 50v-36q-28 0 -70.5 -10t-69.5 -22q-27 22 -37 62q-74 -62 -160 -62q-83 0 -116.5 40.5t-33.5 129.5q0 54 2 114t2 73q0 41 -13 61t-50 20v36q96 0 153 18h26q-16 -61 -16 -168v-134q0 -124 106 -124q30 0 57 16 t41 40v198q0 65 -15 91.5t-49 26.5v36q114 0 150 18h28q-10 -73 -10 -141v-228q0 -32 19.5 -43.5t55.5 -11.5z" />
<glyph unicode="&#xfc;" d="M263 606q0 -30 -27 -52t-54 -22q-20 0 -31.5 11.5t-11.5 29.5q0 30 26.5 51.5t53.5 21.5q20 0 32 -11t12 -29zM455 606q0 -30 -27 -52t-54 -22q-20 0 -31.5 11.5t-11.5 29.5q0 30 26.5 51.5t53.5 21.5q20 0 32 -11t12 -29zM573 50v-36q-28 0 -70.5 -10t-69.5 -22 q-27 22 -37 62q-74 -62 -160 -62q-83 0 -116.5 40.5t-33.5 129.5q0 54 2 114t2 73q0 41 -13 61t-50 20v36q96 0 153 18h26q-16 -61 -16 -168v-134q0 -124 106 -124q30 0 57 16t41 40v198q0 65 -15 91.5t-49 26.5v36q114 0 150 18h28q-10 -73 -10 -141v-228q0 -32 19.5 -43.5 t55.5 -11.5z" />
<glyph unicode="&#xfd;" horiz-adv-x="519" d="M234 522h-52l124 135q4 4 11 12.5t10 10.5l9 8q6 5 10.5 7t11.5 3.5t15 1.5q20 0 32.5 -11t12.5 -27q0 -25 -34 -46zM226 464v-36q-22 0 -37 -12t-15 -34q0 -5 0.5 -9t2.5 -11l4 -12q2 -6 7 -18l11 -24l15 -32l20 -42l26 -54l32 -67l34 72l28 57l20 42l14 32q4 10 8 23.5 t5 22.5t1 20q0 23 -20 34.5t-48 11.5v36q9 0 48 -4t56 -4t56 4t48 4v-36q-50 0 -82 -58l-21 -44l-114 -238q-81 -168 -142.5 -250t-123.5 -82q-29 0 -50 15t-21 43q0 19 13.5 34.5t32.5 15.5t38 -16t34 -16q22 0 51 34.5t46 65t30 59.5l-170 374q-15 33 -31.5 48t-45.5 15 v36q11 0 56 -4t64 -4t64 4t56 4z" />
<glyph unicode="&#xfe;" d="M194 330v-254q22 -18 56 -34t59 -16q60 0 98 46t38 114q0 87 -41 150.5t-110 63.5q-38 0 -66 -22t-34 -48zM294 -200v-36q-7 0 -57.5 5t-82.5 5q-25 0 -74 -5t-58 -5v36q38 0 53 29t15 98v621q0 86 -13 118t-56 32v36q49 5 92.5 22.5t56.5 39.5h32q-8 -28 -8 -122v-274 q24 23 41 36.5t46.5 25.5t62.5 12q85 0 150 -68t65 -170t-64 -178t-169 -76q-81 0 -132 27v-97q0 -62 26 -87t74 -25z" />
<glyph unicode="&#xff;" horiz-adv-x="519" d="M226 606q0 -30 -27 -52t-54 -22q-20 0 -31.5 11.5t-11.5 29.5q0 30 26.5 51.5t53.5 21.5q20 0 32 -11t12 -29zM418 606q0 -30 -27 -52t-54 -22q-20 0 -31.5 11.5t-11.5 29.5q0 30 26.5 51.5t53.5 21.5q20 0 32 -11t12 -29zM226 464v-36q-22 0 -37 -12t-15 -34 q0 -5 0.5 -9t2.5 -11l4 -12q2 -6 7 -18l11 -24l15 -32l20 -42l26 -54l32 -67l34 72l28 57l20 42l14 32q4 10 8 23.5t5 22.5t1 20q0 23 -20 34.5t-48 11.5v36q9 0 48 -4t56 -4t56 4t48 4v-36q-50 0 -82 -58l-21 -44l-114 -238q-81 -168 -142.5 -250t-123.5 -82q-29 0 -50 15 t-21 43q0 19 13.5 34.5t32.5 15.5t38 -16t34 -16q22 0 51 34.5t46 65t30 59.5l-170 374q-15 33 -31.5 48t-45.5 15v36q11 0 56 -4t64 -4t64 4t56 4z" />
<glyph unicode="&#x152;" horiz-adv-x="1167" d="M608 194v324q0 87 -39 125.5t-127 38.5q-50 0 -96 -18.5t-85.5 -56t-63 -102.5t-23.5 -149q0 -149 88 -237.5t204 -88.5q77 0 109.5 38t32.5 126zM728 656v-266q54 -4 96 -4q88 0 120 21.5t34 70.5h36q-8 -60 -8 -116t8 -116h-36q-2 49 -34 70.5t-120 21.5q-42 0 -96 -4 v-176q0 -74 25.5 -92t106.5 -18q224 0 231 141h36q0 -35 -11.5 -92.5t-11.5 -118.5q-24 13 -49 17q-21 5 -61 5h-268q-72 0 -162 -9q-19 -1 -45 -3l-41 -4q-16 -2 -24 -2q-196 0 -303 101t-107 259q0 179 113 283.5t297 104.5q29 0 117 -9q113 -9 162 -9h171q48 0 71 1 t55.5 6t63.5 15q-4 -16 -5.5 -86t-6.5 -85h-30q0 59 -43 80t-169 21q-88 0 -112 -8z" />
<glyph unicode="&#x153;" horiz-adv-x="889" d="M148 278q0 -103 42.5 -177.5t107.5 -74.5q50 0 83 45t33 129q0 99 -38 164.5t-105 65.5q-55 0 -89 -43t-34 -109zM838 262h-332v-36q0 -61 50 -110.5t128 -49.5q37 0 75 20.5t65 54.5l25 -19q-75 -140 -212 -140q-128 0 -177 98q-64 -98 -196 -98q-93 0 -161.5 68 t-68.5 170q0 109 70.5 181.5t171.5 72.5q125 0 188 -113q64 113 196 113q87 0 130 -57t48 -155zM508 306h226q0 53 -25 85.5t-71 32.5q-54 0 -88.5 -36t-41.5 -82z" />
<glyph unicode="&#x178;" horiz-adv-x="667" d="M346 848q0 -30 -27 -52t-54 -22q-20 0 -31.5 11.5t-11.5 29.5q0 30 26.5 51.5t53.5 21.5q20 0 32 -11t12 -29zM538 848q0 -30 -27 -52t-54 -22q-20 0 -31.5 11.5t-11.5 29.5q0 30 26.5 51.5t53.5 21.5q20 0 32 -11t12 -29zM690 722v-42q-68 0 -126 -93l-163 -260v-169 q0 -75 22.5 -100.5t91.5 -25.5v-42q-12 1 -57.5 5.5t-113.5 4.5t-113.5 -4.5t-57.5 -5.5v42q65 0 86.5 26t21.5 100v133l-152 277q-36 67 -68 89.5t-85 22.5v42q14 0 75 -5t87 -5q25 0 86 5t75 5v-42q-66 0 -66 -36q0 -19 21 -58.5t102 -176.5l20 -34l41 63l33 51l24 39 l20 30q6 10 12.5 22.5t9 18t4.5 13.5t2.5 13.5t0.5 13.5q0 20 -17 30.5t-61 10.5v42q11 0 57.5 -5t65.5 -5t65 5t57 5z" />
<glyph unicode="&#x2c6;" horiz-adv-x="296" d="M108 694h79l125 -172h-51l-113 101l-115 -101h-49z" />
<glyph unicode="&#x2dc;" horiz-adv-x="296" d="M281 660h37q-25 -116 -115 -116q-36 0 -82 23q-46 24 -65 24q-35 0 -54 -47h-36q7 48 37.5 82t76.5 34q32 0 80 -24q50 -24 71 -24q35 0 50 48z" />
<glyph unicode="&#x2000;" horiz-adv-x="488" />
<glyph unicode="&#x2001;" horiz-adv-x="976" />
<glyph unicode="&#x2002;" horiz-adv-x="488" />
<glyph unicode="&#x2003;" horiz-adv-x="976" />
<glyph unicode="&#x2004;" horiz-adv-x="325" />
<glyph unicode="&#x2005;" horiz-adv-x="244" />
<glyph unicode="&#x2006;" horiz-adv-x="162" />
<glyph unicode="&#x2007;" horiz-adv-x="162" />
<glyph unicode="&#x2008;" horiz-adv-x="122" />
<glyph unicode="&#x2009;" horiz-adv-x="195" />
<glyph unicode="&#x200a;" horiz-adv-x="54" />
<glyph unicode="&#x2010;" horiz-adv-x="352" d="M42 179v98h268v-98h-268z" />
<glyph unicode="&#x2011;" horiz-adv-x="352" d="M42 179v98h268v-98h-268z" />
<glyph unicode="&#x2013;" horiz-adv-x="500" d="M0 190v76h500v-76h-500z" />
<glyph unicode="&#x2014;" horiz-adv-x="1000" d="M0 190v76h1000v-76h-1000z" />
<glyph unicode="&#x2018;" horiz-adv-x="241" d="M170 752v-36q-26 -4 -42.5 -29t-16.5 -56q0 -9 4 -17q6 6 19 6q19 0 31 -19.5t12 -43.5q0 -23 -15.5 -45t-38.5 -22q-39 0 -54.5 29t-15.5 67q0 55 32.5 104.5t84.5 61.5z" />
<glyph unicode="&#x2019;" horiz-adv-x="241" d="M71 472v36q26 4 42.5 29t16.5 56q0 9 -4 17q-6 -6 -19 -6q-19 0 -31 19.5t-12 43.5q0 23 15.5 45t38.5 22q39 0 54.5 -29t15.5 -67q0 -55 -32.5 -104.5t-84.5 -61.5z" />
<glyph unicode="&#x201a;" horiz-adv-x="241" d="M71 -140v36q26 4 42.5 29t16.5 56q0 9 -4 17q-2 -2 -9 -4q-6 -2 -10 -2q-19 0 -31 19.5t-12 43.5q0 23 15.5 45t38.5 22q39 0 54.5 -29t15.5 -67q0 -55 -32.5 -104.5t-84.5 -61.5z" />
<glyph unicode="&#x201c;" horiz-adv-x="426" d="M171 752v-36q-26 -4 -42.5 -29t-16.5 -56q0 -9 4 -17q6 6 19 6q19 0 31 -19.5t12 -43.5q0 -23 -15.5 -45t-38.5 -22q-39 0 -54.5 29t-15.5 67q0 55 32.5 104.5t84.5 61.5zM357 752v-36q-26 -4 -42.5 -29t-16.5 -56q0 -9 4 -17q6 6 19 6q19 0 31 -19.5t12 -43.5 q0 -23 -15.5 -45t-38.5 -22q-39 0 -54.5 29t-15.5 67q0 55 32.5 104.5t84.5 61.5z" />
<glyph unicode="&#x201d;" horiz-adv-x="426" d="M255 472v36q26 4 42.5 29t16.5 56q0 9 -4 17q-6 -6 -19 -6q-19 0 -31 19.5t-12 43.5q0 23 15.5 45t38.5 22q39 0 54.5 -29t15.5 -67q0 -55 -32.5 -104.5t-84.5 -61.5zM69 472v36q26 4 42.5 29t16.5 56q0 9 -4 17q-6 -6 -19 -6q-19 0 -31 19.5t-12 43.5q0 23 15.5 45 t38.5 22q39 0 54.5 -29t15.5 -67q0 -55 -32.5 -104.5t-84.5 -61.5z" />
<glyph unicode="&#x201e;" horiz-adv-x="426" d="M255 -140v36q26 4 42.5 29t16.5 56q0 9 -4 17q-2 -2 -9 -4q-6 -2 -10 -2q-19 0 -31 19.5t-12 43.5q0 23 15.5 45t38.5 22q39 0 54.5 -29t15.5 -67q0 -55 -32.5 -104.5t-84.5 -61.5zM69 -140v36q26 4 42.5 29t16.5 56q0 9 -4 17q-2 -2 -9 -4q-6 -2 -10 -2q-19 0 -31 19.5 t-12 43.5q0 23 15.5 45t38.5 22q39 0 54.5 -29t15.5 -67q0 -55 -32.5 -104.5t-84.5 -61.5z" />
<glyph unicode="&#x2022;" horiz-adv-x="500" d="M72 356q0 74 52 126t126 52t126 -52t52 -126t-52 -126t-126 -52t-126 52t-52 126z" />
<glyph unicode="&#x2026;" horiz-adv-x="1000" d="M833 130q29 0 44.5 -21t15.5 -53t-15.5 -53t-44.5 -21t-44.5 21t-15.5 53t15.5 53t44.5 21zM500 130q29 0 44.5 -21t15.5 -53t-15.5 -53t-44.5 -21t-44.5 21t-15.5 53t15.5 53t44.5 21zM167 130q29 0 44.5 -21t15.5 -53t-15.5 -53t-44.5 -21t-44.5 21t-15.5 53t15.5 53 t44.5 21z" />
<glyph unicode="&#x202f;" horiz-adv-x="195" />
<glyph unicode="&#x2039;" horiz-adv-x="315" d="M233 425l25 -25q-91 -132 -123 -172q113 -157 123 -172l-25 -25q-25 29 -100 97l-89 82v35q24 20 50 45l45 42l49 48z" />
<glyph unicode="&#x203a;" horiz-adv-x="315" d="M82 31l-25 25q91 132 123 172q-113 157 -123 172l25 25q25 -29 100 -97l89 -82v-35q-24 -20 -51 -45l-44 -42l-50 -48z" />
<glyph unicode="&#x205f;" horiz-adv-x="244" />
<glyph unicode="&#x20ac;" d="M545 565h-22q-16 102 -136 102q-85 0 -126 -63t-52 -184h280l-18 -41h-264v-32v-33h236l-18 -42h-216q8 -117 54 -180.5t125 -63.5q52 0 89.5 25t45.5 77h22l-6 -86q-52 -59 -176 -59q-244 0 -270 287h-73l18 42h50q-1 9 -1 34q0 22 1 31h-68l18 41h53q17 145 80 218.5 t192 73.5q125 0 176 -57z" />
<glyph unicode="&#x2122;" horiz-adv-x="990" d="M120 360v328h-47q-52 0 -63 -64h-24v88h354v-88h-24q-11 64 -63 64h-47v-328q0 -28 49 -28v-24h-186v24q51 0 51 28zM626 307l-143 297h-1v-206q0 -38 8.5 -50.5t42.5 -15.5v-24h-132v24q33 3 42 15.5t9 50.5v241q-21 49 -70 49v24h133l146 -296l154 296h114v-24 q-33 0 -44 -11.5t-11 -37.5v-279q0 -28 50 -28v-24h-185v24q49 0 49 28v245h-2l-148 -298h-12z" />
</font>
</defs>
</svg>
