<svg id="alfalfa" version="1.1" xmlns="http://www.w3.org/2000/svg" x="0px" y="0px" viewBox="0 0 608.1 794.3" enable-background="new 0 0 608.1 794.3">
<g id="alfalfa-sub-lines">
	<path fill="none" stroke="#00B68C" stroke-miterlimit="10" d="M149.2,139c0,0,5-11.3,3-16.7c-2-5.3-7,1-7,4.7c0,3.7,2.7,10,2.7,10
		L149.2,139z"/>
	<path fill="none" stroke="#00B68C" stroke-miterlimit="10" d="M140.9,96.6c0,0,6.7,12,9.3,19c2.7,7,3,9.3,2.3,12.7
		c-0.7,3.3,3.4-11.8,5-11.3c4.7,1.3,0.3,12.7,0.3,12.7"/>
	<path fill="none" stroke="#00B68C" stroke-miterlimit="10" d="M117.9,144.6c0,0-20.3-13-19.3-18.7c1-5.7,6-8.7,13-3
		c7,5.7,17.7,17.7,17.7,17.7s-11-13.7-14.3-12c-3.3,1.7-3.3,5.3-1.3,6.7c2,1.3-6.2,2-6.2,2"/>
	<path fill="none" stroke="#00B68C" stroke-miterlimit="10" d="M138.9,173.3c0,0-12.3,2.7-9.7-6.3c2.7-9,3.2-11.2-3.5-13.2
		c-6.7-2-16.2,3.8-16.2,3.8"/>
	<path fill="none" stroke="#00B68C" stroke-miterlimit="10" d="M180.2,150.3c0,0,8-12,7.7-16.3s-1.1-5.7-5.7-4.5
		c-5.5,1.5-12.7,12.5-12.3,15.2c0.3,2.7,4.7,7,4.7,7l1.3-4.3l1,3.7L180.2,150.3z"/>
	<path fill="none" stroke="#00B68C" stroke-miterlimit="10" d="M195.9,104.6c0,0-4.3,1-8,7s-4.7,9.3-4.7,9.3"/>
	<path fill="none" stroke="#00B68C" stroke-miterlimit="10" d="M190.9,103c0,0-6.3,1-12.3,11s-7.3,15.3-7.3,15.3"/>
	<path fill="none" stroke="#00B68C" stroke-miterlimit="10" d="M158.2,71.3c0,0,8.8-1,4.7,7c-4.9,9.4-2.7,24.5-1,24.3
		c0,0-0.8-20.7,4.7-24.2c4.2-2.7,4-5.8,5.7-0.5"/>
	<path fill="none" stroke="#00B68C" stroke-miterlimit="10" d="M140.6,80.6c0,0-10.7-11.3-9.3-16c1.3-4.7,3.7-6,5.3-2.3
		C138.2,66,140.6,80.6,140.6,80.6z"/>
	<path fill="none" stroke="#00B68C" stroke-miterlimit="10" d="M127.2,44.6c0,0,4.3-2,8.3,6.3s5,29.7,5,29.7s-4-15.3,0-16
		c4-0.7,4,7.7,2,11c-2,3.3-0.7,5-0.7,5"/>
	<path fill="none" stroke="#00B68C" stroke-miterlimit="10" d="M137.2,95.6c0,0-17.3-8.3-14-13C126.6,78,138.9,94,138.9,94
		L137.2,95.6z"/>
	<path fill="none" stroke="#00B68C" stroke-miterlimit="10" d="M127.6,127c0,0-3-16-10-18.7c-7-2.7-20.7-3.7-20.7-3.7"/>
	<path fill="none" stroke="#00B68C" stroke-miterlimit="10" d="M129.9,125c0,0,1-9.3-4.7-14.7c-5.7-5.3-24.3-6-24.3-6"/>
	<path fill="none" stroke="#00B68C" stroke-miterlimit="10" d="M177.6,105.6c0,0,16-2.3,16-9c0-6.7-5-10-7.7-4.3
		C183.2,98,177.6,105.6,177.6,105.6z"/>
	<path fill="none" stroke="#00B68C" stroke-miterlimit="10" d="M138.9,94c0,0,13.7,7.3,13-2s-12-13.7-11.3-11.3
		C141.2,83,136.6,91.6,138.9,94z"/>
	<path fill="none" stroke="#00B68C" stroke-miterlimit="10" d="M148.2,164c0,0-0.3-12.3-3.3-13.7c-3-1.3-8.3-7.3-5.7-9
		c2.7-1.7,12.7,8.7,12,11C150.6,154.6,148.2,164,148.2,164z"/>
	<path fill="none" stroke="#00B68C" stroke-miterlimit="10" d="M319.9,174.6c0,0-1.3-13.3,3-17.7c4.3-4.3,12.3-17.3,7-19
		c-5.3-1.7-13,2.3-12,10.3s-0.7,27-2.3,30C313.9,181.3,319.9,174.6,319.9,174.6z"/>
	<path fill="none" stroke="#00B68C" stroke-miterlimit="10" d="M307.9,183c0,0,1-23.3-3.3-27.7c-4.3-4.3-15.3-14.7-13-17.7
		c2.3-3,11-0.3,11.7,5c0.7,5.3,5.7,19,7,19.7C311.6,163,307.9,183,307.9,183z"/>
	<path fill="none" stroke="#00B68C" stroke-miterlimit="10" d="M310.9,141c0,0-1.7-16.7-5.3-19.7c-3.7-3-6-4.7-6-4.7
		s-5.7-12,0.3-12.7s9.3,6.7,9,10c-0.3,3.3,6.7,7.7,6.7,7.7L310.9,141z"/>
	<path fill="none" stroke="#00B68C" stroke-miterlimit="10" d="M311.9,100.3c0,0-3.7-5.7-5-2c-1.3,3.7-2,7.3-2,7.3s7.3,4.8,6.3,12.2
		C311.1,118.8,311.9,100.3,311.9,100.3z"/>
	<path fill="none" stroke="#00B68C" stroke-miterlimit="10" d="M339.2,137.3c0,0,12.3-14,10.3-15s-5.7,1.3-5.7,1.3s2.7-6.3,0.3-5.7
		s-4.7,11.3-4.7,11.3"/>
	<path fill="none" stroke="#00B68C" stroke-miterlimit="10" d="M326.6,179.6c0,0,5.7-23,14-28c8.3-5,13.7-5,13.3-0.3
		c-0.3,4.7-8,17.3-8,17.3"/>
	<path fill="none" stroke="#00B68C" stroke-miterlimit="10" d="M326.6,196.6c0,0,32,2,32-3s-6.3-4.7-6.3-4.7s10.3-6.7,4.7-6.3
		c-5.7,0.3-17.3,6-17.3,6L326.6,196.6z"/>
	<path fill="none" stroke="#00B68C" stroke-miterlimit="10" d="M342.6,136c0,0,7-10.3,10.7-15s9.3-7.3,9.3-12s-1.3-8-1.3-8"/>
	<path fill="none" stroke="#00B68C" stroke-miterlimit="10" d="M371.2,105.6c0,0,5.7-0.7,5.7-7c0-6.3-7.3-8.7-11-5
		c-3.7,3.7-8.7,8-8.7,8"/>
	<path fill="none" stroke="#00B68C" stroke-miterlimit="10" d="M342.2,111.6c0,0,6.7-3.3,6.7-6.7s3-16.3,7-16.7c4-0.3,4.3,4.7,2,7.7
		c-2.3,3-6,9-6,9"/>
	<path fill="none" stroke="#00B68C" stroke-miterlimit="10" d="M331.2,123.3c0,0,4.7-4,3.7-10s-1.3-13.7,0.7-14.3"/>
	<path fill="none" stroke="#00B68C" stroke-miterlimit="10" d="M345.9,185.6c0,0,13-7.3,22-8.7s17-6,16.7-2.7
		c-0.3,3.3-13,13.7-17,14.3c-4,0.7-9,5-9,5"/>
	<path fill="none" stroke="#00B68C" stroke-miterlimit="10" d="M317.9,189c0,0,9.7,1.3,11.7-3s6.7-5.3,6.7-5.3"/>
	<path fill="none" stroke="#00B68C" stroke-miterlimit="10" d="M310.2,187c0,0,10,2,12.3-2c2.3-4,5.3-5,5.3-5s3-13.7,7.3-16
		s7.3-4.3,5.7-1.3c-1.7,3-4,4.7-4,4.7s4.7-5.3,5.7-3c1,2.3,1,3.7-3.7,7c-4.7,3.3-7,8.3-7,8.3"/>
	<path fill="none" stroke="#00B68C" stroke-miterlimit="10" d="M309.2,183.6c0,0,8,1.7,10.7-2c2.7-3.7,8.3-5.7,8.3-5.7"/>
	<path fill="none" stroke="#00B68C" stroke-miterlimit="10" d="M368.2,162.3c0,0,9.3-8.3,5.3-10.3s-6.7,2-6.7,2s3-9,0.3-8
		s-4.3,6.3-4.3,6.3"/>
	<path fill="none" stroke="#00B68C" stroke-miterlimit="10" d="M389.6,137.3c0,0-2-11.3,5.3-11.3c7.3,0,12,0,11.3,1s-6.7,3-9.3,6.3
		c-2.7,3.3-3.3,5-3.3,5"/>
	<path fill="none" stroke="#00B68C" stroke-miterlimit="10" d="M365.6,166.3c0,0,10-4,13.7-10s10-6.7,9-10.3s-4.3-3.7-4.3-3.7"/>
	<path fill="none" stroke="#00B68C" stroke-miterlimit="10" d="M395.2,139c0,0,11.3-10.7,11-12"/>
	<path fill="none" stroke="#00B68C" stroke-miterlimit="10" d="M365.9,131.6c0,0,14.3-0.7,14-7.7c-0.3-7,1.3-12,3.7-12.3
		c2.3-0.3,6.3,3,4.3,6s-7.3,12-7.3,12"/>
	<path fill="none" stroke="#00B68C" stroke-miterlimit="10" d="M178.2,86.3c0,0,12.3-6.3,10-12.3c-2.3-6-8-4-8.7-2.7
		c-0.7,1.3-3,12.7-3,12.7l1.3,3.7L178.2,86.3z"/>
	<path fill="none" stroke="#00B68C" stroke-miterlimit="10" d="M152.9,97.6c0,0,2-17,0-20s-8.3-8.7-7-13s2.7-5.3,2.7-5.3
		s7.7,10.3,7,13c-0.7,2.7-8.7,7-8.7,7"/>
	<path fill="none" stroke="#00B68C" stroke-miterlimit="10" d="M136.2,107.6c0,0-2.3,0.3-4.7-2c-2.3-2.3-4.3-7.3-4.3-7.3
		s3.7-0.7,5.3,2C134.2,103,136.2,107.6,136.2,107.6z"/>
	<path fill="none" stroke="#00B68C" stroke-miterlimit="10" d="M360.9,514.6c0,0,1.7-4.3,1.7-9c0-4.7-2.3-4.3-2.3-4.3"/>
	<path fill="none" stroke="#00B68C" stroke-miterlimit="10" d="M364.2,490.6c0,0,2.3,5.7,2.3,9.3c0,3.7,0.3,8.7,0.3,8.7s4-0.7,8,0.7
		s9,2,9,2"/>
	<path fill="none" stroke="#00B68C" stroke-miterlimit="10" d="M371.9,484.6c0,0,0.7,6.7,0.3,10.7s0.3,7,0.3,7s7.3-2,11-0.3
		c3.7,1.7,8.7,4,8.7,4"/>
	<path fill="none" stroke="#00B68C" stroke-miterlimit="10" d="M384.9,477.6c0,0-0.7,5-2.7,7.3c-2,2.3-2.3,6.7-2.3,6.7
		s5.3-1.7,9.7-0.7c4.3,1,9.3,3.7,9.3,3.7"/>
	<path fill="none" stroke="#00B68C" stroke-miterlimit="10" d="M378.2,479c0,0-0.3,7.3-1.7,9.7c-1.3,2.3,0,7,0,7s4.3-1,10.7,0.7
		s10.7,5.3,10.7,5.3"/>
	<path fill="none" stroke="#00B68C" stroke-miterlimit="10" d="M394.9,475.3c0,0-0.7,6-1.3,8.3c-0.7,2.3,5,0.3,8,1.7s6,1.7,6,1.7"/>
	<path fill="none" stroke="#00B68C" stroke-miterlimit="10" d="M376.9,516.3c0,0-6-4.3-8-2.7c-2,1.7-6.7,1.3-6.7,1.3"/>
	<path fill="none" stroke="#00B68C" stroke-miterlimit="10" d="M352.2,530c0,0,14-1.3,14-3.7s5.7,6.3,7.7,5.7c2-0.7,3.3-1.7,3.3-1.7
		"/>
	<path fill="none" stroke="#00B68C" stroke-miterlimit="10" d="M352.9,538.3c0,0,8.7-5.3,11.3-5.7c2.7-0.3,2.7-0.3,2.7-0.3
		s7.7,2,9,5c1.3,3,3.3,7.7,3.3,7.7"/>
	<path fill="none" stroke="#00B68C" stroke-miterlimit="10" d="M355.2,548.6c0,0,5-6.7,8.3-6.7c3.3,0,3.3,0,3.3,0s4.7,1.3,6,4
		c1.3,2.7,1.3,2.7,1.3,2.7"/>
	<path fill="none" stroke="#00B68C" stroke-miterlimit="10" d="M354.9,559c0,0,4.7-9.3,7.7-10.3s3-1,3-1s6,2,7.3,4.3
		c1.3,2.3,3,5,3,5"/>
	<path fill="none" stroke="#00B68C" stroke-miterlimit="10" d="M371.6,554.6"/>
	<path fill="none" stroke="#00B68C" stroke-miterlimit="10" d="M362.2,558.6"/>
	<path fill="none" stroke="#00B68C" stroke-miterlimit="10" d="M391.6,542.3c0,0,1.7-9.7,0.3-12.7c-1.3-3-5-7.3-5-7.3s8.7-1,9-3.7
		c0.3-2.7,2.7-4.7,2.7-4.7"/>
	<path fill="none" stroke="#00B68C" stroke-miterlimit="10" d="M397.9,544.3c0,0,4.3-8,2.7-11.3c-1.7-3.3-5.3-9.7-5.3-9.7
		s5.7,0,6-2.3"/>
	<path fill="none" stroke="#00B68C" stroke-miterlimit="10" d="M403.6,544c0,0,3.3-5,1.7-9.3c-1.7-4.3-1.7-6-1.7-6l8.3-5.3"/>
	<path fill="none" stroke="#00B68C" stroke-miterlimit="10" d="M409.2,545c0,0,2.7-3.7,1.3-6.3c-1.3-2.7-1.3-4.3-1.3-4.3l2.7-1.3"/>
	<path fill="none" stroke="#00B68C" stroke-miterlimit="10" d="M384.6,536.3c0,0,4.3-5.3,1.3-8.3s-3-6.3-3-6.3l1.7-4.7"/>
	<path fill="none" stroke="#00B68C" stroke-miterlimit="10" d="M300.2,532.3c0,0-3,4-2.7,6.7c0.3,2.7,2,5.3,2,5.3s15.3-0.7,17.7-2.7
		"/>
	<path fill="none" stroke="#00B68C" stroke-miterlimit="10" d="M307.6,524.6c0,0-4,7-4,9.3c0,2.3,0,4.3,0,4.3s9,1.7,11.3-1
		c2.3-2.7,8.7-2.7,8.7-2.7"/>
	<path fill="none" stroke="#00B68C" stroke-miterlimit="10" d="M312.2,519.6c0,0-3.3,6.3-3.3,8.7s1,4.3,1,4.3s2.3,1.7,8.3-1.3
		s9-4.7,9-4.7"/>
	<path fill="none" stroke="#00B68C" stroke-miterlimit="10" d="M317.9,515.6c0,0-1.3,4-2,6c-0.7,2,0,4.7,0,4.7s4.3,1,7.3-2.3
		c3-3.3,7-5.7,7-5.7"/>
	<path fill="none" stroke="#00B68C" stroke-miterlimit="10" d="M109.6,449c0,0,4-7.7,4.7-11.3c0.7-3.7-1-7.7-1-7.7s-4-3-11.7-2.7
		c-3.3,0.1-13,2.7-14.3,1.3"/>
	<path fill="none" stroke="#00B68C" stroke-miterlimit="10" d="M116.9,444.6c0,0,3-18.3,1.7-20.3c-1.3-2-9.7-3.3-14.7-2.3
		c-7.7,1.5-10.7,3.8-10.7,3.8"/>
	<path fill="none" stroke="#00B68C" stroke-miterlimit="10" d="M119.9,448c0,0,6.7-11.7,5.3-19.2c-0.8-4.7-4.3-9.5-4.3-9.5
		s-5.7-2.9-10-4c-4.3-1.1-12,2-12,2"/>
	<path fill="none" stroke="#00B68C" stroke-miterlimit="10" d="M100.2,453c0,0,0.8-4.7,2.5-9.2c1.9-5,4.8-9.8,4.8-10.5
		c0-1.3-20,0.7-21.3,2"/>
	<path fill="none" stroke="#00B68C" stroke-miterlimit="10" d="M90.2,461.3c0,0,4.2-5,5.2-9.3c1-4.3,0.8-6,0.8-6s-1-3.3-6.7-1
		c-5.7,2.3-3.2,2.7-3.2,2.7"/>
	<path fill="none" stroke="#00B68C" stroke-miterlimit="10" d="M127.2,443.3c0,0,1-16.3,1-22s-1.8-9-1.8-9s-16.3-2.7-19.7-2.3
		c-3.3,0.3-3.8,0.3-3.8,0.3"/>
	<path fill="none" stroke="#00B68C" stroke-miterlimit="10" d="M128.1,444.3c0,0,5-13.8,4.2-26.3c-0.6-8.3-2-10.3-2-10.3
		s-8.2-1.5-12.8-1.5s-16,0.8-16,0.8"/>
	<path fill="none" stroke="#00B68C" stroke-miterlimit="10" d="M139.6,428.6c0,0,3.8-11.3-0.7-18.8c-2.3-3.8-5-8.3-5-8.3
		s-6.7-1.2-14-1.2s-12.3-1.3-12.3-1.3"/>
	<path fill="none" stroke="#00B68C" stroke-miterlimit="10" d="M144.6,421c0,0-2-11.7-2.7-15c-0.7-3.3-5.7-7.3-5.7-7.3
		s-4.7-3.7-9.7-2.7c-5,1-8.8,1.2-8.8,1.2"/>
	<path fill="none" stroke="#00B68C" stroke-miterlimit="10" d="M147.9,421.6c0,0,0.7-16.7-1.7-21.7c-2.3-5-3.2-4.8-3.2-4.8
		s-7.7-5.5-18.8-3.3c-3.6,0.7-9.3,0.2-9.3,0.2"/>
	<path fill="none" stroke="#00B68C" stroke-miterlimit="10" d="M149.9,415.3c0,0,1-10.5-0.3-15.2c-1.3-4.7-3-7.2-3-7.2
		s-6.8-3-11.5-3.8c-4.7-0.8-11.2-1.2-11.2-1.2"/>
	<path fill="none" stroke="#00B68C" stroke-miterlimit="10" d="M153.6,404.5c0,0,0.8-5.9-0.7-8.5c-2.3-4.3-2.3-6.7-2.3-6.7
		s-3.8-4.3-11-5.3c-6.6-0.9-10.7-3-10.7-3"/>
	<path fill="none" stroke="#00B68C" stroke-miterlimit="10" d="M160.6,395c0,0-1.3-5-2-9c-0.7-4-2.3-3.3-7.3-4c-5-0.7-14.3-2-14.3-2
		"/>
	<path fill="none" stroke="#00B68C" stroke-miterlimit="10" d="M212.2,366.5c0,0-14.8-6.3-24.2-4.3c-6.8,1.5-11,2.8-11,2.8
		s1.5-9.3-2.8-12.7c-4.3-3.3-7.7-4.3-7.7-4.3"/>
	<path fill="none" stroke="#00B68C" stroke-miterlimit="10" d="M207.6,372.6c0,0-13-7-20-6.3s-14.3,1.7-14.3,1.7s-2.3-6.7-3.3-9.3
		c-1-2.7-6.3-5-6.3-5"/>
	<path fill="none" stroke="#00B68C" stroke-miterlimit="10" d="M200.4,377c-4-0.7-12-6.8-18.5-6.3c-2.5,0.2-9.5,0.2-9.5,0.2
		l-4.7-8.2"/>
	<path fill="none" stroke="#00B68C" stroke-miterlimit="10" d="M169.9,344.3c0,0,5.5,2.8,9.3,8.3c2.5,3.6,0.7,9.3,0.7,9.3"/>
	<path fill="none" stroke="#00B68C" stroke-miterlimit="10" d="M192.4,380.8c0,0-6.8-7-11.2-7.3c-3.5-0.3-10.3,1.5-10.3,1.5"/>
	<path fill="none" stroke="#00B68C" stroke-miterlimit="10" d="M486.2,416c0,0-5.4-3.5-7.8-3.2c-3.3,0.5-7.2,3.5-7.2,3.5"/>
	<path fill="none" stroke="#00B68C" stroke-miterlimit="10" d="M464.2,415c0,0,5.8-6,13.2-6c7.3,0,10.2,2.7,10.2,2.7s4.7-8,7.3-8"/>
	<path fill="none" stroke="#00B68C" stroke-miterlimit="10" d="M455.6,416c0,0,1-12.3,10-13c9-0.7,19.7,0,19.7,0s-0.7-3.7,3-6.7
		s5.3-3,5.3-3"/>
	<path fill="none" stroke="#00B68C" stroke-miterlimit="10" d="M450.2,410c0,0,5.8-9.1,11.5-10.1s12.8-4.2,12.8-4.2s-1.7-5,1.3-8.7
		c3-3.7,5.3-6,5.3-6"/>
	<path fill="none" stroke="#00B68C" stroke-miterlimit="10" d="M441.2,407.6c0,0,5.2-8.4,11.6-9.4c6.3-1,11.8-5.9,11.8-5.9
		s0.3-7,5.3-10.7c5-3.7,3.3-3.7,3.3-3.7"/>
	<path fill="none" stroke="#00B68C" stroke-miterlimit="10" d="M432.4,407.1c0,0,3.5-6.8,8.5-10.4c5-3.7,14-6.3,14-6.3s1-7,2.7-7.7
		c1.7-0.7,9.7-2.3,9.7-2.3"/>
	<path fill="none" stroke="#00B68C" stroke-miterlimit="10" d="M472.2,419.4c0,0,3-2.8,8.4-2.8c5.3,0,6.3,2.7,6.3,2.7s1.7-5,4-5
		c2.3,0,4,1,4,1"/>
	<path fill="none" stroke="#00B68C" stroke-miterlimit="10" d="M428.9,406c0,0,4.7-10.3,8.3-11.7s7-3.7,7-3.7s-1-3.3,1.7-6
		c2.7-2.7,2.7-2.7,2.7-2.7"/>
	<path fill="none" stroke="#00B68C" stroke-miterlimit="10" d="M479.6,397.3c0,0-1.7-4.3,2-7c3.7-2.7,6.3-4,6.3-4"/>
	<path fill="none" stroke="#00B68C" stroke-miterlimit="10" d="M470.2,393c0,0-1.7-5.3,0.3-7.3s7.2-6.1,7.2-6.1"/>
	<path fill="none" stroke="#00B68C" stroke-miterlimit="10" d="M461.6,391c0,0-2.7-8,2-10"/>
	<path fill="none" stroke="#00B68C" stroke-miterlimit="10" d="M481.9,401c0,0-2-4.7,2-7.3c4-2.7,6-3.3,6-3.3"/>
	<path fill="none" stroke="#00B68C" stroke-miterlimit="10" d="M486.6,405.6c0,0,3.3-5,4.7-6.3s4.7,0,4.7,0"/>
	<path fill="none" stroke="#00B68C" stroke-miterlimit="10" d="M438.6,390c0,0-3.3-3.3-0.7-5"/>
	<path fill="none" stroke="#00B68C" stroke-miterlimit="10" d="M449.9,388.6c0,0-2.7-4.3,1-6.3"/>
	<path fill="none" stroke="#00B68C" stroke-miterlimit="10" d="M498.2,410.3c0,0-1.3-1-4.7-0.3c-3.3,0.7-6,1.7-6,1.7"/>
	<path fill="none" stroke="#00B68C" stroke-miterlimit="10" d="M501.9,429.6c0,0,9.4,1.2,13,3.7c2,1.3,4.7,7,4.7,7"/>
	<path fill="none" stroke="#00B68C" stroke-miterlimit="10" d="M508.1,414.9c0,0-2,2.2-2.7,7.6c-0.7,5.3-8.5,8.8-8.5,8.8
		s6-0.7,8.3,1.3s2.2,5,2.2,5"/>
	<path fill="none" stroke="#00B68C" stroke-miterlimit="10" d="M515.9,408.3c0,0-1,9.3-3.3,11.3c-2.3,2-4.3,5.3-4.3,5.3
		s9.7,1,15.7,5s9.3,9.7,9.3,9.7"/>
	<path fill="none" stroke="#00B68C" stroke-miterlimit="10" d="M526.8,407.5c0,0-0.2,2.8-1.2,5.5c-1,2.7-6.1,6.3-6.1,6.3
		s10.8-0.1,17.8,3.9s14.8,10.2,14.8,10.2"/>
	<path fill="none" stroke="#00B68C" stroke-miterlimit="10" d="M569.3,399.8c0,0-2.9,4.1-3.6,6.1s-0.5,3.1-0.5,3.1s3.8,0.2,6.1,0.6
		c2.3,0.3,4.7-0.3,4.7-0.3"/>
	<path fill="none" stroke="#00B68C" stroke-miterlimit="10" d="M561.7,401.1c0,0-1.2,1.4-3.9,4.4c-2.7,3-1.2,6.1-1.2,6.1
		s4.3,0.5,8.2,2.2c3.6,1.5,9.2,1.3,9.2,1.3"/>
	<path fill="none" stroke="#00B68C" stroke-miterlimit="10" d="M543,403.5c0,0-1.3,2-2,5s-3.7,5.1-3.7,5.1s8,2.1,13,5.1
		s14.8,10.2,14.8,10.2"/>
	<path fill="none" stroke="#00B68C" stroke-miterlimit="10" d="M535.7,405c0,0-1.5,4.7-3.2,6.3c-1.7,1.7-2,3.3-2,3.3s9,3,17,8
		s11.8,7.7,11.8,7.7"/>
	<path fill="none" stroke="#00B68C" stroke-miterlimit="10" d="M545.4,435c0,0-10.5-8.3-17.8-9.3c-7.3-1-12-4.7-12-4.7s5-10,5-13.3"
		/>
	<path fill="none" stroke="#00B68C" stroke-miterlimit="10" d="M574.9,399.3c1,4.7-1,7.7-1,7.7"/>
	<path fill="none" stroke="#00B68C" stroke-miterlimit="10" d="M477.6,462.6c0,0,1.7-15,4.7-15.7c3-0.7,28.7-0.7,28.7-0.7"/>
	<path fill="none" stroke="#00B68C" stroke-miterlimit="10" d="M517.6,451c0,0-10.5,0.4-18.5,2s-9.1,0.6-9.1,0.6s-1.8,1.2-2,4.4
		s0,5.2,0,5.2"/>
	<path fill="none" stroke="#00B68C" stroke-miterlimit="10" d="M526.9,464.7c0,0-5.2-2.6-13.3-5.4c-8.1-2.8-10.4-0.2-10.4-0.2
		s-3.8,1.9-4.6,7.2c-0.7,4.5-1,7.3-1,7.3"/>
	<path fill="none" stroke="#00B68C" stroke-miterlimit="10" d="M528.9,470.3c0,0-6.4-3.4-9.8-4.1c-5.6-1.1-10.3-2.5-10.3-2.5
		s-2.2,4.1-4.2,7.8s-3.5,7.9-3.5,7.9"/>
	<path fill="none" stroke="#00B68C" stroke-miterlimit="10" d="M527.9,488c0,0-8-7-9.3-8.3c-1.3-1.3-6.4-5.4-6.4-5.4
		s-2.1,1.7-3.4,4.4c-1.3,2.7-9.6,7.6-9.6,7.6"/>
	<path fill="none" stroke="#00B68C" stroke-miterlimit="10" d="M525.7,496.6c0,0-2.5-5.7-5.5-9.1s-5.2-4.9-5.2-4.9s-5.8,7.3-5.8,9.6
		"/>
	<path fill="none" stroke="#00B68C" stroke-miterlimit="10" d="M522.9,504c0,0-1.3-9-2.3-11s-4.2-2.8-4.2-2.8s-10.2,5.8-11.2,12.4"
		/>
	<path fill="none" stroke="#00B68C" stroke-miterlimit="10" d="M521,515.6c0,0-1.2-10.9-3.7-13.3c-2.9-2.8-11,0.3-11,0.3"/>
	<path fill="none" stroke="#00B68C" stroke-miterlimit="10" d="M473.2,458.6c0,0,3.3-15.7,7-16c3.7-0.3,17-2,17-2"/>
	<path fill="none" stroke="#00B68C" stroke-miterlimit="10" d="M407.6,333.5c0,0-3,10.2-2.7,12.2c0.3,2,1,7,1,7s16.2,2.3,19.3,2.7
		c4.7,0.5,12-0.3,12-0.3"/>
	<path fill="none" stroke="#00B68C" stroke-miterlimit="10" d="M413.9,327.6c0,0-0.7,9-0.7,12s-2.7,9.7-2.7,9.7s9.3,2,13.7,2
		s15,3.7,15,3.7"/>
	<path fill="none" stroke="#00B68C" stroke-miterlimit="10" d="M421.2,323c0,0-1.3,6.7-4,12c-2.7,5.3-1,11-1,11s8,0.7,13.3,2.7
		c5.3,2,15.7,2.8,15.7,2.8"/>
	<path fill="none" stroke="#00B68C" stroke-miterlimit="10" d="M426.6,314c0,0,0.7,9.7-2.7,16c-3.3,6.3-2.3,11.7-2.3,11.7
		s10.8-2,17.8,0s19,4.5,19,4.5"/>
	<path fill="none" stroke="#00B68C" stroke-miterlimit="10" d="M433.2,305.3c0,0-1.7,9-3.3,14c-1.7,5,0,16,0,16s12,0.3,16,3
		s21.8,4,21.8,4"/>
	<path fill="none" stroke="#00B68C" stroke-miterlimit="10" d="M440.2,303c0,0,0.7,4.3-1,12.7c-1.7,8.3-2.3,14.7-2.3,14.7
		s-1.3-0.3,9.3,2s18.8,4.2,18.8,4.2"/>
	<path fill="none" stroke="#00B68C" stroke-miterlimit="10" d="M449.1,292.8c0,0-1.5,8.8-1.8,15.2c-0.3,6.3-3.7,16.3-3.7,16.3
		s6-0.5,13.7,2.2c7.7,2.7,17.8,4,17.8,4"/>
	<path fill="none" stroke="#00B68C" stroke-miterlimit="10" d="M453.6,289.3c0,0-1.5,9.7-2.5,16s3.8,12,3.8,12s9.5,2,14.3,2
		c10-0.1,16,0.9,15.7,1"/>
	<path fill="none" stroke="#00B68C" stroke-miterlimit="10" d="M463.4,285.1c0,0-2.8,6.7-3.5,12.7c-0.7,6,1.7,13.2,1.7,13.2
		s12-1,17.3,0.3c5.3,1.3,11.7,4.3,11.7,4.3"/>
	<path fill="none" stroke="#00B68C" stroke-miterlimit="10" d="M469.2,283.6c0,0-1.8,8.3-2.5,12.7s4.5,8,4.5,8s5.7,0,14,3
		s12.7,7.3,12.7,7.3"/>
	<path fill="none" stroke="#00B68C" stroke-miterlimit="10" d="M478.4,278.1c0,0-1.8,7.3-2.5,11.3c-0.7,4,1.3,10.2,1.3,10.2
		s6.3-0.7,11.3,0.7s16,4,16,4"/>
	<path fill="none" stroke="#00B68C" stroke-miterlimit="10" d="M485.9,276.3c0,0-1.5,8.2-2.2,11.2s0.2,8.2,0.2,8.2s5.7-0.3,10,1.3
		c4.3,1.7,11.7,2.7,11.7,2.7"/>
	<path fill="none" stroke="#00B68C" stroke-miterlimit="10" d="M497.9,275c0,0-2.5,3.3-4.5,7c-2,3.7-3.8,10-3.8,10s7-0.3,11,0.7
		s11-0.7,11-0.7"/>
	<path fill="none" stroke="#00B68C" stroke-miterlimit="10" d="M507.9,275.3c0,0-5.3,4.9-3.3,6.9s9.7,1.1,9.7,1.1"/>
	<path fill="none" stroke="#00B68C" stroke-miterlimit="10" d="M384.7,341.6c0,0-8.2-0.7-10.5,1.3s-7.7-8.3-11.7-10.7
		s-7.3-4.7-7.3-4.7"/>
	<path fill="none" stroke="#00B68C" stroke-miterlimit="10" d="M355.2,317.3c0,0,7.8,2.7,10.8,10.3c3,7.7,10.7,10.3,10.7,10.3
		s3.5-4,8.8-5.7c2.6-0.8,6.5,0.2,6.5,0.2"/>
	<path fill="none" stroke="#00B68C" stroke-miterlimit="10" d="M357.2,310c0,0,13,7.7,15.7,13c2.8,5.5,5,9.3,5,9.3s7-5.3,11-5.7
		c4-0.4,6-0.3,6,0.3"/>
	<path fill="none" stroke="#00B68C" stroke-miterlimit="10" d="M360.2,300c0,0,5.3,8,12.8,12c7.5,4,7.2,12.4,7.2,12.4s9-6,12.3-6
		c3.3,0,8.3-1.3,8.3-1.3"/>
	<path fill="none" stroke="#00B68C" stroke-miterlimit="10" d="M364.7,288.3c0,0,0.5,8.6,7.9,15.1c7.5,6.7,9,13.9,9,13.9
		s3-1.7,12.7-4s9.3-4.3,9.3-4.3"/>
	<path fill="none" stroke="#00B68C" stroke-miterlimit="10" d="M365.6,282.6c0,0,7.3,7.3,10.3,14.7s7.3,11,7.3,11s1.2,0.2,10.8-1.8
		c9.7-2,13.2-8.2,13.2-8.2"/>
	<path fill="none" stroke="#00B68C" stroke-miterlimit="10" d="M369.6,275c0,0,1.5,8.7,6.2,13.2c3.2,3.1,8.5,9.8,8.5,9.8
		s2.8-0.3,10.5-1.3s12.2-3.5,12.2-3.5"/>
	<path fill="none" stroke="#00B68C" stroke-miterlimit="10" d="M376.1,269.1c0,0,3,7.5,5.5,9.2c3,2,5.3,7.3,5.3,7.3s5.3-4.1,12-9
		c5.7-4.2,11.5-4.5,11.5-4.5"/>
	<path fill="none" stroke="#00B68C" stroke-miterlimit="10" d="M376.9,264.6c0,0,6.1,5.9,8.1,9.9s4.6,2.4,4.6,2.4s6.1-4.8,12.4-7.8
		c9.7-4.5,9.2-7.5,9.2-7.5"/>
	<path fill="none" stroke="#00B68C" stroke-miterlimit="10" d="M380.9,259c0,0,1.3,4.7,3.3,6.3s8.5,5.5,8.5,5.5s4.4-4,10.4-6.9
		c5.4-2.6,9.4-5.5,9.4-5.5"/>
	<path fill="none" stroke="#00B68C" stroke-miterlimit="10" d="M356.2,335.6c0,0,7.7,2.7,9.3,4.7c1.7,2,3.7,6,3.7,6l14,0.3"/>
	<path fill="none" stroke="#00B68C" stroke-miterlimit="10" d="M359.2,343.3c0,0,3,0,5.3,1.7c2.3,1.7,4,4.3,4,4.3"/>
	<path fill="none" stroke="#00B68C" stroke-miterlimit="10" d="M318.9,346.6c0,0,10.4-13.1,13.5-19.3c5.2-10.3,5.2-10.5,5.2-10.5"/>
	<path fill="none" stroke="#00B68C" stroke-miterlimit="10" d="M314.6,339.6c0,0,9.1-8.1,12-11.3c5-5.7,4.7-8.3,4.7-8.3"/>
	<path fill="none" stroke="#00B68C" stroke-miterlimit="10" d="M310.9,335c1.3-0.3,9.3-8,11.7-12.3c2.3-4.3,5.5-12.7,5.5-12.7"/>
	<path fill="none" stroke="#00B68C" stroke-miterlimit="10" d="M309.6,330.6c0,0,4.9-5.7,9.3-10.7c5-5.7,5.2-13.8,5.2-13.8"/>
	<path fill="none" stroke="#00B68C" stroke-miterlimit="10" d="M318.9,351.3c0,0,9-7.7,11.7-11.3c2.7-3.7,6.8-11.5,6.8-11.5"/>
	<path fill="none" stroke="#00B68C" stroke-miterlimit="10" d="M322.9,355.3c0,0,5-4.7,8-8.3c3-3.7,8.3-13.7,8.3-13.7"/>
	<path fill="none" stroke="#00B68C" stroke-miterlimit="10" d="M327.3,359.1c0,0,6.1-3.4,8.1-8.1c2-4.7,3.7-7,3.7-7"/>
	<path fill="none" stroke="#00B68C" stroke-miterlimit="10" d="M307.6,324.6c0,0,5-3.7,7.7-7.7s4.3-17.7,4.3-17.7"/>
	<path fill="none" stroke="#00B68C" stroke-miterlimit="10" d="M306.6,315.6c0,0,4.3-4.3,6.3-9c2-4.7,3-11,3-11"/>
	<path fill="none" stroke="#00B68C" stroke-miterlimit="10" d="M305.9,308.6c0,0,3.7-4.8,5.3-9.5c1.7-4.7,2.3-10.8,2.3-10.8"/>
	<path fill="none" stroke="#00B68C" stroke-miterlimit="10" d="M337.9,358.4c0,0-0.3,1.3,4.8-3c3.3-2.8,3.4-7.8,3.4-7.8"/>
	<path fill="none" stroke="#00B68C" stroke-miterlimit="10" d="M334.2,369.9c0,0,7.8-3,8.8-8s3.7-8.3,3.7-8.3"/>
	<path fill="none" stroke="#00B68C" stroke-miterlimit="10" d="M371.6,373.6c0,0,12.7-4.7,14.7-9"/>
	<path fill="none" stroke="#00B68C" stroke-miterlimit="10" d="M381.2,375.6c0,0,5.7-1,10-7s7-10.7,7-10.7"/>
	<path fill="none" stroke="#00B68C" stroke-miterlimit="10" d="M389.9,378c0,0,7.3-3.3,9.7-8.7c2.3-5.3,10-10.7,10-10.7"/>
	<path fill="none" stroke="#00B68C" stroke-miterlimit="10" d="M397.2,379.3c0,0,3.7-4,8.7-8.7c5-4.7,17.3-10,17.3-10"/>
	<path fill="none" stroke="#00B68C" stroke-miterlimit="10" d="M404.6,380.3c0,0,0.3-4.7,7-9c6.7-4.3,11-7,11-7"/>
	<path fill="none" stroke="#00B68C" stroke-miterlimit="10" d="M411.9,379.6c0,0,8-8.7,12-11c4-2.3,9.7-8.3,9.7-8.3"/>
	<path fill="none" stroke="#00B68C" stroke-miterlimit="10" d="M419.6,380.6c0,0,8-9.3,13-12.3"/>
	<path fill="none" stroke="#00B68C" stroke-miterlimit="10" d="M427.9,379.6c0,0,8-6.7,14.7-11.7c6.7-5,5-6,5-6"/>
	<path fill="none" stroke="#00B68C" stroke-miterlimit="10" d="M437.9,380.6c0,0,3.3-6.3,9-10.7c4.8-3.7,10-7.3,10-7.3"/>
	<path fill="none" stroke="#00B68C" stroke-miterlimit="10" d="M445.9,381.3c0,0,1.3-3.7,6.3-8.3c5-4.7,11.7-9.7,11.7-9.7"/>
	<path fill="none" stroke="#00B68C" stroke-miterlimit="10" d="M454.9,380.6c0,0,8.7-13.3,11.3-15c2.7-1.7,6.7-3,6.7-3"/>
	<path fill="none" stroke="#00B68C" stroke-miterlimit="10" d="M466.2,376.6c0,0,4.7-10.3,9.3-11.3c4.7-1,8.7-2.7,8.7-2.7"/>
	<path fill="none" stroke="#00B68C" stroke-miterlimit="10" d="M476.6,373.6c0,0,3-6.3,6.3-7.3c3.3-1,10.7-3,10.7-3"/>
	<path fill="none" stroke="#00B68C" stroke-miterlimit="10" d="M485.6,374.6c0,0,5.3-4,7.3-4s6-1,6-1"/>
	<path fill="none" stroke="#00B68C" stroke-miterlimit="10" d="M23.7,355.3c0,0,0.1-0.3-1.5-2.7c-1.2-1.7-2-3-2-3"/>
	<path fill="none" stroke="#00B68C" stroke-miterlimit="10" d="M29.9,355.6c-0.6-0.5,0.3-4-1.7-6.5c-2.4-3-5-3.8-5-3.8"/>
	<path fill="none" stroke="#00B68C" stroke-miterlimit="10" d="M40.4,355.6c0,0-1.6-5-4.8-8.5c-1.9-2.1-12.1-5.9-12.7-7"/>
	<path fill="none" stroke="#00B68C" stroke-miterlimit="10" d="M44.2,356c0,0-0.3-7.3-5-10.7s-9.2-4-9.2-4"/>
	<path fill="none" stroke="#00B68C" stroke-miterlimit="10" d="M50.2,357c0,0,0.7-8.3-4.3-13c-5-4.7-11.7-11-11.7-11"/>
	<path fill="none" stroke="#00B68C" stroke-miterlimit="10" d="M55.6,357.3c0,0-0.7-10.5-6.3-16.7c-4.1-4.5-9-7.7-9-7.7"/>
	<path fill="none" stroke="#00B68C" stroke-miterlimit="10" d="M62.6,358.6c0,0-0.1-13.9-2.8-18.3c-3.7-6-15.8-11.7-15.8-11.7"/>
	<path fill="none" stroke="#00B68C" stroke-miterlimit="10" d="M70.6,359c0,0,0.3-13.8-5.3-20.3c-4.3-5-15.3-15-15.3-15"/>
	<path fill="none" stroke="#00B68C" stroke-miterlimit="10" d="M78.6,359c0,0,0.8-15.7-4.7-22.7c-3.5-4.5-13.3-14-13.3-14"/>
	<path fill="none" stroke="#00B68C" stroke-miterlimit="10" d="M82.4,361c0,0,4-11.2-1.5-22c-3.8-7.6-13-16.7-13-16.7"/>
	<path fill="none" stroke="#00B68C" stroke-miterlimit="10" d="M89.2,360.5c0,0,0.3-12.8-2-20.3C85,332.8,70.6,321,70.6,321"/>
	<path fill="none" stroke="#00B68C" stroke-miterlimit="10" d="M93.2,360.8c0,0,2.7-13.2-2-21.7c-5.5-10.1-11-15.5-11-15.5"/>
	<path fill="none" stroke="#00B68C" stroke-miterlimit="10" d="M103.4,360.6c0,0,0.3-12.5-4.3-21c-5.5-10.1-9.7-15.5-9.7-15.5"/>
	<path fill="none" stroke="#00B68C" stroke-miterlimit="10" d="M106.9,362.3c0,0-0.8-15.5-5.3-25c-3.6-7.6-12.7-20-12.7-20"/>
	<path fill="none" stroke="#00B68C" stroke-miterlimit="10" d="M109.2,362.8c0,0,0.2-14.8-4.3-24.3c-3.6-7.6-6.8-11.8-6.8-11.8"/>
	<path fill="none" stroke="#00B68C" stroke-miterlimit="10" d="M112.2,362.6c0,0,0.3-15.9-1.7-22.2c-2.7-8.3-11-19.5-11-19.5"/>
	<path fill="none" stroke="#00B68C" stroke-miterlimit="10" d="M117.6,365c0,0,1.8-11.3-1-22c-2-7.7-6.3-14-6.3-14"/>
	<path fill="none" stroke="#00B68C" stroke-miterlimit="10" d="M120.7,366.1c0,0,1.1-15.4,0.2-21.3c-1.7-10.8-7.2-17.2-7.2-17.2"/>
	<path fill="none" stroke="#00B68C" stroke-miterlimit="10" d="M128.6,369c0,0,0.3-14.7-1-21.7c-1.3-7-3.7-17.7-3.7-17.7"/>
	<path fill="none" stroke="#00B68C" stroke-miterlimit="10" d="M134.2,370.6c0,0-0.3-15.3-0.7-21c-0.3-5.7-4.7-15-4.7-15"/>
	<path fill="none" stroke="#00B68C" stroke-miterlimit="10" d="M139.2,371c0,0,1.7-12.3,1-17.7c-0.7-5.3-3.7-12.3-3.7-12.3"/>
	<path fill="none" stroke="#00B68C" stroke-miterlimit="10" d="M144.2,373.3c0,0,1.3-10,0.7-17.3c-0.7-7.3-1-11.3-1-11.3"/>
	<path fill="none" stroke="#00B68C" stroke-miterlimit="10" d="M150.9,376.1c0,0-0.7-5.2-0.3-13.2c0.3-8,1-11.3,1-11.3"/>
	<path fill="none" stroke="#00B68C" stroke-miterlimit="10" d="M155.2,377.6c0,0,3.3-11,1.7-14.3"/>
	<path fill="none" stroke="#00B68C" stroke-miterlimit="10" d="M8.6,353c0,0,8.7,0.7,8.7,4"/>
	<path fill="none" stroke="#00B68C" stroke-miterlimit="10" d="M237.6,324c0,0-9.3,1-10.7,5.7"/>
	<path fill="none" stroke="#00B68C" stroke-miterlimit="10" d="M215.2,331.3c0.3-7.7,12.7-9.3,12.7-9.3"/>
	<path fill="none" stroke="#00B68C" stroke-miterlimit="10" d="M209.6,323.6c0,0-7.7,5.7-5,11.3"/>
	<path fill="none" stroke="#00B68C" stroke-miterlimit="10" d="M202.2,323.6c0,0-15.7,5.3-13.3,10.3"/>
	<path fill="none" stroke="#00B68C" stroke-miterlimit="10" d="M189.6,323c0,0-6,0.3-6.3,4"/>
	<path fill="none" stroke="#00B68C" stroke-miterlimit="10" d="M203.6,323.3c0,0-7.3,8-6,11.7"/>
	<path fill="none" stroke="#00B68C" stroke-miterlimit="10" d="M243.2,327.3c0,0-4.7-2-6.7,0s-3.7,3.7-3.7,3.7"/>
	<path fill="none" stroke="#00B68C" stroke-miterlimit="10" d="M233.9,322.6c0,0-7.7,0-10,3s-3,6-3,6s1,4.7,6.7,4.3
		c5.7-0.3,9.7-4,9.7-4s-8,2.3-11,1.3s-3-1-3-1"/>
	<path fill="none" stroke="#00B68C" stroke-miterlimit="10" d="M218.6,323c0,0-5.3,1-7.3,4.7c-1.3,2.3-2.3,6.3-2.3,6.3"/>
	<path fill="none" stroke="#00B68C" stroke-miterlimit="10" d="M216.6,333.3c0,0,6.3,7.7,13.3,6.3c7-1.3,12.3-6,14.3-5.7"/>
	<path fill="none" stroke="#00B68C" stroke-miterlimit="10" d="M259.2,320.3c0,0,9.7-7.3,16.3-5.7"/>
	<path fill="none" stroke="#00B68C" stroke-miterlimit="10" d="M258.9,308.3c0,0,3.7,1.3,3.7,5s15-10.7,21.7-6"/>
	<path fill="none" stroke="#00B68C" stroke-miterlimit="10" d="M297.2,280.6c0,0-4.5,1.8-6.3,1.3c-1.9-0.4-1.3-5.3-1.3-5.3"/>
	<path fill="none" stroke="#00B68C" stroke-miterlimit="10" d="M295.6,287.3c0,0-7-1.3-10.3,3s-2.7-1.7-2.7-1.7"/>
	<path fill="none" stroke="#00B68C" stroke-miterlimit="10" d="M292.9,294c0,0-10.7,0.7-15,5.3c-4.3,4.7-1.7-4.3-1.7-4.3"/>
	<path fill="none" stroke="#00B68C" stroke-miterlimit="10" d="M289.2,301.3c0,0-16.3,1-17,3s-4.3-4.3-4.3-4.3"/>
	<path fill="none" stroke="#00B68C" stroke-miterlimit="10" d="M270.2,321.3c0,0-8-2.7-10.3,0.3"/>
	<path fill="none" stroke="#00B68C" stroke-miterlimit="10" d="M292.6,335.3c0,0-9.3,1-13,8.7c-3.7,7.7-1.7,36.7-5.7,45"/>
	<path fill="none" stroke="#00B68C" stroke-miterlimit="10" d="M282.9,346.6c0,0-3.7-0.2-4.7,4.2s-1.7-8.8-4.7-8.2"/>
	<path fill="none" stroke="#00B68C" stroke-miterlimit="10" d="M283.9,352.3c-1,0.7-5.8,1.3-6.5,5.7c-0.7,4.3-3.8-12.7-5.8-12"/>
	<path fill="none" stroke="#00B68C" stroke-miterlimit="10" d="M271.6,356c0,0,5.2,5.2,5.2,9.8s1.8-9.8,7.8-9.5"/>
	<path fill="none" stroke="#00B68C" stroke-miterlimit="10" d="M282.9,365c0,0-5.8,1.2-6.2,5.5c-0.3,4.3-1.5-4.2-4.5-4.2"/>
	<path fill="none" stroke="#00B68C" stroke-miterlimit="10" d="M244.2,262c0,0,7.7,11,7.3,19c-0.3,8-6,27-3,32.7"/>
	<path fill="none" stroke="#00B68C" stroke-miterlimit="10" d="M150.6,174.6c0,0,5.7,7,8.7,20.7c3,13.7,7.3,51.7,35,78.7
		s52.7,38.7,53.7,43.3s1.7,10,1.7,10"/>
	<path fill="none" stroke="#00B68C" stroke-miterlimit="10" d="M369.6,371.3c0,0-38-20.5-63.7-6.4c-17.2,9.5-29.3,20.7-32.3,42.7
		s11.7,76.7,10,97.7c-1.7,21-4.3,119.7,7,148.3c11.3,28.7,36.7,49.3,45.7,51c9,1.7,3.9,1.1,3.9,1.1"/>
	<path fill="none" stroke="#00B68C" stroke-miterlimit="10" d="M362.2,371.1c0,0,4.3,4.8,1.7,21.8c-2.7,17-8.7,51.3-16.3,65
		c-7.7,13.7-55.7,75-59.3,79.3s-5.7,17.7-5.7,17.7"/>
	<path fill="none" stroke="#00B68C" stroke-miterlimit="10" d="M166.9,380.6c0,0,49.3,21,59,33s49.7,54.7,49.7,62
		c0,7.3,7.3,46.7,6.7,49.3"/>
	<path fill="none" stroke="#00B68C" stroke-miterlimit="10" d="M313.2,190c0,0-37.3,45.3-49.7,82.3"/>
	<path fill="none" stroke="#00B68C" stroke-miterlimit="10" d="M488.6,430.6c0,0-40.1-5.9-65-4.7c-20.7,1-73.3,27-73.3,27"/>
	<path fill="none" stroke="#00B68C" stroke-miterlimit="10" d="M386.9,394c0,0-8.3,27.7-15,33c-6.7,5.3-14.7,18.7-14.7,18.7"/>
	<path fill="none" stroke="#00B68C" stroke-miterlimit="10" d="M374.9,411.6c0,0-1,10.3,0.3,11.7s6.3-6.7,6.3-6.7"/>
	<path fill="none" stroke="#00B68C" stroke-miterlimit="10" d="M368.6,416.6c0,0,1,6.7-0.7,12c-1.7,5.3,10.3-3.3,10.3-3.3"/>
	<path fill="none" stroke="#00B68C" stroke-miterlimit="10" d="M364.2,418.6c0,0,1,12.3-2,17.3s11-2.8,11-2.8"/>
	<path fill="none" stroke="#00B68C" stroke-miterlimit="10" d="M258.9,410.6c0,0-1.8,6.2-4,7c-2.2,0.8-6.7-4-6.7-4"/>
	<path fill="none" stroke="#00B68C" stroke-miterlimit="10" d="M262.2,414.6c0,0-2.6,9.7-5.3,9.7c-2.7,0-7.7-4.7-7.7-4.7"/>
	<path fill="none" stroke="#00B68C" stroke-miterlimit="10" d="M266.9,419c0,0-2.8,11.1-4.9,13.2c-2.1,2.1-10.8-4.2-10.8-4.2"/>
	<path fill="none" stroke="#00B68C" stroke-miterlimit="10" d="M264.6,416.3c0,0-3.5,11.9-6,11.9c-2.5,0-8.7-4.3-8.7-4.3"/>
	<path fill="none" stroke="#00B68C" stroke-miterlimit="10" d="M269.2,426.3c0,0-1.9,11-4.7,11c-2.8,0-11.3-3.3-11.3-3.3"/>
	<path fill="none" stroke="#00B68C" stroke-miterlimit="10" d="M258.6,440.6c0,0,6,1.4,8.3,1.4c2.3,0,3.4-7.6,3.4-7.6"/>
	<path fill="none" stroke="#00B68C" stroke-miterlimit="10" d="M379.6,378l-7.3,6c0,0,5-0.8,5,0.7s-2,3-2,3l7,3l7-4.3
		c0,0-8.3,0.3-8-1.3c0.3-1.7,6.3-4,6.3-4s-8.5,1-8.3-0.3c0.2-1.3,3.7-2.3,3.7-2.3L379.6,378z"/>
	<path fill="none" stroke="#00B68C" stroke-miterlimit="10" d="M340.9,370.1c0,0-2.4,1.4-2,2.5c0.9,2.8,4.8,8,7.7,10.7
		c4,3.7,12.7,7.7,12.7,7.7"/>
	<path fill="none" stroke="#00B68C" stroke-miterlimit="10" d="M359.9,370.8c0,0,3.2,20.3,3.2,24"/>
	<path fill="none" stroke="#00B68C" stroke-miterlimit="10" d="M245.9,270.6c0,0,2.5,8.7,5,8.7s2.3-6.7,2.3-6.7"/>
	<path fill="none" stroke="#00B68C" stroke-miterlimit="10" d="M245.9,280.3c0,0,2.4,6,4.3,6c1.9,0,4-5.7,4-5.7"/>
	<path fill="none" stroke="#00B68C" stroke-miterlimit="10" d="M243.9,285.6c0,0,2.2,10,4.7,10c2.5,0,6.3-8.3,6.3-8.3"/>
	<path fill="none" stroke="#00B68C" stroke-miterlimit="10" d="M242.6,293.3c0,0,3,10.3,5,10.3s5-5,5-5"/>
	<path fill="none" stroke="#00B68C" stroke-miterlimit="10" d="M321.4,711.5c0,0-44.1-39.8-44.1-101.2c0-63.1,4-94.3,4-94.3"/>
	<path fill="none" stroke="#00B68C" stroke-miterlimit="10" d="M354.2,519.6c0,0-10-1-16.3,2.3c-6.3,3.3-11,6-11,6"/>
	<path fill="none" stroke="#00B68C" stroke-miterlimit="10" d="M475.1,324.6c0,0-22.7-3-23.8-4.2"/>
	<path fill="none" stroke="#00B68C" stroke-miterlimit="10" d="M496.2,308.6c0,0-19.2-6.5-19.2-7.7"/>
	<path fill="none" stroke="#00B68C" stroke-miterlimit="10" d="M121.6,332.6c0,0,3.5,12.7,3.7,17.7c0.2,5-1,16.2-1,16.2"/>
	<path fill="none" stroke="#00B68C" stroke-miterlimit="10" d="M126.9,333.6c0,0,3.7,12.8,4.2,18.3s0.2,16.7,0.2,16.7"/>
	<path fill="none" stroke="#00B68C" stroke-miterlimit="10" d="M60.4,327.3c0,0,8.2,9,11.2,14.5s2.8,17.5,2.8,17.5"/>
	<path fill="none" stroke="#00B68C" stroke-miterlimit="10" d="M53.9,330.3c0,0,9.2,7.8,10.3,11.3c1.2,3.5,2.3,16.7,2.3,16.7"/>
	<path fill="none" stroke="#00B68C" stroke-miterlimit="10" d="M45.9,333.3c0,0,6.8,4.2,8.8,8.2s3.8,16.5,3.8,16.5"/>
	<path fill="none" stroke="#00B68C" stroke-miterlimit="10" d="M149.6,352c0,0-2.7,10.5-2.3,13.7c0.3,3.2,0.5,8.8,0.5,8.8"/>
	<path fill="none" stroke="#00B68C" stroke-miterlimit="10" d="M28.9,336.5c0,0,13,5.5,15.8,10s2.3,10,2.3,10"/>
	<path fill="none" stroke="#00B68C" stroke-miterlimit="10" d="M25.2,343.8c0,0,5.2,2.7,7,5.5c1.8,2.8,1.8,5.5,1.8,5.5"/>
	<path fill="none" stroke="#00B68C" stroke-miterlimit="10" d="M13.7,348.1c0,0,4,3.5,5.2,5.8c1.2,2.3,1.2,3.5,1.2,3.5"/>
	<path fill="none" stroke="#00B68C" stroke-miterlimit="10" d="M142.1,345.8c0,0,1.2,7.8,0.8,12.5s-1.8,13.2-1.8,13.2"/>
	<path fill="none" stroke="#00B68C" stroke-miterlimit="10" d="M154.9,355.1c0,0-2.5,10.8-2.3,14c0.2,3.2,0.2,7.3,0.2,7.3"/>
	<path fill="none" stroke="#00B68C" stroke-miterlimit="10" d="M155.4,364.8c0,0-0.7,10-1.7,11.2"/>
	<path fill="none" stroke="#00B68C" stroke-miterlimit="10" d="M132.9,336.1c0,0,4.7,10.8,4.5,17.7s-1.2,16.7-1.2,16.7"/>
	<path fill="none" stroke="#00B68C" stroke-miterlimit="10" d="M79.4,319.6c0,0,15.2,13.5,17,21.8c1.8,8.3,2.8,18.2,2.8,18.2"/>
	<path fill="none" stroke="#00B68C" stroke-miterlimit="10" d="M4.9,356c0,0,3.8,2.5,4.2,4.2"/>
	<path fill="none" stroke="#00B68C" stroke-miterlimit="10" d="M8.6,354.3c0,0,4.3,2.5,5.2,5"/>
	<path fill="none" stroke="#00B68C" stroke-miterlimit="10" d="M12.1,354c0,0,4,3.7,4.2,5.2"/>
	<path fill="none" stroke="#00B68C" stroke-miterlimit="10" d="M3.4,357.3c0,0,3.5,2.7,3.5,3.7"/>
	<path fill="none" stroke="#00B68C" stroke-miterlimit="10" d="M21.6,345.6c0,0,3.5,2,4.3,4.7c0.8,2.7,0.8,4.5,0.8,4.5"/>
	<path fill="none" stroke="#00B68C" stroke-miterlimit="10" d="M85.2,439.5c0,0,13.8-4.2,18.8-2"/>
	<path fill="none" stroke="#00B68C" stroke-miterlimit="10" d="M108.7,434.5c0,0,1.8,2.8-0.8,8.2c-2.7,5.3-6.2,11.7-6.2,11.7"/>
	<path fill="none" stroke="#00B68C" stroke-miterlimit="10" d="M135.1,425.3c0,0,2.8-12.7-2.7-19.5c-1.9-2.4-19.8-3-19.8-3"/>
	<path fill="none" stroke="#00B68C" stroke-miterlimit="10" d="M157.9,400c0,0-0.8-11.3-2.5-13.3"/>
	<path fill="none" stroke="#00B68C" stroke-miterlimit="10" d="M131.7,386c0,0,2.7-1.3,9.7,0.8s7.2,4.3,7.2,4.3"/>
	<path fill="none" stroke="#00B68C" stroke-miterlimit="10" d="M80.7,444c0,0,6.4-2.4,10.2-3.3c4.7-1.2,8.7,1,8.7,1"/>
	<path fill="none" stroke="#00B68C" stroke-miterlimit="10" d="M282.4,369.5c0,0-5.2,3.3-5.8,6.2c-0.7,2.8-0.7-1.8-0.7-1.8
		s-2.5-3.5-4-2"/>
	<path fill="none" stroke="#00B68C" stroke-miterlimit="10" d="M271.4,377.3c0,0,4.8-0.5,4.8,1.3c0,1.8,0,1.8,0,1.8s2.2-5.5,4.3-4.8
		"/>
	<path fill="none" stroke="#00B68C" stroke-miterlimit="10" d="M371.5,268.3c0,0,4.1,14.1,7.6,16.6s7.1,5.5,7.1,5.5s3.7,1.2,8.5,0
		c4.8-1.2,13.8-5.5,13.8-5.5"/>
	<path fill="none" stroke="#00B68C" stroke-miterlimit="10" d="M412.4,274.4c0,0-8.8,8.8-15.4,10.5s-9,1-9,1"/>
	<path fill="none" stroke="#00B68C" stroke-miterlimit="10" d="M385.5,254.2c0,0,2.1,6.6,4.2,8.8s4.2,4.2,4.2,4.2"/>
	<path fill="none" stroke="#00B68C" stroke-miterlimit="10" d="M389.3,254.3c0,0,4.1,8.2,6.4,8.9s11.4-6.2,11.4-6.2"/>
	<path fill="none" stroke="#00B68C" stroke-miterlimit="10" d="M332.3,366.7c0,0,4-2.6,4.5-3.5"/>
	<path fill="none" stroke="#00B68C" stroke-miterlimit="10" d="M372.1,415.8c0,0-1.7,9.3-0.3,10.7c1.4,1.4,8.2-3.6,8.2-3.6"/>
	<path fill="none" stroke="#00B68C" stroke-miterlimit="10" d="M365.9,418.3c0,0-2.4,14.1-0.8,15.7c1.5,1.5,10.5-4.5,10.5-4.5"/>
	<path fill="none" stroke="#00B68C" stroke-miterlimit="10" d="M378.4,409.5c0,0-1.5,6.4-0.2,7.7c1.3,1.3,6-6.9,6-6.9"/>
	<path fill="none" stroke="#00B68C" stroke-miterlimit="10" d="M507.5,427.6c0,0,8.1,0.6,10.6,2.4c3.3,2.4,4.7,6.6,4.7,6.6"/>
	<path fill="none" stroke="#00B68C" stroke-miterlimit="10" d="M539.7,439.9c0,0-3.8-7-9.6-9.8s-15.9-7-15.9-7"/>
	<path fill="none" stroke="#00B68C" stroke-miterlimit="10" d="M570,420.9c0,0-14.8-8.6-18.8-8.6"/>
	<path fill="none" stroke="#00B68C" stroke-miterlimit="10" d="M501.3,414.6c0,0,0.8,4.8-0.7,8.6c-1.4,3.8-3.8,7.1-3.8,7.1l1.9,3.8"
		/>
	<path fill="none" stroke="#00B68C" stroke-miterlimit="10" d="M497.1,420.1c0,0-0.6,4.3-1.9,6.8c-1.3,2.5-2.8,3.8-2.8,3.8l1.8,4.3"
		/>
	<path fill="none" stroke="#00B68C" stroke-miterlimit="10" d="M550,403.2c0,0-5,5.5-5.8,8.6"/>
	<path fill="none" stroke="#00B68C" stroke-miterlimit="10" d="M482.2,458.6c0,0-0.4-5.2,0.6-6.6s1.6-1.8,1.6-1.8"/>
	<path fill="none" stroke="#00B68C" stroke-miterlimit="10" d="M518,456c0,0-4.9-1.8-11.4-1.2c-4.2,0.4-9.2,2.1-9.2,2.1"/>
	<path fill="none" stroke="#00B68C" stroke-miterlimit="10" d="M523.7,478c0,0-2.8-1.9-6.9-4.1c-2.4-1.2-5.4-3.7-5.4-3.7"/>
	<path fill="none" stroke="#00B68C" stroke-miterlimit="10" d="M508.6,510.9c0,0,2-1.6,3.4-1.8c0.7-0.1,2.3,0.1,2.3,0.1l1.2,7.7"/>
	<path fill="none" stroke="#00B68C" stroke-miterlimit="10" d="M479.3,420c0,0,0.9-1.4,3.2-1.1s4.1,0.8,4.1,0.8s1.5-2.6,3.6-2.6
		s2.8,0.9,2.8,0.9"/>
	<path fill="none" stroke="#00B68C" stroke-miterlimit="10" d="M156.7,378.1c0,0,3.1-2.7,3.9-6.2"/>
	<path fill="none" stroke="#00B68C" stroke-miterlimit="10" d="M378.2,392.5c0,0-5.3-0.6-7.8-3"/>
	<path fill="none" stroke="#00B68C" stroke-miterlimit="10" d="M369.9,382c0,0-1,6,0,8.2"/>
	<path fill="none" stroke="#00B68C" stroke-miterlimit="10" d="M393.9,384.3c0,0-7.1,0.1-9-2.3"/>
</g>
<g id="alfalfa-top-lines">
	<path fill="none" stroke="#009B77" stroke-width="3" stroke-miterlimit="10" d="M540.9,784.3l-2.5-8l-9-4c0,0,0.5-5-1-6s-8-3-8-3
		l-6.5-9.5c0,0-11-3.5-12-6s-16-12-16-12l-9.5-2.5l-9.5-1.5l-5-3l-18,0.5l-8-3.5l-13.5,3.5l-7.5-3l-9.5-1.5l-4.5,6l-11.5-7l-4,1.5
		l-7-9h-3l-6.5-6.5l-9.5-3l-6-3l-4.5,1.5l-1.3-1.6l-4-2.2c0,0-6.6,8.2-16.3,9.2c-3.5,0.3-8.6,2.1-12.5,0.3c-2.6-0.2-4.2,0-13.2-5.3
		c-3.5-2.1-6-4.3-6-4.3l-4.9-8.2l-4.4,0l-7.5-3l-7.5-1.5l-3.5,4l-6.5-3l-8.5,3.5l-5,5c0,0-8.5-4-8.5-2s0.5,5.5,0.5,5.5l-5.5,4
		l-9,3.5v5l-6-1l-6,5l-9-2.5l-2.5,8.5l-11.5,3l-2.5,2l0.5,7.5h-6l-3.5,6.5l-3.5,4h-8l0.5,6.5l-5,1l-5,1.5l-3.5,3c0,0-2.5,0.5-2.5,2
		s0,5.5,0,5.5h-5.5l-6,2l-1.5,6l-5-0.5l-6,4l-5.5,2.5l-0.5,3.5l-1,3"/>
	<path fill="none" stroke="#009B77" stroke-width="3" stroke-miterlimit="10" d="M365.6,373.1c0.8,10.3,1.9,23.7-1.2,40.2
		c-4,21.5-9,34-9,34s30.5-23.5,71-24s63.5,3,63.5,3l-2,8.5c0,0-37.5-10.5-64-4.5s-71,22-73.5,28.5s-59,81.5-60.5,90.5s0,82,10,100
		s37,47,42.5,49.5s-6.2,9.8-6.2,9.8c-14,5.5-31.3,2.7-39.3-5.8s-29.5-55.5-23.5-121s1.1-96.9-5.5-110.2c-10-20-44.5-62.3-69.5-73.8
		s-34.5-16-34.5-16l4-4.5c0,0,38,15.7,62,37.7c19.3,17.7,42.5,35.8,45.5,53.8s-10-79-16.5-102c-6.5-23-6.5-41.5-15.5-46
		s-57.5-37-68-65s-20.5-74-27.5-78s17-6,17-6s-6.5-0.5-6.5,9s13,60,26,77s65.5,58.5,65.5,58.5s-1.5-7.5,7-30.5c8.5-23,42-92,52.5-96
		s9,1,9,1s-10,0.5-23.5,27s-42,82-40.5,96.5s18.5,82,18.5,82s11-36.5,45-37.5c34.5-1.8,56.4,8.9,56,9.5l-6,6c0,0-30.5-18.5-50-10
		s-42,12.5-37.5,64s9.5,100.5,9.5,100.5s45-51.5,56-76.5s16.5-54,11.5-76c-1.6-6.8-0.9-4.5-1-7.7"/>
	<path fill="none" stroke="#009B77" stroke-width="3" stroke-miterlimit="10" d="M357.2,361.6c2.8-8,5-11.3,5-11.3l2.7,7
		c0,0,0.3,3.7,0.5,6.8"/>
	<path fill="none" stroke="#009B77" stroke-width="3" stroke-miterlimit="10" d="M290.9,562.3c0,0,4.2-3.7,14-12.3
		c3.5-3.1,9.4-3.4,13-6.7c3.1-2.8,3.9-8.6,7.3-11c4.4-3.1,10.5-6.4,13.2-7c14-3,17-3.5,17-3.5l-1.5-6c0,0-12.5-0.5-23.5,5.5
		c-4.2,2.3,10.9-26.3,6.2-19c-8.7,13.3-46.2,50-46.2,50L290.9,562.3z"/>
	<path fill="none" stroke="#009B77" stroke-width="3" stroke-miterlimit="10" d="M261.9,346.8c0,0,0.5-18.5,8-25.5
		s14.5-11,22.5-25.5s7.5-40,7.5-40s-11.5,29.5-22.5,37.5s-23,15-22,28C256.4,334.3,261.9,346.8,261.9,346.8z"/>
	<path fill="none" stroke="#009B77" stroke-width="3" stroke-miterlimit="10" d="M252.4,340.3c0,0-3.5-17.5-22-18s-15,1.5-30.5,1.5
		s-24.5-4.5-24.5-4.5s9.5,16.5,21.5,16.5s15-1.5,17.5,1s7.5,8.5,16,7s12-5.5,15-5.5S252.4,340.3,252.4,340.3z"/>
	<path fill="none" stroke="#009B77" stroke-width="3" stroke-miterlimit="10" d="M249.9,316.3c0,0-11-15.5-6-30.5s-2-27.5-2-27.5
		s13.5,12,13.5,18.5s0,12,0,12"/>
	<path fill="none" stroke="#009B77" stroke-width="3" stroke-miterlimit="10" d="M355.4,447.3c0,0,10-1.5,20-16s11.5-37,11.5-37
		s-8.5,15.5-14.5,20s-11.5,4-12.5,12S355.4,447.3,355.4,447.3z"/>
	<path fill="none" stroke="#009B77" stroke-width="3" stroke-miterlimit="10" d="M290.4,552.3c0,0,20.5-0.5,29-12s23-49,23-49
		s-11,18.5-21.5,23s-31,29-31,35S290.4,552.3,290.4,552.3z"/>
	<path fill="none" stroke="#009B77" stroke-width="3" stroke-miterlimit="10" d="M271.9,460.3c0,0-20-17-23.5-44s-2.5-41-2.5-41
		s2,25,10,32c8,7,15,15.5,15.5,30S271.9,460.3,271.9,460.3z"/>
	<path fill="none" stroke="#009B77" stroke-width="3" stroke-miterlimit="10" d="M280.4,377.8c0,0,4-11,4-21.5s-3-13,2.5-15.5
		s7.5-7.5,7.5-7.5s-23.5,2.5-23.5,16s2.8,44.4,2.8,44.4L280.4,377.8z"/>
	<path fill="none" stroke="#009B77" stroke-width="3" stroke-miterlimit="10" d="M163.9,381.8c0,0-49.5-21.5-70-21s-62.5-7-69-5
		s-23,7.5-23,7.5l1.5-8.5l9.8-1.7l-1-7.7l7.7,4.3l0.5-5.5l4.5,1l-2-6l7,1l-2.5-4.5h8l-2.5-3.5l11.5,0.5l-2.5-4.5l10.5,1l-1.5-5
		l9.5,3l1-5l8,2.5l-0.5-4.5l11,3l-2.5-6l12.5,6.5v-6l9.5,9.5l1-6.5l9.5,7.5l0.5-5.5l6,7l2.5-5l3,6.5l1.5-4l8,11.5l1-6l6,9.5l1.5-4
		l3.5,8l2-3l1,10.5l4.5-4l1,7.5l4-4.5l0.5,7.5l1.5-3.5l1,10.5l3-3l-1,8.5l3.5-0.5L163.9,381.8z"/>
	<path fill="none" stroke="#009B77" stroke-width="3" stroke-miterlimit="10" d="M167.9,377.3c0,0,17.5,0,20.5,3.5s9.5,4,9.5,4l-4-4
		l5.5,0.5l-1.5-4.5l6.5,0.5v-5h6.5v-5.5c0,0,6.5,1.5,6.5,0s-1-5.5-5.5-6.5s-17-4-18.5-3.5s-7.8,1.5-7.8,1.5s-1.7-10-10.7-13.5
		s-8,3-8,3v5.5l-3.5-3.5l2.5,8l-3-1.5l4.5,7.5l-5.5,0.5l5,6c0,0-3.5-0.5-2.5,2S167.9,377.3,167.9,377.3z"/>
	<path fill="none" stroke="#009B77" stroke-width="3" stroke-miterlimit="10" d="M163.9,381.8v17.5l-3.5-4.5v9l-2-3.5l-1,10.5
		l-3-5.5l-1.5,15.5l-2-6l-1,9l-5-3l-0.5,11.5l-3.5-6l-7,11.5v-6l-5.5,14.5l-3.5-7l-5.5,13l-2-7l-4,11.5l-3.5-8.5l-9,8.5v-8l-11.5,15
		v-9l-13,13.5l8.5-21l-5.5-3.5l6.5-5c0,0-4.5-3.5-2.5-3.5s7-2.5,7-2.5s-6-5-4.5-5s10.5-4.5,10.5-4.5l-4-4l7-3l-3.5-3l9.5-4l-5-4
		l11-3l-5-4l11.5-2l-4-4l9.5-4l-4-3.5l12,0.5l-2.5-4.5l9-0.5l-1.5-4.5l9.5,1.5l10,1.5L163.9,381.8z"/>
	<path fill="none" stroke="#009B77" stroke-width="3" stroke-miterlimit="10" d="M484.9,424.3c0,0,11.2-7.8,12.5-13s-1.5-7-1.5-7
		s3.5-2.5,0-7.5c-4.2-6-5-7.5-10.5-13s-12.5-5.5-12.5-5.5l-10,2l-14.5,1.5l-11,2l-8.5,1.5l6.5,0.5l-5,3.5c0,0-10-0.5-7,0
		s5,2.5,5,2.5l-5.5,2l6,0.5c0,0-12.5,6-11,6s7-0.5,7-0.5s-15.5,11.5-13.5,11s14-6,14-6l-3,6l11-7l-2.5,5.5l10.5-2.5l-2,5.5l10.5-3
		l-2.5,4.5l7.5-2l-1,5l10.5-2l-2.5,4l10-2.5l-0.5,4l8.5,0.5L484.9,424.3z"/>
	<path fill="none" stroke="#009B77" stroke-width="3" stroke-miterlimit="10" d="M489.9,426.3l15-16.5l1.5,7l8-12l1,6.2l6.5-8.8
		l-1,6l6.5-11v9.5l9-7.5l-0.5,6.5l8-8l-0.5,5.5l13.5-7.5l-3,4l10-6l-1.5,6l9.5-5.5l-2.5,6l13-3.5c0,0-5,4-3.5,4s13.5-1.5,13.5-1.5
		l-16.2,10.1l4.2,1.9l-6,4l2.5,4l-6.5,1l5,3.5l-11,3.5l3,3h-7.5l3,4h-8.5l4.5,4l-12-2l2.5,5.5l-9.5-2l1.5,6l-9-6v5.5l-9-7l1,7.5
		l-7-7.5l-3,5l-7-6l-0.5,5l-8.5-7.5l-7,2.5l-3.5-2.5L489.9,426.3z"/>
	<path fill="none" stroke="#009B77" stroke-width="3" stroke-miterlimit="10" d="M466.7,430.5c0,0,15.2,1.8,12.7,6.8
		s-10.5,16.5-5,26s3,3,3,3l1.5-6l1,10.5l2.5-10l3.5,9.5l2-6.5l3.5,9l5.5-0.5v7l3.5-0.5l-2.5,10l8.5-6.5l-4.5,13.5l6.4-4.4l-5.4,11.9
		h5l-5,9l3.6-0.5l-9.1,8l6.4,0.5l-12.4,13l15.5-10.5l5,4l4-9l7,3.5l-1.5-9.5l4.5,1l-2-9.5l6,2l-4-10l6.5,2l-4.5-9.9l6.5-2.6l-8-6h9
		l-7-9l5.5-2l-9-5l3-5.5l-8.5-2l3-5h-9.5l3-4l-7-1v-3l-11.5-2l-9.5-5.5L466.7,430.5z"/>
	<path fill="none" stroke="#009B77" stroke-width="3" stroke-miterlimit="10" d="M353.9,515.8l1.5-18l4.5,3l0.5-16l4,5.5l1.5-10.5
		l2,6l3.5-9.5l1,7l4-10l2,6.5l8-10l-1.5,8l11.5-8c0,0-2.5,6.5-1,6.5s11.5-6.5,11.5-6.5l-2.5,7l11.5-4.5l-10,11.5l7,0.5l-9.5,5.5
		l4.5,2l-9.5,2.5l6,3l-6.5,3.5l4,5.5h-9l5,5l-13,0.5l4.5,5h-13l1.5,5l-7.5,0.5l-15-0.5L353.9,515.8z"/>
	<path fill="none" stroke="#009B77" stroke-width="3" stroke-miterlimit="10" d="M377.2,522.3l1.7,13l1.5-4l3.5,9l1.5-3.5l3,9l3.5-4
		l3,6.5l2.5-5l3.5,6.5l2.5-5.5l3.5,5.5l2-5l5.5,5.5l0.5-4c0,0,7.4,3.1,9,1.5s-7-10-7-10l5-3.5l-8.5-2l3.5-5.5h-6l1.5-7l-10,0.5
		l3.5-5l-8-2l-6.5-2"/>
	<path fill="none" stroke="#009B77" stroke-width="3" stroke-miterlimit="10" d="M378.9,535.3l1,5v9.5l-6-1l4.5,9l-5.5-1.5l3.5,8
		l-6.5-0.5l-3,11.5l-1-9l-5,1.5l1.5-9l-8,1.5l2-12l-4,1.5l0.5-10.5l-3.5,2.5l4.5-11l-4,0.5l7.5-9c0,0,10.8-1.7,11.2,7.3
		c0.3,9-4.3,24-2,28.3c2.3,4.3,1.7,12.3,1.7,12.3"/>
	<path fill="none" stroke="#009B77" stroke-width="3" stroke-miterlimit="10" d="M323.4,358.2c-2.3-3-4.5-7.3-6-11.4
		c-5.5-15-16-26-10.5-47s0.5-25,0.5-25l8.5,21.5l4-6.5v9l3-4l2,10l4-3.5l-0.5,10l5.5-2.5l-1.5,10l5.5-3.5v13l4-2l-3.5,11h6l-5,8
		l7.5,1.5l-2,7l5,2l-6.5,6c0,0,8.5,1,7,1s-8.5,7.5-8.5,7.5s1.5,7.5,9,12.5s10,7,10,7l-1.5,9l-3-4c0,0-19.5-17.5-19.5-21.5
		c0-2.9-5.3-3.6-11.5-11.9"/>
	<path fill="none" stroke="#009B77" stroke-width="3" stroke-miterlimit="10" d="M364.9,357.3c0,0,3.5-5.5,11.5-7s10.5-6.5,10.5-6.5
		l-2-1.5l11.5-7.5l-4.5-2.5l8-4.5l-4.5-1.5l8.5-6.5l-3-2.5l7.5-5l-6-1.5l7-7l-6-0.5l9-8.5l-5-2l7-10l-5.5,1.5l5.5-10.5l-5.5-1.5l7-5
		l-4-4.5l1-4c0,0-8-6.5-12-2.5s-11-4-14-4s-6,7-6,7l-3.5-3l1.5,9l-4.5-4.5l1.5,9l-5.5-3.5l-0.5,10l-2.5-4v11l-5.5-3.5l2,10h-7
		l4,10.5l-6.5-4l3.5,13l-5-2l5,10.5l-5.5-2l2.5,11l-3.5-1l4.5,9.5l-5,1l8,6.5c0,0-5.5,1-4,1.5s5.5,2,7,5.5S364.9,357.3,364.9,357.3z
		"/>
	<path fill="none" stroke="#009B77" stroke-width="3" stroke-miterlimit="10" d="M367.9,374.3c0,0,34,7,42.5,6s41.5,4.5,51-2
		s39.5-3.5,42,1s-3-9.5-3-9.5l-9.5-3c0,0,7.5-4.5,5.5-4.5s-13.5,0.5-13.5,0.5l2.5-5.5l-12,5c0,0,2.5-6,0.5-5.5s-12,6-12,6l2.5-5.5
		l-9,6l-0.5-6l-6.5,5.5l-2-5.5l-13,9l2.5-8l-13.5,6l2-6l-17.5,5l3.5-5.5l-13,4.5l1-6l-11.5,7l0.5-5.5l-13.5,10.5L367.9,374.3z"/>
	<path fill="none" stroke="#009B77" stroke-width="3" stroke-miterlimit="10" d="M366.9,364.8c0,0,3.3-9.9,15.5-9
		c22.9,1.6,18.5-6,18.5-10.5s2.5-12,2.5-12l2.5,3.5l4.5-14l3,5.5l3.5-11.5l3.5,6.5l4.5-15l2,6l5.5-15.5v9l5.5-12l2.5,8l4.5-15.5
		l3.5,6.5l7-11.5l-1,7.5l9-12l-1,8l7-11v8.5l7-11l1.5,6l8.5-9.5v7l11-7.5v6l11.5-8l-0.5,7l11.5-8.5l-4,7.5l14-6l-12,10.5l7.5,1.5
		l-9,4l6.5,2.5l-12,6h9l-14.5,7l7,2l-10,3l3.5,3.5l-8.5,2l1.5,5.5l-7,1l6,5h-13.5l5,4.5h-11.5l5.5,4l-9.5,1.5l4,5.5l-11.5,1l6,5h-13
		l5.5,4.5l-10.5-1l3,7l-11.5-0.5l7,4.5l-17.5-1.5l0.5,3l-11.5,2.5"/>
	<path fill="none" stroke="#009B77" stroke-width="3" stroke-miterlimit="10" d="M328.9,181.8c8.6-6.1,19.6-14.6,25.5-23.7
		c2.5-3.8,9.7-22.2,6.3-25.4C350,122.3,309,166.9,328.9,181.8z"/>
	<path fill="none" stroke="#009B77" stroke-width="3" stroke-miterlimit="10" d="M308.9,187.8c2.3-14.1,2.4-29.6-1.2-43.5
		c-1.7-6.6-3.3-11.7-9.4-14.9c-2.9-1.5-15.7-4.6-18.2-1.3c-5.2,6.8,9.2,25.8,13.3,30.2c4.4,4.7,7.2,5.9,9.8,13.7
		C305.1,177.3,306.9,182.6,308.9,187.8z"/>
	<path fill="none" stroke="#009B77" stroke-width="3" stroke-miterlimit="10" d="M318.4,190.8c4.9,11.1,36,5.7,45.6,2.9
		c6.3-1.8,44.2-27.7,40-31.8c-4.5-4.4-20.9,6.5-26.1,7.8c-6.7,1.7-12.5,0.8-19.1,2.6c-10.8,2.9-11.2,9.8-18,16.4
		C334.3,195.1,327.3,193,318.4,190.8z"/>
	<path fill="none" stroke="#009B77" stroke-width="3" stroke-miterlimit="10" d="M312.9,184.8c8.5-9.8,10.5-20.4,16.4-31.3
		c5.2-9.6,21-25.9,0.9-31.4C303.7,115,312,171.3,312.9,184.8z"/>
	<path fill="none" stroke="#009B77" stroke-width="3" stroke-miterlimit="10" d="M308.9,142.3c-3.2-2.7-7.3-6-9-9.9
		c-2.9-6.5,1.1-8.7-0.1-14.8c-1.2-6.6-12-11.7-0.4-20.7c11.4-8.8,17,11.6,17.4,19.9C317.5,127.4,314.2,133,308.9,142.3z"/>
	<path fill="none" stroke="#009B77" stroke-width="3" stroke-miterlimit="10" d="M328.9,183.1c13-6.9,39.5-16.2,48-27.8
		c8.1-11.1,17.6-28.7-3.5-24c-9.1,2-9.3,1.7-10.7,13c-1,7.8,0.2,10.8-4.8,17.1C352.1,168.8,336.3,177.4,328.9,183.1z"/>
	<path fill="none" stroke="#009B77" stroke-width="3" stroke-miterlimit="10" d="M337.9,124.8c2.3-5.7,25-35.1,32.1-21.4
		c7.3,13.9-22.8,30.6-32.1,34.9"/>
	<path fill="none" stroke="#009B77" stroke-width="3" stroke-miterlimit="10" d="M325.7,121.3c2.8-3.7,6.1-31.8,15.8-20.4
		c3.6,4.2-5.4,17.5-6,23.2"/>
	<path fill="none" stroke="#009B77" stroke-width="3" stroke-miterlimit="10" d="M385.2,137.8c17.5-1.7,12,4.4,2.1,15.1
		c-7.7,8.3-17,22.8-29.9,17.2"/>
	<path fill="none" stroke="#009B77" stroke-width="3" stroke-miterlimit="10" d="M334.9,99.3c0.1-3.7,0-17.6,4.2-18.5
		c6.2-1.3,5.2,14.6,3.3,18.3"/>
	<path fill="none" stroke="#009B77" stroke-width="3" stroke-miterlimit="10" d="M343.4,115.3c-2.2-6.7-2.2-13.8,0.5-20.3
		c1.6-4,11.9-21.5,16.8-21.5c17.6,0-5.4,29.3-8.8,33.3"/>
	<path fill="none" stroke="#009B77" stroke-width="3" stroke-miterlimit="10" d="M369.4,110.3c11.1,1.1,21.5-16.8,18.6-26.6
		c-3.8-12.7-21.3,5.1-27.6,11.6"/>
	<path fill="none" stroke="#009B77" stroke-width="3" stroke-miterlimit="10" d="M365.7,133.5c-0.5-12.6,6-23.3,18-27.4
		c6.8-2.3,6.6-5.4,8.5,2.6c1.3,5.4-9.7,22.8-7.5,22.1c0.3-0.3,0.9,0.8,1.3,0.5c6.1-5.1,20.4-17.6,24.6-5.5
		c2.6,7.5-10.1,11.4-14.3,16.3"/>
	<path fill="none" stroke="#009B77" stroke-width="3" stroke-miterlimit="10" d="M381.9,105.8c10.7-5.7,2.5-22.8,12.8-18.7
		c10.7,4.2,0,37.2-8,41.5"/>
	<path fill="none" stroke="#009B77" stroke-width="3" stroke-miterlimit="10" d="M369.4,87.5c-1.5-6.1,0.7-25.4,11.1-20.5
		c4.6,2.2,2.1,6.8,1.4,12.3c2.6-9.3,10.7-11.3,10.8,0.7"/>
	<path fill="none" stroke="#009B77" stroke-width="3" stroke-miterlimit="10" d="M398.2,89.3c4-10.4-4.5-15.3-9-3.2"/>
	<path fill="none" stroke="#009B77" stroke-width="3" stroke-miterlimit="10" d="M318.4,124.3c-0.3-4-1.4-24.1,2.2-25.7
		c8.4-3.6,8.1,18.3,4.3,22.8"/>
	<path fill="none" stroke="#009B77" stroke-width="3" stroke-miterlimit="10" d="M156.9,170.8c-2.1-6.2-6.3-19.4,2.8-21.9
		C171.4,145.7,159.1,166.2,156.9,170.8z"/>
	<path fill="none" stroke="#009B77" stroke-width="3" stroke-miterlimit="10" d="M143.4,174.8c-4.1-9.1-9.7-15.7-16.7-22.7
		c-3-3-8.4-6.4-13.1-6.4c-3.8,0-11.3,4.2-10.3,8.8c1.8,8,18.9,1.7,23.6,8.3c3.4,4.8-1.1,5.5,4.2,9.1
		C134.7,174.3,140.3,173.1,143.4,174.8z"/>
	<path fill="none" stroke="#009B77" stroke-width="3" stroke-miterlimit="10" d="M104.4,170.8c-12.8-5.5,16.9-15,22.5-8
		C134,171.6,108.4,170.5,104.4,170.8z"/>
	<path fill="none" stroke="#009B77" stroke-width="3" stroke-miterlimit="10" d="M128.4,145.8c-8.2,0.6-17.5,0.6-25.3-2.3
		c-4.4-1.7-6.8-3.7-9.2-7.7c-1.2-2-8-11.7-7.5-14.5c2-10,23.1-1.3,27.5,0.8C124.6,127.2,132,132.9,128.4,145.8z"/>
	<path fill="none" stroke="#009B77" stroke-width="3" stroke-miterlimit="10" d="M169.9,149.8c-6-7.1-3.8-14.1,2.5-20
		c5-4.7,11.8-13.3,18.5-9.5c12.5,7.2,2.7,18.3-4.1,23.7C178.3,150.7,179.5,154.6,169.9,149.8z"/>
	<path fill="none" stroke="#009B77" stroke-width="3" stroke-miterlimit="10" d="M149.4,139.8c17.9-7.7,14.9-45.3-4.5-43.5
		c-10.5,1-10.5,5.9-8.4,17C138.3,123,142.7,132.5,149.4,139.8z"/>
	<path fill="none" stroke="#009B77" stroke-width="3" stroke-miterlimit="10" d="M128.4,105.3c-12-2.2-23.9-8.6-29.5-20
		C112.3,80.8,131,90,128.4,105.3z"/>
	<path fill="none" stroke="#009B77" stroke-width="3" stroke-miterlimit="10" d="M175.7,87.1c4.4-0.9,7.9-2.3,11.3-5.4
		c4.2-3.8,8.5-15.5,1.3-19.1C176.1,56.6,174.9,80.1,175.7,87.1z"/>
	<path fill="none" stroke="#009B77" stroke-width="3" stroke-miterlimit="10" d="M163.4,104.3c17.7,0,13.3-29.9,1.3-34.9
		c-5-2.1-7.1,2.1-8.8,7.7C153.3,86,158.5,97,163.4,104.3z"/>
	<path fill="none" stroke="#009B77" stroke-width="3" stroke-miterlimit="10" d="M160.9,149c6.3-14.3,5.7-38.5,19.3-43
		c4.6-1.5,15.3-4.8,17.8-1.1c3.6,5.5-3.5,12.4-7.1,15.4"/>
	<path fill="none" stroke="#009B77" stroke-width="3" stroke-miterlimit="10" d="M197.4,89.8c-9.3-10-19.4,12.5-23.8,17.5
		c-2.9,3.3-14.1,10.7-10.6,0.2c2-6,11.3-8.9,14-15.5c1.1-2.7,0.9-4.6,2.6-6.5C185.2,79.6,205.8,80.4,197.4,89.8z"/>
	<path fill="none" stroke="#009B77" stroke-width="3" stroke-miterlimit="10" d="M136.2,150.4c-1.3-3.1-1.8-10.7-6.3-9.4
		c-6,1.7-3.5,6.5-0.3,8.5c2.8,1.8,5.8,0.7,8.7,2.7c1.9,1.3,3.4,4.2,4.7,6c3.1,4.5,5.8,9.3,8.4,14.1c-7.5-4.3,2.4-15.9-0.1-21.2
		c-2.9-6.2-15.5-5.3-9.4-15.8c-1.3,9.4,14.2,2.9,18,0c-7.3,8.3-12.4,26.8-5.5,36.5"/>
	<path fill="none" stroke="#009B77" stroke-width="3" stroke-miterlimit="10" d="M128.4,126.8c-5.2-3.6-9.2-9.3-15.2-11.4
		c-7.9-2.8-12.2-3.6-17.8-11.1c10.9-4.3,38.3-2.7,38.1,13c-0.1,5.5-4.6,7.8-5.9,12.3c-2.2,7.9,6,3.6,12.3,4.7
		c-0.7-3.2-1.6-16.7-5.5-17.7"/>
	<path fill="none" stroke="#009B77" stroke-width="3" stroke-miterlimit="10" d="M135.9,95.8c-4.3,2.4-9,2.1-12.9-1
		c-2.9-2.4-11.6-20.4-7.9-24C121.6,64.3,143.8,89.5,135.9,95.8z"/>
	<path fill="none" stroke="#009B77" stroke-width="3" stroke-miterlimit="10" d="M139.9,82.3c6.3-1.8,13-6,12.6-13.3
		c-0.4-6.5-14.8-25-22.1-25.7c-6.3-0.6-9.2,10-8.7,15C122.6,68.6,131.3,77.5,139.9,82.3z"/>
	<path fill="none" stroke="#009B77" stroke-width="3" stroke-miterlimit="10" d="M154.1,57.5c-3-4-2.9-6.4-1.7-12.2
		c1.3-5.7,9.8-30.8-4-14.5c-6.2,7.4-1.8,12-3.5,20.8c-1,5.2,4.9,18.9,8.8,17.8C154.5,69.3,155.6,59.5,154.1,57.5z"/>
	<path fill="none" stroke="#009B77" stroke-width="3" stroke-miterlimit="10" d="M164.2,69.6c-15.8-1.3-3.7-21.8,4.5-24
		c7-1.9,9,3.6,6.6,9.4C173.1,60.7,169.4,66.9,164.2,69.6z"/>
	<path fill="none" stroke="#009B77" stroke-width="3" stroke-miterlimit="10" d="M146.2,34c1.7-12.6-8.4-0.2-9.3,5.5
		c-1.1,7.1,5,13.8,9.1,19.5"/>
	<path fill="none" stroke="#009B77" stroke-width="3" stroke-miterlimit="10" d="M177.2,151.3c-0.7,6.3-4.8,14.5-12,9.1
		c-4.7-3.5-1.2-5.6,1.7-11.1c-2.8,8-5.6,14.2-10,21.5c1.8,0.1,4.2-0.1,6-0.5c-2.1-2.2,3-5.6,5.7-7.7"/>
	<path fill="none" stroke="#009B77" stroke-width="3" stroke-miterlimit="10" d="M489.2,430.3c0,0,13,2,17.7-3
		c4.7-5,27.7-15,40.3-15.3c12.7-0.3,39.3-10,39.3-10"/>
	<path fill="none" stroke="#009B77" stroke-width="3" stroke-miterlimit="10" d="M484.9,424.3c0,0,7.7-13.3-2.3-23.7
		c-9.3-9.6-40-15.7-53.7-6.3"/>
	<path fill="none" stroke="#009B77" stroke-width="3" stroke-miterlimit="10" d="M363.2,355.6c0,0,15.7-16,16.7-26.7
		c1-10.7,8.7-54.7,12.7-58.7s4-12.7,4-12.7"/>
	<path fill="none" stroke="#009B77" stroke-width="3" stroke-miterlimit="10" d="M399.2,359.3c0,0,101-80,124.3-87"/>
	<path fill="none" stroke="#009B77" stroke-width="3" stroke-miterlimit="10" d="M161.6,382c0,0-16,12-22,15s-22,30.3-29.7,35.7
		c-7.7,5.3-22.7,24.7-22.7,24.7"/>
	<path fill="none" stroke="#009B77" stroke-width="3" stroke-miterlimit="10" d="M365.9,393.6c0,0,9.3,1.3,17.7-3.3
		c8.3-4.7,14.7-8.7,14.7-8.7s-18.3-7.7-23.3-4.3s-8.3,9-8.3,9L365.9,393.6z"/>
	<path fill="none" stroke="#009B77" stroke-width="3" stroke-miterlimit="10" d="M167.9,377.3c0,0,11.3-16.7,15.7-18
		c4.3-1.3,4.3-1.3,4.3-1.3"/>
	<path fill="none" stroke="#009B77" stroke-width="3" stroke-miterlimit="10" d="M355.4,521.8c0,0,17.2-17.2,19.8-24.2
		s30.3-18.7,30.7-20"/>
	<path fill="none" stroke="#009B77" stroke-width="3" stroke-miterlimit="10" d="M376.6,522.3c0,0,17.7-2.7,24.7,3.7
		c7,6.3,22.4,20,22.4,20"/>
	<path fill="none" stroke="#009B77" stroke-width="3" stroke-miterlimit="10" d="M260.9,340.3c0,0-9.3-18,6-30.3
		c15.3-12.3,35-41.7,34-53.3"/>
	<path fill="none" stroke="#009B77" stroke-width="3" stroke-miterlimit="10" d="M252.4,340.3c0,0-6.5-9.3-21.5-9.3s-25,4-25,4
		l-7.7,1.3"/>
	<path fill="none" stroke="#009B77" stroke-width="3" stroke-miterlimit="10" d="M246.2,386c0,0,8,39.7,13.3,43.3
		c5.3,3.7,12,27,12,27"/>
	<path fill="none" stroke="#009B77" stroke-width="3" stroke-miterlimit="10" d="M479.6,435c0,0,1.3,12,6.3,16.3s21.7,7.3,24.7,16
		c3,8.7,9,30.7,5,39.7c-4,9-13.7,18.3-13.7,18.3"/>
	<path fill="none" stroke="#009B77" stroke-width="3" stroke-miterlimit="10" d="M360.9,362.1l0.9-4.2c0,0,2-3.9,0.7-6.6"/>
	<path fill="none" stroke="#009B77" stroke-width="3" stroke-miterlimit="10" d="M422.4,359.3c0,0-13.5-4.1-18.5-4.2
		s-9.5,2.6-9.5,2.6"/>
	<path fill="none" stroke="#009B77" stroke-width="3" stroke-miterlimit="10" d="M369.9,365.8c0,0,4-5.8,7.8-5.8s6.8-0.2,6.8-0.2"/>
	<path fill="none" stroke="#009B77" stroke-width="3" stroke-miterlimit="10" d="M367.6,393.1c0,0,4.2-6.5,9.7-8.5
		s15.5-5.3,15.5-5.3"/>
</g>
</svg>
