<?xml version="1.0" encoding="utf-8"?>
<!-- Generator: Adobe Illustrator 19.1.0, SVG Export Plug-In . SVG Version: 6.00 Build 0)  -->
<!DOCTYPE svg PUBLIC "-//W3C//DTD SVG 1.1//EN" "http://www.w3.org/Graphics/SVG/1.1/DTD/svg11.dtd">
<svg version="1.1" xmlns="http://www.w3.org/2000/svg" xmlns:xlink="http://www.w3.org/1999/xlink" x="0px" y="0px"
	 viewBox="0 0 512.2 556.4" enable-background="new 0 0 512.2 556.4" xml:space="preserve">
<g id="Layer_1">
	<path fill="none" stroke="#009B77" stroke-width="3" stroke-linejoin="bevel" stroke-miterlimit="10" d="M93.9,91.5
		c-0.8-21.5,3.5-45.9,17.2-63C132.1,2.2,182.4-9,199,33.8c11.1,28.6-16.5,61-47.5,51.5c-18.8-5.8-27.6-33-10.4-46.1
		c14.7-11.1,31.8-1.9,29.2,16.2c-16.3-17.7-20.6,11.3-2,8.1c13.4-2.3,11.8-24.3,3-31.6c-10.8-9.1-33.5-2.5-41.1,7.7
		c-10.6,14.2-11,36.1-13.9,52.3C107.4,87.5,101.9,88.1,93.9,91.5z"/>
	<path fill="none" stroke="#009B77" stroke-width="3" stroke-linejoin="bevel" stroke-miterlimit="10" d="M86.4,92.5
		c7.4-24.7,10.5-51.3-3.4-73.3C67-6.3,20.8-3.8,6.4,24C-7.1,50,8.8,82.3,35.9,83c44,1,24.3-57.5-1.2-39.3
		c0.9-0.6,24.2,12.7,6.8,17.8C22.9,66.9,26.1,33,38.8,28.6C63.9,20,69.1,46.6,70,62.8c0.6,10.8-4.1,21.2-3.1,24.6
		C67.9,91.2,74.9,87.7,86.4,92.5z"/>
	<path fill="none" stroke="#009B77" stroke-width="3" stroke-linejoin="bevel" stroke-miterlimit="10" d="M71.4,209
		c-1.3,19.9,18.1,12.1,27.2,4.5c11.6-9.5,14.1-19.3,18-33.4c5.1-18.4,23.3-41.1,18.3-61.4c-3.8-15.8-19.5-31.5-34.6-28.9
		c-8.5,1.5-6.7,3.3-15.2,2.8c-9.4-0.6-12.8-7.3-19.2-2.4c-5.3,4.1-7.4,17.6-11.6,23.2c-6.1,8.2-11.7,8.2-10.9,18.1
		c1,12.1,14.5,24.1,18.1,35.7C66.1,182.3,60.9,195.2,71.4,209z"/>
	<path fill="none" stroke="#009B77" stroke-width="3" stroke-linejoin="bevel" stroke-miterlimit="10" d="M170.6,94
		c-17.3-5.8-31.4-1.9-47.7,4.5c7.2,11.6,10.2,22,25.8,15.7C157.5,110.6,164.6,101.1,170.6,94z"/>
	<path fill="none" stroke="#009B77" stroke-width="3" stroke-linejoin="bevel" stroke-miterlimit="10" d="M1.2,103.6
		c11.7-5.2,56.6-25.2,58.2-0.7c0.5,8-12.5,18-22,18.6C21.4,122.5,15.9,105.2,1.2,103.6z"/>
	<path fill="none" stroke="#009B77" stroke-width="3" stroke-linejoin="bevel" stroke-miterlimit="10" d="M75.2,221.3
		c-11.6,10.8,5.7,21.6,1.3,34.7c2.7-1.3,4.7-3.3,6-6c0,2.1,1.3,20.2-2.5,20.6c18.7-2.2,11.8-28.3,10.1-40.3c1.3,3,6.3,9.7,7.7,12.7
		c-0.1-1.6-2.7-9.1-2.3-16c0.3-6.9,3.7-14,4.5-14.8C94.6,217.2,82,225.6,75.2,221.3z"/>
	<path fill="none" stroke="#009B77" stroke-width="3" stroke-linejoin="bevel" stroke-miterlimit="10" d="M98.9,190.7
		c-2.6-7.3-17.5-2.5-24.5-3c0,2.5,2.3,2.7,3.2,4.2c0.7,1.1-0.1,3.9,0.9,4.5c3.7,2.3,9.2,1.9,13.9-0.2c0.8-0.4,0.5-3.3,1.2-3.8
		C95.3,191.4,97.8,192.2,98.9,190.7z"/>
	<path fill="none" stroke="#009B77" stroke-width="3" stroke-linejoin="bevel" stroke-miterlimit="10" d="M116.6,92.2
		c-35.3,6.7-25.2,31.7-19.7,58.5c2.4,11.9-0.8,18.3,4.8,27.7c4.8,8,10.2,4.8,7.2,17.2c-1.6,6.7-7,11-13,13.4
		c-9.9,3.9-25.8,1.1-29.3-8.7c-4.9-13.9,12.7-18.5,15-32.3c1.9-11.8,2.4-28.9,1.7-40.9c-0.9-14.3-0.9-32.2-18.9-33.8
		c0.5-1.9,1.6-6.4,2.8-7.9c14.2,8.8,24,2.5,40.7,3.7C109.6,89.1,115.6,90,116.6,92.2z"/>
	<path fill="none" stroke="#009B77" stroke-width="3" stroke-linejoin="bevel" stroke-miterlimit="10" d="M133.6,139.5
		c-3.3,17.2-13.8,33.6-19.4,50.3c-4.6,13.8-12.5,18.8-11.5,33.5c0.5,7.5,1.8,16,6.2,22.2c5.3,7.4,18.6,10.9,19.4,21.2
		c0.7,9-11,17.9-13.2,26.8c-2.4,9.9,0.5,18.3,3.7,27.7c5.8,17.5,7.6,28.5,8.8,46.6c0.7,10.5,3.4,19.6,1.5,30.3
		c-2.3,13.2-8.1,23.1-5.5,37c6.9,36.2,13.3,69.8-11.7,101.9c11.2-1.9,25.2,0.8,31.3-3.7c2.5-1.8,2.5-16.3,4.7-20.3
		c7-13,4.1-23.2,2.9-43.6c-1.2-21.8-3-39.6-1.1-61.5c0.3-3.4,10-47,6.1-46.5c5.3-0.7,34.1,2.4,38.3,6.3c8,7.2,8.9,46.7,9.4,58.2
		c0.4,8.9-2.8,17.7-2.8,26.7c0,10.7,3.8,20.7,4.4,31.3c0.6,11.1-1.7,22.4-4.7,33.1c-1.8,6.5-12.5,21.5-12.7,27
		c-0.1,2.5,30.3-1.5,32.8-3.8c7.4-6.6,5.4-34.2,3.1-45.2c-2.5-12-0.1-31.3-0.4-45.1c-0.3-11.7-3.5-17.9-2.5-28.3
		c1-10.4,7.5-34.3,14.7-42c10-10.8,22.9,0.6,38.3-3.7c36.1-10.2,82.1-44.5,106.5,4c6.7,13.2,13.4,26.2,19.5,41
		c2.4,5.9,4.8,13.5,7,19.3c2.6,6.8,5.9,12.9,7.7,19.6c7.5,27.6-3.3,58-0.4,85.4c1.1,10.9-2.1,7,5.3,9.5c2.2,0.7,15.4-1,17.5-2.6
		c11.5-8.6,6.5-31.3,3.5-43.3c-3.8-15.2-10.4-31.2-11.5-46.9c-0.8-11.6,3-22-0.2-33.5c-3.3-11.8-11-20.6-13-33
		c-4.7-29.9,6.2-57.1,7.5-86.5c0.8-18.1,0-36.3,2.1-54.4c0.4-3.6-0.1-13.3,3-16c4-3.4,8.4,3.5,12.7,3.3c23.5-0.7,30-14.1,40.2-32.5
		c-13.3,9.6-17.5,10.8-32.5,8.3c-9.2-1.5-18.4,1-26.8-0.4c-9.4-1.6-12.5-8.9-18.3-16c-26.7-32.7-74.5-37-113.4-26.9
		c-9.1,2.4-18.5,6.4-28,5.5c-19.8-2-30.4-9.8-51.4-5.8C174.8,180.9,155,168.6,133.6,139.5z"/>
	<path fill="none" stroke="#009B77" stroke-width="3" stroke-linejoin="bevel" stroke-miterlimit="10" d="M137.9,307.5
		c21.3,37.2,54.3,2,52.6-28.3c-2.6-44.1,18.6-81.4,64.6-89.1c15.5-2.6,35.9-4.1,50.8,2.1c15.8,6.6,26,22.3,41.6,29.5
		c20.2,9.4,33.1-5.4,52.7-5.7c13.7-0.3,24.6,11.2,31.1,21.2c-14.5-0.3-5,45-8.8,60.7c-10.3-34.9-20.6-57.1-57.6-67.4
		c-14.1-3.9-26.5-4.8-39.4-13.3c-10.3-6.8-28-26.5-41.7-26.1c-42.8,1.4-34.6,78.5-47.2,103.5c-14.2,27.9-21.2,48.6-18,80.6
		c2.1,21.4,7.6,41.7-13.5,55.2c4-9.4,9.1-21.8,7.3-32.1c-2.3-13.8-15.8-23.2-20.3-36.2c-3.9-11.3-5.4-28.9-2.7-40.3
		c3.1-13.1,11.6-21.6,13.7-35.3c4.4-28.3-4.2-54,21.3-73.8c15.9-12.3,37.2-19.1,56.8-22.7c-14-0.4-28.2,0.1-42.1,2.2
		c-24.3,3.6-34.7,14.1-53.6,28.4c-24.5,18.4-25,23.3-16.3,51.1C176.2,294.6,164,318.9,137.9,307.5z"/>
	<path fill="none" stroke="#009B77" stroke-width="3" stroke-linejoin="bevel" stroke-miterlimit="10" d="M120.9,169.5
		c18,27.6,3.5,56.4,19.3,83.2c7.3,12.3,34.3,58.1-2.6,51.5c-0.4-0.1-2.4,11.8-7.8,11.8c-6.9-0.1-3.5,37.2-3.5,37.2s-3.8-37.3,3-38
		c5.6-0.6,8.3-12.6,8.8-13.2c14.1-20.6-17.4-48-24.4-64.3c-4.3-10-8.6-22.3-6.8-32.1C109,194.6,116.7,180.2,120.9,169.5z"/>
	<path fill="none" stroke="#009B77" stroke-width="3" stroke-linejoin="bevel" stroke-miterlimit="10" d="M128.4,378.5
		c25,19.5-10.3,30.4-1.9,49.5c3.9,8.8,10.9,10.6,17.4,0.8c6.8-10.4-1.2-19.2-9-26.5"/>
	<path fill="none" stroke="#009B77" stroke-width="3" stroke-linejoin="bevel" stroke-miterlimit="10" d="M281.4,188
		c19.7,22.5,27.1,47.8,40.3,73.9c6.7,13.1,13.8,29.9,24.4,40.4c10.6,10.5,21.5,12.8,28.2,28c6.7,15.1,10.6,32.3,16.6,47.8
		c4.6,11.9,13.3,26.6,14.4,39.6c0.7,8.3-3.4,36.3,15.2,28.2c10.5-4.6,8.4-15.6,3.4-19.9c-5.4-4.7-17.5,2-8.5,9"/>
	<path fill="none" stroke="#009B77" stroke-width="3" stroke-linejoin="bevel" stroke-miterlimit="10" d="M313.9,361
		c31.6-5.2-40.5-59.7-46.6-69.1c-9.8-15.1-11.7-37-6.5-54.3c4.2-13.8,25-29.3,25-43.2"/>
	<path fill="none" stroke="#009B77" stroke-width="3" stroke-linejoin="bevel" stroke-miterlimit="10" d="M305.9,363.7
		c27.3,22.6,44.1,49.1,35.3,85c-3.9,16-1.8,32.8-5,48.9c-3.1,15.4-10.8,33.1-16.7,47.9c9.6-1.3,18.7,1.4,23.5-1.5
		c4.8-2.9,5.2-11.2,9-21c4.8-12.4,0.6-27.2,4.6-40.8c4.9-16.8,21.1-32.8,21.6-51c0.3-10.8-7.6-18.1-10.6-28.2
		c-3.5-11.6-6.7-30.8-4.5-42.5"/>
	<path fill="none" stroke="#009B77" stroke-width="3" stroke-linejoin="bevel" stroke-miterlimit="10" d="M362.6,424.6
		c3.3-4.4,7.5-1.3,8.3,2.3c1,4.2-1.6,11.1-8,9.3c-7.7-2.1-9.4-14.6-3.7-19.3c6.2-5.2,18.5-3.9,18.8,12.5c0.4,32.8-58.6,5-11.6-30"/>
	<path fill="none" stroke="#009B77" stroke-width="3" stroke-linejoin="bevel" stroke-miterlimit="10" d="M211.4,446
		c5.3,1.4,4.6,6.4,2.3,8.5c-1.9,1.7-5.7,2.8-7.5-3.1c-4-13.3,13.4-19.3,16.3-3.4c1.7,9.1-7.8,24.6-18.7,15.3
		c-5.5-4.8,0.3-26.3,1.1-32.8"/>
	<path fill="none" stroke="#009B77" stroke-width="3" stroke-linejoin="bevel" stroke-miterlimit="10" d="M54.9,114
		c19,11.5,28.2,35.6-3,37"/>
	<path fill="none" stroke="#009B77" stroke-width="3" stroke-linejoin="bevel" stroke-miterlimit="10" d="M129.9,111
		c-8.9,2.3-20.7,6.5-24,16c-3.6,10.2,6.7,31.5,17.3,34"/>
	<path fill="none" stroke="#009B77" stroke-width="3" stroke-linejoin="bevel" stroke-miterlimit="10" d="M54.4,116
		c-8.7-19.5-35.9-12.8-53.2-12.3"/>
	<path fill="none" stroke="#009B77" stroke-width="3" stroke-linejoin="bevel" stroke-miterlimit="10" d="M127.9,106.5
		c10-11.7,23-9,36.5-6"/>
	<path fill="none" stroke="#009B77" stroke-width="3" stroke-linejoin="bevel" stroke-miterlimit="10" d="M123.9,517
		c7.9,1.6,17.2-5.1,25.3-5.1"/>
	<path fill="none" stroke="#009B77" stroke-width="3" stroke-linejoin="bevel" stroke-miterlimit="10" d="M194.4,530.5
		c0,0,26.5-11.5,30.5-9.5"/>
	<path fill="none" stroke="#009B77" stroke-width="3" stroke-linejoin="bevel" stroke-miterlimit="10" d="M328.4,525.5
		c0,0,19.5,1,23.5-2.5"/>
	<path fill="none" stroke="#009B77" stroke-width="3" stroke-linejoin="bevel" stroke-miterlimit="10" d="M413.6,536.3
		c7.9-2.3,23.7,0.4,30.8-5.8"/>
	<path fill="none" stroke="#009B77" stroke-width="3" stroke-linejoin="bevel" stroke-miterlimit="10" d="M117.4,135.5
		C131.5,106.2,137.9,148.6,117.4,135.5L117.4,135.5z"/>
	<path fill="none" stroke="#009B77" stroke-width="3" stroke-linejoin="bevel" stroke-miterlimit="10" d="M62.9,133
		C40.9,116.6,44.6,149.4,62.9,133L62.9,133z"/>
	<path fill="none" stroke="#009B77" stroke-width="3" stroke-linejoin="bevel" stroke-miterlimit="10" d="M176.4,174
		c10.3,5.5,34.9,19.5,25.5,33.5"/>
	<path fill="none" stroke="#009B77" stroke-width="3" stroke-linejoin="bevel" stroke-miterlimit="10" d="M243.4,176
		c12,6.6,28.7,12.5,42.5,12.5"/>
	<path fill="none" stroke="#009B77" stroke-width="3" stroke-linejoin="bevel" stroke-miterlimit="10" d="M136.4,304.5
		c6.7,10.4,8.3,20.6,8.2,32.7c-0.2,11.1-4.4,23.3,11.3,24.3"/>
	<path fill="none" stroke="#009B77" stroke-width="3" stroke-linejoin="bevel" stroke-miterlimit="10" d="M231.4,386
		c1.8-9.3,9-23.9,13.8-31.6c7.5-12.2,10.2-24.3,12.4-38.2c3.4-22.3-3.3-45.1,1.3-71.8"/>
	<path fill="none" stroke="#009B77" stroke-width="3" stroke-linejoin="bevel" stroke-miterlimit="10" d="M109.4,200.5
		c2.4,7.9,5.3,19.6,10.1,26.3c4.9,6.9,14.4,12.7,17.9,20.7"/>
	<path fill="none" stroke="#009B77" stroke-width="3" stroke-linecap="round" stroke-linejoin="bevel" stroke-miterlimit="10" d="
		M257.2,537.3c-12.4-17.8-6.2-34.3,3.9-51.1c7.6-12.6,27.6-36.2,21.4-52.3c-7.3-19-43-10.3-38,11.7c2.6,11.5,14.4,11.3,17.6,9.6
		c10.1-5.6,6.3-23.1-4.2-12.6"/>
	<path fill="none" stroke="#009B77" stroke-width="3" stroke-linecap="round" stroke-linejoin="bevel" stroke-miterlimit="10" d="
		M239.4,495c4-2.1,6.6,1.1,5,4.5c-1.6,3.4-7.3,5.9-12-1c-3.6-5.2,1.6-12.1,7-14c7.2-2.5,16.2,1.8,14.1,16.5"/>
	<path fill="none" stroke="#009B77" stroke-width="3" stroke-linecap="round" stroke-linejoin="bevel" stroke-miterlimit="10" d="
		M280.4,479.5c6.5,7.6,9.6-6.9,1-8c-11.8-1.5-13.8,19.4-0.2,20.8c10.9,1.2,16.3-5.9,17.7-12.3c2.4-11.8-11.2-26.8-25-13"/>
	<path fill="none" stroke="#009B77" stroke-width="3" stroke-linecap="round" stroke-miterlimit="10" d="M83.9,530.5
		c-3-15.2-5-31.3-2.6-46.7c3.6-22-8.3-51.5,3.6-71.6c7.8-13.1,20.9-11,25.5-3.6c3.6,5.7,7,18.7-2.3,22c-4.9,1.7-9.9-0.5-11-3.3
		c-1.8-4.8,2.8-13.2,6-6.3"/>
	<path fill="none" stroke="#009B77" stroke-width="3" stroke-linecap="round" stroke-miterlimit="10" d="M62.6,409.3
		C49.7,401,44.5,383.2,28.4,380c1.8,18,5.3,23,22,25.6c18.5,2.8,23.4,12.1,29,30.6c-7.7-30.6-39.2,10.7-15.6,17.6
		c8.9,2.6,15.8-9.4,8.1-15.2c-2.6-2-6.5-1.5-8,1.2c-1.8,3.2-0.8,8.7,4.7,7"/>
	<path fill="none" stroke="#009B77" stroke-width="3" stroke-linejoin="bevel" stroke-miterlimit="10" d="M27.3,380.6
		c7.3-2.4,14.8-6.3,21.6-2.1c8.5,5.3,4.2,26.6,12.9,30.3"/>
	<path fill="none" stroke="#009B77" stroke-width="3" stroke-linecap="round" stroke-linejoin="bevel" stroke-miterlimit="10" d="
		M168.6,531.8c8.3-9.9-2-36-0.4-47.9c1.3-10.2,14.5-33.8,27.8-20.6c9.1,9-3.5,30.7-13.5,21.9c-4.7-4.2-4.6-10.1-1.2-13
		c3-2.6,9.6-2.9,6.8,4.9"/>
	<path fill="none" stroke="#009B77" stroke-width="3" stroke-linecap="round" stroke-linejoin="bevel" stroke-miterlimit="10" d="
		M164.4,458.7c0.4-0.4,1.9-0.2,2.5,1.5c0.9,2.5-0.8,8-6.5,5.2c-6.3-3-5.2-14.6,1.1-16.2c17-4.3,12.9,19.7,8.9,27.1"/>
	<path fill="none" stroke="#009B77" stroke-width="3" stroke-linecap="round" stroke-linejoin="bevel" stroke-miterlimit="10" d="
		M401.2,533.3c-6.6-15.7-6.7-31.5-4.4-48c0.3-2.3,0.5-16.2,5.2-20c4.7-3.8,9-1.3,9.6,4.4c0.3,2.5-1.1,6.2-5.4,6.2
		c-2.7,0.1-3.9-3.5-2.7-5.7"/>
	<path fill="none" stroke="#009B77" stroke-width="3" stroke-linecap="round" stroke-linejoin="bevel" stroke-miterlimit="10" d="
		M383.5,471.7c0-1.3,0.1-3.1,2.1-3.4c3.3-0.7,4.8,1.5,5,4.3c0.2,2.4-2.5,4.9-6.3,5c-8.7,0.3-9.6-13.5-4-16.3
		c15.3-7.7,16.3,17.1,16.7,23.3"/>
	<path fill="none" stroke="#009B77" stroke-width="2.1082" stroke-linejoin="bevel" stroke-miterlimit="10" d="M128.3,126.5
		c0,0-5.1,1.2-4.2,5.8c0.9,4.6,6.1,5.3,5.8,2.3S128.3,126.5,128.3,126.5z"/>
	<path fill="none" stroke="#009B77" stroke-width="2.1082" stroke-linejoin="bevel" stroke-miterlimit="10" d="M59.9,130.5
		c0,0-5.7-1.9-4.8,2.6c0.9,4.6,6.4,2.8,6-0.1C60.8,130,59.9,130.5,59.9,130.5z"/>
	<path fill="none" stroke="#009B77" stroke-width="2.1082" stroke-linejoin="bevel" stroke-miterlimit="10" d="M56.9,130
		c0,0,0,4.5,1.5,5l1.3-2.2"/>
	<path fill="none" stroke="#009B77" stroke-width="2.1082" stroke-linejoin="bevel" stroke-miterlimit="10" d="M128.4,136
		c0,0-1.6-1.3-2.2-3.3c-0.2-0.5-0.3-1.1-0.3-1.7c0-3,2.4-4.4,2.4-4.4L128.4,136z"/>
	
		<line fill="none" stroke="#009B77" stroke-width="2.1082" stroke-linejoin="bevel" stroke-miterlimit="10" x1="59.9" y1="130.5" x2="58.4" y2="133"/>
	<path fill="none" stroke="#009B77" stroke-width="1.5" stroke-miterlimit="10" d="M30.9,379.6c0,0,8.3-2,13.7,1.3
		c5.3,3.3,10.7,22.3,10.7,22.3"/>
	<path fill="none" stroke="#009B77" stroke-width="1.5" stroke-miterlimit="10" d="M27.9,382c0,0,4.3,9.7,9.3,13.7s18.7,10,18.7,10
		s-13.3-8-15.7-12c-1.2-2-11.8-13.7-11.8-13.7"/>
	<path fill="none" stroke="#009B77" stroke-width="1.5" stroke-miterlimit="10" d="M103,421.5c0,0-2.4,2.4-1.4,4.8
		c1,2.3,6.6,4.8,9.2,2.1"/>
	<path fill="none" stroke="#009B77" stroke-width="1.5" stroke-miterlimit="10" d="M69.1,445.7c0,0-3.9-2.3-1-4
		c5.5-3.2,5.8,5.8,5.8,5.8"/>
	<path fill="none" stroke="#009B77" stroke-width="1.5" stroke-miterlimit="10" d="M184.1,485.7c0,0-3.8-6.8-1-8.8s4.6,0.6,4.6,0.6"
		/>
	<path fill="none" stroke="#009B77" stroke-width="1.5" stroke-miterlimit="10" d="M165.1,449.5c0,0-5.6,3.5-5.8,6.8
		c-0.2,4.9,4.9,6.4,4.7,3.3"/>
	<path fill="none" stroke="#009B77" stroke-width="1.5" stroke-miterlimit="10" d="M239,495.3c0,0,2.6,1.9,1.8,3.6s-7,0.2-7,0.2"/>
	<path fill="none" stroke="#009B77" stroke-width="1.5" stroke-miterlimit="10" d="M253.6,454.7c0,0,9.2-1.5,8.9-6.4
		s-4.6-4.9-4.6-4.9"/>
	<path fill="none" stroke="#009B77" stroke-width="1.5" stroke-miterlimit="10" d="M274.8,488.2c0,0,0.5-7.4,1.8-10.2
		c1.6-3.6,5.2-3.4,5.6-1.9c0.9,3.4-2.1,2.8-2.1,2.8"/>
</g>
<g id="Layer_2">
	<path fill="none" stroke="#009B77" stroke-width="1.5" stroke-miterlimit="10" d="M111.8,89.2c-0.4-30.7,13.8-76.5,53.5-66.9
		C182.8,26.6,195,45,181.9,61c-11.7,14.3-24.5,11.8-28.7,5.3c-6.9-10.9-1.5-27.7,16-13.9"/>
	<path fill="none" stroke="#009B77" stroke-width="1.5" stroke-miterlimit="10" d="M112.2,188.3c-0.3-7.6-0.7-22.5-4.2-33.2
		c-3.2-9.8-7.8-19.6-7.3-28.5c0.6-12,8.4-21.8,25.5-24.7"/>
	<path fill="none" stroke="#009B77" stroke-width="1.5" stroke-miterlimit="10" d="M64.2,184.6c21.5-19.2,21-71.4-0.3-90.2"/>
	<path fill="none" stroke="#009B77" stroke-width="1.5" stroke-miterlimit="10" d="M280.9,206c-8.7,12.8-15.4,28.2-15.6,43.8
		c-0.2,13.3,8.1,51.7,27.6,50.2c27.5-2.2,7.2-36.9,1.5-47.8c-10.5-19.9-13-35.5-8-57.3c-4.1,21.6-20.2,55.5-8.2,77.6
		c5.8,10.7,14.6,13.1,14.9-1.5c0.2-11.1-10.9-33.1-15.3-43.5"/>
	<path fill="none" stroke="#009B77" stroke-width="1.5" stroke-miterlimit="10" d="M321.9,354c58.8-33.8-41.2-115.3-35.5-159"/>
	<path fill="none" stroke="#009B77" stroke-width="1.5" stroke-miterlimit="10" d="M291.4,193c16.5,4.5,27.7,33.5,34.5,47.1
		c9.1,18.3,14.2,36.6,30.7,49.5c17.5,13.7,41.5,22.1,44.8,46.4c2.3,16.6-2.3,31.5-6,47.6c0.3-15.5,0.8-27.7-5.2-42.1
		c-6.4-15.6-18.2-28.9-33.8-39.4c-23.2-15.5-28.4-49.3-42-73.5c-12.8-22.8-26.8-36.6-28.5-37.2"/>
	<path fill="none" stroke="#009B77" stroke-width="1.5" stroke-miterlimit="10" d="M396.9,389c1.6-18.5,18-47.7,12.1-64.5
		c-6.4-17.9-34.1-33.3-47.4-45.7c-13.8-12.8-23.7-27.4-34.2-43c-3.8-5.6-20.2-38.2-28-38.2"/>
	<path fill="none" stroke="#009B77" stroke-width="1.5" stroke-miterlimit="10" d="M291.6,369.3c15.5-19-5.8-52.6-15.7-69.8"/>
	<path fill="none" stroke="#009B77" stroke-width="1.5" stroke-miterlimit="10" d="M303.6,364c3.5-15.3-1.1-33.5-9.3-46.3"/>
	<path fill="none" stroke="#009B77" stroke-width="1.5" stroke-miterlimit="10" d="M284.2,372.3c8.4-32.3-5.4-60.8-26-85.7"/>
	<path fill="none" stroke="#009B77" stroke-width="1.5" stroke-miterlimit="10" d="M239.4,283.5c-19.4,4.3-38.6,14.3-43.2,35
		c-6.7,30,18.2,46.2,24.1,72.2"/>
	<path fill="none" stroke="#009B77" stroke-width="1.5" stroke-miterlimit="10" d="M237.9,291c-11.8,3.6-27.1,11.3-32.8,22.9
		c-10.2,20.5,9.1,39.2,12.8,57.8"/>
	<path fill="none" stroke="#009B77" stroke-width="1.5" stroke-miterlimit="10" d="M406.4,417.5c-5.2-11.3-5.1-25.6-3.5-38.2
		c2.6-20.7,18.9-36.2,18-57.4c-1.8-41-66.7-34.6-86.7-78.9"/>
	<path fill="none" stroke="#009B77" stroke-width="1.5" stroke-miterlimit="10" d="M422.6,314.6c-2.1-10-6.2-25-12.4-33.3
		c-13.2-17.8-33.4-12.3-52-19.6c-16.6-6.5-26.4-21.8-36.8-35.5c-4.7-6.2-18.7-31.8-27.9-31.8"/>
	<path fill="none" stroke="#009B77" stroke-width="1.5" stroke-miterlimit="10" d="M286.9,189.5c20.5-0.8,34.3,26.3,63.8,35.8
		c24.1,7.7,43.2-8.2,57.5-0.8c16.7,8.8,9.3,36.3,14,65.8"/>
	<path fill="none" stroke="#009B77" stroke-width="1.5" stroke-miterlimit="10" d="M329.2,523.6c11.4-12.8,16.2-23.6,14.4-40.3
		c-2-18.9,1-28.2,8.8-46.1"/>
	<path fill="none" stroke="#009B77" stroke-width="1.5" stroke-miterlimit="10" d="M344.4,524.5c-5.2-11.4,0.7-31.2,3.2-43
		c3.4-15.3,0.3-26.6,5.8-41.5"/>
	<path fill="none" stroke="#009B77" stroke-width="1.5" stroke-miterlimit="10" d="M126.9,516.6c10.6-20.8,20.4-68.5-0.7-87.7"/>
	<path fill="none" stroke="#009B77" stroke-width="1.5" stroke-miterlimit="10" d="M132.9,515.6c6.5-16.4,12.5-33.4,10.2-51
		c-2.4-18.4-4.2-25.3,5.3-42.1"/>
	<path fill="none" stroke="#009B77" stroke-width="1.5" stroke-miterlimit="10" d="M160.4,324c4.7,3.9,1.7,15.3-0.2,21
		c1.8-0.2,6.7-2.7,11.2-2.2c5,0.5,9.7,4.1,11.8,4c-5.4-6.7-13.6-23.3-8.8-30.2"/>
	<path fill="none" stroke="#009B77" stroke-width="1.5" stroke-miterlimit="10" d="M170.7,52.6c-7.7-26-38.1-4.3-24.7,15.4
		c19,27.8,66.6-12.8,38.9-41.5c-20-20.8-52.8-13.4-66.8,9.9c-4.6,7.6-14.7,39.4-9.9,52.1"/>
	<path fill="none" stroke="#009B77" stroke-width="1.5" stroke-miterlimit="10" d="M100.8,87.6c-0.7-23.9,5.9-55.5,27.3-69.5
		c23.1-15.2,61.3-10.4,69,20.7c7.3,29.3-36.2,63.2-55.8,30.5c-17.1-28.6,26-46.8,28.3-17.3"/>
	<path fill="none" stroke="#009B77" stroke-width="1.5" stroke-miterlimit="10" d="M82.2,90.3c5.5-16.2,9.8-37,4.5-53.8
		C77.1,6,32.6-6.7,12.2,23.3c-11.5,16.9-0.1,53.9,24,54.8c34.5,1.3,31.1-43.1-0.3-35.8"/>
	<path fill="none" stroke="#009B77" stroke-width="1.5" stroke-miterlimit="10" d="M72.4,87.6C78.5,70,80.3,46,68.6,30.7
		c-10.4-13.5-28.3-16.5-41.5-3.1c-10.7,10.8-6.4,40,13.2,39.7c20.1-0.3,12.5-27.5-3.3-24.4c21.7-2.1,30.3,33-0.5,30.7
		C13.9,72,9.7,41.9,17.9,26.3c10-19.2,39.7-19.4,52.8-5.7C88.3,39,86.1,67.2,77.2,89.2"/>
	<path fill="none" stroke="#009B77" stroke-width="1.5" stroke-miterlimit="10" d="M120.9,95.6c-14.4,7.9-24.3,17.9-23.5,35.5
		c0.7,14.5,17,34.2,5.7,48.2"/>
	<path fill="none" stroke="#009B77" stroke-width="1.5" stroke-miterlimit="10" d="M60.4,99.6c23.4,23.7,19.1,56.6,3.1,81.7"/>
	<path fill="none" stroke="#009B77" stroke-width="1.5" stroke-miterlimit="10" d="M95.9,172.6c26.6,17.9-4.4,23.5-9.8,36.7
		c-4.8-11.6-24.4-13.5-12.4-27.8C79.2,175.1,92.7,176.3,95.9,172.6z"/>
	<path fill="none" stroke="#009B77" stroke-width="1.5" stroke-miterlimit="10" d="M140.2,306.3c10.2,13.1,25.2,10.4,36.1-0.5
		c10.2-10.1,9.7-19.8,9.4-33.4c-0.9-41.6,10.1-66.4,51.8-80.1"/>
	<path fill="none" stroke="#009B77" stroke-width="1.5" stroke-miterlimit="10" d="M276.6,301c18.7,4.8,58.1,18,47.3,45.5
		c27.4-40.6-36.6-94.8-39.7-143.2"/>
	<path fill="none" stroke="#009B77" stroke-width="1.5" stroke-miterlimit="10" d="M258.9,293.6c8.5,15.3,21.3,24.7,19.7,44.7
		c-1.1,13.4-11.1,26.8,6,34"/>
	<path fill="none" stroke="#009B77" stroke-width="1.5" stroke-miterlimit="10" d="M258.9,301.3c15.4,11,7.3,46.7-2.3,60.3
		c5.6-0.7,14.5-1.2,19,3"/>
	<path fill="none" stroke="#009B77" stroke-width="1.5" stroke-miterlimit="10" d="M259.2,302.3c6.1,24.9,3.3,35.3-11,54.3
		c-6.8,9-10.5,4.4-3,10c6.8,5,26.8,2.5,34.7,7"/>
	<path fill="none" stroke="#009B77" stroke-width="1.5" stroke-miterlimit="10" d="M300.9,198c16.2,15.3,35.2,45.2,55.2,54.2
		c15.3,6.9,32.7,2.5,47,13.5c13.3,10.3,19.5,30.5,20.4,46.9c-4.5-30.5-11.2-51.3-38.2-67c-14.6-8.5-31.6-9.3-45.7-18
		C326.8,219.7,312.8,207.4,300.9,198z"/>
	<path fill="none" stroke="#009B77" stroke-width="1.5" stroke-miterlimit="10" d="M420.2,336.6c-12,23.7-18,37-12.3,62.3
		c1.5,6.6-3.6,32.8,2,40.2c4.5,6.1,11.2,3.5,13.5-0.8c2-3.9-0.3-8.3-3.4-8.7c-3.1-0.3-3.5,4.2-4.2,3.9c-0.2-0.2,1.9-1.6,3.2-0.6
		c3.7,3-1.2,6.5-4.5,5.2c-9.8-3.9-2-43-3-47c9,7.8-1.9,21.2,9,32.3"/>
	<path fill="none" stroke="#009B77" stroke-width="1.5" stroke-miterlimit="10" d="M362.1,444.5c-12.7,11.7-16.7,78.8-16.5,78.8
		c7.3,0,5.6-29.5,7.1-37.2c1.4-7.3,11.1-39.5,18.7-42.4"/>
	<path fill="none" stroke="#009B77" stroke-width="1.5" stroke-miterlimit="10" d="M410.6,447.3c31.6,21.9,19.2,56.3,9.7,87
		c20.8,8.8,9.3-43.1,11.3-54c1.8,18.6,9.6,35.3,5,54"/>
	<path fill="none" stroke="#009B77" stroke-width="1.5" stroke-miterlimit="10" d="M411.9,450.3c19,28,10.1,53,2.3,76.7"/>
	<path fill="none" stroke="#009B77" stroke-width="1.5" stroke-miterlimit="10" d="M267.9,179.6c15.6,3.7,29.9-4.2,45.5-5.5
		c18.7-1.6,43-0.5,60.2,8.2c17.2,8.7,28.7,28,46,34.6c16.9,6.4,44.7,9.6,58.7-3.9"/>
	<path fill="none" stroke="#009B77" stroke-width="1.5" stroke-miterlimit="10" d="M476.2,218.3c-16.3,9-27.7,16.3-65.7-1"/>
	<path fill="none" stroke="#009B77" stroke-width="1.5" stroke-miterlimit="10" d="M472.9,224.2c-8.3,3.7-10.7,11.2-28.8,11.8
		c-8.3,0.3-11.4-6.7-19.6-8.3"/>
	<path fill="none" stroke="#009B77" stroke-width="1.5" stroke-miterlimit="10" d="M409.9,211.8c-9.3-9.3-45.2-5.4-57.5-9.8
		c-9-3.2-16.2-8.3-25.5-11.3c-10.9-3.5-19.2-2.8-30.3-3.4c17.3,1.9,26.5,7,40.3,16.6c7.5,5.2,29.1,9,38.4,7.4c19-3.3,31.6,2.1,34,0
		c-68.6,22.7-70.6-4.8-97.8-20.8"/>
	<path fill="none" stroke="#009B77" stroke-width="1.5" stroke-miterlimit="10" d="M267.6,185.6c45.4-8.6,99.6-16.4,135,20.3"/>
	<path fill="none" stroke="#009B77" stroke-width="1.5" stroke-miterlimit="10" d="M408.9,210.6c-17.8-11.5-38.7-12-57.7-17.6
		c-22.9-6.8-46-5.3-69.3-6c37.9-6,97-5,126.7,23.2"/>
	<path fill="none" stroke="#009B77" stroke-width="1.5" stroke-miterlimit="10" d="M351.2,416.3c1-25.8-20.8-40.2-38.7-55.3
		c14.9-4.5,28.2-9.4,40.2,2.7c9.4,9.5,3.9,29.3,13.1,36.3"/>
	<path fill="none" stroke="#009B77" stroke-width="1.5" stroke-miterlimit="10" d="M368.5,413.8c-16.9-9.4-9.8-27.1-17-34.2
		c-8.8-8.6-15.6-1.1-24.8-6.9"/>
	<path fill="none" stroke="#009B77" stroke-width="1.5" stroke-miterlimit="10" d="M313.9,359.7c6.7,6.4,9.7,6.8,17.8,7.5
		c7.4,0.7,13-7.5,22.5,8.2c2.6,4.3,3,16.8,8.2,26"/>
	<path fill="none" stroke="#009B77" stroke-width="1.5" stroke-miterlimit="10" d="M355.2,410c-4.6-6.2,0-19.9-4.7-24.9
		c-4.9-5.3-14-1.7-18.4-7.6"/>
	<path fill="none" stroke="#009B77" stroke-width="1.5" stroke-miterlimit="10" d="M361.9,424c2.3-3,7.6,3.8,4,7.2
		c-0.8,0.8-4.4,1.1-6-2c-2.7-5.4,1-13.2,8.3-10.6c11.2,4.1,7.3,19.3-1,21.3c-17.5,4.2-19.3-20-9.6-32.9"/>
	<path fill="none" stroke="#009B77" stroke-width="1.5" stroke-miterlimit="10" d="M207.6,465c7.6,14.7,8.3,40-1.7,59.7"/>
	<path fill="none" stroke="#009B77" stroke-width="1.5" stroke-miterlimit="10" d="M211.9,465.6c1,12.7,9.3,16.4,11.8,27.6
		c2.1,9.3,0.7,15.7-3.1,24.4c0.5-6.4-4.5-30.7-2.7-35.7c-4.5,12.5,2.3,47-15.3,61.7"/>
	<path fill="none" stroke="#009B77" stroke-width="1.5" stroke-miterlimit="10" d="M197.2,527.6c15.2-13.7,16.6-47.5,7.7-64.3"/>
	<path fill="none" stroke="#009B77" stroke-width="1.5" stroke-miterlimit="10" d="M221.2,397c9.7-16,3.9-17.8,6.4-27.3
		c2.5-9.4,8.6-16.8,13.3-25.3c9.8-17.6,17.4-35.8,18.6-56.1"/>
	<path fill="none" stroke="#009B77" stroke-width="1.5" stroke-miterlimit="10" d="M220.6,387.3c-0.5-23.2,11.9-36.7,19.6-57
		c5.3-13.8,1-32.7,0-47.3"/>
	<path fill="none" stroke="#009B77" stroke-width="1.5" stroke-miterlimit="10" d="M218.6,373.8c1.5-11.2,34.3-76.2,10.1-74
		c-29,2.7-14.9,52.3-10.4,67.6"/>
	<path fill="none" stroke="#009B77" stroke-width="1.5" stroke-miterlimit="10" d="M284.2,190.6c-26.1,21.5-33.9,56.5-31.6,88.8
		c2,28.2-7.9,47.4-16.7,73.6"/>
	<path fill="none" stroke="#009B77" stroke-width="1.5" stroke-miterlimit="10" d="M155.9,323.6c3.2,6.5,8.8,23.6-3.8,33.8
		c9-3,20.5-17,35.5,0.8c-9.6-20.9-13.5-54.1,13.9-62.2"/>
	<path fill="none" stroke="#009B77" stroke-width="1.5" stroke-miterlimit="10" d="M145.2,318.6c6.7,8,9.3,19.3,10,30.4
		c0.5,7.8-6.6,9.6-6.6,9.6s5.3,0.5,14.7-2.5c9.4-2.9,20.7,2.4,26.4,3.4c-14.8-30-1.8-57.5,13.2-85c17.2-31.3,24.7-81.9,71.7-83.7"/>
	<path fill="none" stroke="#009B77" stroke-width="1.5" stroke-miterlimit="10" d="M280.6,190.6c-24,4.1-36,18.2-43.9,40.3
		c-8.7,24.5-15.4,41-35.1,62.7"/>
	<path fill="none" stroke="#009B77" stroke-width="1.5" stroke-miterlimit="10" d="M259.1,205.6c-13.5,14.7-17.2,28.6-22.7,47.6
		c-6.8,23.4-15.2,31.6-36.2,43.8"/>
	<path fill="none" stroke="#009B77" stroke-width="1.5" stroke-miterlimit="10" d="M237.9,175c-17.1,6.8-30.8-0.8-47,8"/>
	<path fill="none" stroke="#009B77" stroke-width="1.5" stroke-miterlimit="10" d="M259.2,183.3c-23.5-6-28.8-3-52.3,1
		c0.2,0.7,4.4,7.3,5,8c15.8-7.9,40.5-6.9,57.7-5"/>
	<path fill="none" stroke="#009B77" stroke-width="1.5" stroke-miterlimit="10" d="M296.2,255.6c21.3,28.7,41.7,81.3,24.7,95"/>
	<path fill="none" stroke="#009B77" stroke-width="1.5" stroke-miterlimit="10" d="M313.6,360.3c4.3-8.3-3-25.7-3-25.7"/>
	<path fill="none" stroke="#009B77" stroke-width="1.5" stroke-miterlimit="10" d="M200.2,215.3c-26.7,18-32.3,32.3-23.3,59.3
		c3.7,11.1-0.4,42.4-30.7,37"/>
	<path fill="none" stroke="#009B77" stroke-width="1.5" stroke-miterlimit="10" d="M127.2,155.6c0.5,15.1,17.5,24.7,23.2,37.4
		c5.7,12.7,4.6,29.6,4.2,43.2c-0.4,14.7,3.1,21.3,8.8,34.5c4.9,11.2,9.3,24.3,0,34.6"/>
	<path fill="none" stroke="#009B77" stroke-width="1.5" stroke-miterlimit="10" d="M177.1,225.8c33.8-38.7-35.8-48.7-45.3-79.1
		c8.3,9.2,16.7,18,27.3,24.3c12.5,7.5,21.3,7.8,34.7,14"/>
	<path fill="none" stroke="#009B77" stroke-width="1.5" stroke-miterlimit="10" d="M192.6,214.6c5.6-14.1-10.1-29-21.7-33.3
		c13.7,1.7,31.2,4.8,34,21"/>
	<path fill="none" stroke="#009B77" stroke-width="1.5" stroke-miterlimit="10" d="M130.2,150c9.5,16.7,26.7,25.5,36.2,41.1
		c13.7,22.5-15.2,38.9-2.6,63.9"/>
	<path fill="none" stroke="#009B77" stroke-width="1.5" stroke-miterlimit="10" d="M202.6,291c16.3-28.7,14.9-31.6,23.1-54.9
		c8.2-23.4,25.8-35.7,47.6-45.8"/>
	<path fill="none" stroke="#009B77" stroke-width="1.5" stroke-miterlimit="10" d="M122.2,163.3c9.6,7.7,23.2,15.9,31.4,24.5
		c16,16.9,1.9,34.9,1,54.5"/>
	<path fill="none" stroke="#009B77" stroke-width="1.5" stroke-miterlimit="10" d="M123.2,167.3c6.3,10.3,17.5,11.1,23.3,19.2
		c5.8,7.9,2.4,18.5,0.9,27.2c-4.1,23.8,0.4,45,7.7,68"/>
	<path fill="none" stroke="#009B77" stroke-width="1.5" stroke-miterlimit="10" d="M170.2,233c21.2-29.3,0.5-43.8-20.7-65"/>
	<path fill="none" stroke="#009B77" stroke-width="1.5" stroke-miterlimit="10" d="M132.9,112c-29.8,8-31.3,29-7,45.7"/>
	<path fill="none" stroke="#009B77" stroke-width="1.5" stroke-miterlimit="10" d="M133.6,118c-23.9,1.3-28.4,25.3-5.8,34.7"/>
	<path fill="none" stroke="#009B77" stroke-width="1.5" stroke-miterlimit="10" d="M51.4,117c10.2,1.8,18.1,11.1,17.8,18.2
		c-0.4,7.1-7.3,13.4-19.2,11.8"/>
	<path fill="none" stroke="#009B77" stroke-width="1.5" stroke-miterlimit="10" d="M8.2,100.6c17.9-5.8,35.9-9.8,49.3,6.7"/>
	<path fill="none" stroke="#009B77" stroke-width="1.5" stroke-miterlimit="10" d="M126.2,101c12.3-7,27.6-8.3,42.7-4.8"/>
	<path fill="none" stroke="#009B77" stroke-width="1.5" stroke-miterlimit="10" d="M128.9,187.6c5.7,25.5,16.9,46.4,16,73.7
		c2.1-11.7-12-30.3-13.3-44.7"/>
	<path fill="none" stroke="#009B77" stroke-width="1.5" stroke-miterlimit="10" d="M151.2,399c-13.3-22.8-6.9-40.5-11.7-65.1
		c-2.1-10.9-5.8-21.4-6.7-32.5c-0.9-11.6-0.4-24.6-5.3-35.6"/>
	<path fill="none" stroke="#009B77" stroke-width="1.5" stroke-miterlimit="10" d="M147.9,418.3c3-8.1-1.2-15-4.1-22.5
		c-6.4-16.8-5.9-26.7-6-44.4c-0.1-14.9-6.5-26.6-8.9-41.2c-2-12.3,0.7-19.5-5.3-31"/>
	<path fill="none" stroke="#009B77" stroke-width="1.5" stroke-miterlimit="10" d="M145.2,354.3c-2.5,14.8,8.5,28,6,43"/>
	<path fill="none" stroke="#009B77" stroke-width="1.5" stroke-miterlimit="10" d="M138.3,392.3c3.4,6.3,12.9,38.7-3.9,37.4
		c-5.2-0.4-7.2-14.2-2.5-15.9c10.5-3.8,10.3,10.2,4.1,11c-5,0.7-6.2-9.1-2.5-8.9c4.8,0.3,1.8,6-1.2,5.3"/>
	<path fill="none" stroke="#009B77" stroke-width="1.5" stroke-miterlimit="10" d="M126.9,536c0-0.7,6.3-8.4,10.7-18.3
		c4.9-11.1,8-24.5,8.7-23.1c2.2,4.1,0.3,12-0.3,16.5"/>
	<path fill="none" stroke="#009B77" stroke-width="1.5" stroke-miterlimit="10" d="M149.6,510c5.5-27.8-10.5-56.7-1.7-84.7"/>
	<path fill="none" stroke="#009B77" stroke-width="1.5" stroke-miterlimit="10" d="M54.9,156.3c0,0,19.7-2.2,21.4-10.8"/>
	<path fill="none" stroke="#009B77" stroke-width="1.5" stroke-miterlimit="10" d="M62.4,168.1c-1.2-5.9-1.3-10.3,13-18.8
		c-10.5,8.5-8.7,19.7-12.1,26.3"/>
	<path fill="none" stroke="#009B77" stroke-width="1.5" stroke-miterlimit="10" d="M99.9,175.6c10.2-9.8-3.6-28.6-5.3-39.6
		c-1.4-9.1-1.4-34.3,21.8-42.2"/>
	<path fill="none" stroke="#009B77" stroke-width="1.5" stroke-miterlimit="10" d="M58.9,108.3c11,8,15.5,14.8,17.7,28.3"/>
	<path fill="none" stroke="#009B77" stroke-width="1.5" stroke-miterlimit="10" d="M46.1,121.7c1.7,0.8,6.5-0.5,12.2,1.9
		c4.2,1.8,7,6.1,7.5,8.3c1.5,7.3-11.3,12.9-18.7,10.7"/>
	<line fill="none" stroke="#009B77" stroke-width="1.5" stroke-miterlimit="10" x1="125.6" y1="136.6" x2="122.2" y2="150.3"/>
	<path fill="none" stroke="#009B77" stroke-width="1.5" stroke-miterlimit="10" d="M81.4,250.5c6-9.3,7-23.4-1.5-29.5
		C71.9,230.1,86.8,242,81.4,250.5z"/>
	<path fill="none" stroke="#009B77" stroke-width="1.5" stroke-miterlimit="10" d="M81.9,269.3c13-17,1.9-34,8.7-49"/>
	<path fill="none" stroke="#009B77" stroke-width="1.5" stroke-miterlimit="10" d="M75.6,222.6c-1.9,13.3,9,10.3,1.3,31.3"/>
	<path fill="none" stroke="#009B77" stroke-width="1.5" stroke-miterlimit="10" d="M120.6,168.6c-2.5,16.2,5.9,14.2,10.6,26.4
		c4.1,10.7-5.6,24.4-11.3,32.9"/>
	<path fill="none" stroke="#009B77" stroke-width="1.5" stroke-miterlimit="10" d="M70.9,185c4-3.5,27.7-11,34.7-1.3"/>
	<path fill="none" stroke="#009B77" stroke-width="1.5" stroke-miterlimit="10" d="M126.1,177.4c2.2,9.6,10.5,12.7,13.9,18.8
		c6.4,11.4,7.7,17.2,5.9,30.4"/>
	<path fill="none" stroke="#009B77" stroke-width="1.5" stroke-miterlimit="10" d="M137.9,303c11.4-8.3,8.8-29.9,5.2-41.5
		c-1.9-6.2-5.8-11.5-10.8-15.9c-6.5-5.7-17.7-4-20.2-14.5"/>
	<path fill="none" stroke="#009B77" stroke-width="1.5" stroke-miterlimit="10" d="M115.9,216c19.3-6.6,0.2-23.2,1.7-37.3"/>
	<path fill="none" stroke="#009B77" stroke-width="1.5" stroke-miterlimit="10" d="M398.6,417.3c-1.7-11.5-1.7-27.2-7.7-37.4
		c-3.8-6.6-11.4-10.5-15.9-17.2c-11.8-17.9-10.9-40.6-24.5-56.8c-0.1,16.2-1.7,47.2-27.7,50.2"/>
	<path fill="none" stroke="#009B77" stroke-width="1.5" stroke-miterlimit="10" d="M339.1,354.2c19.6-11.1,19.6-29.9,11.4-46.6"/>
	<path fill="none" stroke="#009B77" stroke-width="1.5" stroke-miterlimit="10" d="M347.6,354c9.7-0.3,17.6-15.8,14.3-25.3"/>
	<path fill="none" stroke="#009B77" stroke-width="1.5" stroke-miterlimit="10" d="M392.6,380.6c-10.9-12.6-13.4-25.1-19.9-39.9
		c-5.3-11.9-12.5-20.1-18.4-31.8"/>
	<path fill="none" stroke="#009B77" stroke-width="1.5" stroke-miterlimit="10" d="M418.2,349c-3.2,11.4-12.8,30.9-6.7,42.3"/>
	<path fill="none" stroke="#009B77" stroke-width="1.5" stroke-miterlimit="10" d="M415.6,554c20.1-4.8,7.1-19.3,10.3-38.8"/>
	<path fill="none" stroke="#009B77" stroke-width="1.5" stroke-miterlimit="10" d="M322.9,544.3c11.3-1.5,9.5-23.1,19.5-36.1"/>
	<path fill="none" stroke="#009B77" stroke-width="1.5" stroke-miterlimit="10" d="M122.2,279.3c-6.4,20.8,3.3,26.9,8.5,45.8
		c4.5,16.6-0.7,40,4.2,59"/>
	<path fill="none" stroke="#009B77" stroke-width="1.5" stroke-miterlimit="10" d="M71.6,209.6c6.7,6,20.8,8,32.5-4.3"/>
	<path fill="none" stroke="#009B77" stroke-width="1.5" stroke-miterlimit="10" d="M71.9,214.6c7.3,4.9,16.9,3.7,25,0"/>
	<path fill="none" stroke="#009B77" stroke-width="1.5" stroke-miterlimit="10" d="M114.4,182.6c5-12.6-0.7-26.1-5.8-37.2"/>
	<path fill="none" stroke="#009B77" stroke-width="1.5" stroke-miterlimit="10" d="M134.2,114.6c0,0,5.3-10.3,2-16"/>
	<path fill="none" stroke="#009B77" stroke-width="1.5" stroke-miterlimit="10" d="M138.9,115.3c3.6-5.3,5.6-12.6,2.1-17.5"/>
	<path fill="none" stroke="#009B77" stroke-width="1.5" stroke-miterlimit="10" d="M147.2,113.9c4.5-6.4,4.4-12.8-2-16.8"/>
	<path fill="none" stroke="#009B77" stroke-width="1.5" stroke-miterlimit="10" d="M153.8,111.9c3.9-4.4,2.8-9.4-1.1-13.7"/>
	<path fill="none" stroke="#009B77" stroke-width="1.5" stroke-miterlimit="10" d="M113.9,191.3c-1.6,9.3,2.8,11,9.7,15.3
		c-7.2,1.8-9.9,2.8-13.3-3.3"/>
	<path fill="none" stroke="#009B77" stroke-width="1.5" stroke-miterlimit="10" d="M113.6,233c10.6-1.3,18.2,6.4,24,14.3"/>
	<path fill="none" stroke="#009B77" stroke-width="1.5" stroke-miterlimit="10" d="M95.9,172.6c-3.6-3.1-10.6-2.1-15.3,0.5"/>
	<path fill="none" stroke="#009B77" stroke-width="1.5" stroke-miterlimit="10" d="M66.4,90.5c10.4,4.4,21.1,13.7,31,10.5"/>
	<path fill="none" stroke="#009B77" stroke-width="1.5" stroke-miterlimit="10" d="M219.9,428.3c-10.9-3.2-24.4,23.9-14,30
		c14,8.2,17.2-18.5,6.5-13.1"/>
	<path fill="none" stroke="#009B77" stroke-width="1.5" stroke-miterlimit="10" d="M12.4,107.1c0,0,11.1-4.5,9.8-5.5"/>
	<path fill="none" stroke="#009B77" stroke-width="1.5" stroke-miterlimit="10" d="M17.6,111.3c6.5,0.3,9.7-3.3,11.8-8.8"/>
	<path fill="none" stroke="#009B77" stroke-width="1.5" stroke-miterlimit="10" d="M22.6,116.6c8.4-1,8.7-8.4,14.1-13.8"/>
	<path fill="none" stroke="#009B77" stroke-width="1.5" stroke-miterlimit="10" d="M29.7,120.1c7.7-2.8,13.6-7.2,14.5-15.3"/>
	<path fill="none" stroke="#009B77" stroke-width="1.5" stroke-miterlimit="10" d="M41.7,121c6.5-2.3,7-6.9,7-13.7"/>
	<path fill="none" stroke="#009B77" stroke-width="1.5" stroke-miterlimit="10" d="M81.6,168.3c4-4.7,10.2-5.4,16-3.3"/>
	<path fill="none" stroke="#009B77" stroke-width="1.5" stroke-miterlimit="10" d="M82.4,152.2c0,0,12.2-4.9,14.9-1.9"/>
	<path fill="none" stroke="#009B77" stroke-width="1.5" stroke-miterlimit="10" d="M82.6,160c5.6,1.9,11.3-0.8,15-5.3"/>
	<path fill="none" stroke="#009B77" stroke-width="1.5" stroke-miterlimit="10" d="M84,140.8c0,0,4.6-3.5,9.3-1.9"/>
	<path fill="none" stroke="#009B77" stroke-width="1.5" stroke-miterlimit="10" d="M81.9,154.3c6,3.7,11,1.9,15.5-3.1"/>
	<path fill="none" stroke="#009B77" stroke-width="1.5" stroke-miterlimit="10" d="M79.7,103.3c3,2.3,9.3,3.5,12.9,2.3"/>
	<path fill="none" stroke="#009B77" stroke-width="1.5" stroke-miterlimit="10" d="M81.3,107.3c1.8,3.4,8.6,3.4,11.8,0.9"/>
	<path fill="none" stroke="#009B77" stroke-width="1.5" stroke-miterlimit="10" d="M82.2,113.3c3,1,6.7,2.2,8.9-0.5"/>
	<path fill="none" stroke="#009B77" stroke-width="1.5" stroke-miterlimit="10" d="M129.6,185.8c0,0,10.4,34.2,16.7,39.2"/>
	<path fill="none" stroke="#009B77" stroke-width="1.5" stroke-miterlimit="10" d="M353.3,355.2c6.4,1,12.9-4.5,13.3-10.9"/>
	<path fill="none" stroke="#009B77" stroke-width="1.5" stroke-miterlimit="10" d="M368.6,231.6c17.9-3.3,33.9-7.5,42.5,10.3
		c6.9,14.3,8.2,35.7,10.6,51.3"/>
	<path fill="none" stroke="#009B77" stroke-width="1.5" stroke-miterlimit="10" d="M28.2,537.3c8-1.5,5-19.5,6-24.7
		c0.4,2.7,0.7,23.1,3.2,23.5c3.2-9.5-1.2-23.1,5.5-31.5c-1.7,4.7-5.3,18.9-3.1,23c4.9,8.8,5-9.9,5.3-14.5c0.5,2.4,1,21.4,4.4,20.8
		c4.1-0.8,1.2-15.3,0.5-17.8c0.6,0.8,6.2,15.1,6.2,15.1c6,0,7.4-32.1,8-36.7c1.7,13.5,0.8,25-3.2,38.1c13.7-21.9,7.7-44,2.5-67.4
		c16.3,21.3,12.2,42.7,8.1,67.2c5.9-14,5.7-23.3,11.3-37.2c4.8-11.8,14-21,19.2-32.6c-4.7,9.4-29.1,61.4-17.6,68.8
		c0.6,0.4,3.5-21.1,3.6-23.4c1.3,6.9,2.7,13.8,4,20.7c5.5-13.7,3.3-29,3.3-43.3c3.1,14.3-1.7,31.5,2.8,45.3
		c-4.2-13,13.1-56.9,22.5-66.7c-7.7,20.2-16.1,40.6-14,62.7c2.8-10.4,3.2-21.5,7.8-31.4c-0.3,2.9,0.7,23.3,5.5,19.8
		c2.9-2.1,0.6-15,0.1-18.4c3.6,4.7,2.9,11.4,4.3,16.8"/>
	<path fill="none" stroke="#009B77" stroke-width="1.5" stroke-miterlimit="10" d="M145.9,521.6c6.7-5.7,6.3-8.8,9-17
		c0,7.5-2.7,14.6-2.7,22c5.5-12.6,8.4-25.5,7.3-39.3c3.9,12.7,3.4,27.6-1.1,40c5.3-8.1,4.2-18.1,6.6-24.3
		c-0.4,14.1,0.9,15.4,3.2,29.7c6.2-7.1,9.9-16.8,9.2-26.3c3.7,9.7,1,21-2.5,30.3c11.1-12.7,9.4-28.4,9.3-44
		c7.9,14,1.9,25.2,0.9,39.8c3.7-10.8,7.6-21.5,11.2-32.2c0.5,7.1-6.9,18.4-0.2,24.4"/>
	<path fill="none" stroke="#009B77" stroke-width="1.5" stroke-miterlimit="10" d="M222.9,538c11.6-6.3,9.8-18.9,11.3-30
		c3.8,10.3,2.9,18.1-1.3,28c6.5-8.9,10.7-15.7,8.9-27.1c5.6,9.6-8.4,24.8-2.2,31.8c4-8.7,8-17.3,12-26c1,3.7,3.4,19.3,8.7,19.3
		c-1.2,0-1-23,6.7-33.3c-4.5,14.8-2.6,16.9-2,31.3c9.8-8.6,13-20.4,19.3-31.3c0.3,10.6-4.3,20.8-4,31.3c9-10.3,2.7-18.3,27.3-49.3
		c-8.7,21.7-17.7,39.7-12.7,56c7.4-15.8,10.3-33,16-49.3c-1.4,10.5,2.5,36.3-6.7,43.7c11.5-9.2,10.4-28.1,20-39
		c-4.9,11.7-9.3,23.7-3.3,36c1.6-5.3,3.1-10.7,4.7-16c0.5,4,0.9,8.1,1.2,12.1"/>
	<path fill="none" stroke="#009B77" stroke-width="1.5" stroke-miterlimit="10" d="M353.9,517.6c0.1-15.7,9.7-24.2,19.2-35.3
		c-7.8,16-14.7,33.7-6.2,51c1.5-15.7,4.4-30.7,12-44.7c-2.7,15.1-7.7,29.1-0.7,44c1.3-12,0-24.2,3.3-36c0.3,2.8,7.4,23.3,3.8,31.1
		c9.3-7,9.1-10.7,9.2-17.2c2.2,7.2,4.8,15.9,7,23.1c8.1-5.7,9.6-15.9,7.9-25c3.8,6.3,1.9,12.7,4,19.3"/>
	<path fill="none" stroke="#009B77" stroke-width="1.5" stroke-miterlimit="10" d="M444.4,529c9.5-20.3,6.8-27.2,14.5-46.3
		c-1.7,20.8-7,33.4-1.8,43.2c-0.2-3.5,6-29.7,7.2-45.2c4.5,14.8,3,34.3-2.4,48.8c7.9-6.5,12.3-24.2,17-30.6
		c-5.5,12.1-4.7,21.7-2,34.5c8.9-15.3,8.7-34.1,18-49.3c-4.4,15.3-7,22.3-9.8,40.2c8.2-18.3,11.2-28.7,23.2-42.8
		c-2.8,5.2-24.5,44.6-17,46.8c2.3,0.7,0.5-2.5,4.3-8.8c-2.7,13.5,11.7,15,5.3,0.7c3.4,2.9,3.3,7.7,6.6,10.6"/>
	<path fill="none" stroke="#009B77" stroke-width="1.5" stroke-miterlimit="10" d="M234.6,377.7c0,0,8.6-9.9,11.5-12.5
		c4-3.5,10.4-3.6,10.4-3.6"/>
	<path fill="none" stroke="#009B77" stroke-width="1.5" stroke-miterlimit="10" d="M83.9,146.5c0,0,0-2.2,5.2-2.5s6.5,1.2,6.5,1.2"
		/>
	<path fill="none" stroke="#009B77" stroke-width="1.5" stroke-miterlimit="10" d="M83.4,117.2c0,0,1,1.2,3.2,1.2s4.2-2,4.2-2"/>
	<path fill="none" stroke="#009B77" stroke-width="1.5" stroke-miterlimit="10" d="M108.9,90c0,0-9,3.2-13.2,4.8s-8,2.8-9.8,2.4
		c-5-1.2-17.7-7.3-17.7-7.3"/>
	<path fill="none" stroke="#009B77" stroke-width="1.5" stroke-miterlimit="10" d="M208.4,426c0,0,7.5-9.8,7.5-20.8
		s-5.8-26.4-10.8-33.5c-7-10-16.5-30.2-16.5-30.2"/>
	<path fill="none" stroke="#009B77" stroke-width="1.5" stroke-miterlimit="10" d="M202.9,205.5c0,0,4.5-3.2,6.3-7.5
		c1.8-4.3,2.7-5.7,2.7-5.7"/>
	<path fill="none" stroke="#009B77" stroke-width="1.5" stroke-miterlimit="10" d="M192.4,182.8c0,0,3.5,2.2,6.3,2
		c2.8-0.2,8.2-0.5,8.2-0.5"/>
	<path fill="none" stroke="#009B77" stroke-width="1.5" stroke-miterlimit="10" d="M76.9,191c0,0,9-2.2,14.2-1.7
		c5.2,0.5,5.8,1.5,5.8,1.5"/>
	<path fill="none" stroke="#009B77" stroke-width="1.5" stroke-miterlimit="10" d="M79.2,195.5c0,0,2.8-1.3,2.8-3.2
		c0-1.8-1.2-2.3-1.2-2.3"/>
	<path fill="none" stroke="#009B77" stroke-width="1.5" stroke-miterlimit="10" d="M90.6,196.5c0,0-2.8-2.7-1.7-4.2
		c1.2-1.5,2.2-3,2.2-3"/>
	<path fill="none" stroke="#009B77" stroke-width="1.5" stroke-miterlimit="10" d="M83.2,190.1c0,0,0.8,0.8,0.5,2.5
		s-2.7,3.8-2.7,3.8"/>
	<path fill="none" stroke="#009B77" stroke-width="1.5" stroke-miterlimit="10" d="M88.1,189.5c0,0-1.5,0.7-1.5,2.7s1,4.8,1,4.8"/>
	<path fill="none" stroke="#009B77" stroke-width="1.5" stroke-miterlimit="10" d="M85.6,189.8c0,0-0.2,3.7-0.7,4.7s-1,2.2-1,2.2"/>
	<path fill="none" stroke="#009B77" stroke-width="1.5" stroke-miterlimit="10" d="M93.4,190.1c0,0-2.5,1.2-2.8,2.3
		c-0.3,1.2,0.7,2.7,0.7,2.7"/>
	<path fill="none" stroke="#009B77" stroke-width="1.5" stroke-miterlimit="10" d="M79.9,190.6c0,0,0.7,1.2,0.3,1.7
		s-1.7,1.7-1.7,1.7"/>
	<path fill="none" stroke="#009B77" stroke-width="1.5" stroke-miterlimit="10" d="M82.7,250.5c0,0-1.2,2.7,1.8-3.3
		s3.2-15.8,5.7-17.5s4.7-12.2,4.7-12.2"/>
	<path fill="none" stroke="#009B77" stroke-width="1.5" stroke-miterlimit="10" d="M379.1,474.2c0,0,6.4,1.8,6.7-0.2
		s-1.7-1.7-1.7-1.7"/>
	<path fill="none" stroke="#009B77" stroke-width="1.5" stroke-miterlimit="10" d="M410.5,467.4c0,0-1.2,4.9-3.5,5.2
		c-1.9,0.3-3.3-2.6-3.3-2.6"/>
</g>
</svg>
