<svg version="1.1" xmlns="http://www.w3.org/2000/svg" xmlns:xlink="http://www.w3.org/1999/xlink" x="0px" y="0px"
	 viewBox="0 0 574 751.8" enable-background="new 0 0 574 751.8" xml:space="preserve">
<g id="sub-lines">
	<path fill="none" stroke="#00b68c" stroke-width="2" stroke-miterlimit="10" d="M277.5,358.1c12,33.6,23.4,65.5,62.5,71.5"/>
	<path fill="none" stroke="#00b68c" stroke-width="2" stroke-miterlimit="10" d="M270,431.1c-10.5-14.5-21-29-31.5-43.5
		c-7,16.9,22.5,36.5,29.9,50.6c7.7,14.5,13.5,30.4,20.1,45.4c-6.4-14-18-32.3-32.3-39"/>
	<path fill="none" stroke="#00b68c" stroke-width="2" stroke-miterlimit="10" d="M195,317.6c-20.8,32.6-28.1,65.9-37.5,103"/>
	<path fill="none" stroke="#00b68c" stroke-width="2" stroke-miterlimit="10" d="M206.5,242.1c-3.2,3.4-9.5,5.9-16.3,12.2
		c-8.5,7.8-18,18.9-25,14.6c-13.8-8.5,5.5-37,10.9-44.7c-5,11.4-1,32.5,14.8,30.8"/>
	<path fill="none" stroke="#00b68c" stroke-width="2" stroke-miterlimit="10" d="M148.5,225.1c-23.8,27.1-40.6,55.2-36.2,92.4
		c3.1,25.9-2.1,50.7-12.5,74.9c-11.5,26.9-67.2,98.8-35.4,127.8"/>
	<line fill="none" stroke="#00b68c" stroke-width="2" stroke-miterlimit="10" x1="260.5" y1="327.6" x2="214.8" y2="333.3"/>
	<path fill="none" stroke="#00b68c" stroke-width="2" stroke-miterlimit="10" d="M236.8,344.6c-10-0.5-25.2-10.7-27.3-19
		c20.9-0.2,44.5-0.8,57-17.5"/>
	<path fill="none" stroke="#00b68c" stroke-width="2" stroke-miterlimit="10" d="M274,361.1c-1.4,41.1,9.3,74.6,27.5,111"/>
	<path fill="none" stroke="#00b68c" stroke-width="2" stroke-miterlimit="10" d="M289.2,388.1c9,16.6,4.7,35.4,11.7,52.8
		c6.2,15.1,14,19.3,28.1,27.2c-0.5-28.1-19.8-36.8-28.8-61.5"/>
	<path fill="none" stroke="#00b68c" stroke-width="2" stroke-miterlimit="10" d="M224,230.1c-30.1,31.7-38.3,61-45.8,103.2"/>
	<path fill="none" stroke="#00b68c" stroke-width="2" stroke-miterlimit="10" d="M317.5,237.1c7.5,17.6,27,19.8,44,17"/>
	<path fill="none" stroke="#00b68c" stroke-width="2" stroke-miterlimit="10" d="M191.2,255.3c-29.9,16.9-23.9,81.2-26.7,110.8"/>
	<path fill="none" stroke="#00b68c" stroke-width="2" stroke-miterlimit="10" d="M264.7,313c1-13-0.4-30.8-13.8-36.9
		c-13.9-6.3-29.6,2.2-36,16c7.7-12.1,26.9-45.6,44.2-33.8C272.9,267.5,269.8,300.6,264.7,313z"/>
	<path fill="none" stroke="#00b68c" stroke-width="2" stroke-miterlimit="10" d="M111,499.6c-1.7,11.9-52.9,66.4-55.9,55.6
		c-1-3.7,18.2-18.4,19.7-19.8c10.5-10.2,19.9-21.5,29.2-32.7c-8.5,4.7-17,9.3-25.5,14c5.3,7.4-4.4,17.7-9.7,23.7"/>
	<path fill="none" stroke="#00b68c" stroke-width="2" stroke-miterlimit="10" d="M122.2,499.3c1,21.8-44.3,62.4-64.3,65.8
		c-34.8,6,9.3-39.4,17.1-47.8"/>
	<path fill="none" stroke="#00b68c" stroke-width="2" stroke-miterlimit="10" d="M129.7,501.1c0,0-25,45-40.5,55.5"/>
	<path fill="none" stroke="#00b68c" stroke-width="2" stroke-miterlimit="10" d="M135.5,504.6c-8.6,21.2-21.3,38.8-38.4,53.9
		c-3.3,2.9-52.9,39.9-51.9,27.9"/>
	<path fill="none" stroke="#00b68c" stroke-width="2" stroke-miterlimit="10" d="M140.5,506.9c1.4,8.2-6.1,17.2-10.5,22.9
		c-8,10.3-12.6,23.3-21.8,32.7c-8.4,8.4-47.6,39.7-60.7,33.1"/>
	<path fill="none" stroke="#00b68c" stroke-width="2" stroke-miterlimit="10" d="M44.8,543.6c-9,15-3.7,29,10,35"/>
	<path fill="none" stroke="#00b68c" stroke-width="2" stroke-miterlimit="10" d="M23.7,554.1c2,3.8,6.8,31.6,12.2,31.2"/>
	<path fill="none" stroke="#00b68c" stroke-width="2" stroke-miterlimit="10" d="M14.5,550.6c10.5,7.6,10.3,25.1,12.2,37"/>
	<path fill="none" stroke="#00b68c" stroke-width="2" stroke-miterlimit="10" d="M62.7,521.8c-32.1-3.4-6.8-47.4,2.8-65.9"/>
	<path fill="none" stroke="#00b68c" stroke-width="2" stroke-miterlimit="10" d="M160.5,220.1c-6.9,16-28.7,33.6-37.9,51.7
		c-12.5,24.6,5.1,57-10.6,79.3"/>
	<path fill="none" stroke="#00b68c" stroke-width="2" stroke-miterlimit="10" d="M173.8,213.3c-22,23.7-50.5,55-51.4,86
		c-0.5,17.3,4,30.1-1.2,47.7c-4.7,15.7-12.4,30.7-20.8,44.7"/>
	<path fill="none" stroke="#00b68c" stroke-width="2" stroke-miterlimit="10" d="M83.5,512.6c9.5-44.6,34.7-70.5,66-101.5"/>
	<path fill="none" stroke="#00b68c" stroke-width="2" stroke-miterlimit="10" d="M132.5,231.6c-13.9,14.3-20.1,34.2-25.5,53"/>
	<path fill="none" stroke="#00b68c" stroke-width="2" stroke-miterlimit="10" d="M81,513.6c-45.5-8.6,18.9-102.4,21.5-126.5"/>
	<path fill="none" stroke="#00b68c" stroke-width="2" stroke-miterlimit="10" d="M111.5,306.3c5.5,43.9-24.1,98.2-44,135.5
		c-11.8,22.1-32.4,83-63.5,83.8"/>
	<path fill="none" stroke="#00b68c" stroke-width="2" stroke-miterlimit="10" d="M7,515.6c27.1-10.4,35.8-42.8,46.6-67
		c18.9-42.3,50.4-74.5,49.4-133.5"/>
	<path fill="none" stroke="#00b68c" stroke-width="2" stroke-miterlimit="10" d="M141,321.6c-5.4-32.1,7.1-56.6,26.2-82.3"/>
	<path fill="none" stroke="#00b68c" stroke-width="2" stroke-miterlimit="10" d="M261,209.1c-20.6,11.2-36,34.6-45.5,55"/>
	<path fill="none" stroke="#00b68c" stroke-width="2" stroke-miterlimit="10" d="M155.8,319.3c-10,52-41.8,84.7-62.3,122.3"/>
	<path fill="none" stroke="#00b68c" stroke-width="2" stroke-miterlimit="10" d="M125.5,487.6c24.8-6.7,48.7-4.1,72.5,4.5"/>
	<path fill="none" stroke="#00b68c" stroke-width="2" stroke-miterlimit="10" d="M120,490.6c13.9-3.3,26.3,6.6,40,7.5
		c11.3,0.8,23.5-2.7,34.5-5"/>
	<path fill="none" stroke="#00b68c" stroke-width="2" stroke-miterlimit="10" d="M118,493.1c7.5-3.9,11.4,6.2,17.3,9.8
		c9.6,5.8,17,2.7,26.8,6"/>
	<path fill="none" stroke="#00b68c" stroke-width="2" stroke-miterlimit="10" d="M210,485.6c-29-21.1-45.9-3-75.5,0"/>
	<path fill="none" stroke="#00b68c" stroke-width="2" stroke-miterlimit="10" d="M233.5,473.1c-19.1,8.7-41.6-12.7-64-6"/>
	<path fill="none" stroke="#00b68c" stroke-width="2" stroke-miterlimit="10" d="M137.8,530.6c-7.8,13.1-6,43.7,5,54.3"/>
	<path fill="none" stroke="#00b68c" stroke-width="2" stroke-miterlimit="10" d="M98,585.1c29.7,14,39.7,51.4,49.5,80"/>
	<path fill="none" stroke="#00b68c" stroke-width="2" stroke-miterlimit="10" d="M74,599.6c13.9,27.7,43.7,41.4,53.5,72.5"/>
	<path fill="none" stroke="#00b68c" stroke-width="2" stroke-miterlimit="10" d="M105,580.1c18.4,7.3,29.6,32.5,37,49.5"/>
	<path fill="none" stroke="#00b68c" stroke-width="2" stroke-miterlimit="10" d="M127.5,547.1c-7.9,22.1,10.7,44.6,17,64.9
		c7.2,23.3,6.8,49,5.5,73.1"/>
	<path fill="none" stroke="#00b68c" stroke-width="2" stroke-miterlimit="10" d="M137.2,694.9c-1.8-24.1-12-62.7-35.7-74"/>
	<path fill="none" stroke="#00b68c" stroke-width="2" stroke-miterlimit="10" d="M96.8,643.6c12.7,24,25.7,32.5,37.4,57.8
		c-2.8-17.3-12-31.9-23.3-44.8C96.5,640.1,85.3,612,65,602.6"/>
	<path fill="none" stroke="#00b68c" stroke-width="2" stroke-miterlimit="10" d="M109.2,573.6c0,0,19.7,4.7,22.8,21"/>
	<path fill="none" stroke="#00b68c" stroke-width="2" stroke-miterlimit="10" d="M143.8,525.9c-7.3,16.5-11.3,34.2-1.8,54.7"/>
	<path fill="none" stroke="#00b68c" stroke-width="2" stroke-miterlimit="10" d="M82.5,594.8c9.2,11.3,29.2,10,48.8,40.2
		c-6-14-27.2-39.5-41.8-45.5"/>
	<path fill="none" stroke="#00b68c" stroke-width="2" stroke-miterlimit="10" d="M140,685.6c-1-22.9-13.1-42.7-22.5-63"/>
	<path fill="none" stroke="#00b68c" stroke-width="2" stroke-miterlimit="10" d="M215.5,416.6c-10.6,22.4,1.8,41.7,19.5,55.5
		c-14.8-15.1-28.1-25-49.5-26.5"/>
	<path fill="none" stroke="#00b68c" stroke-width="2" stroke-miterlimit="10" d="M204,355.6c-10.7,12.2-9.6,28.8-16.3,42.8
		c-6.6,13.9-18.3,26.3-26.7,39.2c15.6-9.3,29.6-19.6,36.6-37.2c6.7-16.8,2.7-35.1,14.4-50.3"/>
	<path fill="none" stroke="#00b68c" stroke-width="2" stroke-miterlimit="10" d="M256.2,348.9c-18,9.5-27.1,42-36.7,58.7"/>
	<path fill="none" stroke="#00b68c" stroke-width="2" stroke-miterlimit="10" d="M393,288.1c0,0-17,9-30,3.5"/>
	<path fill="none" stroke="#00b68c" stroke-width="2" stroke-miterlimit="10" d="M311.5,236.1c-6.8,13.3-17.8,23.3-19,39
		c7.2-12.6,19.5-10.8,32-9.5"/>
	<path fill="none" stroke="#00b68c" stroke-width="2" stroke-miterlimit="10" d="M384,260.1c-11.1,12.1-37.2,6.4-46-6"/>
	<path fill="none" stroke="#00b68c" stroke-width="2" stroke-linecap="square" stroke-linejoin="bevel" stroke-miterlimit="10" d="
		M362.5,248.6c-14.6,8.1-31.7-1.9-44.5-9.5c13.4,19.6,31.2,34,56,33.5c-28.1,9.4-51.4-13.3-62.5-36.5c-9.7,28.5,63.5,66.1,73.5,41"
		/>
	<path fill="none" stroke="#00b68c" stroke-width="2" stroke-miterlimit="10" d="M273.5,211.6c9.5,30.7,8.8,66.6,7.5,98.5
		c-0.8,19.2-2.3,32.8,7,50.5c5.9,11.2,16.1,33.2,31.5,32"/>
	<path fill="none" stroke="#00b68c" stroke-width="2" stroke-miterlimit="10" d="M288.5,280.6c17.2,6.8,21.7,23.8,34.5,35.5"/>
	<path fill="none" stroke="#00b68c" stroke-width="2" stroke-miterlimit="10" d="M265,305.6c0.9-28.7-12.3-52.4-41.4-27.1"/>
	<path fill="none" stroke="#00b68c" stroke-width="2" stroke-miterlimit="10" d="M481.5,339.1c-14.3,18.3-49.8,18.4-66.4,18
		c-26.4-0.7-38.2-6.8-58-23"/>
	<path fill="none" stroke="#00b68c" stroke-width="2" stroke-miterlimit="10" d="M474.3,349.1c-43.8,28-75.2,13.8-106-3.7"/>
	<path fill="none" stroke="#00b68c" stroke-width="2" stroke-miterlimit="10" d="M475.5,363.3c-9.8,15-28.4,29.3-44.8,33.8
		c-12.1,3.3-24.5,3.1-34.8-4.9c-7.8-6.1-9.8-16.7-16.8-23.4c-11.9-11.5-33.1-13.3-46.5-16.7c-13.4-3.3-16.6-4.4-25.5-14.9
		c-3.3-3.8-12.9-21.3-18.7-22.1"/>
	<path fill="none" stroke="#00b68c" stroke-width="2" stroke-miterlimit="10" d="M194.5,330.6c-13.3,14.8-5.6,43.2-19,59.5"/>
	<path fill="none" stroke="#00b68c" stroke-width="2" stroke-miterlimit="10" d="M220,351.6c-11.8,12.2-12.5,32.7-20.8,48"/>
	<path fill="none" stroke="#00b68c" stroke-width="2" stroke-miterlimit="10" d="M232.5,381.6c-14.5,17.9-33.3,35.1-50,51"/>
	<path fill="none" stroke="#00b68c" stroke-width="2" stroke-miterlimit="10" d="M394.5,420.1c-30.2,9-68.7,1.6-86.8-26.5"/>
	<path fill="none" stroke="#00b68c" stroke-width="2" stroke-miterlimit="10" d="M372,412.6c-19.1,4.9-36.1,0.6-53.7-7.5
		c19.9-12.7,32.4,5.9,51.7,6"/>
	<path fill="none" stroke="#00b68c" stroke-width="2" stroke-miterlimit="10" d="M322.5,359.1c26.4,9.4,27.3,33.8,50.2,48.3
		c2.1,1.3,34.8,16.1,38,11.9c-4.3,5.8-30.4-16.4-32.4-19c-9.6-12-12.4-26.9-26.1-35.6c-14.3-9.1-40.7-1.3-47.3-19.4"/>
	<path fill="none" stroke="#00b68c" stroke-width="2" stroke-miterlimit="10" d="M480.7,358.3c-14.2,23-46.1,51.4-66.8,52
		c-15.9,0.4-23.7-11.1-30.1-22.8c-7.4-13.5-16.2-22.4-29.7-30.8"/>
	<path fill="none" stroke="#00b68c" stroke-width="2" stroke-miterlimit="10" d="M483,335.6c-27.9,9.9-54.8,14.1-83.9,5
		c-17.4-5.5-38.6-12-54.8-20.2c-9.9-5-28.5-16.3-31.9-27.8"/>
	<path fill="none" stroke="#00b68c" stroke-width="2" stroke-miterlimit="10" d="M292.5,277.6c11.3-0.3,15.4,9.8,23.9,15.1
		c13.2,8.2,29.2,9.7,44.3,11.5c29.9,3.6,51.3,17.2,81.3,3.9c-17.4,11.7-47.1-1.2-65.9-5.1c-24.1-5-38.2-16-58.1-27.9"/>
	<path fill="none" stroke="#00b68c" stroke-width="2" stroke-miterlimit="10" d="M438.5,314.6c-44.1,17.2-86.2,3.4-113-34.5"/>
	<path fill="none" stroke="#00b68c" stroke-width="2" stroke-miterlimit="10" d="M384.5,368.1c36,25.4,69.4,18.8,96-16.5"/>
	<path fill="none" stroke="#00b68c" stroke-width="2" stroke-miterlimit="10" d="M384.5,365.1c34.6,14.8,66.2,19,92.5-16.7"/>
	<path fill="none" stroke="#00b68c" stroke-width="2" stroke-miterlimit="10" d="M457.5,343.6c-28-9.7-65.1-12-94.4-15.1"/>
	<path fill="none" stroke="#00b68c" stroke-width="2" stroke-miterlimit="10" d="M457.7,320.8c-12.5,16.8-49.2,7.2-49.2,7.2"/>
	<path fill="none" stroke="#00b68c" stroke-width="2" stroke-miterlimit="10" d="M285,314.1c17.1,1.5,54.1,20.3,57.5,39
		C336.5,326.8,311.2,311.1,285,314.1c13.4,13.9,25.9,32.5,18.5,52.5"/>
	<path fill="none" stroke="#00b68c" stroke-width="2" stroke-miterlimit="10" d="M304,370.1c17.6-8.3,31.4,11.3,41,23"/>
	<path fill="none" stroke="#00b68c" stroke-width="2" stroke-miterlimit="10" d="M302,373.6c12.2,11.9,35,6.7,45,20"/>
	<path fill="none" stroke="#00b68c" stroke-width="2" stroke-miterlimit="10" d="M507.2,363.6c-38-11.5-54.2,70.3-92.1,64.5
		c-8.1-1.2-35.3-8.9-16.8,6.3c7.6,6.2,36.2,12.5,42.7,3.2"/>
	<path fill="none" stroke="#00b68c" stroke-width="2" stroke-miterlimit="10" d="M423.5,447.6c-36.8-18-59.5,22-94.5,20.5
		c33.7,10.8,59.8-32.6,96-16.5"/>
	<path fill="none" stroke="#00b68c" stroke-width="2" stroke-miterlimit="10" d="M340.8,427.9c-3.8,8.4-22.2,4-28.8-1
		c2.9,11.8,8.5,30.9,16,40.8"/>
	<path fill="none" stroke="#00b68c" stroke-width="2" stroke-miterlimit="10" d="M318.8,461.9c-16.6-5.9-11.7-45.7-21.2-59.3"/>
	<path fill="none" stroke="#00b68c" stroke-width="2" stroke-miterlimit="10" d="M310.7,426.3c10.2,6.9-1.1,41.6,18.3,41.8
		c21.5,0.3,14.5-39.7,40.5-35.5"/>
	<path fill="none" stroke="#00b68c" stroke-width="2" stroke-miterlimit="10" d="M530.5,369.1c-30.5,9.9-25.1,40.2-40.7,62.7
		c-15.2,21.9-43.4,22.1-67.8,20.8c47-1.7,58.7-81.8,106.5-84.5"/>
	<path fill="none" stroke="#00b68c" stroke-width="2" stroke-miterlimit="10" d="M544.5,371.1c-23.8,5.6-23.3,29-26.1,48.7
		c-3.2,22.8-22.4,40.2-45.9,44.3c17.9,0.1,44.8-5.4,55.6-21.2C542.3,421.9,528.3,392.3,544.5,371.1z"/>
	<path fill="none" stroke="#00b68c" stroke-width="2" stroke-miterlimit="10" d="M500,469.1c15.1-7.8,33.2-16.2,43.8-29.8
		c16.3-20.7,5.1-45.2,0.7-68.2"/>
	<path fill="none" stroke="#00b68c" stroke-width="2" stroke-miterlimit="10" d="M427,452.6c19.8-7.6,41.1-14.9,53.8-32.5
		c15.4-21.4,21.3-46.3,49.7-53"/>
	<path fill="none" stroke="#00b68c" stroke-width="2" stroke-miterlimit="10" d="M448.5,428.1c18.5-27.2,38.1-41.2,66.5-57
		c-16.6,2.4-32.6,6.8-45.5,18"/>
	<path fill="none" stroke="#00b68c" stroke-width="2" stroke-miterlimit="10" d="M380.5,435.6c-27.8-8.3-25.8,33.3-49,34
		c13.4,6.9,33.2,5.3,47.3,1"/>
	<path fill="none" stroke="#00b68c" stroke-width="2" stroke-miterlimit="10" d="M241,382.6c15.5,11.9,21.5,28.2,28,46"/>
	<path fill="none" stroke="#00b68c" stroke-width="2" stroke-miterlimit="10" d="M264.5,345.3c-5.6,17-9.5,47-3,64.3"/>
	<path fill="none" stroke="#00b68c" stroke-width="2" stroke-miterlimit="10" d="M225.5,406.1c0.2,20.8,5.7,46.6,20.8,61.9
		c12.4,12.7,30.4,18.7,43.2,32.1"/>
	<path fill="none" stroke="#00b68c" stroke-width="2" stroke-miterlimit="10" d="M219,481.6c37.7-6.3,67.3,27.4,86.5,55"/>
	<path fill="none" stroke="#00b68c" stroke-width="2" stroke-miterlimit="10" d="M411.5,519.1c14.6,3.6,31.6,9.3,46.7,8.1
		c13.7-1.2,38.9-19,51.8-13.1"/>
	<path fill="none" stroke="#00b68c" stroke-width="2" stroke-miterlimit="10" d="M357.5,529.1c18.5-4.2,26.3-11.8,38.6-25.1
		c14.4-15.5,34.9-19,55.4-19.4"/>
	<path fill="none" stroke="#00b68c" stroke-width="2" stroke-miterlimit="10" d="M510,489.1c-21,22.7-41.3,1.3-65.5,6.7
		c-15.4,3.4-32.1,16-46.5,22.8"/>
	<path fill="none" stroke="#00b68c" stroke-width="2" stroke-miterlimit="10" d="M546.5,457.1c-4.8,31-16.4,45.2-48.5,49
		c7.3,0,14.7,0,22,0c-10,2.3-20,4.7-30,7"/>
	<path fill="none" stroke="#00b68c" stroke-width="2" stroke-miterlimit="10" d="M431.7,468.3c-35.8-7.5-48.6,8.6-73.6,27.3
		c-21.5,16.1-41,8.4-62.3-3.4"/>
	<path fill="none" stroke="#00b68c" stroke-width="2" stroke-miterlimit="10" d="M281,455.3c6.8,10.8,12.5,21,10.2,34"/>
	<path fill="none" stroke="#00b68c" stroke-width="2" stroke-miterlimit="10" d="M370.8,475.3C355.9,497,323,511,298.2,493.9"/>
	<path fill="none" stroke="#00b68c" stroke-width="2" stroke-miterlimit="10" d="M289.2,466.3c13.2,10.8,40.6,36.7,59.6,28.3"/>
	<path fill="none" stroke="#00b68c" stroke-width="2" stroke-miterlimit="10" d="M427.5,467.6c-23.2,3.5-36.4,17-50,32.3
		c-18.1,20.4-37,18-60,2.4"/>
	<path fill="none" stroke="#00b68c" stroke-width="2" stroke-miterlimit="10" d="M300.2,494.9c18.2,3.9,43.2,18.3,60.7,9.3
		c11.6-6,26.6-31.3,61.9-36.6"/>
	<path fill="none" stroke="#00b68c" stroke-width="2" stroke-miterlimit="10" d="M467.5,548.3c-26.9-14.3-41.2-11.2-67.2,2.5
		c-26.9,14.2-56.6,14.4-79.1-10.2"/>
	<path fill="none" stroke="#00b68c" stroke-width="2" stroke-miterlimit="10" d="M477.2,553.9c-45.1-30.1-97.1,50-142,6.3"/>
	<path fill="none" stroke="#00b68c" stroke-width="2" stroke-miterlimit="10" d="M331.7,550.3c13.8,18.9,29.4,33.7,54.5,36.2
		c34.1,3.4,58.1-44.7,89.6-33"/>
	<path fill="none" stroke="#00b68c" stroke-width="2" stroke-miterlimit="10" d="M449.5,540.9c-12.3-7.3-30-9-44.3-1.7
		c-6.9,3.5-16.4,17.3-23.5,19.5c-17.1,5.3-24.2-13-38.1-20.5c-12.7-6.9-23.2-8.4-33.2-19.1c-8-8.6-14.2-19.9-20.5-29.9
		c16.2,20.6,45.9,33.5,61.3,54"/>
	<path fill="none" stroke="#00b68c" stroke-width="2" stroke-miterlimit="10" d="M438.8,534.6c-18.8-14.9-39.7,7.3-58.4,9.9
		c-14.5,2-28.6-8.5-40.3-16.2"/>
	<path fill="none" stroke="#00b68c" stroke-width="2" stroke-miterlimit="10" d="M316.5,533.3c10.3,8.6,34.5,6.7,42.7,18.3"/>
	<path fill="none" stroke="#00b68c" stroke-width="2" stroke-miterlimit="10" d="M344.2,530.3c25.8,8.5,53.9,8,80-0.7"/>
	<path fill="none" stroke="#00b68c" stroke-width="2" stroke-miterlimit="10" d="M318.8,536.3c12.9,11.8,31.2,9.3,45,19"/>
	<path fill="none" stroke="#00b68c" stroke-width="2" stroke-miterlimit="10" d="M443.5,485.8c-26.3,0.8-44.7,31.1-75,40.1"/>
	<path fill="none" stroke="#00b68c" stroke-width="2" stroke-miterlimit="10" d="M477.8,554.9c-12.1,23.8,4.3,62.3-17.2,81
		c-26.1,22.8-29.8-31.8-46.4-33.7"/>
	<path fill="none" stroke="#00b68c" stroke-width="2" stroke-miterlimit="10" d="M412.5,598.9c27,20.4,57.7,10.3,62.7-38"/>
	<path fill="none" stroke="#00b68c" stroke-width="2" stroke-miterlimit="10" d="M378,595.1c45,12.5,30.7,82.3,70.5,71.2"/>
	<path fill="none" stroke="#00b68c" stroke-width="2" stroke-miterlimit="10" d="M316.5,537.3c16.3,29.1,30.7,59.8,37,92.8"/>
	<path fill="none" stroke="#00b68c" stroke-width="2" stroke-miterlimit="10" d="M339.2,567.3c12.5,18.8,13.7,39.4,23.8,58.9
		c15.2,29.4,42.5,34.4,79.5,42.4"/>
	<path fill="none" stroke="#00b68c" stroke-width="2" stroke-miterlimit="10" d="M445.5,667.1c-22.4,0.3-52.7-17.8-63.7-36.2
		c-11.4-19.2-23.8-36.9-35.7-55.7c11.8,12.1,23.5,25.5,37.2,35.5c23.1,17,15.4,21.8,29.1,46.8"/>
	<path fill="none" stroke="#00b68c" stroke-width="2" stroke-miterlimit="10" d="M369.5,748.1c-11.5-11.4-26.2-25.6-31.5-41.2
		c-6.6-19.3,1.2-45.2-10.1-63.3"/>
	<path fill="none" stroke="#00b68c" stroke-width="2" stroke-miterlimit="10" d="M294.8,587.3c8.9,19.1,17.8,38.3,21.2,59.2
		c4.6,29,10.8,66.1,37.8,83.1"/>
	<path fill="none" stroke="#00b68c" stroke-width="2" stroke-miterlimit="10" d="M333.5,659.9c-1,13.6,12.7,24,15.8,37.1
		c3.4,14,0.2,29.6,10.5,41.6"/>
	<path fill="none" stroke="#00b68c" stroke-width="2" stroke-miterlimit="10" d="M389.5,700.9c-6.6-8.7-13.2-17.5-19.3-26.6
		c-9.2-13.8-9.7-28.7-17-42.7"/>
	<path fill="none" stroke="#00b68c" stroke-width="2" stroke-miterlimit="10" d="M205.5,487.6c50.4,12.8,94.3,52.4,123.5,109.5
		c21.5,42,42.5,88.7,55.5,98"/>
	<path fill="none" stroke="#00b68c" stroke-width="2" stroke-miterlimit="10" d="M203.5,489.9c30.8,8.3,47.6,17.1,68.5,41.3
		c11.2,13,18.4,26.5,25,42.3c3.5,8.4,7.4,32.6,14.5,38.5"/>
	<path fill="none" stroke="#00b68c" stroke-width="2" stroke-miterlimit="10" d="M383.5,695.6c-27.2-23.4-47.6-49.9-59-83.9
		c-11-32.7-36-67.5-59-94.1"/>
	<path fill="none" stroke="#00b68c" stroke-width="2" stroke-miterlimit="10" d="M262.5,515.3c12,7,29.2,10.1,39,20.2"/>
	<path fill="none" stroke="#00b68c" stroke-width="2" stroke-miterlimit="10" d="M268.2,519.1c34,13.8,64.8,71.5,81.8,104.5"/>
	<path fill="none" stroke="#00b68c" stroke-width="2" stroke-miterlimit="10" d="M223.2,134.3c31.6-5.4,56.3,9.3,56.7,45.7"/>
	<path fill="none" stroke="#00b68c" stroke-width="2" stroke-miterlimit="10" d="M269,79.1c12.9,1.8,24.3,4.6,32.4,15.5
		c10.8,14.5,9.4,29.3,7.1,43.5"/>
	<path fill="none" stroke="#00b68c" stroke-width="2" stroke-miterlimit="10" d="M325.5,44.6c6.7,4.7,16.1,11.5,21.7,20
		c5.1,7.8,8.3,33.7,1.7,43"/>
	<path fill="none" stroke="#00b68c" stroke-width="2" stroke-miterlimit="10" d="M331.5,42.3c30,6.3,36.6,38.2,29.3,64.3"/>
	<path fill="none" stroke="#00b68c" stroke-width="2" stroke-miterlimit="10" d="M393.8,4.6c23.9,32,41.3,47.7,21.3,99"/>
	<path fill="none" stroke="#00b68c" stroke-width="2" stroke-miterlimit="10" d="M480.5,130.6c16.7-4.5,23.6-15.2,32-29.3"/>
	<path fill="none" stroke="#00b68c" stroke-width="2" stroke-miterlimit="10" d="M489.5,173.9c18.5,0.4,34.8-3.6,48-17.3"/>
	<path fill="none" stroke="#00b68c" stroke-width="2" stroke-miterlimit="10" d="M488.8,194.9c14.4,2.9,31.7-1.1,44-9"/>
	<path fill="none" stroke="#00b68c" stroke-width="2" stroke-miterlimit="10" d="M482.5,218.9c12.4,9.6,27.8,8.2,40.3-0.3"/>
	<path fill="none" stroke="#00b68c" stroke-width="2" stroke-miterlimit="10" d="M325.2,20.3c40,4.8,67.5,45.5,52.3,83.8"/>
	<path fill="none" stroke="#00b68c" stroke-width="2" stroke-miterlimit="10" d="M457.5,112.3c24.4-7.6,43.5-42.9,34.3-67.3"/>
	<path fill="none" stroke="#00b68c" stroke-width="2" stroke-miterlimit="10" d="M485.2,158.3c20-3.7,41.3-16.3,51.3-31"/>
	<path fill="none" stroke="#00b68c" stroke-width="2" stroke-miterlimit="10" d="M489.2,183.9c18.4-0.4,35.7-2.6,47.3-18.7"/>
	<path fill="none" stroke="#00b68c" stroke-width="2" stroke-miterlimit="10" d="M270.5,194.8c-6.2-12-16.4-23.8-29.3-25.6"/>
	<path fill="none" stroke="#00b68c" stroke-width="2" stroke-miterlimit="10" d="M210.5,169.6c0,0,18-6.7,30.7-0.3"/>
	<path fill="none" stroke="#00b68c" stroke-width="2" stroke-miterlimit="10" d="M286.8,170.9c1.2-17.8-2-43.3-17.3-51.7"/>
	<path fill="none" stroke="#00b68c" stroke-width="2" stroke-miterlimit="10" d="M302.5,146.3c1-16,0.7-32.7-13.7-47.7"/>
	<path fill="none" stroke="#00b68c" stroke-width="2" stroke-miterlimit="10" d="M342.5,108.6c4.7-16.3-0.3-33.6-8.3-42.3"/>
	<path fill="none" stroke="#00b68c" stroke-width="2" stroke-miterlimit="10" d="M96.8,241.3c12.4-11,40-39.7,58.7-28.7"/>
	<path fill="none" stroke="#00b68c" stroke-width="2" stroke-miterlimit="10" d="M93.2,227.6c12.6-11.8,27.7-28.6,45.9-30.1
		c13.3-1.1,23,6.2,34.4,12.1"/>
	<path fill="none" stroke="#00b68c" stroke-width="2" stroke-miterlimit="10" d="M84.5,198.6c9.6-9.5,36.9-25.2,60-22.7
		c12.5,1.4,25,16.7,32,24"/>
	<path fill="none" stroke="#00b68c" stroke-width="2" stroke-miterlimit="10" d="M279.5,218.9c17-53.7,45-79,90.7-107.3"/>
	<path fill="none" stroke="#00b68c" stroke-width="2" stroke-miterlimit="10" d="M295.8,32.6c13.7,1.7,21.7,1.3,36,9"/>
	<path fill="none" stroke="#00b68c" stroke-width="2" stroke-miterlimit="10" d="M366.5,54.9c8.1,14.3,6.5,35.5,2.3,51"/>
	<path fill="none" stroke="#00b68c" stroke-width="2" stroke-miterlimit="10" d="M413.8,48.3c6,16,1.7,40.2-4.7,56.7"/>
	<path fill="none" stroke="#00b68c" stroke-width="2" stroke-miterlimit="10" d="M469.2,124.3c18,0,30.4-17.3,38.3-32.3"/>
	<path fill="none" stroke="#00b68c" stroke-width="2" stroke-miterlimit="10" d="M518.2,113.3c-9,12.3-17,20-33.7,27"/>
	<path fill="none" stroke="#00b68c" stroke-width="2" stroke-miterlimit="10" d="M447.8,106.9c19-8.3,28.2-24.9,33.7-43"/>
	<path fill="none" stroke="#00b68c" stroke-width="2" stroke-miterlimit="10" d="M482.5,34.9c4.3,9.4,2.7,22.9-1.5,32.2"/>
	<path fill="none" stroke="#00b68c" stroke-width="2" stroke-miterlimit="10" d="M487.5,166.3c18.3-1.3,28-5,40-14.3"/>
	<path fill="none" stroke="#00b68c" stroke-width="2" stroke-miterlimit="10" d="M333.5,113.6c1-15-1-27-10.3-39.7"/>
	<path fill="none" stroke="#00b68c" stroke-width="2" stroke-miterlimit="10" d="M264.2,203.3c-7.3-8.5-18.7-11.6-28.7-10"/>
	<path fill="none" stroke="#00b68c" stroke-width="2" stroke-miterlimit="10" d="M259.8,205.9c-8.4-4-16.7-6.3-26.7-6.3"/>
	<path fill="none" stroke="#00b68c" stroke-width="2" stroke-miterlimit="10" d="M179.2,229.1c7.9-7.9,17.9-18.8,29.6-21.5"/>
	<path fill="none" stroke="#00b68c" stroke-width="2" stroke-miterlimit="10" d="M220,139.6c-9.6,1.3-19.4,2.7-27.2,9"/>
	<path fill="none" stroke="#00b68c" stroke-width="2" stroke-miterlimit="10" d="M195.5,140.6c7.3-5.9,18.9-7.9,28-6.7"/>
	<path fill="none" stroke="#00b68c" stroke-width="2" stroke-miterlimit="10" d="M179,187.8c8.9-8,19.1-15.3,31-17.8"/>
	<path fill="none" stroke="#00b68c" stroke-width="2" stroke-miterlimit="10" d="M272.5,190.8c-5.1-12.4-11.2-26.5-25.8-32"/>
	<path fill="none" stroke="#00b68c" stroke-width="2" stroke-miterlimit="10" d="M225.7,353.9c-5.8,11.2-15.7,27.2-21.5,38.3
		c4.3-13.3,24.9-26.7,33.3-37.3"/>
	<path fill="none" stroke="#00b68c" stroke-width="2" stroke-miterlimit="10" d="M208.5,344.6c-16.6,2-22.1,20.3-26,34"/>
	<path fill="none" stroke="#00b68c" stroke-width="2" stroke-miterlimit="10" d="M186.5,332.3c-10.3,23.7-9.7,43.3-15,64.8"/>
	<path fill="none" stroke="#00b68c" stroke-width="2" stroke-miterlimit="10" d="M168.8,235.9c-2,11.6-2,19.3,8.3,27"/>
	<path fill="none" stroke="#00b68c" stroke-width="2" stroke-miterlimit="10" d="M161.5,251.6c-14.1,19.7-18.8,42.7-20.5,66.5
		c3.9-18.9,7.6-37,23-50c0.8,0.7,1.7,1.3,2.5,2c-14.1,11.7-17.7,29.3-23,46"/>
	<path fill="none" stroke="#00b68c" stroke-width="2" stroke-miterlimit="10" d="M81.5,187.6c13.6-11.5,49.2-37,65-25"/>
	<path fill="none" stroke="#00b68c" stroke-width="2" stroke-miterlimit="10" d="M79,153.6c22.6-11.5,44.1-20.6,70-15.5"/>
	<path fill="none" stroke="#00b68c" stroke-width="2" stroke-miterlimit="10" d="M78,139.1c24.3-8.2,48.4-17.4,74.5-15.5"/>
	<path fill="none" stroke="#00b68c" stroke-width="2" stroke-miterlimit="10" d="M85.5,110.6c21.2-6.2,53.3-18.1,74-4.3
		c12.5,8.3,22.3,28.5,30,40.8"/>
	<path fill="none" stroke="#00b68c" stroke-width="2" stroke-miterlimit="10" d="M86,102.1c26.6-8.4,52-13.5,79.5-5.5"/>
	<path fill="none" stroke="#00b68c" stroke-width="2" stroke-miterlimit="10" d="M95,80.6c26.4-13.3,59.5-19.8,88.5-11.5"/>
	<path fill="none" stroke="#00b68c" stroke-width="2" stroke-miterlimit="10" d="M103,66.1c28.4-13,58.4-16.7,88-5"/>
	<line fill="none" stroke="#00b68c" stroke-width="2" stroke-miterlimit="10" x1="213" y1="103.6" x2="196" y2="58.6"/>
	<line fill="none" stroke="#00b68c" stroke-width="2" stroke-miterlimit="10" x1="204.5" y1="119.6" x2="178.5" y2="76.1"/>
	<path fill="none" stroke="#00b68c" stroke-width="2" stroke-miterlimit="10" d="M198.5,134.6c-9.5-15.9-18.7-29.1-30.7-43.3"/>
	<path fill="none" stroke="#00b68c" stroke-width="2" stroke-miterlimit="10" d="M181.5,171.6c-10.2-13.8-19-25.8-32-33"/>
	<path fill="none" stroke="#00b68c" stroke-width="2" stroke-miterlimit="10" d="M145.5,158.9c11.3,1.7,23.6,13.5,33,26"/>
	<line fill="none" stroke="#00b68c" stroke-width="2" stroke-miterlimit="10" x1="156.5" y1="210.6" x2="174.2" y2="212.6"/>
	<path fill="none" stroke="#00b68c" stroke-width="2" stroke-miterlimit="10" d="M486.2,204.9c12.7,5.4,30,3.3,40.3-6.8"/>
	<path fill="none" stroke="#00b68c" stroke-width="2" stroke-miterlimit="10" d="M481,224.1c9.6,12,23.2,8.3,35.5,3"/>
	<path fill="none" stroke="#00b68c" stroke-width="2" stroke-miterlimit="10" d="M476.5,231.6c6.9,12.4,23.8,9.5,35,5.5"/>
	<path fill="none" stroke="#00b68c" stroke-width="2" stroke-miterlimit="10" d="M472.2,237.9c5.4,11.2,20.4,13.5,31.3,9.7"/>
	<path fill="none" stroke="#00b68c" stroke-width="2" stroke-miterlimit="10" d="M466.5,245.6c2.9,13.9,15.5,14.2,27,13"/>
	<path fill="none" stroke="#00b68c" stroke-width="2" stroke-miterlimit="10" d="M452,260.6c-1.7,13.3,17.6,17.3,27.8,19"/>
	<path fill="none" stroke="#00b68c" stroke-width="2" stroke-miterlimit="10" d="M443.5,266.1c-1.5,12.9,13.6,17.2,23.3,17.8"/>
	<path fill="none" stroke="#00b68c" stroke-width="2" stroke-miterlimit="10" d="M435,271.6c-2.4,11.5,14,15.4,23,15.5"/>
	<path fill="none" stroke="#00b68c" stroke-width="2" stroke-miterlimit="10" d="M425,273.1c-2.8,12.2,3.2,16.2,12.8,19.5"/>
	<path fill="none" stroke="#00b68c" stroke-width="2" stroke-miterlimit="10" d="M413.5,274.6c-3.9,6.7-2.9,13,3.3,16.7"/>
	<path fill="none" stroke="#00b68c" stroke-width="2" stroke-miterlimit="10" d="M537.5,138.1c-2.2,4.6-6.2,8.2-11,10"/>
	<path fill="none" stroke="#00b68c" stroke-width="2" stroke-miterlimit="10" d="M322.5,73.3c-17.7-18-36.5-23-55.3-23"/>
	<path fill="none" stroke="#00b68c" stroke-width="2" stroke-miterlimit="10" d="M304,86.1c-20.8-14-40.7-15.5-65-13"/>
	<path fill="none" stroke="#00b68c" stroke-width="2" stroke-miterlimit="10" d="M268.5,119.9c-17.2-15.7-41.2-11.6-61-3.8"/>
	<path fill="none" stroke="#00b68c" stroke-width="2" stroke-miterlimit="10" d="M364.5,53.6c-9.9-20.4-33.8-23.9-54-28"/>
	<path fill="none" stroke="#00b68c" stroke-width="2" stroke-miterlimit="10" d="M332.8,66.3c-14.7-23-31.4-23.7-49.3-27.7"/>
	<path fill="none" stroke="#00b68c" stroke-width="2" stroke-miterlimit="10" d="M263,128.6c-15.7-14.6-40.9-13.2-59.5-5.5"/>
	<path fill="none" stroke="#00b68c" stroke-width="2" stroke-miterlimit="10" d="M407,6.6c9.8,12.3,16.5,25.6,21.5,40.5"/>
	<path fill="none" stroke="#00b68c" stroke-width="2" stroke-miterlimit="10" d="M457,21.6c5.5,10,7.3,20.2,6,31.5"/>
	<path fill="none" stroke="#00b68c" stroke-width="2" stroke-linecap="square" stroke-linejoin="bevel" stroke-miterlimit="10" d="
		M437.9,13.4c17.2,26.9,5.3,65.3-9.9,90.2c2.1-2.1,2.2,2.6,4.2,0.3c11-12.7,21.2-34.9,22.3-51.8"/>
	<path fill="none" stroke="#00b68c" stroke-width="2" stroke-miterlimit="10" d="M527,95.6c-2.7,4.8-4.5,8.3-10.5,12"/>
	<path fill="none" stroke="#00b68c" stroke-width="2" stroke-miterlimit="10" d="M532.5,115.6c-0.7,5.6-4,10.1-9,13"/>
	<path fill="none" stroke="#00b68c" stroke-width="2" stroke-miterlimit="10" d="M516.5,74.1c-1.9,6.4-5.9,11.8-10,17"/>
	<path fill="none" stroke="#00b68c" stroke-width="2" stroke-miterlimit="10" d="M500.5,50.1c1.7,9.5-0.9,19-4,28"/>
	<path fill="none" stroke="#00b68c" stroke-width="2" stroke-miterlimit="10" d="M346,12.1c19.6,6.7,35.4,16.1,43.5,36"/>
	<path fill="none" stroke="#00b68c" stroke-width="2" stroke-miterlimit="10" d="M222.5,93.9c23.7-3.4,39.3-4.7,60.7,8.7"/>
	<path fill="none" stroke="#00b68c" stroke-width="2" stroke-miterlimit="10" d="M426,8.1c7.9,12.7,14,24.4,15,39.5"/>
	<path fill="none" stroke="#00b68c" stroke-width="2" stroke-miterlimit="10" d="M488,40.6c0,0,3,7.5,1.5,16.5"/>
	<path fill="none" stroke="#00b68c" stroke-width="2" stroke-miterlimit="10" d="M514.2,65.9c0,0-1.5,10-10,20"/>
	<path fill="none" stroke="#00b68c" stroke-width="2" stroke-miterlimit="10" d="M393.5,104.6c19-37-1.4-81.9-36.5-95"/>
	<path fill="none" stroke="#00b68c" stroke-width="2" stroke-miterlimit="10" d="M318.5,220.6c19.3-9,20-33.5,18.9-51.3
		c-1.5-24.5,13.4-39.1,33.6-50.7c-34.2,22.3-16.2,45.7-34.5,86.7"/>
	<path fill="none" stroke="#00b68c" stroke-width="2" stroke-miterlimit="10" d="M289.2,230.9c9.8-38.5,30.9-64.4,56.8-93.3"/>
	<path fill="none" stroke="#00b68c" stroke-width="2" stroke-miterlimit="10" d="M344.2,139.9c-21.3,14.7-11.7,35.9-15.1,56.1
		c-2.9,17.5-34.3,41.9-36.9,38.6c6-29.3,20.8-39.7,41.5-58.6c14.4-13.2,20.9-28.1,29.6-45.1c2.2-4.4,4.7-10,7.8-12.2"/>
	<path fill="none" stroke="#00b68c" stroke-width="2" stroke-miterlimit="10" d="M218.5,287.6c21.8-16.7,48,5.3,45.6,32.6"/>
	<path fill="none" stroke="#00b68c" stroke-width="2" stroke-miterlimit="10" d="M235.7,188.6c-25.8-1.7-45.1,9.2-59.6,30.3"/>
	<path fill="none" stroke="#00b68c" stroke-width="2" stroke-miterlimit="10" d="M234,200.6c-10.5-1.3-45,12.5-54.2,26.8"/>
	<path fill="none" stroke="#00b68c" stroke-width="2" stroke-miterlimit="10" d="M256.2,207.6c-25-5.7-37,4-46,8.3"/>
	<path fill="none" stroke="#00b68c" stroke-width="2" stroke-miterlimit="10" d="M187,241.1c20.5-16,45.9-27.5,71.5-32"/>
	<path fill="none" stroke="#00b68c" stroke-width="2" stroke-miterlimit="10" d="M245,157.6c-10.8-1.5-22.7-0.2-32.8,4"/>
	<path fill="none" stroke="#00b68c" stroke-width="2" stroke-miterlimit="10" d="M259.2,132.6c-9.3-6.7-18.9-8-29.2-7.5"/>
	<path fill="none" stroke="#00b68c" stroke-width="2" stroke-miterlimit="10" d="M290,98.6c-18.8-14.4-40.2-15-62.5-10.7"/>
	<path fill="none" stroke="#00b68c" stroke-width="2" stroke-miterlimit="10" d="M352.5,60.1c-8.4-6.6-15.1-13.3-24-16.2
		c-13.3-4.3-25.6-6.8-40.5-7.3"/>
	<path fill="none" stroke="#00b68c" stroke-width="2" stroke-miterlimit="10" d="M327.5,69.6c-4.3-9-11.8-13.1-21-16.3"/>
	<path fill="none" stroke="#00b68c" stroke-width="2" stroke-miterlimit="10" d="M316.5,77.6c-6.7-10-15.8-13.6-25.5-14.8"/>
	<path fill="none" stroke="#00b68c" stroke-width="2" stroke-miterlimit="10" d="M339.5,67.1c-4.6-9.6-10.6-16.3-20-20.2"/>
	<path fill="none" stroke="#00b68c" stroke-width="2" stroke-miterlimit="10" d="M377.5,51.3c-4-8-9.2-12.4-14.8-16.7"/>
	<path fill="none" stroke="#00b68c" stroke-width="2" stroke-miterlimit="10" d="M370.5,53.6c-4.6-6.6-9-13.2-16-17.5"/>
	<path fill="none" stroke="#00b68c" stroke-width="2" stroke-miterlimit="10" d="M361,55.6c-4-8.1-11.7-17.5-21.5-16"/>
	<path fill="none" stroke="#00b68c" stroke-width="2" stroke-miterlimit="10" d="M301,29.1c10.5,1.5,21.8,2.5,37.8,10.5"/>
	<path fill="none" stroke="#00b68c" stroke-width="2" stroke-miterlimit="10" d="M529.5,97.6c0,0-3,11.5-10.5,14.5"/>
	<path fill="none" stroke="#00b68c" stroke-width="2" stroke-miterlimit="10" d="M536.5,119.1c0,0-3.5,9.8-12,13.8"/>
	<path fill="none" stroke="#00b68c" stroke-width="2" stroke-miterlimit="10" d="M537,132.6c0,0-1,5-11,11"/>
	<path fill="none" stroke="#00b68c" stroke-width="2" stroke-miterlimit="10" d="M527,90.6c0,0-2,6-13,11.5"/>
	<path fill="none" stroke="#00b68c" stroke-width="2" stroke-miterlimit="10" d="M518.5,77.6c0,0-3,11.5-9,15.5"/>
	<path fill="none" stroke="#00b68c" stroke-width="2" stroke-miterlimit="10" d="M528.5,157.1c0,0,5.5,1,8.5-8"/>
	<path fill="none" stroke="#00b68c" stroke-width="2" stroke-miterlimit="10" d="M528,179.1c0,0,6,1.5,7.5-3"/>
	<path fill="none" stroke="#00b68c" stroke-width="2" stroke-miterlimit="10" d="M477.5,31.1c0,0,6,9.5,1,29.5"/>
	<path fill="none" stroke="#00b68c" stroke-width="2" stroke-miterlimit="10" d="M462,26.6c4.2,19.7,3.2,55.7-27.8,78.3"/>
	<path fill="none" stroke="#00b68c" stroke-width="2" stroke-miterlimit="10" d="M534.8,174.9c0,0,0.8,1.5-4.7,2"/>
	<path fill="none" stroke="#00b68c" stroke-width="2" stroke-miterlimit="10" d="M189,154.6c0,0,10.2-8.6,31-11.8
		c8.9-1.3,19.8-4,32.2,1.5"/>
	<path fill="none" stroke="#00b68c" stroke-width="2" stroke-miterlimit="10" d="M325.5,125.3c0,0,8.3-28.2-8.3-47.7"/>
	<path fill="none" stroke="#00b68c" stroke-width="2" stroke-miterlimit="10" d="M471,479.6c-17-15.4-44.5-9.2-61.5,3"/>
	<path fill="none" stroke="#00b68c" stroke-width="2" stroke-miterlimit="10" d="M314.5,551.6c-14.7-20.5-12-43.7-24.3-64.3"/>
	<path fill="none" stroke="#00b68c" stroke-width="2" stroke-miterlimit="10" d="M420.5,450.6c-14,6.7-26.8,6.6-41.5,9.8
		c-13.6,3-30.5,17-44.5,9.7"/>
	<path fill="none" stroke="#00b68c" stroke-width="2" stroke-miterlimit="10" d="M356.5,432.1c-5.5,9.2-34.2,14.5-42.3-1.8"/>
	<path fill="none" stroke="#00b68c" stroke-width="2" stroke-miterlimit="10" d="M328,457.1c0,0,22.2-14.3,30.2-25.8"/>
	<path fill="none" stroke="#00b68c" stroke-width="2" stroke-miterlimit="10" d="M313.3,428.8c13.3,14.4,28.3,2.6,41.2,1.8"/>
	<path fill="none" stroke="#00b68c" stroke-width="2" stroke-miterlimit="10" d="M393.5,423.6c17.5,17.3,43.7,17.6,58.5-3.5"/>
	<path fill="none" stroke="#00b68c" stroke-width="2" stroke-miterlimit="10" d="M136.5,473.1c5.5-9.1,11.5-18.8,19.5-26
		c12.1-10.8,30.2-16.2,35.5-33.5"/>
	<path fill="none" stroke="#00b68c" stroke-width="2" stroke-miterlimit="10" d="M22.5,167.9c34.4,19.2,63.5,51.6,78,88.7"/>
	<path fill="none" stroke="#00b68c" stroke-width="2" stroke-miterlimit="10" d="M97,299.6c-12.7-15.3-25.2-32-30.6-51.2
		c-7.9-28.3-10.6-62.6-41.6-76.8"/>
	<path fill="none" stroke="#00b68c" stroke-width="2" stroke-miterlimit="10" d="M33.5,204.6c9.9,22.8,21.1,32.9,41.7,45
		c18.1,10.6,20,35.3,24.9,54.7c1.7-53.8-41.8-79.5-70.2-119.7c30.9,26.3,56.2,47.3,72.5,85.5"/>
	<path fill="none" stroke="#00b68c" stroke-width="2" stroke-miterlimit="10" d="M97.2,302.9c-15.8-47.2-52.5-80.1-72.7-125.8
		c38.1,18.2,64.3,38.3,76.5,81"/>
	<path fill="none" stroke="#00b68c" stroke-width="2" stroke-miterlimit="10" d="M527.2,199.6c-13.7,15-30,16.1-43.2,9.5"/>
	<path fill="none" stroke="#00b68c" stroke-width="2" stroke-miterlimit="10" d="M528.5,181.6c-12.1,7.7-26.4,11.1-40.5,7.5"/>
	<path fill="none" stroke="#00b68c" stroke-width="2" stroke-miterlimit="10" d="M463.5,249.1c2.7,12.4,14.7,15.6,26,14.5"/>
	<path fill="none" stroke="#00b68c" stroke-width="2" stroke-miterlimit="10" d="M429.5,273.6c-3.7,9.6,4,16,16.7,18"/>
	<path fill="none" stroke="#00b68c" stroke-width="2" stroke-miterlimit="10" d="M417,275.1c-2.5,8.2-1.2,14.1,5.8,17.5"/>
	<path fill="none" stroke="#00b68c" stroke-width="2" stroke-miterlimit="10" d="M406,278.6c-0.3,4,2.2,8.6,6,11.5"/>
	<path fill="none" stroke="#00b68c" stroke-width="2" stroke-miterlimit="10" d="M401,278.6c0,0-2.5,1.5,0,4.5"/>
	<path fill="none" stroke="#00b68c" stroke-width="2" stroke-miterlimit="10" d="M487,200.1c15.8,4.5,29.1-1.4,43.5-7.5"/>
	<path fill="none" stroke="#00b68c" stroke-width="2" stroke-miterlimit="10" d="M293,232.1c9.5-6.5,26.4-16.9,29.8-28.7
		c2.5-8.7-3.2-17-3.5-25.5c-0.4-10.9,4.4-18.5,8.7-28.3"/>
	<path fill="none" stroke="#00b68c" stroke-width="2" stroke-miterlimit="10" d="M42.5,233.6c17.3,12.3,23.1,33.5,35.5,50"/>
	<path fill="none" stroke="#00b68c" stroke-width="2" stroke-miterlimit="10" d="M32.5,195.6c23.8,25.7,43.1,50.2,71.5,71.5"/>
	<path fill="none" stroke="#00b68c" stroke-width="2" stroke-miterlimit="10" d="M380,277.6c-20.4,7.8-38.5-3.3-51.5-17.7"/>
	<path fill="none" stroke="#00b68c" stroke-width="2" stroke-miterlimit="10" d="M367,477.6c-20.9,18.5-41.1,12.3-61.8-3.7"/>
	<path fill="none" stroke="#00b68c" stroke-width="2" stroke-miterlimit="10" d="M292.7,427.4c3.4,23.5,10,39.4,36,40.8"/>
	<path fill="none" stroke="#00b68c" stroke-width="2" stroke-miterlimit="10" d="M351,474.6c-13.1,15.8-45.8-3.3-53.2-24.7"/>
	<path fill="none" stroke="#00b68c" stroke-width="2" stroke-miterlimit="10" d="M336.8,393.6c-7.3,7.7-17.7,10.9-27.3,5
		C318.4,395.8,327.8,396.6,336.8,393.6z"/>
	<path fill="none" stroke="#00b68c" stroke-width="2" stroke-miterlimit="10" d="M245.5,371.6c7.1,7.6,10.1,18.3,13.5,28
		c-3.1-8.4-4.6-18.3-14.5-20.5"/>
	<path fill="none" stroke="#00b68c" stroke-width="2" stroke-miterlimit="10" d="M257.5,360.6c-4.6,11.7-3.6,25.3,0.5,37"/>
	<path fill="none" stroke="#00b68c" stroke-width="2" stroke-miterlimit="10" d="M265.5,336.1c-9.2,17.4-34.8,39.9-38,59"/>
	<path fill="none" stroke="#00b68c" stroke-width="2" stroke-miterlimit="10" d="M191.5,411.6c13.8-25.2,43.9-24.7,49.5-57
		c-3.4,11.2-12,16.8-20.8,23.7c-15.1,11.8-23.1,22.3-30.5,40.1c-11.5,27.9-28.1,45.6-55.7,58.7c18.6-23.8,30.4-43.8,34.5-74"/>
	<path fill="none" stroke="#00b68c" stroke-width="2" stroke-miterlimit="10" d="M290.5,472.1c0.1,22.2,36.4,23.7,52,25.8
		c-22.3-2.7-46.1-9.6-53.7-33"/>
	<path fill="none" stroke="#00b68c" stroke-width="2" stroke-miterlimit="10" d="M263.5,308.9c-10.1,3.6-40.9,20.1-50.2,16.2
		c-6.3-2.6-4.6-3.4-3.5-12.5c0.4-3.2,5-25.2,11.1-23.6c-4-1.1-1,20.1,6.8,22.7c12.8,4.4,21-9.9,19.5-20.4"/>
	<path fill="none" stroke="#00b68c" stroke-width="2" stroke-miterlimit="10" d="M224.5,289.6c0.6,5.9,3.5,11.9,7,16.7
		c3.9-3,9.7-10,8.3-15.3"/>
	<path fill="none" stroke="#00b68c" stroke-width="2" stroke-miterlimit="10" d="M250.2,255.9c9.9-3.1,10.5-14.6,3-19.7
		c-0.6,9.8-7.5,18.7-14.7,25"/>
	<path fill="none" stroke="#00b68c" stroke-width="2" stroke-miterlimit="10" d="M274.8,216.3c9.5,13.3,13.4,26,13.7,42.3"/>
	<path fill="none" stroke="#00b68c" stroke-width="2" stroke-miterlimit="10" d="M272.2,210.9c-11.4,16.2,9.7,45.6,9.7,63"/>
	<path fill="none" stroke="#00b68c" stroke-width="2" stroke-miterlimit="10" d="M289.8,277.3c0.3-18.8,13-28.5,18.7-45"/>
	<path fill="none" stroke="#00b68c" stroke-width="2" stroke-miterlimit="10" d="M328.8,274.9c0,0-19.7-12.7-35.3-0.7"/>
	<path fill="none" stroke="#00b68c" stroke-width="2" stroke-miterlimit="10" d="M305.8,248.6c-7.3,7,0.3,14.7,8.7,16"/>
	<path fill="none" stroke="#00b68c" stroke-width="2" stroke-miterlimit="10" d="M293.8,271.9c5.9-4.8,8.9-11.8,8-19.3"/>
	<path fill="none" stroke="#00b68c" stroke-width="2" stroke-miterlimit="10" d="M364.5,343.3c-10-9.9-23-12-34.3-19.7
		c8.6,29,47.5,26.3,69.5,42"/>
	<path fill="none" stroke="#00b68c" stroke-width="2" stroke-miterlimit="10" d="M288.5,285.6c-0.9,11.5,3.4,22.1,14,27.7"/>
	<path fill="none" stroke="#00b68c" stroke-width="2" stroke-miterlimit="10" d="M285.8,295.3c-0.7,6.5,2.8,12.8,7.7,17"/>
	<path fill="none" stroke="#00b68c" stroke-width="2" stroke-miterlimit="10" d="M314.5,361.3c-3.5,0-6.5-1.9-8.3-5"/>
	<path fill="none" stroke="#00b68c" stroke-width="2" stroke-miterlimit="10" d="M221.5,289.9c-8.3,9.1-9.5,20.8-10,32.7"/>
	<path fill="none" stroke="#00b68c" stroke-width="2" stroke-miterlimit="10" d="M253.2,308.9c0,0-2.7-9-5.3-12.3"/>
	<path fill="none" stroke="#00b68c" stroke-width="2" stroke-miterlimit="10" d="M165.5,241.6c-3.5,10.1,0.1,22.7,11,26.3"/>
	<path fill="none" stroke="#00b68c" stroke-width="2" stroke-miterlimit="10" d="M172.8,229.6c-5,11.5,3.4,24.5,10.7,33"/>
	<path fill="none" stroke="#00b68c" stroke-width="2" stroke-miterlimit="10" d="M293.2,235.3c4.3-21.6,11.5-45.2,28.3-59.6
		c12.3-10.6,21.9-21.8,30.1-36c-8.8,36.7-21.8,70.5-54,91.3C295.9,231.9,294.8,234.3,293.2,235.3z"/>
	<path fill="none" stroke="#00b68c" stroke-width="2" stroke-miterlimit="10" d="M295.8,230.6c5.3-17.2,23.6-26.3,25-44"/>
	<path fill="none" stroke="#00b68c" stroke-width="2" stroke-miterlimit="10" d="M468.5,241.9c5,12.1,18,13.7,29.3,12.3"/>
	<path fill="none" stroke="#00b68c" stroke-width="2" stroke-miterlimit="10" d="M438.5,269.3c1.1,12.5,13.1,16.3,24,15.7"/>
	<path fill="none" stroke="#00b68c" stroke-width="2" stroke-miterlimit="10" d="M454.5,289.9c-9.6-0.9-23.7-4.9-23-17"/>
	<path fill="none" stroke="#00b68c" stroke-width="2" stroke-miterlimit="10" d="M447.2,264.6c-1.1,12,15.9,16,25.3,17"/>
	<path fill="none" stroke="#00b68c" stroke-width="2" stroke-miterlimit="10" d="M420.5,276.9c-2.6,7.9,2.1,12.8,8.7,15.7"/>
	<path fill="none" stroke="#00b68c" stroke-width="2" stroke-miterlimit="10" d="M349.7,475.4c-21.8-3.7-51.7,4.7-53.5-28.5"/>
	<path fill="none" stroke="#00b68c" stroke-width="2" stroke-miterlimit="10" d="M10.7,550.8c6.8,9.2,4.3,28.2,12,35.2"/>
	<path fill="none" stroke="#00b68c" stroke-width="2" stroke-miterlimit="10" d="M82,513.1c1.7,3.8-1.2,13.5-4.8,18.5
		c-0.4,0.6,4.7-4.3,5.2-4.8c5-6.1,12.3-15.2,12.3-19.9"/>
	<path fill="none" stroke="#00b68c" stroke-width="2" stroke-miterlimit="10" d="M3,531.3c28.5-4.4,38.8-31.3,50.5-51.2
		c-4.4,10.6-18.2,44.7,2.5,43"/>
	<path fill="none" stroke="#00b68c" stroke-width="2" stroke-miterlimit="10" d="M17.2,532.6c23.8-9,26.2-34,36.2-52.5"/>
	<path fill="none" stroke="#00b68c" stroke-width="2" stroke-miterlimit="10" d="M42.2,475.6c18.3-28,32-48.7,44.7-90.3"/>
	<path fill="none" stroke="#00b68c" stroke-width="2" stroke-miterlimit="10" d="M18,490.1c21.5-14.5,32.7-37.3,42.2-55.8"/>
	<path fill="none" stroke="#00b68c" stroke-width="2" stroke-miterlimit="10" d="M99.2,500.3c25-24.1,60.9-36.8,78-67.5"/>
	<path fill="none" stroke="#00b68c" stroke-width="2" stroke-miterlimit="10" d="M177,196.6c18.5-17.2,36-27.2,62.5-22"/>
	<path fill="none" stroke="#00b68c" stroke-width="2" stroke-miterlimit="10" d="M233.5,193.1c-29,0.2-47,18.5-54.7,30.2"/>
	<path fill="none" stroke="#00b68c" stroke-width="2" stroke-miterlimit="10" d="M276,219.1c15.2,32.2,3.4,63.3,4.8,95.8
		c0.9,21.7,12.5,73.3,40.2,75.2"/>
	<path fill="none" stroke="#00b68c" stroke-width="2" stroke-miterlimit="10" d="M345.5,279.3c-14.6,0-40-16.7-40-32.8"/>
	<path fill="none" stroke="#00b68c" stroke-width="2" stroke-miterlimit="10" d="M356.5,408.6c-13.1,0.7-24.8,0.6-37.2-3.7"/>
	<path fill="none" stroke="#00b68c" stroke-width="2" stroke-miterlimit="10" d="M337.2,385.6c-9.4-12.4-21.3-8.5-33.2-15.5"/>
	<path fill="none" stroke="#00b68c" stroke-width="2" stroke-miterlimit="10" d="M343,351.6c-10-2.3-19.6-6.4-27.7-12.7
		c-7.3-5.7-14.2-21.5-23.3-23.8"/>
	<path fill="none" stroke="#00b68c" stroke-width="2" stroke-miterlimit="10" d="M288,315.6c12.7,9.3,15.5,33.7,30.5,38.3
		c16.4,5,37.1-10.5,54.5-8.3c-26-6.2-36.1-26.4-67.4-32c-3.9-0.7-8-0.4-12.6-0.5c11,12,27.3,26.1,44,29.3"/>
	<path fill="none" stroke="#00b68c" stroke-width="2" stroke-miterlimit="10" d="M301,368.1c3.4-22.4-8.2-27.2-14.3-45.7
		c-4.3-12.9-0.2-31,0.8-44.3c4.6,15,12,31.2,28.5,35.5"/>
	<path fill="none" stroke="#00b68c" stroke-width="2" stroke-miterlimit="10" d="M293.5,276.1c25.3,0.4,39.5,24.2,62.6,31.6
		c26.9,8.6,53.5,17.1,81.4,5.4"/>
	<path fill="none" stroke="#00b68c" stroke-width="2" stroke-miterlimit="10" d="M455.5,258.3c0,0,1.7,6.3,5.3,10
		c3.7,3.7,18.3,8,23.3,8"/>
	<path fill="none" stroke="#00b68c" stroke-width="2" stroke-miterlimit="10" d="M398.2,296.1c0,0-6.5,0.8-14-0.5
		c-2.4-0.4-8-1.5-8-1.5"/>
	<path fill="none" stroke="#00b68c" stroke-width="2" stroke-miterlimit="10" d="M218.2,293.7c0,0-1.1,6.1,1,11.4s10.2,7.6,15.5,6.4
		c7.9-1.8,14-11.2,12.5-18.9"/>
</g>
<g id="top-lines">
	<path fill="none" stroke="#009B77" stroke-width="5" stroke-linecap="round" stroke-linejoin="round" stroke-miterlimit="10" d="
		M258.5,208.6c8.8,0,30.9-43.3,36.9-51.3c7-9.4,12.9-21.3,22.1-28.7c1.9-1.5,8.2-1.7,10.2-3.2c2.4-1.7,4.2-9.2,9.6-12.6
		c4.8-3,12.3-5.1,18-6.1c5.7-1,6.7,2.9,11.2,2.5c3.8-0.4,3.4-4.8,7.3-5.1c2.7-0.2,8.4,1.1,11.4,1.3c8.5,0.4,16.9-1.5,25.2-1.8
		c3.9-0.2,7.8-0.3,11.7-0.2c5.6,0.2,11.1,0.9,16.6,2c-0.2,1.5-0.5,3-0.7,4.5c3.9,0.9,7.5-2.7,12.1-1.3c5.7,1.7,11.5,4.9,16.2,8.3
		c1,0.8-5.7,4.7-4.7,5.6c8.3,7.4,17.4-2.1,21.4,14.6c2.6,11-3.9,8.3-3.3,15.8c0.3,3.1,5.8,6.6,6.9,9.6c2,5.3,1.5,13.5,1.6,19.1
		c0.1,13.3-2.2,26.8-7.3,39.2c-14.8,35.8-49.7,59.1-88.6,56.7c15.3,18.4,44.6,20,64.7,10.8c4.5-2,25.7-9.1,28.8-11.9
		c3.2-3-3.1-5.1-1.1-7.9c6.7-9.7,16.8-17.4,23.7-27.2c23.9-33.6,33.5-74.9,27.5-115.8c-0.8-5.2-0.9-12.9-1.8-16.8
		c-0.4-1.6,3.8-5.1,3.1-6.5c-0.9-2.1-8.1-6-10.1-8.4c-4.8-5.7-9.2-16.4-12.2-23.3c-1.1-2.5,2.6-7,1-9.3c-1.7-2.4-6.9-2.4-9-4.3
		c-8.5-8-22.1-22.4-31.4-28.4c-4.8-3.1-9-1.3-14.9-3.1c-9.1-2.8-17-10.4-25-14.4c-3.5-1.8-5.4-4.8-8.6-5.7c-1.9-0.5-4.8,3.4-6.7,3.2
		c-9.4-0.9-19-2.7-28.2-3.9c-5.7-0.7-7.6-2.3-12.4-2c-6.9,0.4-20,5.8-28,8.1c-82.2,22.9-140.3,76.7-168.4,157.7
		c-7,20.2-18.1,90.2,22.9,72.3C224.6,232.7,241.7,219,258.5,208.6z"/>
	<path fill="none" stroke="#009B77" stroke-width="5" stroke-linecap="round" stroke-linejoin="round" stroke-miterlimit="10" d="
		M271.5,203.6"/>
	<path fill="none" stroke="#009B77" stroke-width="5" stroke-linecap="round" stroke-linejoin="round" stroke-miterlimit="10" d="
		M102.2,257.9c-24.9-51-32-111.3-12.8-165.3c7.4-20.8,19.3-35.5,40-43.7c19.7-7.8,53.9-17.5,70.8,0.6c7.7,8.2,19.2,39.4,17.4,50.5
		c-1.3,7.7-12.8,20.5-16.4,27.2c-7.9,14.8-13.7,30.3-18.5,46.3c-5.7,19.1-2,39-20.7,46.1C136.5,229.1,120.6,237.3,102.2,257.9z"/>
	<path fill="none" stroke="#009B77" stroke-width="5" stroke-linecap="round" stroke-linejoin="round" stroke-miterlimit="10" d="
		M292.8,245.9c9.9-17.2,28-14.4,40.8-26.2c8.4-7.7,14.4-23.9,20.1-33.6c7.3-12.6,45.3-77,11.7-76.1c-22.6,0.6-53.7,36.4-65.9,53.3
		c-7.3,10.1-24.4,32.5-24.9,45.2C274.1,218.6,289.3,234.3,292.8,245.9z"/>
	<path fill="none" stroke="#009B77" stroke-width="5" stroke-linecap="round" stroke-linejoin="round" stroke-miterlimit="10" d="
		M102.8,309.3c-10.3-14.2-22.8-21.4-35.4-32.4c-18.7-16.3-26.6-46.9-32.7-70c-1.4-5.4-15.8-39.1-11.4-41
		c6.2-2.7,26.7,17.1,30.9,20.4C78.1,205,86.1,212.4,96,240.4C104,263.3,102.5,285,102.8,309.3z"/>
	<path fill="none" stroke="#009B77" stroke-width="5" stroke-linecap="round" stroke-linejoin="round" stroke-miterlimit="10" d="
		M108.5,250.9c-0.1,70.9-24.9,126-58.3,187C35.1,465.6,10.1,496.6,3,527c-3.2,13.5,8.8,55.2,21.5,61.6c4.6,2.3,9.6,0.7,14,2.4
		c6.2,2.4,11.5,10.2,18.2,11.2c12.2,1.8,27.5-9.5,37.1-15.8c23.5-15.5,28.3-39.7,46.6-59.7c12.6-13.8,40.2-33.6,59.1-34.7
		c31.7-1.9,62.9,30.2,75.9,55c11.6,22,22.1,46,24.9,71c2.6,23.2-3,48.5,9.8,69.4c14.3,23.5,40.1,43,60,61.8
		c-4.3-12.1-11.1-23.4-11.2-36.4c0-14.6,3.5-19.4-4.2-31.8C343.5,663,330.2,647,320,627.8c-15.5-29.2-30.2-61.5-49.2-88.6
		c19.7,28.2,34.7,62.2,50.4,92.8c9.5,18.6,16.7,36.8,34.7,49c12.4,8.3,26.3,14.8,38.9,22.8c-6.3-9.3-14.7-19.8-18.2-30.5
		c-4.2-13-3.5-12.7,5.9-11.2c16.3,2.5,28,12.8,46.3,11.1c19.5-1.8,35.7-11.5,44-29.2c13.2-28,3.2-55,6.5-83.5
		c1.4-12.4-1-7.8,14.4-13.3c15.7-5.6,33.2-13.9,43-28.1c-23.3-15.8-32.9,14.6-52.8,18.8c-25.2,5.3-55.5-5.9-76.6-19.4
		c29.5-3.8,59.2-6.1,89-5.1c19,0.7,44.6-7.6,50.6-29c2.9-10.3-0.6-20.1,0.1-30.3c0.5-6.9,3.4-13.6,4.9-20.6
		c5.2-24.5,0.6-50.9,19.5-70.3c-7.8,5.5-46.1,12.4-44.5-1.9c-5.3,0.3-57.2,1.7-38.8-12.8c-13.2,7.5-3.3-11.5,0-16
		c-11.8,2.6-40.7,8.4-28.7-14c-6.6,1.7-15.7,3.1-22.2,0.6c0,0,3.8-12.5,4.2-14.6c-4.7,1-45.3,0.7-42.9-5.7c0.5-1.4,6.7-2.7,8.2-3
		c-15.9,2.4-21.1-13.5-5.3-9.3c-6.9-2.4-15.3-2.4-15.3-10c-2.4,1-14.6,1-12.1-4.3c2.6-5.4,10.2-4.3,10.1-13.1
		c-14.8,2.1-36-2.7-13.6-12.5c-11.6,5.1-54.4-7.1-64.4-16.2"/>
	<path fill="none" stroke="#009B77" stroke-width="5" stroke-linecap="round" stroke-linejoin="round" stroke-miterlimit="10" d="
		M167.2,504.9c-31,20.7-31.6,48.9-14.3,79c-3.3-1.5-7.4-1.2-10.7-2.7c19.1,38.5,17.2,77.8,4.7,118c1.4-22.8,3.1-45.1-3.5-67.1
		c-4.2-13.9-8.8-27.8-13.4-41.6c-1.7-5.2-5.9-27.3-11.2-30.3c5.1,2.9-31,30.3-31.2,30.6c-4.2,4.7-2.5,10.2,7.2,13.9
		c11.2,4.3,21.2,13.3,28.5,22.8c7.5,9.7,22,28.5,23,41.6c0.9,11.9-10.4,23.5-10.8,37.4c-5.3-14.7-17-21-26.5-32.3
		c-9.5-11.4-10.1-26.3-17.8-38c-8.5-12.9-24.6-23.6-35.7-34.4"/>
	<path fill="none" stroke="#009B77" stroke-width="5" stroke-linecap="round" stroke-linejoin="round" stroke-miterlimit="10" d="
		M256.8,307.3c-2.9-13.7-15.7-25.1-30.5-20.8c-15,4.3-17.8,24.1-18.1,37.5C224.4,318.4,240.6,312.8,256.8,307.3z"/>
	<path fill="#009B77" d="M64.2,519.9c-2.4,8.4-18.3,22.2-24,32.7c0.6-1.5,3.3-12.7-0.8-12.7c-2.7,0-1.4,29.9-0.6,31.7c4.5,11.2-0.3,6.1,8.2,7.2
		c10.1,1.3,34-17.7,41.4-23.2c8.6-6.5,11.2-8.6,18.5-16.5c-13.1,16.1-21,25.9-39,36.6c-7.8,4.6-18.3,12.3-27.3,14.4
		c-1.7,0.4-21.7-1-17.9-3.9c8.8-6.9,14.3-1.3,11.8-16.1c-2.9-17.2-15.8-10.5-26.2-19.3C-19.6,527.2,51.1,524,64.2,519.9z"/>
	<path fill="none" stroke="#009B77" stroke-width="5" stroke-linecap="round" stroke-linejoin="round" stroke-miterlimit="10" d="
		M242.2,296.6c0,13.5-20.7,13.5-20.7,0C221.5,283.3,242.2,282.6,242.2,296.6z"/>
	<path fill="none" stroke="#009B77" stroke-width="5" stroke-linecap="round" stroke-linejoin="round" stroke-miterlimit="10" d="
		M282.2,223.6c16-50.7,51.8-79.5,89.3-109.7c6.8,14.8-17.9,52-23.6,66.3c-6,15.1-8.5,27.3-21.8,36.4c-10,6.9-22.2,15.2-32.3,22.3
		C290.9,233.8,280.4,229.2,282.2,223.6z"/>
	<path fill="none" stroke="#009B77" stroke-width="5" stroke-linecap="round" stroke-linejoin="round" stroke-miterlimit="10" d="
		M198.2,491.9c13.9-11.1,32.8-19.3,50.3-13.8c12.6,4,30.3,24.5,42.7,24.5c-11.2,0-49.8-24.6-57-34.4c-16.8-22.9-16-57.3,0.1-78.4
		c24.9-32.6,43.1-59.5,41.7-102.5c-0.4-10.4-0.5-21.1-4-31c-2.6-7.4-11.8-16.6-11.4-24.8c0.3-6.3,7.8-16.6,13-20.8"/>
	<path fill="none" stroke="#009B77" stroke-width="5" stroke-linecap="round" stroke-linejoin="round" stroke-miterlimit="10" d="
		M66.5,520.3c21.3-6.7,47.1-33.5,59.4-48.4c15.7-18.8,20.1-42,26.4-65.2c11.2-41.2,28.5-79.4,47.6-117.6"/>
	<path fill="none" stroke="#009B77" stroke-width="5" stroke-linecap="round" stroke-linejoin="round" stroke-miterlimit="10" d="
		M258.2,227.3c-8.4,13.1,12.1,40.5,13.3,55.5c1.5,19.6-6.4,55.2-27.8,62.2c-30.5,9.9-48.7-20.5-38.2-45.7
		C216.9,271.6,240.3,250.7,258.2,227.3z"/>
	<path fill="none" stroke="#009B77" stroke-width="5" stroke-linecap="round" stroke-linejoin="round" stroke-miterlimit="10" d="
		M292.8,245.9c-12,29.7-10,68.3-0.1,97.9c4.6,13.8,7.9,34.2,20.8,42.8c9.4,6.3,26.9,7.4,38,10c-23.1-8.4-41,5-58.1-15.4
		c-17.6-21-17.5-41.5-19.2-67.2"/>
	<path fill="none" stroke="#009B77" stroke-width="5" stroke-linecap="round" stroke-linejoin="round" stroke-miterlimit="10" d="
		M316.2,535.3c18.2,29,47.5,65,85.1,63.3c22.7-1,43.5-13.1,59.9-28c1.7-1.6,18.3-16.9,17.5-18.6c-1.3-3.1-16-7.7-18.4-8.8
		c-13.5-6.1-27.2-14.2-41.4-18.7c-26.6-8.5-52.6,13.2-78.7,2.1c-23.2-9.9-47.8-35-63-54c-17.7-21.9-40.5-47.1-48.4-74.7
		c-5.4,0,1.1,28,1.6,29.5c6.1,18,17,25.8,31.5,36.4c16.4,12.1,21.8,22.1,30.2,40.1C298,516.5,309.5,522.5,316.2,535.3z"/>
	<path fill="none" stroke="#009B77" stroke-width="5" stroke-linecap="round" stroke-linejoin="round" stroke-miterlimit="10" d="
		M262.5,223.6c-35.7,20.3-70.8,57.5-67.7,96.5c1.7,22.1,14.6,32.1,37.3,33.5c23.3,1.4,31.8-16.1,42.1-34.3"/>
	<path fill="none" stroke="#009B77" stroke-width="5" stroke-linecap="round" stroke-linejoin="round" stroke-miterlimit="10" d="
		M176.2,221.9c-26.4,21-45.4,49.2-42.5,83.6c2.1,25.5-0.1,33-9.6,57.3c-9.8,24.8-18.2,51.7-30.9,75.2
		c-12.8,23.7-26.9,44.6-11.6,72.6"/>
	<path fill="none" stroke="#009B77" stroke-width="5" stroke-linecap="round" stroke-linejoin="round" stroke-miterlimit="10" d="
		M395.5,666.6c-28.6-8.9-41.5-28-48.5-54.5c-7.1-26.8-24.3-47.6-40.1-70.4c-23.5-33.8-57.2-50.3-97.4-57.1"/>
	<path fill="none" stroke="#009B77" stroke-width="5" stroke-linecap="round" stroke-linejoin="round" stroke-miterlimit="10" d="
		M535,369.8c-31.8,10.8-22.9,38.9-32.4,64.5c-11.3,30.3-57.9,42.2-81.8,18.3"/>
	<path fill="none" stroke="#009B77" stroke-width="5" stroke-linecap="round" stroke-linejoin="round" stroke-miterlimit="10" d="
		M274.8,325.3c1.8,45.5-28.8,118.9,26.2,148.4c14.5,7.8,42.4,13.2,58.4,7.4c13.2-4.8,26.2-13.7,39.5-19.2c2.3-1,28-14.2,26.5-14.6"
		/>
	<path fill="none" stroke="#009B77" stroke-width="5" stroke-linecap="round" stroke-linejoin="round" stroke-miterlimit="10" d="
		M302.2,389.3c19.9,41.5,59.2,52.4,99.5,30.2c-23.3-1.1-40.2-11.4-55.2-29c-14.2-16.7-20.3-40.3-44.3-21.2"/>
	<path fill="none" stroke="#009B77" stroke-width="5" stroke-linecap="round" stroke-linejoin="round" stroke-miterlimit="10" d="
		M74.8,516.1c50.7-28.3,120.7-66.5,154.2-120.5"/>
	<path fill="none" stroke="#009B77" stroke-width="5" stroke-linecap="round" stroke-linejoin="round" stroke-miterlimit="10" d="
		M123.5,487.9c17-8.4,34.1-16.8,51.2-25c9.6-4.6,17.3-9,28.2-5.7c13.2,4,23,13.6,37.2,16.8"/>
	<path fill="none" stroke="#009B77" stroke-width="5" stroke-linecap="round" stroke-linejoin="round" stroke-miterlimit="10" d="
		M145.5,523.3c-6.3-47.8-59.5-12.1-83.5-1.2"/>
	<path fill="none" stroke="#009B77" stroke-width="5" stroke-linecap="round" stroke-linejoin="round" stroke-miterlimit="10" d="
		M524.8,365.3c-41.9-1.5-55.2,22.7-71.8,55.3c-9.6,18.9-17.5,29.1-38.2,21.7c-15.8-5.6-31-5.8-46.8-11.7"/>
	<path fill="none" stroke="#009B77" stroke-width="5" stroke-linecap="round" stroke-linejoin="round" stroke-miterlimit="10" d="
		M251,62.6c40.8-2.1,76.8,18,67.2,64.7"/>
	<path fill="none" stroke="#009B77" stroke-width="5" stroke-linecap="round" stroke-linejoin="round" stroke-miterlimit="10" d="
		M383.5,105.3c26.3-40.6-10.7-80.8-50.7-89.3"/>
	<path fill="none" stroke="#009B77" stroke-width="5" stroke-linecap="round" stroke-linejoin="round" stroke-miterlimit="10" d="
		M79.5,172.9c14.6-15.6,45.5-32.3,68-24.7c10.5,3.6,23.6,19.9,32.7,27.7"/>
	<path fill="none" stroke="#009B77" stroke-width="5" stroke-linecap="round" stroke-linejoin="round" stroke-miterlimit="10" d="
		M188.8,155.3c-9.7-12-20.1-31.5-32.6-40.2c-20.3-14-57.4-0.1-75.7,12.8"/>
	<path fill="none" stroke="#009B77" stroke-width="5" stroke-linecap="round" stroke-linejoin="round" stroke-miterlimit="10" d="
		M89.5,92.6c20.3-9.1,61-21.5,81.6-8.4c12.2,7.8,22.2,29.3,31.1,41"/>
	<path fill="none" stroke="#009B77" stroke-width="5" stroke-linecap="round" stroke-linejoin="round" stroke-miterlimit="10" d="
		M86.2,212.6C97.2,199,126,181.1,144,184c11.7,1.9,22,13.5,31.5,20.6"/>
	<path fill="none" stroke="#009B77" stroke-width="5" stroke-linecap="round" stroke-linejoin="round" stroke-miterlimit="10" d="
		M160.2,219.3c-36.7-52.7-0.3-129.1,40.7-166"/>
	<path fill="none" stroke="#009B77" stroke-width="5" stroke-linecap="round" stroke-linejoin="round" stroke-miterlimit="10" d="
		M292.8,160.6c4.2-18.6,0.3-43.1-17.1-53.4c-16.4-9.7-48.4-12.3-63.5,0"/>
	<path fill="none" stroke="#009B77" stroke-width="5" stroke-linecap="round" stroke-linejoin="round" stroke-miterlimit="10" d="
		M438.9,105.4c29.5-17.3,37.2-46.6,30-78.1"/>
	<path fill="none" stroke="#009B77" stroke-width="5" stroke-linecap="round" stroke-linejoin="round" stroke-miterlimit="10" d="
		M480.2,150.3c27.8-7.8,39.4-25.1,54.7-48.3"/>
	<path fill="none" stroke="#009B77" stroke-width="5" stroke-linecap="round" stroke-linejoin="round" stroke-miterlimit="10" d="
		M275.8,185.9c-10-48.7-57.2-42.9-91.3-21.8"/>
	<path fill="none" stroke="#009B77" stroke-width="5" stroke-linecap="round" stroke-linejoin="round" stroke-miterlimit="10" d="
		M176.2,205.3c27.2-23.7,61.2-38.5,89.3-8"/>
	<path fill="none" stroke="#009B77" stroke-width="5" stroke-linecap="round" stroke-linejoin="round" stroke-miterlimit="10" d="
		M465.8,117.6c25.8-12.9,37.8-30.8,42.2-59.5"/>
	<path fill="none" stroke="#009B77" stroke-width="5" stroke-linecap="round" stroke-linejoin="round" stroke-miterlimit="10" d="
		M377.2,5.3c32.7,27.2,35.8,58.1,27.7,98"/>
	<path fill="none" stroke="#009B77" stroke-width="5" stroke-linecap="round" stroke-linejoin="round" stroke-miterlimit="10" d="
		M420.6,8.5c18.2,32.4,14.8,60.6,2.6,94.4"/>
	<path fill="none" stroke="#009B77" stroke-width="5" stroke-linecap="round" stroke-linejoin="round" stroke-miterlimit="10" d="
		M231,225.6c3.5-93.1,78-167.9,169.5-176.9c53-5.2,98.9,12.8,118.5,66.4c8.8,24,15,59.2,8,84.6c-4.3,15.7-25.7,24.4-42.2,14.8"/>
	<path fill="none" stroke="#009B77" stroke-width="5" stroke-linecap="round" stroke-linejoin="round" stroke-miterlimit="10" d="
		M217,233.6c-41.8-99.5,74.2-193.9,163.3-203.1c48.1-5,98.2,4.3,128.6,44.7c18.7,24.8,38.2,77.5,25.2,107.4"/>
	<path fill="none" stroke="#009B77" stroke-width="5" stroke-linecap="round" stroke-linejoin="round" stroke-miterlimit="10" d="
		M210.8,77.3c-16.3,19.3-33.6,41.2-39.9,66c-6,23.9-6.4,50.2-7.4,74.7"/>
	<path fill="none" stroke="#009B77" stroke-width="5" stroke-linecap="round" stroke-linejoin="round" stroke-miterlimit="10" d="
		M380.8,525.9c30.6-15.8,56.6-42.6,91.8-46.8c13-1.6,77.8-9.2,74.7-28.3c1.4,8.2-31.9,17.3-35.6,17.7c-17.2,1.7-32.6-3.9-49.5-1.3
		c-21.5,3.3-38-2.1-55.7,14.4c-17.3,16.2-32.4,42.8-57.4,47.9"/>
	<path fill="none" stroke="#009B77" stroke-width="5" stroke-linecap="round" stroke-linejoin="round" stroke-miterlimit="10" d="
		M300.5,368.6c13.9-7.3,30-15,45.8-16.4c25.9-2.3,37.3,20,56.8,32.8c33.9,22.2,66.6-17.7,88.3-41.4c-16,37.5-48.8,72.1-91,77"/>
	<path fill="none" stroke="#009B77" stroke-width="5" stroke-linecap="round" stroke-linejoin="round" stroke-miterlimit="10" d="
		M484.9,268.6c-11.3,3.2-23.3-2.2-25.4-14.5"/>
	<path fill="none" stroke="#009B77" stroke-width="5" stroke-linecap="round" stroke-linejoin="round" stroke-miterlimit="10" d="
		M397.2,598.8c16.5-1.5,19.1,4.9,22.2,25.8c2.9,19.6,23.9,59,46.7,30.6"/>
	<path fill="none" stroke="#009B77" stroke-width="5" stroke-linecap="round" stroke-linejoin="round" stroke-miterlimit="10" d="
		M391.5,521.3c14.8-3.2,29.7-5.6,44.8-7.1c18.5-1.8,41.9,2.2,58.6-7.5c9-5.2,11.9-13.9,19-20.7c9.2-8.7,20.3-13.4,28.3-24
		c-22.5,23.7-46,34.4-77.2,23.3c-21.6-7.7-46.2-10.2-66,3.8"/>
	<path fill="none" stroke="#009B77" stroke-width="5" stroke-linecap="round" stroke-linejoin="round" stroke-miterlimit="10" d="
		M289.5,278.6c29.7,13.8,53.5,40.9,86.3,47.9c10.9,2.3,24.5,1.6,35.4,0.2c7.7-1,16.4-2.2,22.7-7.1c1.8-1.4,11.7-14.9,9-15.3
		c-0.5,0-0.9,0.1-1.3,0.3c-4.6,11.8-56-4.7-67.8-8.6C347.8,287.6,317.1,264.5,289.5,278.6z"/>
	<path fill="none" stroke="#009B77" stroke-width="5" stroke-linecap="round" stroke-linejoin="round" stroke-miterlimit="10" d="
		M285.7,314.5c19.4-16.8,61.4,15.2,80.2,26.8c38.2,23.5,85.2,10.7,122.2-8.6c-15.7,21.9-27.3,35.4-54.7,36.1
		c-18,0.5-36.2-1.5-54-4.1"/>
	<path fill="none" stroke="#009B77" stroke-width="5" stroke-linecap="round" stroke-linejoin="round" stroke-miterlimit="10" d="
		M75.5,598.6c39.7,29.2,51.2,60.7,60,108"/>
	<path fill="none" stroke="#009B77" stroke-width="5" stroke-linecap="round" stroke-linejoin="round" stroke-miterlimit="10" d="
		M215.8,350.6c-22.3,1.7-35.8,32.9-46.4,49.6c-17.8,27.9-20.7,69.5-48.6,90.4"/>
	<path fill="none" stroke="#009B77" stroke-width="5" stroke-linecap="round" stroke-linejoin="round" stroke-miterlimit="10" d="
		M275.5,345.1c-0.6,23.7,5.9,41.7,12.7,63.8c6.6,21.2,1.8,48.2,17.3,65.7"/>
	<path fill="none" stroke="#009B77" stroke-width="5" stroke-linecap="round" stroke-linejoin="round" stroke-miterlimit="10" d="
		M89.2,446.6c34.1-27.4,69-58.7,66.2-105.6c-2-33.7,17.8-76.8,48.5-99.1c-29.7,21.3-56.8,60.2-70.3,92.2"/>
	<line fill="none" stroke="#009B77" stroke-width="5" stroke-linecap="round" stroke-linejoin="round" stroke-miterlimit="10" x1="187.5" y1="67.1" x2="207" y2="113.1"/>
	<path fill="none" stroke="#009B77" stroke-width="5" stroke-linecap="round" stroke-linejoin="round" stroke-miterlimit="10" d="
		M166,98.1c12.9,12.5,19.7,27.9,27,44"/>
	<path fill="none" stroke="#009B77" stroke-width="5" stroke-linecap="round" stroke-linejoin="round" stroke-miterlimit="10" d="
		M152.5,129.1c11.6,12.1,23.2,23.5,31,38.5"/>
	<path fill="none" stroke="#009B77" stroke-width="5" stroke-linecap="round" stroke-linejoin="round" stroke-miterlimit="10" d="
		M145.5,165.6c14.3,5.3,23.6,16.4,32,27.7"/>
	<path fill="none" stroke="#009B77" stroke-width="5" stroke-linecap="round" stroke-linejoin="round" stroke-miterlimit="10" d="
		M231.5,82.1c11.6-3.5,23.7-3.6,35.5-1.5"/>
	<path fill="none" stroke="#009B77" stroke-width="5" stroke-linecap="round" stroke-linejoin="round" stroke-miterlimit="10" d="
		M200,131.6c9.2-4.5,19.6-10.1,30-8"/>
	<path fill="none" stroke="#009B77" stroke-width="5" stroke-linecap="round" stroke-linejoin="round" stroke-miterlimit="10" d="
		M180.5,179.3c7-10.2,18.5-15,30.8-16.5"/>
	<path fill="none" stroke="#009B77" stroke-width="5" stroke-linecap="round" stroke-linejoin="round" stroke-miterlimit="10" d="
		M210.8,215.9c-13.3,7.3-20.1,11.3-29,19.3"/>
	<path fill="none" stroke="#009B77" stroke-width="5" stroke-linecap="round" stroke-linejoin="round" stroke-miterlimit="10" d="
		M268.5,47.1c11.5-2.6,28,0,37.7,6.5"/>
	<path fill="none" stroke="#009B77" stroke-width="5" stroke-linecap="round" stroke-linejoin="round" stroke-miterlimit="10" d="
		M446,17.1c8.1,10.2,9.9,21.3,8.5,34"/>
	<path fill="none" stroke="#009B77" stroke-width="5" stroke-linecap="round" stroke-linejoin="round" stroke-miterlimit="10" d="
		M522.5,83.1c-2,5.5-5.6,10.4-10.5,13.5"/>
	<path fill="none" stroke="#009B77" stroke-width="5" stroke-linecap="round" stroke-linejoin="round" stroke-miterlimit="10" d="
		M229.2,287.3c0,3.9,1.9,8.7,3.3,12.3c1.3-3.2,3.3-8.6,2.7-12"/>
	<path fill="none" stroke="#009B77" stroke-width="5" stroke-linecap="round" stroke-linejoin="round" stroke-miterlimit="10" d="
		M256.2,307.5c0,0-2.8-8.5-5.8-12.9"/>
</g>
</svg>
