<svg xmlns="http://www.w3.org/2000/svg" xmlns:xlink="http://www.w3.org/1999/xlink" x="0px" y="0px"
	 viewBox="0 0 172.5 180" enable-background="new 0 0 172.5 180" xml:space="preserve">
<path fill="#006850" d="M0.6,129.7c4.2,1.1,8,3.9,11.2,7.3c0.7,0.6,1.9,1.1,2.8,0.5c1.3,1.9,3.5,0.8,5.1,1.5c0.1-0.5,0.1-1.1,0.3-1.5
	c1.1,0.5,1.9,2,3.2,1.5l0.2-1.4c0.7,0.5,1.9,1.1,2,1.9c-0.4-0.1-0.8-0.1-1.1-0.3c-0.3,0.4-1.1,0.5-1.1,1.1c1.8,1.5,4.1,1,6,2.5
	c0.8,1-0.9,1.4-1.4,2c-3.6-1.8-8.1-1.5-12-2.6c7.8,2.6,15.9,5.1,23.5,8.6c1.2,0.1,2.1,1.9,3.2,1.3c1.3-1-1-1.7-1-2.8
	c0.4-1.9,2.2,0.8,2.8-1.2c0.8-0.1,1.3,0.2,1.9,0.6c1.9,0.1,3.9,0.9,5.5,2.1c0.6-0.5-0.5-1.4,0.3-2c0.8-0.2,1.3,0.6,1.7,1
	c-1.2,1.2-0.9,2.9-2.4,3.7c0.4,0.2,0.1,0.7,0.4,1c0,1.7-1.4,0-2,0.3c0.6,1,2.4,1.1,3.1,2.3c1.9-0.2,3.2,1.7,4.8,1.4l-0.3-0.6
	l0.8-0.1c-0.8-1.5-1-3.5-1.3-4.9c1.5,1.4,2.2,3.6,3.2,5.3c-0.5-2-1-4.1-1.2-6c0.8,1.6,1.4,3.9,2,5.1c-0.3-0.8-0.6-1.7-0.3-2.6
	c0.7,1.4,0.8,3,1.4,4.4h0.3v-4.3c0.9,1.5,1.2,3.3,1.2,5.3c1.7,1.2,3.6,2.8,5.5,4c0.8-1.5-1.2-3-1.7-4.2c0.4,0,0.6,0.2,0.9,0.3
	l0.2-1.9c0.8,1,1.2,3,2.9,3l0.2-2.8c0.3,1.2,1.3,2.2,1.4,3.3c3.4,0.5,5.8,3.4,9.1,4.1c1.1-1.7-1.3-2.9-1.5-4.2
	c1.6,0.1,2.7,1.5,4.2,1.9c1,0.3,1.3,1.5,2.4,1.7c0.9-1,1.5,0.7,2.3,0.8c1.2-0.6-0.3-1.6,0.3-2.4c1.4,0.6,2.4,2.2,3.9,2.8l1.2,3.1
	c-0.5,0.8-1-0.1-1.7,0.1l1.1,1.9c-1.4-0.2-3.3-0.2-4.8-0.6c-2.8-3.2-7.5-3.4-11.4-2.8c0.5,2.6,5.5,0.4,3.7,4.2
	c2.4,0.4,4.8-0.1,7.1,0.5c0.6,0.4,1.7,0.1,1.8,1.1c1.7,0.8,3.7,1.5,4.9,3.1c1,0.3,1.1-1,1.7-1.2c2.5,0.1,4.6,2.1,6.2,3.9h0.6
	c1.1-1-0.8-1.7-0.1-2.6l1.2-0.1c0.9-1-0.3-1.7-0.1-2.8c0-0.6-1-1-0.6-1.5c1.9,0.4,3.5,1.4,5.3,2.3c1.4,0.6,1.9,2.4,3.5,2.4
	c0.6-0.4,0.6-1,0.4-1.5c1.3-0.3,0.6-1.9,0.9-2.4l0.3,0.3c0.5,1.7,2.3,0.2,3.2,0.3c-0.4-2.7-1-5.5-1.3-8c1.5,2.3,2.6,4.9,3.2,7.3
	h-0.3c0.3,0.7,0.1,1.5,0.5,2.2c1.5,0.1,0.2-1.2,1-1.7c0.6,0.3,0.2,1.2,0.6,1.4c0.7-0.5,0.7-1.7,1.5-2.2c0.4,1.1,0.3,3,1.9,3.6
	c-0.2,0.5,0.3,1.5-0.2,1.7c0.5,0.3,1.2,0.5,1.7,0.1c0.9,1.8,3.2,0.5,4,2.3c1.5,0.4,3.5-1.4,4.3-0.3c1.7-3.9,2.4-9.1,6.8-11.1
	c1.2,3.2-4.2,5.3-1.9,8.6c-0.3,0.6-0.8,1.3-0.1,1.9c0.7-0.6,1.1-1.4,1.5-2.2l-0.6-0.1c0.3-1.3,1.2-2.4,1.9-3.5l-1.2,0.9
	c0.6-1.9,2-3.9,1.2-6c-2.7-0.7-3.9,2-5.7,3.2c0.2-0.8,0.5-1.5-0.3-2.2c-1.5,0.1-1.2,2.4-2.3,3.4c-0.2-1.9,0.4-4.3,0.5-6.5l-2.1,8.2
	c-0.8-2.4-1.7-4.8-2-7.1l0.5,0.2c0.8-1.9-1.2-5.1,1.7-5.9l0.1,1.7c1.1-1,2.5-1.8,2.2-3.3c-1.8,0-3.9,0.4-5.3,1.9
	c-0.3-3.3-0.5-6.7,0-10.2c1.8-3.8,3.8-8.6,1.9-12.8c1.5-5,3.3-9.8,4.3-15c2.4-0.8,3.4-3.9,5.3-5.3c1.5-5.1,2.3-11.9,0.6-17.3
	c-0.4-4.9-1.9-9.6-4-14.3c-0.3-2.8-2.4-5.3-3-8.2c-1.3-2.2-2-4.7-4-6.6c-1.5-2.1-4.5-2.1-5.4-4.5c-2.8-1.8-5.8-2.9-8.8-4.1
	c-0.1-1.2-1.6-0.9-2.4-1.3c-1.9-0.8-2.9-2.6-4.6-3.5l0.6-0.6l-1.5-1.4c-0.4-0.5-2-0.8-1-1.7c-0.6-1.1-2.4-1.5-2.4-2.6
	c1.2-0.7-0.6-1.9-0.6-3c1.2-0.7-0.7-0.9-0.8-1.7c1.4-1.4-0.3-3-0.1-4.6c-0.7-1.5,0.9-3.8-1.4-4l0.6-0.6c0.3-1.6-0.5-3.1-1.4-4.3
	c0.1-0.9,1.3-1,1.1-2.1c-0.5-1-0.8-2.5-2-3.2c0.1-0.8-0.5-1.8-1-2.6c0.6-1.3-1.5-1.5-1.2-2.9c0.1-1.4-1.5-2.1-2.4-2.6
	c1.4-2.4-2.4-1-2.8-2.5c-0.1-0.7-1.2-0.5-1.7-0.8c0.7-0.6-0.3-1-0.1-1.7c-1.2-1.2-2.2,0.5-3.5,0.6c-0.7-4.5-3.5-8-5.9-11.8
	c-1.5-1.4-1.7-3.9-3.5-4.8c-3.1,2.2-1.9,7.4-1.1,10.6c0.7,1.5,2.8,2.6,2.5,4.4c-1.2-1.1-1.9-1.9-2.2-3.3c-1.2-3.9-6.6-4.3-6.5-8.6
	c-0.7-0.4-1.5-0.1-2.1,0.3c0.5,3.6,2.5,7.1,3.7,10.6c0.3,1,1.9,1.6,1.7,2.6l-1.1-0.1c-0.1,0.5-0.1,1.3,0.1,1.8
	c-0.4,1.1-1,0.1-1.7,0.2c-0.5,0.3,0.3,0.6,0,1.1c-0.6,0.5-1,0.3-1.7,0.1c-5.9,8-16.5,10-22.9,18.4c-0.1,3-1,3.5-1,6.6
	c0.6,1,0.1,1.9,0.3,3.1c1.4,2.6,4,1.3,6.5,2.1c1.7-0.2,4-0.4,5.3,0.8c1.2-0.8,2,0.7,2.6,1.4c0.6,1.4-1.1,2.2-1.5,3.4
	c-0.3,1.5-1.7,3.4-0.5,4.8c1.2,0.8,2.1,2.3,2.8,3.4c0.4-0.4,0.4-0.9,0.6-1.4l0.6,0.5c0.3,1.7-1.2,3.6-2.6,4.4h0.5
	c1,0.3,1.3-1.1,2-1.7c0.6-0.6,0.1-2.4,1.1-2c0.1,2.6-2.4,4.9-4.6,6c1.5,0.5,2.7-0.7,3.7-1.9c0.6-1.5,1.7-1.5,1.7-3.3
	c-0.9-2.6-0.1-5,0.3-7.6l2.8-3.4c1.1-1.2,0.1-4.4,2.6-3.7l-1.1-1c2.7,0.3,6.2,0.3,8.9,0c2.1,0.9,5.1,1.7,6.4,4
	c-0.2,2.2-0.1,4.7-1.9,6.3c-0.1-0.1-0.3-0.4-0.4-0.3v0.4c0,1-1.2,1.3-1.7,1.5c1.2,1.2,1.9-0.8,3.1-0.1c1.2-0.8,1.8-2.1,2.2-3.4
	c0.3,0.5,0.8,0.6,1.4,0.8c0.1,0.5-0.3,0.6-0.2,1c0.2,0.5-0.4,1.7,0.5,2.1l0.2,8.7c-0.6,6.6-6.6,10.7-6.8,17.2
	c1.2,9.2,4.6,17.5,4.2,27.2c0.3,1.6,1.2,3,1.4,4.6c-0.1,4.3,1.2,8.1,2.4,11.8l-0.4,5.4c-1.7,5.2-1.3,11.2-5.7,15.3H82
	c-0.2-0.3-0.3-0.6-0.5-0.9c-0.7-0.7-1.6-0.1-2.3,0c-2.4-2.2-5.7-3-7.9-4.6L71,146c-1.2-0.7-2.1-1.9-3.5-2.1l1,2.4h0.5
	c0.2,0.1,0.1,0.3,0.1,0.4c-0.1,0.1-0.1,0.3-0.3,0.2c-0.1-0.1-0.2-0.2-0.1-0.3h-0.1v1.6c0,0.1,0.1,0.2,0.1,0.2h-0.1v-0.2
	c-0.6-1.2-0.9-2.9-2.1-3.3c0.8,1.8,1.7,3.8,1.5,5.9c-1.1-2.3-2.1-4.7-3.3-6.9l-0.5-0.2v1c0.2,1,1.7,1.8,1.5,2.8
	c-0.1-0.3-0.4-0.1-0.6-0.1c1.3,2.3,2.2,5,2.3,7.7c-1.7-4.2-4.5-8.3-7.3-12.2c-0.2,1.2,0.7,2.4,0.6,3.5c-1.4,0.4-1.2-1.4-2.2-1.7v0.9
	c-0.6-0.6-0.5-2-1.5-2.4c-0.4,0.3-0.8,0.3-1.1-0.2c-0.3-0.1-0.5-0.4-0.8,0c-1.4-2.2-1.6-4.8-2.8-7.1c0.7-5.7-2.6-10.6-1.4-16.1
	l2.1,0.6c-0.9-0.3,0.3-0.6-0.2-0.9c-0.6-1.9-1.1-4.6,1-6.2c1.2-1,3.2-1.1,3.9-2.3c0.4-0.1,0.6,0.2,0.9,0.3c2.6-0.2,4.2,2.1,6.3,2.8
	c0.5-0.3,1.4-0.1,1.4-1l0.1,0.2c1.1,0.4,2-0.6,2.8-1.3c0.5-0.8,0.1-2,0.9-2.8c-0.6-1.7-1.8-3.7-1.5-5.7c0.2-0.8,1-2.4,2.2-1.8
	l-0.3-2.3c2-2.6-0.3-5.2-1.1-7.6c-0.3-1-1.5-1.3-1.1-2.3c1.5,0.3,1.4-1.9,2.5-2.8c0.3-1.1,0.3-2.9-0.6-3.9c-1.4,1.4-3.3,2.1-4.5,3.7
	c-2.4-0.8-5.2-0.4-8-0.3c0.1,2.3-2.1-0.7-2.2,1.3c-0.4-2.8-3.6-3.1-5.1-5.1c-1.2-0.5-1.6-1.9-3-2c1.3,3.4,0.3,7.4,3.3,10
	c-0.3,0.5-0.5,0.1-0.8,0c-0.4,0.9-1.7,1.6-1,2.8L48.1,93l-0.5,1.3c-0.3-0.3-0.7-0.6-1.1-0.6l-0.2,0.9l-1.2-1.2L45,94.3
	c-0.8,0.2-1.4-0.3-2.2-0.1c-3-1.6-5.9-2.2-8.5-4.8c-0.5-0.7-0.1-2.1-0.9-2.3l-0.2,1l-1.3-2.8c-0.2,0-0.4,0-0.5,0.2
	c-1.6-0.5-0.9-2.3-2.2-3c-1.1-0.1-1.9-1.9-3.1-0.8c-1-0.6-2.8,0-3.4-1.1c-3.5-0.3-5.9,2-8.5,4.1c-1.7,0.9-4.3,0.5-5.8,2.1
	c-1.6,1-1,3.1-1.4,4.5c0.3,1.7-0.5,3.7,0.5,5.1l1.5-2.6l0.3,1.4c-0.7,3.5,1.2,6.7,1.9,10c0.5,3.9,3,8,1.1,11.9
	c-2.4,1.9-0.1,4.8,0.3,6.9c0.3,2.6-0.1,5.5,0.8,7.7c-4.8,1.6-7-4.6-11.4-4.6c-0.3,1,1.2,1.2,1.1,2l-3-0.4
	C-0.2,129.4,0.6,129.2,0.6,129.7z M87.8,92.8c2.2-2.2,3.3-5,5.3-7.2c-1.4,2.8-3.1,5.4-5.3,7.8V92.8z M93.7,87.7h-0.3
	c-1.2,1.9-2,3.9-3.5,5.6c1.5-2.3,2.4-5.3,4.5-7.5c0.1,0.7-1,1.2,0,1.5l-0.2,0.2l0.6,0.6c0.1-0.1,0.2-0.1,0.1-0.3
	c1.2,0.6,0,2.1,0.8,3.1c0.6-0.3,0.2-1.4,1-1.5c-0.3,1.2-1.2,3.2-2.3,3.9c-0.1-0.2,0.1-0.3,0.1-0.3c-1.6-0.8-1.9,2-2.8,2.3
	C91.4,92.8,92.6,90,93.7,87.7z M93.7,112.9c0.6-0.8,0.6-1.9,1.7-2.3C95,111.4,94.3,112.1,93.7,112.9z M95.5,113.7l0.3-0.6
	C95.8,113.4,95.7,113.6,95.5,113.7l-1.2,2.1C94.2,115.1,95,114.5,95.5,113.7z M89.4,89.1l-1.1-0.5l3.1-3.6c0.5,0.1,0.3,0.8,0.2,1.1
	c-0.8,1.3-1.5,2.6-2.3,3.9C89.3,89.7,89.1,89.3,89.4,89.1z M87.8,58.6H88c0.5-2.7,0.8-5.8,1.5-8.7h0.6c0.4-0.8-1.1-1.2,0-1.8
	l0.5-2.5c0,1.5-0.7,3.6,0.6,4.6c-0.2,0.8,0.3,1.2,0.6,1.7c0.3-0.1,0.1-0.5,0.2-0.6c0.4,0.4,0.6,1.2,0.3,1.7l-0.2,0.2
	c0.2-0.6-0.4-0.8-0.6-1.2h-0.3c0.4,1.7,0.6,3.9-0.2,5.7v-0.1l-1.7,1.2c-0.8-2.4,0.9-4.8,0.3-7.4l-0.3,0.5c-0.1,3-0.9,5.7-1.2,8.5
	C87.6,60,88,59.2,87.8,58.6z M89.4,48.3c-1-0.7-1.1-1.6-1.2-2.3c0.1,0.3,0.4,0.5,0.6,0.8c0.5-0.3,0.4-1,0.2-1.4
	C89.5,46.1,89,47.4,89.4,48.3z M86.3,47.5l0.3-0.3l0.9,1.2L86.3,47.5z M66.9,46.7c0.3-0.2,0.5-0.8,0.9-0.1c-0.1,0.2-0.2,0.4-0.1,0.8
	C67.3,47.3,67.1,46.9,66.9,46.7z M63.9,57.8c-0.1,0.6-0.4,1.2-0.3,2C63.3,59.2,63.6,58.4,63.9,57.8z M61.6,58c0.3-0.3,0.5-1,1.1-0.9
	c-0.8,0.6,0.5,1.4-0.2,2.3c-0.3,0.3-0.1,0.9-0.1,1.4C61.5,60.1,61.6,59.2,61.6,58z M61.9,54.3c0.3,1.7-1.9,2.6-1.1,4.1l0.3,3.1
	c-0.3-0.8-3.2-2.3-1.4-4L61.9,54.3z M77.2,15h-1.8v0.8c-1.8-2.9-3.1-6.2-4.5-9.4C73.9,8.3,76.9,11.3,77.2,15z M118.5,140.2
	c0.6-5.5,4.5-9.6,4.8-15.2c0.8,5.6-0.8,11.1-1.4,17h-0.1c-0.6,1,0.5,1.5,0.8,2.3c0.6,3.7,1.5,8.3,0.5,11.8
	C121,151,119.7,145.6,118.5,140.2z M120.7,123.2c-0.5-0.2,0.3-0.9,0.6-1.2L120.7,123.2z M114.4,129.2c0.6,1.7,1.9,3.4,1.9,5.5
	c-1.2,1.1-2.2-0.7-2.8-1.5c-0.5-0.9,0.1-3.1-1.8-2.6c-1.2,0.7-3.4,0.4-3.6,1.9c-0.1,1,0.5,3.4-1,3.3c-0.3-1-0.9-2.7-0.6-4.4
	c-0.2-0.3-0.5-0.1-0.8-0.1c-0.5,0.2-0.3,0.9-0.9,0.6c-0.5-1.4-1.8-2.6-1.3-4.2c-0.7-0.6,0.6-1.2,0.6-1.9c1.2-0.3,1.2-1.7,1.9-2.4
	l0.8,1.2c0.8-0.7,1.2-1.9,1.7-2.8c-0.2-1.7,0-3.9-1.3-4.9c-0.5,1-0.8,1.7-1,2.9c0.3-2.2-1.2-4.1,0-6.3c-1.5-0.8-0.7-2.9-0.6-4.2
	c0.6-1.5,0.3-3.3,2.1-4.3c1.3-1.9,1.7-4.2,2.6-6.3c-0.3,2.5-1.6,5-3.1,7.2c0.2,1.1,1.2,0,1.4,0c-0.1,3.4,0.1,6.9-0.8,9.9
	c-0.1,0.4,0.2,0.5,0.3,0.8c2.6-2.8-0.8-8.4,3.6-10.3l0.8-1.5c0.3,1.9,0.6,3.9,0.9,5.8c0.3-1.7,0.4-4.2,0.1-6.3
	c-0.8-1.2,0.6-2.8-0.9-3.7c0.1,2.8-1.9,5.3-3.2,7.6c-1.9-3.7,2.7-5.7,2-9.1c-1.2-0.5-0.8-1.2-1.7-2c-0.6,1.3-1.1,2.9-1.7,4.3
	c-0.2-2.2,2-4.3,0.3-6.4l-1,3.3c0-2,0.2-4-0.8-5.7l-0.3,0.6c-0.1-0.8-1-1.4-1.4-2.1h-0.6c0.1,2.6-0.8,5.6-2,8l0.6-0.1
	c-0.3,0.3-0.1,0.7-0.3,0.9l-0.9,0.2c0.7-3,1-6.2,2.1-8.9l-1.1-0.2c0.4-1.7-1.4-3.2-2.8-4.2c-6.1-7.1-9.1-15.7-9.4-25.1
	c1.4-1.1,2.4-2.7,2.6-4.4c0.4,2.1,0.3,5.4,1.8,7.5c-0.5,1.8,1.5,2.2,2.1,3.4c0.7-0.3-0.1-1.4,0.3-1.2c1.5,3.8,3,7.7,5.9,10.8
	l0.1-0.1c-3.4-7.1-5.8-14.7-8.2-22.2c0.5-1-1-1.1-0.5-2.3c-1-1.8-1.1-4.3-2.3-6.2l-0.2,0.1L91.2,43c0.9-0.1,0.2-1.3,0.6-1.8
	l-0.3-0.8c0.3,0.1,0.3,0.6,0.8,0.5c0.5-1.2-0.7-1.9-1.3-2.8l-0.6-0.5c-0.3,0.8,0.6,1.5,0.9,2.3c-0.3-0.1-0.9-1.3-1.7-1.2l0.1,2
	c0.3,0.3-0.4-0.3-0.6-0.3c0,1.1,0.5,2.6,0,3.7c-0.4-0.8-0.6-1.7-1.5-2.1v1c-0.1-0.1-0.2-0.2-0.3-0.1c-0.1,0.5,0.1,1.3,0.4,1.9
	l-0.8-0.6v1c-0.1-0.4-0.5-0.6-0.8-1c-0.5,0.4-0.3,1.3-0.1,1.9c-0.3-0.1-0.5-0.4-0.8-0.4c-0.2,0.1-0.2,0.3-0.2,0.4
	c-0.2-0.1-0.4-0.1-0.6-0.3c-0.7,1.4,1.1,2.2,1.7,3.3c-0.5-0.3-0.8-0.7-1.4-0.8l0.3-0.3c-0.4-0.6-0.8-1.4-1.5-1.2
	c-0.5,0.2-0.7-0.5-1.1-0.6v0.6c0.1,0-0.8-0.6-1.4-0.6c-0.2,0.6,0.6,1,0.8,1.7c-1.5,1.4-1.3-1.3-2.6-0.6c-1-1.3-2-2.4-3-3.7l-0.1,0.2
	c0.9,1.4,2,2.8,2.8,4.3c-0.3,0.2-0.9,0.3-1.1-0.2c-1.2-2-2.5-3.9-4-5.8L73.8,42l3.3,5.5h-0.5c-0.9-1.7-2.1-3.2-3.2-4.8l-0.2,0.1
	l3,4.9c-2.4,0.4-2.3-1.7-3.2-3.1c-0.1-0.3,0.3-0.4,0.1-0.6h-0.3c0.3-1-1-1.7-1.1-2.8c2.2-0.3,5.5-0.1,7.6-0.1
	c-2.4-0.8-5.5-0.6-8-0.2c-0.3-0.1,0-0.6-0.4-0.6l-0.3,0.3c0.2,0.1,0.1,0.3,0.2,0.5c-0.6,0.1-1.2,0.3-1.7,0.4
	c0.6,0.4,1.2-0.1,1.7-0.2c0.8,1.2,1.3,2.6,1.8,4c-1.4-0.3-2.7-0.1-4-1.1c-0.1,0.8,1,1.3,1.7,1.7c1,0.3,1.4-0.1,2.5,0l0.6,1.3
	C73,47,72.5,47,72.1,47c-0.7,1.8-1.9-0.6-2.9,0.5c-0.3-2.2-3.5-2.4-3.7-4.5c-0.3-0.1-1.3,0.3-1.5-0.4l-0.1,0.8
	c-0.3-0.3-0.4-0.7-0.6-1.1c-0.1,1.6,1.2,3.1,2.4,4.2l0.3-0.3l-1.4-1.8c-0.2-0.2-0.3-0.4-0.5-0.6l0.5,0.6c0.9,1,2.4,1.8,1.7,3.4
	c-0.8-0.1-2.3-0.8-3.1,0.2v0.3c0.6,0,1.2-0.1,2,0.1c1.5,1.2,0.5,3.3,0.3,4.8c-0.4-0.8-0.5-2.1-1.4-2.8c0.1,1.2,0.5,2.6-0.1,3.9
	c-0.5,0.3-0.2,1.2-0.9,1.2c0.4-1.3,1.3-4.1-0.2-5.8v2.2c-1-0.3-0.7,1.2-0.8,1.2c-0.3-2.6-3.3-3.3-5.4-4c-0.5,0.4-0.8,0.1-1.4,0
	c-2.1,0.2-4.1,0.4-5.6-0.8v0.5c-0.4-0.6-1.1-1.3-1.9-1.4l-0.1,1.1C47.1,48,47,47,47.3,46.4c1.2-0.1,1.9-1.4,3.2-0.9
	c1.7-0.8,3.2-1.7,5.3-1.5l1.2-1.1v-1.1c-1.2,0.3-3,0.3-3.2,1.7c-2.2,0.4-4.2,1-6.5,1.2c-0.8-1.3,0-2.4,0.8-3.4
	c1.1-0.2,2.2-0.9,3.4-0.6c0.7-0.2,1.2-1,1.8-1.5c-0.3-0.8-0.8-1.4-1.7-1.5c-0.6,0.7-1.4,1.8-1.1,2.8c-0.8,0.1-1.9,0.3-2.6-0.2
	c1-3.2,5.1-4.8,7.5-7.1c5.3-3.3,10.6-6.2,14.9-11.2c0.3-1.2,1.5-1.2,2.5-1.7c0.1,0.4,0.6,0.8,1.1,0.4l0.3-0.3c0.4,0.3,1,1.2,1.9,0.9
	c0.2,0.7-0.8,1-0.5,1.6c0,0,0.1-0.1,0.2-0.1l-0.1,0.1c0,0,0,0,0,0c-0.9,0.5,0.4,1.1,0.2,1.8c1.3-0.8,2.3-2.5,3.4-3.5
	c0.1,1.3-3.6,2.4-1.9,4l1.3-1.4l-0.3-0.3l1.5-1.9c0.1,0.3-0.6,0.4-0.2,0.8l1.1-0.8c-0.3,0.5-0.9,1.2-1.5,1.3
	c0.1-0.1,0.2-0.1,0.2-0.3c-0.3-0.3-0.5,0.3-0.8,0.4c0.6,0.3-0.2,0.6,0.3,1.1c0.7-0.9,2.1-1.7,2.4-2.9c-0.1-0.5-0.2-1-0.2-1.6
	c0,0,0,0,0,0v-0.3c0,0.1,0,0.2,0,0.3c0.3,0.6,0.4,1.1,0.2,1.6c0.2,0.8,0.6,1.5,1,2.3l-0.1-2c0.5,1,1,1.3,1.1,2.8l1,1.4
	c0.5,0,0.3-0.8,1-0.5c0,1,0.5,2.6,1.5,3l0.1-0.1c0.5,3.1,0.4,6.4,1.2,9.4h0.2v-3c0.3,0.8,0,1.9,0.8,2.5c0.3-1.7-0.5-3.6-0.5-5.3
	c0.9,0.6,0,1.3,0.8,2l1.4,1.7h-0.5c0.1,1,1.4,1.9,1.5,3.1c0.3,0.1,0.4,0.6,0.8,0.4c0.6-0.8-0.3-1.9-0.8-2.6c0.2,0,0.4-0.3,0.4-0.5
	c0.6-1.5-2.1-1.7-0.9-3.1c0-1.2-1.3-2.4-1.2-3.7L87.2,26c1-1.5-1.1-3.1-0.6-4.8c-0.6-0.6-1.2-1.4-2-1.1v0.4l-0.8-0.1
	c-0.9-1.4,0.5-4.2-1.3-5.4c-0.3,0.3-0.1,0.8-0.1,1.2c-2.8-3.9-3.4-8.7-3.7-13.4L78.1,2h0.3c1.3,3.4,5,5.8,6.3,9.3
	c-0.4-0.5-0.7-0.6-1.2-0.3c2.2,2.2,2.6,5.7,2.1,8.7c-0.1,1.3,1.3,1.2,1.7,2.3c0.6-1,0.7-2.9,0.4-4.4l2.6-0.4
	c-0.3,1.1-1.6,0.8-2.3,1.4c1.1,0.9,3.1,0,3.9,1.4c0.8,0,1.4,0.5,2.1,0.8l-0.4,0.5c1.2,0.9,2.3,1.9,3.7,2.1v0.6
	c-0.4,0-0.8-0.1-1.1,0.1c0.6,0.6,1.5,0.7,1.9,1.5L98,26c-0.6-0.3-1-1.1-1.7-1.3l-0.1,0.1l2,2H98l1.5,2.2c-0.4,0.1-0.9-0.1-1.2-0.4
	c-0.3,1.2,1.4,1,1.7,2.1c0.5,0.4,1.2,1.3,0.3,1.5l-0.6-0.6c0.3,1,0.8,2.9,0.6,3.9c1.1,2.1,1,4.2,1.9,6.5c-0.4,1.3-0.1,3.1,1,4.3
	c0.4,1-0.8,0.5-1,1.2c0.7,2.7,1.6,5.9,3.9,8c-0.1,2.1,2.8,2.1,2.5,4.3c2.3,1,3,4.3,5.7,3.7c3.4,2.8,8.2,3.5,11.4,7.4
	c2.7-0.3,4.1,2.7,5.4,4.3c0.3,2.9,2.4,5,3.2,7.7c2.4,3.6,2.2,8.3,4.3,12c0.4,2.4,0.3,4.9,1.9,6.8c0.1,2.9,1.2,6.4-0.3,9.1
	c-0.5,1,1,1.2,0.3,2c-0.9,0.8-1.2,2-1.5,3.1l-0.6-0.4c-1.9,0.7,0.6,1.8,0,3.1c-0.4,0.2-0.5-0.3-0.8-0.5l-0.2,1.4
	c-0.8,0-0.5-0.9-1.1-1.3c-0.3,1,0.6,1.8,0.5,2.8c-1.1-0.3-1.1-2-1.7-3c-0.9,1.2,0.7,2.7,0.2,4.2c-1.1-0.8,0-3.7-2.2-3
	c-1.2,0.4,0.5,1.7-0.9,2.2c-0.2,1.2-0.4,2.1,0.1,3.2c0.6,0.5,1-0.3,1.5-0.3c-0.3,4.4-1.6,8.8-3.1,12.7h-0.4c-0.3,1.4-0.1,3.1-1.1,4
	c-0.3-0.4-0.1-1.2-0.8-1.1l-0.1,2.1c-0.6-0.5-0.3-1.5-0.6-2.1c-0.7,0.5-0.5,1.4-0.8,2.1c-0.1-0.4,0-1-0.5-1.3
	c-0.6,2.7-0.6,5.7-0.6,8.6c0.3,0.5,0.5,0.9,1,1.2c0.3-0.4,0.8-0.3,1.4-0.3c1.2,0.8-0.2,1.9,0,2.9c-0.8,8.9,1,17.7,4.3,25.4
	c-0.8,0.1-2.2,0.5-2.4-0.6c-0.9-2-0.7-4.4-1.4-6.5c-0.4-0.2-0.4,0.3-0.8,0.4l0.3,5.4c-1.5-0.6-0.8-2.8-2.6-3c-1.4-1.3,0.5-2.7,1-4
	c0.5-0.9,1.4-0.8,2.1-1.2c-0.2-0.7-1.2-0.5-1.7-0.3c-0.9,0.7-1.6,1.3-2.3,2.3c-0.8-7.5-0.3-14.4,1.1-21.3c-0.3-3.2,0.7-6.3-0.3-9.4
	c-0.8,1.3-0.5,3.2-0.6,4.5c-1.4-3.8,1-7.5,1.3-11.4c1.3-6,0.3-10.4-0.3-16.2c0.1-0.5,1.4-0.5,0.9-1.3c-0.2-0.3-0.6-0.1-0.9-0.2
	c-0.1-0.4,0.1-0.6,0.5-0.8c0.2-0.1,0.1-0.3,0.1-0.5c1,0.7,1.3,2,2.6,1.9l-0.6-1.1c0.4-0.2,0.6,0.4,0.9,0l-0.5-0.8
	c0.5-0.1,0.9,0.3,1.2,0c-2.6-1.3-3.9-4.9-6.3-6c-0.5-0.7-1.3-1.5-1.9-1.9c-0.3,1.2,1.2,2.9-0.2,4c0.5,0.9-0.4,2-0.3,3.1
	c-0.2,3.5-1.3,6.9-2.6,10c-0.6-1.9,1.1-3.6,1.3-5.5c0.1-1,0.5-2.1,0.3-3c-0.5,1.9-0.7,4-1.7,5.7h-0.3c-0.4-2.2,1.3-3.7,0.9-5.7
	c-0.5,0.6-1.4,0.2-2.1,0.3l-3.5,5.8c0.2-1.2,1.7-2.1,1.5-3.2c-1.8,1.9-4.4,4.2-3.1,6.9c-0.2,0.6-0.3,1.4-0.5,2l1-0.6l0.3,0.8
	c1.1-0.6,1.9-2.4,2.8-3.7L114.4,129.2z M88.2,30.4c0.1,0.2,0.5,0.1,0.4,0.4C88.3,31,88,30.7,88.2,30.4z M98.8,91.3
	c-0.4-1-1.2,0.1-1.5,0.2c0-2.2,2-0.3,3-0.4c-0.5,0.4-0.8,1.7-1.5,1.3C98.9,92.1,98.8,91.6,98.8,91.3z M99.5,98.2v2.2l-0.6,1.7
	L99.5,98.2z M101.9,92.3c0.3,1.4-0.9,2.8-1.7,4C100,94.7,100.1,93.4,101.9,92.3z M102.5,114.7c0.1,0.6-0.1,1.2-0.5,1.5
	C102,115.7,102.1,115.2,102.5,114.7z M105.1,97.7c-1,0.8-1.6,1.8-2.1,2.8c-0.1,0.3-0.2,0.5-0.4,0.7c0.1-0.2,0.2-0.5,0.4-0.7
	c0.5-1.4,0.6-3.5,2.3-3.1l1-0.8c0,2.5,0,4.9-0.6,7.1c-0.6-0.4-1.4,0.3-1.9,1.1c0,0.2-0.1,0.3-0.3,0.5c0.1-0.2,0.2-0.3,0.3-0.5
	c0.1-0.6-0.4-1.4,0-2C104,101.1,105.8,99.5,105.1,97.7z M104.4,109.3c0.1-0.6,0.1-1.4,0.5-2L104.4,109.3c0,0.1-0.1,0.3-0.1,0.4
	L104.4,109.3z M113.7,156.6c-1.2-2.3-1.9-5.1-4.2-6.4c0.6,2.2,1.9,4.5,3,6.6l-1.5-0.9l-0.1,0.6c-1.1,0.1-1.5-1.4-1.7-2.3
	c-2.2-5.1,1.8-9.9-0.4-14.4c-1.9-1.7-3.5-3.8-4.2-6.3c0.2,0,0.4,0.1,0.5-0.1c0.3,1.7,0.6,3.5,2.2,4.4c3.3-1.1,0.2-6.4,4.5-6l1,1.8
	c-2.2,4.7,1.1,9.1,2.2,13.3c0.5,3.7,1.7,7.6,0.8,11.6c-0.3-0.1-0.5,0.1-0.6,0.3C114.1,158.2,115.2,156.6,113.7,156.6z M100.1,167.2
	c0.3-0.6,1.2-1.1,0.6-1.9c0.7,0.6-0.2,1.2,0.3,1.9v1.4C99.9,168.8,100.3,167.6,100.1,167.2z M94.9,171.8c1.7-0.9,1.4-2.5,1.1-4.1
	c-0.2-0.2-0.3-0.5-0.3-0.8l0.2,0.2c0,0.2,0.1,0.4,0.1,0.6c0.8,1.1,2.8,0.8,2.8,2.4l-0.5,2.8C97.2,172.7,96,172.3,94.9,171.8z
	 M94,163.6c0.8,0.1,1.1,1.2,1.4,1.9L94,163.6z M93.6,156.4c0.2,0.4-0.3,0.9-0.3,1.4C92.9,157.3,93.2,156.6,93.6,156.4z M92,150.4
	l1.7-14.1l0.8-1.7c2.2,3.1,0.1,8.2,3.4,10.9c3.8,3.5,4,8.4,5.3,12.8c0,0.2-0.1,0.4,0.1,0.5c-2.4,0.2-0.3-4.3-3.2-2.3l-1-2.2
	c-0.7,0.8,0,1.7,0,2.6l-0.6-0.2c-0.2,0.6-0.2,1.3-0.1,1.9c0.2,0.4,0.4,0.7,0.3,1.2c-0.1-0.4-0.3-0.8-0.3-1.2c-0.7-1.1-2.4-2-2.7-3.6
	l-0.6-0.6c-0.4,1.4,0.9,3.1,0.4,4c0-0.7-0.2-1.4-0.8-1.9c-0.5-1.7,0.4-4.3-0.8-5.8l-1.4,1.5L92,150.4z M90.8,119.7h0.1
	c0.6-1.9,0.6-4.1,1.4-6c-0.1,1.5-0.5,3.1-0.8,4.6l0.3,0.3c0.9-0.8,0.2-2.2,0.8-3.1c0.3,2.4-0.6,5.3,0.2,7.6c0.6-1.7,0.4-3.1,0.4-5.1
	c0.3,0.1,0.1,0.5,0.5,0.4c0.3-1.5,1.2-2.7,2.3-3.9c-0.9,1.6-1.9,3.4-2.1,5.1l3.5-6c-0.3,3.2-2.3,6.5-3.1,9.9l0.1,0.1l3.4-7.8
	c0.3,0.2,0.1,0.8,0.6,0.6c-0.3,3.7-1.3,7.3-1.7,10.8c1.7-3.3,1.5-7.5,2.2-11c-0.5,7.4,3,13.2,4.2,19.9c0.6,3,5.2,4.2,4.4,7.4
	c-0.2,1.7-1.5,3.5-0.6,5.1c-0.2,0.8-0.4,1.9,0.1,2.5c1,6.6,3.3,12.9,6.6,18.6c-1.1,0.1-2.3-1-3.5-1.2c0.3-0.7-0.3-1.1-0.8-1.5
	c-0.5,1.3-0.3,3.1-0.1,4.4l-2.8-0.8c-0.5-7.5-1-14.3-3.7-20.9l0.1-0.9c0.6,1.1,2.1-0.4,2.2,1.2c0.5,0,0.8-0.5,0.9-1
	c0.4-2.5,0.5-5.3,0.3-7.8c-1.2-0.6-1.4-1.8-2.8-2c0.1,0.7-0.8,0.5-1.1,0.8h-0.3c-0.1,1.5,0.8,3.1,1,4.8c-1.5-1.2-0.8-3.8-1.9-5.2
	c-0.4,2.1,0.5,4.2,0.9,6L102,146c-1.3-1.5-0.8-4-1.1-6l-0.8-0.5c-0.4,2.3,0.6,4.8,0.9,6.7c-2.2-2.6-3.9-5.4-3.5-8.9
	c-0.5-3.1-2.7-5.8-2.3-9.3c-0.3-0.1-0.4-0.6-0.8-0.5c-0.3,0.1-0.1,0.5-0.1,0.8c-0.8-2.2-2.1-4.3-2.5-6.5l-0.3,0.3
	c-1.3-0.8,1.1-1.6,0.3-3l-0.6,1.2c-0.1-0.2-0.3-0.1-0.5-0.1V119.7z M91.9,112.3c0-0.1,0.1-0.3,0.1-0.4C92,112.1,92,112.2,91.9,112.3
	c-0.5,1.9-1.5,3.6-1.8,5.7C89.7,116,91.3,114.2,91.9,112.3z M89.1,117.2c0.1-1.8,1-3.3,1.7-4.9c0.2-0.5,0.3-1,0.5-1.5
	c-0.1,0.5-0.3,1-0.5,1.5C90.2,114,89.8,115.6,89.1,117.2z M33.9,110.7c-0.6,1.5-0.6,3.1-1.5,4.4C32.6,113.6,32.9,112,33.9,110.7z
	 M34.5,111.3l-1,2.6C33.5,113.4,34,112.1,34.5,111.3z M35.3,119.3h-0.3l0.3-1.9V119.3z M36.5,111.6c0,1.5-1.1,3-1,4.8
	C35.4,115.2,35,112.7,36.5,111.6z M45.3,122l-0.5,1.7v-0.5L45.3,122z M46.5,120.4l-0.5,3.2C45.7,123.1,45.9,121.3,46.5,120.4z
	 M47,129.2l-0.1-0.6H47V129.2z M48.1,122c-1-0.7-0.8-1.9-0.5-3.1L48.1,122z M49.9,120.1l-1-1.1v2.8c-0.9-0.9-0.9-2.4-0.6-3.6L49,117
	C49.3,118.1,49.9,119,49.9,120.1z M50.8,84.2l-1.1-0.1v-0.3L50.8,84.2z M54.4,90h-0.5l-0.3-2.8C54.6,87.7,54.4,89.2,54.4,90z
	 M68.4,97c-0.8,1.3,0.1,2.8-0.8,4c-0.7-0.8,0.6-3.1,0.1-3.9l-0.6,0.6c0.3-0.8,0.3-1.3,0-2.1c-0.4,0.1-0.6,0.1-0.9-0.5
	c-0.3,0.1-0.5,0.5-0.8,0.6c-0.7-0.8,0.9-3-0.8-2.6c-0.1-1.5-0.9-3-2-4c0.4-0.7,1.2,0,1.5,0v-0.3c0.1,0.2,0.4,0.3,0.6,0.3l-0.4-1
	c3.1,1.6,2.8,5.5,4.5,8v1L68.4,97z M63.5,108.1l-0.5-1.2c0.9,0.4,1.9-1,2.8,0.1c0.6-0.8-1-1.2-0.6-2.1c0.6,0.8,1.4,1.7,2.5,1.5
	l0.3-0.3c0.2,1.2,1,2.3,0.6,3.2c-1,0.3-0.7-1-1.4-1.2l-0.3,0.5c-0.3-0.1-0.4-0.5-0.6-0.5c-0.7,0.4-0.1,1,0,1.4
	c0.6,0.5,1.5,0.9,2.3,0.8c0.3,0.7-0.3,1.6-1.1,2c-1.7,0.1-2.6-1.3-3.7-2.5c0-0.3-0.1-0.8-0.5-0.6c-0.6-0.1-1,0.4-1,0.9
	c-0.4,2.1,2.3,1.1,2.4,2.6c-1.1-0.3-2.2-0.6-2.8-1.7C61.9,109.9,62.1,108.5,63.5,108.1z M61.3,97.2l0.1,0.3c0.2,0.2,0.4,0.3,0.3,0.6
	l-0.3-0.6C61.4,97.4,61.3,97.3,61.3,97.2z M58.7,100.3c0.1-1-0.1-1.3,0.2-2.2c1,0.8,2.3,1.3,2,3v0.4
	C60.1,101.2,59.4,100.8,58.7,100.3z M57.1,100.4c0.9-1.2,0.2-3,0.6-4.3c1.1,0.4,2.4,0.3,3.2,1.2c-0.8,0.8-2.6-1.5-2.8,0.6
	c0.1,1.6-0.9,2.8,0.8,4C58.3,101.6,57.1,101.4,57.1,100.4z M56.2,90.4L55.9,91l0.3-2.1V90.4z M54.4,111.8c0.2-0.3,1.1-1,1.7-1.4
	C56.7,111.7,54.9,111.3,54.4,111.8z M53.1,111.2c0.1-0.7,1-1.2,1.4-1.4C54.5,110.7,53.8,110.9,53.1,111.2z M52.7,110.3
	c0.1-0.5,0.2-1.1,0.8-1.4C53.6,109.2,53.3,110.1,52.7,110.3z M51.3,109.6l0.8-1.4c0.5,0.3-0.1,0.8-0.3,1L51.3,109.6z M50.1,85
	c1.5,1.2,2.6,2.4,3.2,4.2c-0.4,0.7-1-0.1-1.2,0.6C50.4,88.7,50,86.8,50.1,85z M55,150.1c0.2-0.6,1-0.5,1.5-0.3
	c0.2,0.2,0.2,0.4,0.4,0.6L55,150.1z M50.8,143.9c-0.3-2.7-2-4.9-1.5-7.9c0.5,1,1.2,2.6,2.6,3l0.5-0.1c0.9,2.4,1.7,4.9,3,7.2
	c-1,0.5-2.1-0.9-2.5,0.6C51.7,146.3,51.3,144.9,50.8,143.9z M46.5,140.4c0.1-3.1-3.5-5.3-2-8.4l0.1-1.2c0.1,0.1,0.2-0.1,0.3-0.2
	c-0.1-0.8-1.5-1.4-1.7-2.3c-1-2.3-1.3-5.3-0.9-7.8c0.4,1.4-0.3,3.3,0.6,4.5c1.2-0.3,0.8-1.9,1.3-2.8c0.4,1.2-1.4,3.1,0.3,3.9
	l0.3-0.6c1,0.9,0.6,3.5,0.4,5.1c3.8,4.2,2,10.6,5.3,15C49.1,144.3,48.3,141.7,46.5,140.4z M40.9,136.6c0.8,0.3,2.5,0.3,2.8-0.9
	c1.6,2.1,1,5.3,3.5,6.9c0.8,1.7,1.2,3.7,2.8,5.1c-2.1-0.5-4.8-2.1-7.1-2.8c-0.5-1.3-1.3-2.8,0-4C41.8,139.7,42.1,137.8,40.9,136.6z
	 M39.6,143.9c0.6,0.6,1.4-0.6,1.9,0.1c0.3,0.9-0.8,0.3-1,0.8c-0.3-0.3-0.6-0.4-0.9-0.6V143.9z M29.7,131.1c1.4,1.7,3.9,2.3,4.2,4.6
	c-0.6,0-0.9,0.6-0.8,1.2v0.5c-0.9-0.9-2.5-1.2-2.8-2.6c-0.1,0-0.1,0,0,0c0,0,0,0,0,0c0.1,0,0.5,0,0.6,0.2
	C32.5,133.5,30.1,132.5,29.7,131.1z M27.6,125.2c0.4-2.2,1.9-3.9,3.7-5.2c3.5-0.6,2.6,3.4,3.9,5.1c2.5,3.4,1.2,8.3,4.6,11.4
	c-0.3,0.9-1.5,0.3-1.7,1.3l0.4,2.3c-1.1-1.9-2.7-3.7-3.5-5.7C32.2,131.6,28.4,129.2,27.6,125.2z M27.2,118.4c-1,0-1.5-0.8-2.2-1.4
	c0.3-0.5-0.4-0.7-0.6-1.1c-1.9-0.5-2.7-3.1-4.4-4.3c1.3-4.6,1.6-8.4,0.3-13.1c-0.4,1,0.2,2.4-0.5,3.3l-1.2-1.1l-0.3,0.3
	c-0.3-1-0.8-1.3-1.2-2.2C17,99,17.1,99.2,17,99.3c-0.3,0-0.6-0.6-0.9-0.1c-0.4,0.3-0.3,0.7-0.8,0.9c0.4-1.2-1.8-1.1-0.9-2.3
	c-0.7-1.6-0.1-3.5,0-5.2l-1.3,0.9c0.4-1-0.4-1.5-0.1-2.3l-1.1,1.1c0.3-0.8,1-1.7,0.8-2.5l-1.9,1.1c1.9-4,6.6-5.8,9.9-8.8
	c2.6,0.1,6.4-0.5,7.6,2.3c0.4,0.3,1,0.8,1.2,1.3l-0.2,0.1c0.6,0.6,1.5-0.1,1.5,1.1c1.1,0.3,1.5,1.2,1.7,2.1v0.8
	c-0.5-0.5-0.3-1.3-1-1.8c0.3,1.2-0.3,2.7-0.8,3.7L30,90.5c0,0.9,0.6,1.9,0.6,3c-0.6-1.5-1.7-3-3.1-4c-0.4,1.2,1.3,2.4,0.3,3.7
	l-0.3-0.4c-0.1,0.1-0.3,0.2-0.2,0.3l-1.1-0.5L26,93.1L25.8,93c-2.2,1.1,0,3.8-1.3,5.4c-0.1-0.5-0.4-1.2-0.8-1.4l-0.5,0.5
	c-0.3-1.6-1.3-3.2-0.9-4.9c-1,1.8-0.8,4.4-1.1,6.7c0.7,1.9,1.8-0.9,2.6,0.4c-0.2,0.8-0.3,1.3-0.1,2.1c-0.2,0-0.4,0-0.5-0.2
	c-0.5,1.2-0.3,2.2-0.1,3.4l0.1-0.1c0,0.6-0.5,2.1-0.1,3.1c0.2-1.3,0.3-2.6,0.9-3.7l0.2,1.2l0.4-0.8c0.6,0.8,1.3,2.8,1.9,4.2
	l-0.2-0.1v0.9l-0.6-0.3c-0.6,0.6-0.1,1.4,0.3,1.9l1.8,1.4l0.6-1c0.4,0.6-0.1,1.5,0.4,2l0.5-1.2c0.4,0.8-0.8,2.5,0.5,3
	c0.2-0.8,0.1-1.7,0.6-2.5c-0.1,0.6,0.1,1.1,0.3,1.5c0.2-0.1,0.1-0.3,0.1-0.4l0.3,0.4l1.1-2.3c-0.6,1.2-0.1,2.7-0.4,3.9
	c0.6,0.1,1.9-0.1,2.3,0.6l-0.2,1.2C31.7,117.5,29.4,117.5,27.2,118.4z M24.9,99.7c-0.1,0.3-0.4,0.1-0.6,0.2l0.4-0.4
	C24.9,99.5,25,99.6,24.9,99.7z M18.4,124.6c-1.2-3.7,0-7.9,1.1-11.1c0.6,2.6,7,3.3,3.4,6.5c-0.6,1.2-2.1,1.3-2.6,2.1
	c0.6,0.8-0.6,2.2,0.5,3c3.1,2.4,3.4,6.3,5.1,9.4c-1.2-0.8-2.6-2-4-2c-0.4,0.2-0.4,0.8-0.4,1.2c-0.9-0.3-0.2-1.6-0.6-2.3
	C19.9,129.3,17.6,127.3,18.4,124.6z M12.7,121.3c0.2,0.3,0.1,0.6,0.3,0.8l1.1-3.7c0.1,1-0.3,2.3,0.3,3.1l0.3-2.8
	c0.1,1.5,1.2,4,0.8,6.2c1.4,2.8,4.2,4.9,4.2,7.8c-0.8-0.3-0.7,1.2-0.5,1.2c-1.8-1.2-4.6-0.5-5.1-3.4c0.5-2-0.3-4.2-0.4-6.3
	C12.9,123.5,12.6,122,12.7,121.3z"/>
<path fill="#006850" d="M79.5,27.3c-0.4,0.4-1.4,0.3-2,0.1c-1-1.6-3.2-2.1-5-2c-0.5,1-1.8,1.9-1.5,3.1c1.3,0.9,3.1,1.1,4.8,0.8l1.4-1.1
	c0,0.9-1,1.3-1.7,1.5c-1.7,0.1-3.5,0.1-4.6-1.2c-0.7,0.1-0.5,0.9-0.8,1.3c-0.6-0.5,0.4-1,0.3-1.7c-0.6,0.1-1.2,1.4-1.9,1.9
	c-0.6-0.4-0.9-1.2-1.1-1.9c1.4-0.6,1.7-2.5,2.2-3.9l0.3,0.3l0.4-0.5c0.5,0.8,0.5,2.2,0,3.1l0.1,0.1c0.3-0.8,2.8-2.1,0.8-3v-0.3
	c2.3,0.2,4.9,0.8,6.8,2.4c0.3-0.3,0.9-0.1,1.3-0.1C79.9,26.7,79.9,27.1,79.5,27.3z"/>
<path fill="#006850" d="M72.5,27.6l-0.5-0.8c1.4,0.3,3.4-0.6,4.1,0.8C74.9,28,73.8,28.1,72.5,27.6z"/>
<path fill="#006850" d="M62.3,46.6l-1-3.1l-0.1,0.1c-0.1-0.3-0.4-0.6-0.6-1l0.7,2.7C62.1,45.3,61.7,46.4,62.3,46.6z M61.5,45.2
	l-0.3-1.4l0.3,1V45.2z"/>
<path fill="#006850" d="M63,45.3l-0.2,0.5l-1.2-3c1.3,0.6,2.2,2.1,2.3,3.5L63,45.3z"/>
<path fill="#006850" d="M70,46.6c-1.3-0.5-2.6-1.4-3.4-2.6l3.4,2.1V46.6z"/>
<path fill="#006850" d="M60.5,100.8c-0.5,0.3-1.2-0.6-1.3-1.2v-0.8C60,99.2,60.2,100.1,60.5,100.8z"/>
<polygon points="114.2,103.5 114.2,109.8 113.7,101.6 "/>
<path fill="#006850" d="M109.4,117.2c0.7-2.9,1-6.6,1.5-9.9c0.4,2.8-0.4,6-0.6,8.6c1.2-1.3,1.6-3,2.1-4.8c0.3,1.9-0.2,4.1-1.5,5.4
	C110.3,117,109.6,116.3,109.4,117.2z"/>
<path fill="#006850" d="M106,112.7c0.2-0.7,0.7-1.5,1-2.3l0.3-2.6c0.4,2.2,0,3.9-0.6,5.8C106.2,113.8,105.9,113.2,106,112.7z"/>
<path fill="#006850" d="M130.3,109c0.9,0,1.5,0.6,2.1,1.1C131.9,110.3,130.8,109.8,130.3,109z"/>
<path fill="#006850" d="M125.8,110c1.7,0.5,3.2,1.9,4.5,3.1C128.2,113.3,127,111.2,125.8,110z"/>
<path fill="#006850" d="M131.4,111.5c-1.3,0.1-2.2-0.6-3.1-1.4L131.4,111.5z"/>
<path fill="#006850" d="M112.2,115.5l1.5-2.9c-0.2,1.8-0.5,3.8-2.1,4.9C110.9,116.6,112.1,116.3,112.2,115.5z"/>
<path fill="#006850" d="M115.2,113.2c0.3,1.9-0.4,3.5-1.5,4.6c-0.5,0.1-1.2,0-1.1-0.6C113.8,116.3,115,114.8,115.2,113.2z"/>
<path fill="#006850" d="M110.7,122.6l-0.1-0.5c0.3,0.1,0.7-0.1,0.9,0.2L110.7,122.6z"/>
<path fill="#006850" d="M109.1,123.1c0.1,0.5-0.2,0.8-0.3,1.2C108.3,123.8,109,123.5,109.1,123.1z"/>
<path fill="#006850" d="M109.1,126.7c0.4-0.8,0.4-1.9,1.1-2.6C109.8,125,109.7,126,109.1,126.7z"/>
<path fill="#006850" d="M106.5,125.1v0.3l-0.3-0.4C106.3,124.9,106.4,125,106.5,125.1z"/>
<path fill="#006850" d="M108.5,124.9c0.2,0.6-0.3,1.6-0.8,2.3L108.5,124.9z"/>
<path fill="#006850" d="M0.2,130.5c3.3,2,7.3,3.3,9.6,6.6v0.3c-1.3,0-2.3-1.7-3.6-2.3C4.2,133.5,1.4,132.6,0.2,130.5z"/>
<path fill="#006850" d="M100.2,144c-0.8-1.7-0.4-3.8-0.9-5.5l0.5,0.3L100.2,144z"/>
<path fill="#006850" d="M138.7,159.3l0.9,0.4c-0.4,1.2-1.9,2.1-3.2,2.8C135.4,160.3,138,160.6,138.7,159.3z"/>
<path fill="#006850" d="M162,166.3l1.2-1.1l0.2,0.1l0.1-0.1l-0.6-0.6c-3.9-1.3-8.9-1.4-12.9-1l0.8-1.1c-2.4-0.3-4.5-0.3-6.7,0.3
	c0.2-1.2,1.7-1.3,2.4-1.9c-2.5-0.5-4,2.1-6.6,2c-0.1-1.9,1.1-1.8,2.3-3l-0.5-0.3c1-0.1,2.1-0.1,2.3,1c1.7-0.3,4.3-1.1,5.4,0.3
	c0,1.2,1.7,0.3,2.8,0.8c4,1.9,8.9,1.1,12.7,3.5c2.7,0.1,5.3,0.4,7.5,1.5C169,165.7,165.6,165.7,162,166.3z"/>
<path fill="#006850" d="M142.1,177.2c0.7,0,1.3-1.3,2-0.5c1.7-0.7,3.7-1.5,5.4-1.9l-0.2,2.3c6.8,0.2,13.2-0.1,19.5,2.6c0.8,0,1.2-0.4,1.2-1.2
	c-4.6-2.5-9.6-2.9-15.1-3.3c0.7-0.8,2.8-0.1,2.9-1.8c-0.9-2.4-3-0.5-4.6-1.1c0.7-0.8,2.2-1.2,2.1-2.5c-0.1-0.4-0.6-0.4-1-0.6
	c0.3-0.8,1.5-1,1.2-1.7C150.8,170,145.4,172.2,142.1,177.2z M151.9,171l1.7-1.2v0.3L151.9,171z"/>
</svg>
