<svg id="about-goat" version="1.1" id="Layer_1" xmlns="http://www.w3.org/2000/svg" xmlns:xlink="http://www.w3.org/1999/xlink" x="0px" y="0px"
	 viewBox="46 -129.8 512.2 556.4" enable-background="new 46 -129.8 512.2 556.4" xml:space="preserve">
<g id="about-goat-sub-lines">
	<path fill="none" stroke="#00B68C" stroke-width="1.5" stroke-miterlimit="10" d="M157.8-40.6c-0.4-30.7,13.8-76.5,53.5-66.9
		c17.5,4.3,29.7,22.7,16.6,38.7c-11.7,14.3-24.5,11.8-28.7,5.3c-6.9-10.9-1.5-27.7,16-13.9"/>
	<path fill="none" stroke="#00B68C" stroke-width="1.5" stroke-miterlimit="10" d="M158.2,58.5c-0.3-7.6-0.7-22.5-4.2-33.2
		c-3.2-9.8-7.8-19.6-7.3-28.5c0.6-12,8.4-21.8,25.5-24.7"/>
	<path fill="none" stroke="#00B68C" stroke-width="1.5" stroke-miterlimit="10" d="M110.2,54.8c21.5-19.2,21-71.4-0.3-90.2"/>
	<path fill="none" stroke="#00B68C" stroke-width="1.5" stroke-miterlimit="10" d="M326.9,76.2c-8.7,12.8-15.4,28.2-15.6,43.8
		c-0.2,13.3,8.1,51.7,27.6,50.2c27.5-2.2,7.2-36.9,1.5-47.8c-10.5-19.9-13-35.5-8-57.3c-4.1,21.6-20.2,55.5-8.2,77.6
		c5.8,10.7,14.6,13.1,14.9-1.5c0.2-11.1-10.9-33.1-15.3-43.5"/>
	<path fill="none" stroke="#00B68C" stroke-width="1.5" stroke-miterlimit="10" d="M367.9,224.2c58.8-33.8-41.2-115.3-35.5-159"/>
	<path fill="none" stroke="#00B68C" stroke-width="1.5" stroke-miterlimit="10" d="M337.4,63.2c16.5,4.5,27.7,33.5,34.5,47.1
		c9.1,18.3,14.2,36.6,30.7,49.5c17.5,13.7,41.5,22.1,44.8,46.4c2.3,16.6-2.3,31.5-6,47.6c0.3-15.5,0.8-27.7-5.2-42.1
		c-6.4-15.6-18.2-28.9-33.8-39.4c-23.2-15.5-28.4-49.3-42-73.5c-12.8-22.8-26.8-36.6-28.5-37.2"/>
	<path fill="none" stroke="#00B68C" stroke-width="1.5" stroke-miterlimit="10" d="M442.9,259.2c1.6-18.5,18-47.7,12.1-64.5
		c-6.4-17.9-34.1-33.3-47.4-45.7c-13.8-12.8-23.7-27.4-34.2-43c-3.8-5.6-20.2-38.2-28-38.2"/>
	<path fill="none" stroke="#00B68C" stroke-width="1.5" stroke-miterlimit="10" d="M337.6,239.5c15.5-19-5.8-52.6-15.7-69.8"/>
	<path fill="none" stroke="#00B68C" stroke-width="1.5" stroke-miterlimit="10" d="M349.6,234.2c3.5-15.3-1.1-33.5-9.3-46.3"/>
	<path fill="none" stroke="#00B68C" stroke-width="1.5" stroke-miterlimit="10" d="M330.2,242.5c8.4-32.3-5.4-60.8-26-85.7"/>
	<path fill="none" stroke="#00B68C" stroke-width="1.5" stroke-miterlimit="10" d="M285.4,153.7c-19.4,4.3-38.6,14.3-43.2,35
		c-6.7,30,18.2,46.2,24.1,72.2"/>
	<path fill="none" stroke="#00B68C" stroke-width="1.5" stroke-miterlimit="10" d="M283.9,161.2c-11.8,3.6-27.1,11.3-32.8,22.9
		c-10.2,20.5,9.1,39.2,12.8,57.8"/>
	<path fill="none" stroke="#00B68C" stroke-width="1.5" stroke-miterlimit="10" d="M452.4,287.7c-5.2-11.3-5.1-25.6-3.5-38.2
		c2.6-20.7,18.9-36.2,18-57.4c-1.8-41-66.7-34.6-86.7-78.9"/>
	<path fill="none" stroke="#00B68C" stroke-width="1.5" stroke-miterlimit="10" d="M468.6,184.8c-2.1-10-6.2-25-12.4-33.3
		c-13.2-17.8-33.4-12.3-52-19.6c-16.6-6.5-26.4-21.8-36.8-35.5c-4.7-6.2-18.7-31.8-27.9-31.8"/>
	<path fill="none" stroke="#00B68C" stroke-width="1.5" stroke-miterlimit="10" d="M332.9,59.7c20.5-0.8,34.3,26.3,63.8,35.8
		c24.1,7.7,43.2-8.2,57.5-0.8c16.7,8.8,9.3,36.3,14,65.8"/>
	<path fill="none" stroke="#00B68C" stroke-width="1.5" stroke-miterlimit="10" d="M375.2,393.8c11.4-12.8,16.2-23.6,14.4-40.3
		c-2-18.9,1-28.2,8.8-46.1"/>
	<path fill="none" stroke="#00B68C" stroke-width="1.5" stroke-miterlimit="10" d="M390.4,394.7c-5.2-11.4,0.7-31.2,3.2-43
		c3.4-15.3,0.3-26.6,5.8-41.5"/>
	<path fill="none" stroke="#00B68C" stroke-width="1.5" stroke-miterlimit="10" d="M172.9,386.8c10.6-20.8,20.4-68.5-0.7-87.7"/>
	<path fill="none" stroke="#00B68C" stroke-width="1.5" stroke-miterlimit="10" d="M178.9,385.8c6.5-16.4,12.5-33.4,10.2-51
		c-2.4-18.4-4.2-25.3,5.3-42.1"/>
	<path fill="none" stroke="#00B68C" stroke-width="1.5" stroke-miterlimit="10" d="M206.4,194.2c4.7,3.9,1.7,15.3-0.2,21
		c1.8-0.2,6.7-2.7,11.2-2.2c5,0.5,9.7,4.1,11.8,4c-5.4-6.7-13.6-23.3-8.8-30.2"/>
	<path fill="none" stroke="#00B68C" stroke-width="1.5" stroke-miterlimit="10" d="M216.7-77.2c-7.7-26-38.1-4.3-24.7,15.4
		c19,27.8,66.6-12.8,38.9-41.5c-20-20.8-52.8-13.4-66.8,9.9c-4.6,7.6-14.7,39.4-9.9,52.1"/>
	<path fill="none" stroke="#00B68C" stroke-width="1.5" stroke-miterlimit="10" d="M146.8-42.2c-0.7-23.9,5.9-55.5,27.3-69.5
		c23.1-15.2,61.3-10.4,69,20.7c7.3,29.3-36.2,63.2-55.8,30.5c-17.1-28.6,26-46.8,28.3-17.3"/>
	<path fill="none" stroke="#00B68C" stroke-width="1.5" stroke-miterlimit="10" d="M128.2-39.5c5.5-16.2,9.8-37,4.5-53.8
		c-9.6-30.5-54.1-43.2-74.5-13.2c-11.5,16.9-0.1,53.9,24,54.8c34.5,1.3,31.1-43.1-0.3-35.8"/>
	<path fill="none" stroke="#00B68C" stroke-width="1.5" stroke-miterlimit="10" d="M118.4-42.2c6.1-17.6,7.9-41.6-3.8-56.9
		c-10.4-13.5-28.3-16.5-41.5-3.1c-10.7,10.8-6.4,40,13.2,39.7C106.4-62.8,98.8-90,83-86.9c21.7-2.1,30.3,33-0.5,30.7
		c-22.6-1.6-26.8-31.7-18.6-47.3c10-19.2,39.7-19.4,52.8-5.7c17.6,18.4,15.4,46.6,6.5,68.6"/>
	<path fill="none" stroke="#00B68C" stroke-width="1.5" stroke-miterlimit="10" d="M166.9-34.2c-14.4,7.9-24.3,17.9-23.5,35.5
		c0.7,14.5,17,34.2,5.7,48.2"/>
	<path fill="none" stroke="#00B68C" stroke-width="1.5" stroke-miterlimit="10" d="M106.4-30.2c23.4,23.7,19.1,56.6,3.1,81.7"/>
	<path fill="none" stroke="#00B68C" stroke-width="1.5" stroke-miterlimit="10" d="M141.9,42.8c26.6,17.9-4.4,23.5-9.8,36.7
		c-4.8-11.6-24.4-13.5-12.4-27.8C125.2,45.3,138.7,46.5,141.9,42.8z"/>
	<path fill="none" stroke="#00B68C" stroke-width="1.5" stroke-miterlimit="10" d="M186.2,176.5c10.2,13.1,25.2,10.4,36.1-0.5
		c10.2-10.1,9.7-19.8,9.4-33.4c-0.9-41.6,10.1-66.4,51.8-80.1"/>
	<path fill="none" stroke="#00B68C" stroke-width="1.5" stroke-miterlimit="10" d="M322.6,171.2c18.7,4.8,58.1,18,47.3,45.5
		c27.4-40.6-36.6-94.8-39.7-143.2"/>
	<path fill="none" stroke="#00B68C" stroke-width="1.5" stroke-miterlimit="10" d="M304.9,163.8c8.5,15.3,21.3,24.7,19.7,44.7
		c-1.1,13.4-11.1,26.8,6,34"/>
	<path fill="none" stroke="#00B68C" stroke-width="1.5" stroke-miterlimit="10" d="M304.9,171.5c15.4,11,7.3,46.7-2.3,60.3
		c5.6-0.7,14.5-1.2,19,3"/>
	<path fill="none" stroke="#00B68C" stroke-width="1.5" stroke-miterlimit="10" d="M305.2,172.5c6.1,24.9,3.3,35.3-11,54.3
		c-6.8,9-10.5,4.4-3,10c6.8,5,26.8,2.5,34.7,7"/>
	<path fill="none" stroke="#00B68C" stroke-width="1.5" stroke-miterlimit="10" d="M346.9,68.2c16.2,15.3,35.2,45.2,55.2,54.2
		c15.3,6.9,32.7,2.5,47,13.5c13.3,10.3,19.5,30.5,20.4,46.9c-4.5-30.5-11.2-51.3-38.2-67c-14.6-8.5-31.6-9.3-45.7-18
		C372.8,89.9,358.8,77.6,346.9,68.2z"/>
	<path fill="none" stroke="#00B68C" stroke-width="1.5" stroke-miterlimit="10" d="M466.2,206.8c-12,23.7-18,37-12.3,62.3
		c1.5,6.6-3.6,32.8,2,40.2c4.5,6.1,11.2,3.5,13.5-0.8c2-3.9-0.3-8.3-3.4-8.7c-3.1-0.3-3.5,4.2-4.2,3.9c-0.2-0.2,1.9-1.6,3.2-0.6
		c3.7,3-1.2,6.5-4.5,5.2c-9.8-3.9-2-43-3-47c9,7.8-1.9,21.2,9,32.3"/>
	<path fill="none" stroke="#00B68C" stroke-width="1.5" stroke-miterlimit="10" d="M408.1,314.7c-12.7,11.7-16.7,78.8-16.5,78.8
		c7.3,0,5.6-29.5,7.1-37.2c1.4-7.3,11.1-39.5,18.7-42.4"/>
	<path fill="none" stroke="#00B68C" stroke-width="1.5" stroke-miterlimit="10" d="M456.6,317.5c31.6,21.9,19.2,56.3,9.7,87
		c20.8,8.8,9.3-43.1,11.3-54c1.8,18.6,9.6,35.3,5,54"/>
	<path fill="none" stroke="#00B68C" stroke-width="1.5" stroke-miterlimit="10" d="M457.9,320.5c19,28,10.1,53,2.3,76.7"/>
	<path fill="none" stroke="#00B68C" stroke-width="1.5" stroke-miterlimit="10" d="M313.9,49.8c15.6,3.7,29.9-4.2,45.5-5.5
		c18.7-1.6,43-0.5,60.2,8.2s28.7,28,46,34.6c16.9,6.4,44.7,9.6,58.7-3.9"/>
	<path fill="none" stroke="#00B68C" stroke-width="1.5" stroke-miterlimit="10" d="M522.2,88.5c-16.3,9-27.7,16.3-65.7-1"/>
	<path fill="none" stroke="#00B68C" stroke-width="1.5" stroke-miterlimit="10" d="M518.9,94.4c-8.3,3.7-10.7,11.2-28.8,11.8
		c-8.3,0.3-11.4-6.7-19.6-8.3"/>
	<path fill="none" stroke="#00B68C" stroke-width="1.5" stroke-miterlimit="10" d="M455.9,82c-9.3-9.3-45.2-5.4-57.5-9.8
		c-9-3.2-16.2-8.3-25.5-11.3c-10.9-3.5-19.2-2.8-30.3-3.4c17.3,1.9,26.5,7,40.3,16.6c7.5,5.2,29.1,9,38.4,7.4c19-3.3,31.6,2.1,34,0
		c-68.6,22.7-70.6-4.8-97.8-20.8"/>
	<path fill="none" stroke="#00B68C" stroke-width="1.5" stroke-miterlimit="10" d="M313.6,55.8c45.4-8.6,99.6-16.4,135,20.3"/>
	<path fill="none" stroke="#00B68C" stroke-width="1.5" stroke-miterlimit="10" d="M454.9,80.8c-17.8-11.5-38.7-12-57.7-17.6
		c-22.9-6.8-46-5.3-69.3-6c37.9-6,97-5,126.7,23.2"/>
	<path fill="none" stroke="#00B68C" stroke-width="1.5" stroke-miterlimit="10" d="M397.2,286.5c1-25.8-20.8-40.2-38.7-55.3
		c14.9-4.5,28.2-9.4,40.2,2.7c9.4,9.5,3.9,29.3,13.1,36.3"/>
	<path fill="none" stroke="#00B68C" stroke-width="1.5" stroke-miterlimit="10" d="M414.5,284c-16.9-9.4-9.8-27.1-17-34.2
		c-8.8-8.6-15.6-1.1-24.8-6.9"/>
	<path fill="none" stroke="#00B68C" stroke-width="1.5" stroke-miterlimit="10" d="M359.9,229.9c6.7,6.4,9.7,6.8,17.8,7.5
		c7.4,0.7,13-7.5,22.5,8.2c2.6,4.3,3,16.8,8.2,26"/>
	<path fill="none" stroke="#00B68C" stroke-width="1.5" stroke-miterlimit="10" d="M401.2,280.2c-4.6-6.2,0-19.9-4.7-24.9
		c-4.9-5.3-14-1.7-18.4-7.6"/>
	<path fill="none" stroke="#00B68C" stroke-width="1.5" stroke-miterlimit="10" d="M407.9,294.2c2.3-3,7.6,3.8,4,7.2
		c-0.8,0.8-4.4,1.1-6-2c-2.7-5.4,1-13.2,8.3-10.6c11.2,4.1,7.3,19.3-1,21.3c-17.5,4.2-19.3-20-9.6-32.9"/>
	<path fill="none" stroke="#00B68C" stroke-width="1.5" stroke-miterlimit="10" d="M253.6,335.2c7.6,14.7,8.3,40-1.7,59.7"/>
	<path fill="none" stroke="#00B68C" stroke-width="1.5" stroke-miterlimit="10" d="M257.9,335.8c1,12.7,9.3,16.4,11.8,27.6
		c2.1,9.3,0.7,15.7-3.1,24.4c0.5-6.4-4.5-30.7-2.7-35.7c-4.5,12.5,2.3,47-15.3,61.7"/>
	<path fill="none" stroke="#00B68C" stroke-width="1.5" stroke-miterlimit="10" d="M243.2,397.8c15.2-13.7,16.6-47.5,7.7-64.3"/>
	<path fill="none" stroke="#00B68C" stroke-width="1.5" stroke-miterlimit="10" d="M267.2,267.2c9.7-16,3.9-17.8,6.4-27.3
		c2.5-9.4,8.6-16.8,13.3-25.3c9.8-17.6,17.4-35.8,18.6-56.1"/>
	<path fill="none" stroke="#00B68C" stroke-width="1.5" stroke-miterlimit="10" d="M266.6,257.5c-0.5-23.2,11.9-36.7,19.6-57
		c5.3-13.8,1-32.7,0-47.3"/>
	<path fill="none" stroke="#00B68C" stroke-width="1.5" stroke-miterlimit="10" d="M264.6,244c1.5-11.2,34.3-76.2,10.1-74
		c-29,2.7-14.9,52.3-10.4,67.6"/>
	<path fill="none" stroke="#00B68C" stroke-width="1.5" stroke-miterlimit="10" d="M330.2,60.8c-26.1,21.5-33.9,56.5-31.6,88.8
		c2,28.2-7.9,47.4-16.7,73.6"/>
	<path fill="none" stroke="#00B68C" stroke-width="1.5" stroke-miterlimit="10" d="M201.9,193.8c3.2,6.5,8.8,23.6-3.8,33.8
		c9-3,20.5-17,35.5,0.8c-9.6-20.9-13.5-54.1,13.9-62.2"/>
	<path fill="none" stroke="#00B68C" stroke-width="1.5" stroke-miterlimit="10" d="M191.2,188.8c6.7,8,9.3,19.3,10,30.4
		c0.5,7.8-6.6,9.6-6.6,9.6s5.3,0.5,14.7-2.5c9.4-2.9,20.7,2.4,26.4,3.4c-14.8-30-1.8-57.5,13.2-85c17.2-31.3,24.7-81.9,71.7-83.7"/>
	<path fill="none" stroke="#00B68C" stroke-width="1.5" stroke-miterlimit="10" d="M326.6,60.8c-24,4.1-36,18.2-43.9,40.3
		c-8.7,24.5-15.4,41-35.1,62.7"/>
	<path fill="none" stroke="#00B68C" stroke-width="1.5" stroke-miterlimit="10" d="M305.1,75.8c-13.5,14.7-17.2,28.6-22.7,47.6
		c-6.8,23.4-15.2,31.6-36.2,43.8"/>
	<path fill="none" stroke="#00B68C" stroke-width="1.5" stroke-miterlimit="10" d="M283.9,45.2c-17.1,6.8-30.8-0.8-47,8"/>
	<path fill="none" stroke="#00B68C" stroke-width="1.5" stroke-miterlimit="10" d="M305.2,53.5c-23.5-6-28.8-3-52.3,1
		c0.2,0.7,4.4,7.3,5,8c15.8-7.9,40.5-6.9,57.7-5"/>
	<path fill="none" stroke="#00B68C" stroke-width="1.5" stroke-miterlimit="10" d="M342.2,125.8c21.3,28.7,41.7,81.3,24.7,95"/>
	<path fill="none" stroke="#00B68C" stroke-width="1.5" stroke-miterlimit="10" d="M359.6,230.5c4.3-8.3-3-25.7-3-25.7"/>
	<path fill="none" stroke="#00B68C" stroke-width="1.5" stroke-miterlimit="10" d="M246.2,85.5c-26.7,18-32.3,32.3-23.3,59.3
		c3.7,11.1-0.4,42.4-30.7,37"/>
	<path fill="none" stroke="#00B68C" stroke-width="1.5" stroke-miterlimit="10" d="M173.2,25.8c0.5,15.1,17.5,24.7,23.2,37.4
		s4.6,29.6,4.2,43.2c-0.4,14.7,3.1,21.3,8.8,34.5c4.9,11.2,9.3,24.3,0,34.6"/>
	<path fill="none" stroke="#00B68C" stroke-width="1.5" stroke-miterlimit="10" d="M223.1,96c33.8-38.7-35.8-48.7-45.3-79.1
		c8.3,9.2,16.7,18,27.3,24.3c12.5,7.5,21.3,7.8,34.7,14"/>
	<path fill="none" stroke="#00B68C" stroke-width="1.5" stroke-miterlimit="10" d="M238.6,84.8c5.6-14.1-10.1-29-21.7-33.3
		c13.7,1.7,31.2,4.8,34,21"/>
	<path fill="none" stroke="#00B68C" stroke-width="1.5" stroke-miterlimit="10" d="M176.2,20.2c9.5,16.7,26.7,25.5,36.2,41.1
		c13.7,22.5-15.2,38.9-2.6,63.9"/>
	<path fill="none" stroke="#00B68C" stroke-width="1.5" stroke-miterlimit="10" d="M248.6,161.2c16.3-28.7,14.9-31.6,23.1-54.9
		c8.2-23.4,25.8-35.7,47.6-45.8"/>
	<path fill="none" stroke="#00B68C" stroke-width="1.5" stroke-miterlimit="10" d="M168.2,33.5c9.6,7.7,23.2,15.9,31.4,24.5
		c16,16.9,1.9,34.9,1,54.5"/>
	<path fill="none" stroke="#00B68C" stroke-width="1.5" stroke-miterlimit="10" d="M169.2,37.5c6.3,10.3,17.5,11.1,23.3,19.2
		c5.8,7.9,2.4,18.5,0.9,27.2c-4.1,23.8,0.4,45,7.7,68"/>
	<path fill="none" stroke="#00B68C" stroke-width="1.5" stroke-miterlimit="10" d="M216.2,103.2c21.2-29.3,0.5-43.8-20.7-65"/>
	<path fill="none" stroke="#00B68C" stroke-width="1.5" stroke-miterlimit="10" d="M178.9-17.8c-29.8,8-31.3,29-7,45.7"/>
	<path fill="none" stroke="#00B68C" stroke-width="1.5" stroke-miterlimit="10" d="M179.6-11.8c-23.9,1.3-28.4,25.3-5.8,34.7"/>
	<path fill="none" stroke="#00B68C" stroke-width="1.5" stroke-miterlimit="10" d="M97.4-12.8c10.2,1.8,18.1,11.1,17.8,18.2
		c-0.4,7.1-7.3,13.4-19.2,11.8"/>
	<path fill="none" stroke="#00B68C" stroke-width="1.5" stroke-miterlimit="10" d="M54.2-29.2c17.9-5.8,35.9-9.8,49.3,6.7"/>
	<path fill="none" stroke="#00B68C" stroke-width="1.5" stroke-miterlimit="10" d="M172.2-28.8c12.3-7,27.6-8.3,42.7-4.8"/>
	<path fill="none" stroke="#00B68C" stroke-width="1.5" stroke-miterlimit="10" d="M174.9,57.8c5.7,25.5,16.9,46.4,16,73.7
		c2.1-11.7-12-30.3-13.3-44.7"/>
	<path fill="none" stroke="#00B68C" stroke-width="1.5" stroke-miterlimit="10" d="M197.2,269.2c-13.3-22.8-6.9-40.5-11.7-65.1
		c-2.1-10.9-5.8-21.4-6.7-32.5c-0.9-11.6-0.4-24.6-5.3-35.6"/>
	<path fill="none" stroke="#00B68C" stroke-width="1.5" stroke-miterlimit="10" d="M193.9,288.5c3-8.1-1.2-15-4.1-22.5
		c-6.4-16.8-5.9-26.7-6-44.4c-0.1-14.9-6.5-26.6-8.9-41.2c-2-12.3,0.7-19.5-5.3-31"/>
	<path fill="none" stroke="#00B68C" stroke-width="1.5" stroke-miterlimit="10" d="M191.2,224.5c-2.5,14.8,8.5,28,6,43"/>
	<path fill="none" stroke="#00B68C" stroke-width="1.5" stroke-miterlimit="10" d="M184.3,262.5c3.4,6.3,12.9,38.7-3.9,37.4
		c-5.2-0.4-7.2-14.2-2.5-15.9c10.5-3.8,10.3,10.2,4.1,11c-5,0.7-6.2-9.1-2.5-8.9c4.8,0.3,1.8,6-1.2,5.3"/>
	<path fill="none" stroke="#00B68C" stroke-width="1.5" stroke-miterlimit="10" d="M172.9,406.2c0-0.7,6.3-8.4,10.7-18.3
		c4.9-11.1,8-24.5,8.7-23.1c2.2,4.1,0.3,12-0.3,16.5"/>
	<path fill="none" stroke="#00B68C" stroke-width="1.5" stroke-miterlimit="10" d="M195.6,380.2c5.5-27.8-10.5-56.7-1.7-84.7"/>
	<path fill="none" stroke="#00B68C" stroke-width="1.5" stroke-miterlimit="10" d="M100.9,26.5c0,0,19.7-2.2,21.4-10.8"/>
	<path fill="none" stroke="#00B68C" stroke-width="1.5" stroke-miterlimit="10" d="M108.4,38.3c-1.2-5.9-1.3-10.3,13-18.8
		c-10.5,8.5-8.7,19.7-12.1,26.3"/>
	<path fill="none" stroke="#00B68C" stroke-width="1.5" stroke-miterlimit="10" d="M145.9,45.8c10.2-9.8-3.6-28.6-5.3-39.6
		c-1.4-9.1-1.4-34.3,21.8-42.2"/>
	<path fill="none" stroke="#00B68C" stroke-width="1.5" stroke-miterlimit="10" d="M104.9-21.5c11,8,15.5,14.8,17.7,28.3"/>
	<path fill="none" stroke="#00B68C" stroke-width="1.5" stroke-miterlimit="10" d="M92.1-8.1c1.7,0.8,6.5-0.5,12.2,1.9
		c4.2,1.8,7,6.1,7.5,8.3c1.5,7.3-11.3,12.9-18.7,10.7"/>
	<path fill="none" stroke="#00B68C" stroke-width="1.5" stroke-miterlimit="10" d="M168.2,20.5"/>
	<path fill="none" stroke="#00B68C" stroke-width="1.5" stroke-miterlimit="10" d="M171.6,8.7"/>
	<path fill="none" stroke="#00B68C" stroke-width="1.5" stroke-miterlimit="10" d="M127.4,120.7c6-9.3,7-23.4-1.5-29.5
		C117.9,100.3,132.8,112.2,127.4,120.7z"/>
	<path fill="none" stroke="#00B68C" stroke-width="1.5" stroke-miterlimit="10" d="M127.9,139.5c13-17,1.9-34,8.7-49"/>
	<path fill="none" stroke="#00B68C" stroke-width="1.5" stroke-miterlimit="10" d="M121.6,92.8c-1.9,13.3,9,10.3,1.3,31.3"/>
	<path fill="none" stroke="#00B68C" stroke-width="1.5" stroke-miterlimit="10" d="M166.6,38.8c-2.5,16.2,5.9,14.2,10.6,26.4
		c4.1,10.7-5.6,24.4-11.3,32.9"/>
	<path fill="none" stroke="#00B68C" stroke-width="1.5" stroke-miterlimit="10" d="M116.9,55.2c4-3.5,27.7-11,34.7-1.3"/>
	<path fill="none" stroke="#00B68C" stroke-width="1.5" stroke-miterlimit="10" d="M172.1,47.6c2.2,9.6,10.5,12.7,13.9,18.8
		c6.4,11.4,7.7,17.2,5.9,30.4"/>
	<path fill="none" stroke="#00B68C" stroke-width="1.5" stroke-miterlimit="10" d="M183.9,173.2c11.4-8.3,8.8-29.9,5.2-41.5
		c-1.9-6.2-5.8-11.5-10.8-15.9c-6.5-5.7-17.7-4-20.2-14.5"/>
	<path fill="none" stroke="#00B68C" stroke-width="1.5" stroke-miterlimit="10" d="M161.9,86.2c19.3-6.6,0.2-23.2,1.7-37.3"/>
	<path fill="none" stroke="#00B68C" stroke-width="1.5" stroke-miterlimit="10" d="M444.6,287.5c-1.7-11.5-1.7-27.2-7.7-37.4
		c-3.8-6.6-11.4-10.5-15.9-17.2c-11.8-17.9-10.9-40.6-24.5-56.8c-0.1,16.2-1.7,47.2-27.7,50.2"/>
	<path fill="none" stroke="#00B68C" stroke-width="1.5" stroke-miterlimit="10" d="M385.1,224.4c19.6-11.1,19.6-29.9,11.4-46.6"/>
	<path fill="none" stroke="#00B68C" stroke-width="1.5" stroke-miterlimit="10" d="M393.6,224.2c9.7-0.3,17.6-15.8,14.3-25.3"/>
	<path fill="none" stroke="#00B68C" stroke-width="1.5" stroke-miterlimit="10" d="M438.6,250.8c-10.9-12.6-13.4-25.1-19.9-39.9
		c-5.3-11.9-12.5-20.1-18.4-31.8"/>
	<path fill="none" stroke="#00B68C" stroke-width="1.5" stroke-miterlimit="10" d="M464.2,219.2c-3.2,11.4-12.8,30.9-6.7,42.3"/>
	<path fill="none" stroke="#00B68C" stroke-width="1.5" stroke-miterlimit="10" d="M461.6,424.2c20.1-4.8,7.1-19.3,10.3-38.8"/>
	<path fill="none" stroke="#00B68C" stroke-width="1.5" stroke-miterlimit="10" d="M368.9,414.5c11.3-1.5,9.5-23.1,19.5-36.1"/>
	<path fill="none" stroke="#00B68C" stroke-width="1.5" stroke-miterlimit="10" d="M168.2,149.5c-6.4,20.8,3.3,26.9,8.5,45.8
		c4.5,16.6-0.7,40,4.2,59"/>
	<path fill="none" stroke="#00B68C" stroke-width="1.5" stroke-miterlimit="10" d="M117.6,79.8c6.7,6,20.8,8,32.5-4.3"/>
	<path fill="none" stroke="#00B68C" stroke-width="1.5" stroke-miterlimit="10" d="M117.9,84.8c7.3,4.9,16.9,3.7,25,0"/>
	<path fill="none" stroke="#00B68C" stroke-width="1.5" stroke-miterlimit="10" d="M160.4,52.8c5-12.6-0.7-26.1-5.8-37.2"/>
	<path fill="none" stroke="#00B68C" stroke-width="1.5" stroke-miterlimit="10" d="M180.2-15.2c0,0,5.3-10.3,2-16"/>
	<path fill="none" stroke="#00B68C" stroke-width="1.5" stroke-miterlimit="10" d="M184.9-14.5c3.6-5.3,5.6-12.6,2.1-17.5"/>
	<path fill="none" stroke="#00B68C" stroke-width="1.5" stroke-miterlimit="10" d="M193.2-15.9c4.5-6.4,4.4-12.8-2-16.8"/>
	<path fill="none" stroke="#00B68C" stroke-width="1.5" stroke-miterlimit="10" d="M199.8-17.9c3.9-4.4,2.8-9.4-1.1-13.7"/>
	<path fill="none" stroke="#00B68C" stroke-width="1.5" stroke-miterlimit="10" d="M159.9,61.5c-1.6,9.3,2.8,11,9.7,15.3
		c-7.2,1.8-9.9,2.8-13.3-3.3"/>
	<path fill="none" stroke="#00B68C" stroke-width="1.5" stroke-miterlimit="10" d="M159.6,103.2c10.6-1.3,18.2,6.4,24,14.3"/>
	<path fill="none" stroke="#00B68C" stroke-width="1.5" stroke-miterlimit="10" d="M141.9,42.8c-3.6-3.1-10.6-2.1-15.3,0.5"/>
	<path fill="none" stroke="#00B68C" stroke-width="1.5" stroke-miterlimit="10" d="M112.4-39.3c10.4,4.4,21.1,13.7,31,10.5"/>
	<path fill="none" stroke="#00B68C" stroke-width="1.5" stroke-miterlimit="10" d="M265.9,298.5c-10.9-3.2-24.4,23.9-14,30
		c14,8.2,17.2-18.5,6.5-13.1"/>
	<path fill="none" stroke="#00B68C" stroke-width="1.5" stroke-miterlimit="10" d="M58.4-22.7c0,0,11.1-4.5,9.8-5.5"/>
	<path fill="none" stroke="#00B68C" stroke-width="1.5" stroke-miterlimit="10" d="M63.6-18.5c6.5,0.3,9.7-3.3,11.8-8.8"/>
	<path fill="none" stroke="#00B68C" stroke-width="1.5" stroke-miterlimit="10" d="M68.6-13.2c8.4-1,8.7-8.4,14.1-13.8"/>
	<path fill="none" stroke="#00B68C" stroke-width="1.5" stroke-miterlimit="10" d="M75.7-9.7c7.7-2.8,13.6-7.2,14.5-15.3"/>
	<path fill="none" stroke="#00B68C" stroke-width="1.5" stroke-miterlimit="10" d="M87.7-8.8c6.5-2.3,7-6.9,7-13.7"/>
	<path fill="none" stroke="#00B68C" stroke-width="1.5" stroke-miterlimit="10" d="M127.6,38.5c4-4.7,10.2-5.4,16-3.3"/>
	<path fill="none" stroke="#00B68C" stroke-width="1.5" stroke-miterlimit="10" d="M128.4,22.4c0,0,12.2-4.9,14.9-1.9"/>
	<path fill="none" stroke="#00B68C" stroke-width="1.5" stroke-miterlimit="10" d="M128.6,30.2c5.6,1.9,11.3-0.8,15-5.3"/>
	<path fill="none" stroke="#00B68C" stroke-width="1.5" stroke-miterlimit="10" d="M130,11c0,0,4.6-3.5,9.3-1.9"/>
	<path fill="none" stroke="#00B68C" stroke-width="1.5" stroke-miterlimit="10" d="M127.9,24.5c6,3.7,11,1.9,15.5-3.1"/>
	<path fill="none" stroke="#00B68C" stroke-width="1.5" stroke-miterlimit="10" d="M125.7-26.5c3,2.3,9.3,3.5,12.9,2.3"/>
	<path fill="none" stroke="#00B68C" stroke-width="1.5" stroke-miterlimit="10" d="M127.3-22.5c1.8,3.4,8.6,3.4,11.8,0.9"/>
	<path fill="none" stroke="#00B68C" stroke-width="1.5" stroke-miterlimit="10" d="M128.2-16.5c3,1,6.7,2.2,8.9-0.5"/>
	<path fill="none" stroke="#00B68C" stroke-width="1.5" stroke-miterlimit="10" d="M175.6,56c0,0,10.4,34.2,16.7,39.2"/>
	<path fill="none" stroke="#00B68C" stroke-width="1.5" stroke-miterlimit="10" d="M399.3,225.4c6.4,1,12.9-4.5,13.3-10.9"/>
	<path fill="none" stroke="#00B68C" stroke-width="1.5" stroke-miterlimit="10" d="M414.6,101.8c17.9-3.3,33.9-7.5,42.5,10.3
		c6.9,14.3,8.2,35.7,10.6,51.3"/>
	<path fill="none" stroke="#00B68C" stroke-width="1.5" stroke-miterlimit="10" d="M74.2,407.5c8-1.5,5-19.5,6-24.7
		c0.4,2.7,0.7,23.1,3.2,23.5c3.2-9.5-1.2-23.1,5.5-31.5c-1.7,4.7-5.3,18.9-3.1,23c4.9,8.8,5-9.9,5.3-14.5c0.5,2.4,1,21.4,4.4,20.8
		c4.1-0.8,1.2-15.3,0.5-17.8c0.6,0.8,6.2,15.1,6.2,15.1c6,0,7.4-32.1,8-36.7c1.7,13.5,0.8,25-3.2,38.1c13.7-21.9,7.7-44,2.5-67.4
		c16.3,21.3,12.2,42.7,8.1,67.2c5.9-14,5.7-23.3,11.3-37.2c4.8-11.8,14-21,19.2-32.6c-4.7,9.4-29.1,61.4-17.6,68.8
		c0.6,0.4,3.5-21.1,3.6-23.4c1.3,6.9,2.7,13.8,4,20.7c5.5-13.7,3.3-29,3.3-43.3c3.1,14.3-1.7,31.5,2.8,45.3
		c-4.2-13,13.1-56.9,22.5-66.7c-7.7,20.2-16.1,40.6-14,62.7c2.8-10.4,3.2-21.5,7.8-31.4c-0.3,2.9,0.7,23.3,5.5,19.8
		c2.9-2.1,0.6-15,0.1-18.4c3.6,4.7,2.9,11.4,4.3,16.8"/>
	<path fill="none" stroke="#00B68C" stroke-width="1.5" stroke-miterlimit="10" d="M191.9,391.8c6.7-5.7,6.3-8.8,9-17
		c0,7.5-2.7,14.6-2.7,22c5.5-12.6,8.4-25.5,7.3-39.3c3.9,12.7,3.4,27.6-1.1,40c5.3-8.1,4.2-18.1,6.6-24.3
		c-0.4,14.1,0.9,15.4,3.2,29.7c6.2-7.1,9.9-16.8,9.2-26.3c3.7,9.7,1,21-2.5,30.3c11.1-12.7,9.4-28.4,9.3-44
		c7.9,14,1.9,25.2,0.9,39.8c3.7-10.8,7.6-21.5,11.2-32.2c0.5,7.1-6.9,18.4-0.2,24.4"/>
	<path fill="none" stroke="#00B68C" stroke-width="1.5" stroke-miterlimit="10" d="M268.9,408.2c11.6-6.3,9.8-18.9,11.3-30
		c3.8,10.3,2.9,18.1-1.3,28c6.5-8.9,10.7-15.7,8.9-27.1c5.6,9.6-8.4,24.8-2.2,31.8c4-8.7,8-17.3,12-26c1,3.7,3.4,19.3,8.7,19.3
		c-1.2,0-1-23,6.7-33.3c-4.5,14.8-2.6,16.9-2,31.3c9.8-8.6,13-20.4,19.3-31.3c0.3,10.6-4.3,20.8-4,31.3c9-10.3,2.7-18.3,27.3-49.3
		c-8.7,21.7-17.7,39.7-12.7,56c7.4-15.8,10.3-33,16-49.3c-1.4,10.5,2.5,36.3-6.7,43.7c11.5-9.2,10.4-28.1,20-39
		c-4.9,11.7-9.3,23.7-3.3,36c1.6-5.3,3.1-10.7,4.7-16c0.5,4,0.9,8.1,1.2,12.1"/>
	<path fill="none" stroke="#00B68C" stroke-width="1.5" stroke-miterlimit="10" d="M399.9,387.8c0.1-15.7,9.7-24.2,19.2-35.3
		c-7.8,16-14.7,33.7-6.2,51c1.5-15.7,4.4-30.7,12-44.7c-2.7,15.1-7.7,29.1-0.7,44c1.3-12,0-24.2,3.3-36c0.3,2.8,7.4,23.3,3.8,31.1
		c9.3-7,9.1-10.7,9.2-17.2c2.2,7.2,4.8,15.9,7,23.1c8.1-5.7,9.6-15.9,7.9-25c3.8,6.3,1.9,12.7,4,19.3"/>
	<path fill="none" stroke="#00B68C" stroke-width="1.5" stroke-miterlimit="10" d="M490.4,399.2c9.5-20.3,6.8-27.2,14.5-46.3
		c-1.7,20.8-7,33.4-1.8,43.2c-0.2-3.5,6-29.7,7.2-45.2c4.5,14.8,3,34.3-2.4,48.8c7.9-6.5,12.3-24.2,17-30.6
		c-5.5,12.1-4.7,21.7-2,34.5c8.9-15.3,8.7-34.1,18-49.3c-4.4,15.3-7,22.3-9.8,40.2c8.2-18.3,11.2-28.7,23.2-42.8
		c-2.8,5.2-24.5,44.6-17,46.8c2.3,0.7,0.5-2.5,4.3-8.8c-2.7,13.5,11.7,15,5.3,0.7c3.4,2.9,3.3,7.7,6.6,10.6"/>
	<path fill="none" stroke="#00B68C" stroke-width="1.5" stroke-miterlimit="10" d="M280.6,247.9c0,0,8.6-9.9,11.5-12.5
		c4-3.5,10.4-3.6,10.4-3.6"/>
	<path fill="none" stroke="#00B68C" stroke-width="1.5" stroke-miterlimit="10" d="M129.9,16.7c0,0,0-2.2,5.2-2.5
		c5.2-0.3,6.5,1.2,6.5,1.2"/>
	<path fill="none" stroke="#00B68C" stroke-width="1.5" stroke-miterlimit="10" d="M129.4-12.6c0,0,1,1.2,3.2,1.2c2.2,0,4.2-2,4.2-2
		"/>
	<path fill="none" stroke="#00B68C" stroke-width="1.5" stroke-miterlimit="10" d="M154.9-39.8c0,0-9,3.2-13.2,4.8
		c-4.2,1.6-8,2.8-9.8,2.4c-5-1.2-17.7-7.3-17.7-7.3"/>
	<path fill="none" stroke="#00B68C" stroke-width="1.5" stroke-miterlimit="10" d="M254.4,296.2c0,0,7.5-9.8,7.5-20.8
		s-5.8-26.4-10.8-33.5c-7-10-16.5-30.2-16.5-30.2"/>
	<path fill="none" stroke="#00B68C" stroke-width="1.5" stroke-miterlimit="10" d="M248.9,75.7c0,0,4.5-3.2,6.3-7.5s2.7-5.7,2.7-5.7
		"/>
	<path fill="none" stroke="#00B68C" stroke-width="1.5" stroke-miterlimit="10" d="M238.4,53c0,0,3.5,2.2,6.3,2s8.2-0.5,8.2-0.5"/>
	<path fill="none" stroke="#00B68C" stroke-width="1.5" stroke-miterlimit="10" d="M122.9,61.2c0,0,9-2.2,14.2-1.7
		c5.2,0.5,5.8,1.5,5.8,1.5"/>
	<path fill="none" stroke="#00B68C" stroke-width="1.5" stroke-miterlimit="10" d="M125.2,65.7c0,0,2.8-1.3,2.8-3.2
		c0-1.8-1.2-2.3-1.2-2.3"/>
	<path fill="none" stroke="#00B68C" stroke-width="1.5" stroke-miterlimit="10" d="M136.6,66.7c0,0-2.8-2.7-1.7-4.2
		c1.2-1.5,2.2-3,2.2-3"/>
	<path fill="none" stroke="#00B68C" stroke-width="1.5" stroke-miterlimit="10" d="M129.2,60.3c0,0,0.8,0.8,0.5,2.5
		s-2.7,3.8-2.7,3.8"/>
	<path fill="none" stroke="#00B68C" stroke-width="1.5" stroke-miterlimit="10" d="M134.1,59.7c0,0-1.5,0.7-1.5,2.7s1,4.8,1,4.8"/>
	<path fill="none" stroke="#00B68C" stroke-width="1.5" stroke-miterlimit="10" d="M131.6,60c0,0-0.2,3.7-0.7,4.7s-1,2.2-1,2.2"/>
	<path fill="none" stroke="#00B68C" stroke-width="1.5" stroke-miterlimit="10" d="M139.4,60.3c0,0-2.5,1.2-2.8,2.3
		c-0.3,1.2,0.7,2.7,0.7,2.7"/>
	<path fill="none" stroke="#00B68C" stroke-width="1.5" stroke-miterlimit="10" d="M125.9,60.8c0,0,0.7,1.2,0.3,1.7
		s-1.7,1.7-1.7,1.7"/>
	<path fill="none" stroke="#00B68C" stroke-width="1.5" stroke-miterlimit="10" d="M128.7,120.7c0,0-1.2,2.7,1.8-3.3
		s3.2-15.8,5.7-17.5s4.7-12.2,4.7-12.2"/>
	<path fill="none" stroke="#00B68C" stroke-width="1.5" stroke-miterlimit="10" d="M425.1,344.4c0,0,6.4,1.8,6.7-0.2
		s-1.7-1.7-1.7-1.7"/>
	<path fill="none" stroke="#00B68C" stroke-width="1.5" stroke-miterlimit="10" d="M456.5,337.6c0,0-1.2,4.9-3.5,5.2
		c-1.9,0.3-3.3-2.6-3.3-2.6"/>
</g>
<g id="about-goat-top-lines">
	<path fill="none" stroke="#009B77" stroke-width="3" stroke-linejoin="bevel" stroke-miterlimit="10" d="M139.9-38.3
		c-0.8-21.5,3.5-45.9,17.2-63c21-26.3,71.3-37.5,87.9,5.3c11.1,28.6-16.5,61-47.5,51.5c-18.8-5.8-27.6-33-10.4-46.1
		c14.7-11.1,31.8-1.9,29.2,16.2c-16.3-17.7-20.6,11.3-2,8.1c13.4-2.3,11.8-24.3,3-31.6c-10.8-9.1-33.5-2.5-41.1,7.7
		c-10.6,14.2-11,36.1-13.9,52.3C153.4-42.3,147.9-41.7,139.9-38.3z"/>
	<path fill="none" stroke="#009B77" stroke-width="3" stroke-linejoin="bevel" stroke-miterlimit="10" d="M132.4-37.3
		c7.4-24.7,10.5-51.3-3.4-73.3c-16-25.5-62.2-23-76.6,4.8c-13.5,26,2.4,58.3,29.5,59c44,1,24.3-57.5-1.2-39.3
		c0.9-0.6,24.2,12.7,6.8,17.8c-18.6,5.4-15.4-28.5-2.7-32.9c25.1-8.6,30.3,18,31.2,34.2c0.6,10.8-4.1,21.2-3.1,24.6
		C113.9-38.6,120.9-42.1,132.4-37.3z"/>
	<path fill="none" stroke="#009B77" stroke-width="3" stroke-linejoin="bevel" stroke-miterlimit="10" d="M117.4,79.2
		c-1.3,19.9,18.1,12.1,27.2,4.5c11.6-9.5,14.1-19.3,18-33.4c5.1-18.4,23.3-41.1,18.3-61.4c-3.8-15.8-19.5-31.5-34.6-28.9
		c-8.5,1.5-6.7,3.3-15.2,2.8c-9.4-0.6-12.8-7.3-19.2-2.4c-5.3,4.1-7.4,17.6-11.6,23.2C94.2-8.2,88.6-8.2,89.4,1.7
		c1,12.1,14.5,24.1,18.1,35.7C112.1,52.5,106.9,65.4,117.4,79.2z"/>
	<path fill="none" stroke="#009B77" stroke-width="3" stroke-linejoin="bevel" stroke-miterlimit="10" d="M216.6-35.8
		c-17.3-5.8-31.4-1.9-47.7,4.5c7.2,11.6,10.2,22,25.8,15.7C203.5-19.2,210.6-28.7,216.6-35.8z"/>
	<path fill="none" stroke="#009B77" stroke-width="3" stroke-linejoin="bevel" stroke-miterlimit="10" d="M47.2-26.2
		c11.7-5.2,56.6-25.2,58.2-0.7c0.5,8-12.5,18-22,18.6C67.4-7.3,61.9-24.6,47.2-26.2z"/>
	<path fill="none" stroke="#009B77" stroke-width="3" stroke-linejoin="bevel" stroke-miterlimit="10" d="M121.2,91.5
		c-11.6,10.8,5.7,21.6,1.3,34.7c2.7-1.3,4.7-3.3,6-6c0,2.1,1.3,20.2-2.5,20.6c18.7-2.2,11.8-28.3,10.1-40.3c1.3,3,6.3,9.7,7.7,12.7
		c-0.1-1.6-2.7-9.1-2.3-16c0.3-6.9,3.7-14,4.5-14.8C140.6,87.4,128,95.8,121.2,91.5z"/>
	<path fill="none" stroke="#009B77" stroke-width="3" stroke-linejoin="bevel" stroke-miterlimit="10" d="M144.9,60.9
		c-2.6-7.3-17.5-2.5-24.5-3c0,2.5,2.3,2.7,3.2,4.2c0.7,1.1-0.1,3.9,0.9,4.5c3.7,2.3,9.2,1.9,13.9-0.2c0.8-0.4,0.5-3.3,1.2-3.8
		C141.3,61.6,143.8,62.4,144.9,60.9z"/>
	<path fill="none" stroke="#009B77" stroke-width="3" stroke-linejoin="bevel" stroke-miterlimit="10" d="M162.6-37.6
		c-35.3,6.7-25.2,31.7-19.7,58.5c2.4,11.9-0.8,18.3,4.8,27.7c4.8,8,10.2,4.8,7.2,17.2c-1.6,6.7-7,11-13,13.4
		c-9.9,3.9-25.8,1.1-29.3-8.7c-4.9-13.9,12.7-18.5,15-32.3c1.9-11.8,2.4-28.9,1.7-40.9c-0.9-14.3-0.9-32.2-18.9-33.8
		c0.5-1.9,1.6-6.4,2.8-7.9c14.2,8.8,24,2.5,40.7,3.7C155.6-40.7,161.6-39.8,162.6-37.6z"/>
	<path fill="none" stroke="#009B77" stroke-width="3" stroke-linejoin="bevel" stroke-miterlimit="10" d="M179.6,9.7
		c-3.3,17.2-13.8,33.6-19.4,50.3c-4.6,13.8-12.5,18.8-11.5,33.5c0.5,7.5,1.8,16,6.2,22.2c5.3,7.4,18.6,10.9,19.4,21.2
		c0.7,9-11,17.9-13.2,26.8c-2.4,9.9,0.5,18.3,3.7,27.7c5.8,17.5,7.6,28.5,8.8,46.6c0.7,10.5,3.4,19.6,1.5,30.3
		c-2.3,13.2-8.1,23.1-5.5,37c6.9,36.2,13.3,69.8-11.7,101.9c11.2-1.9,25.2,0.8,31.3-3.7c2.5-1.8,2.5-16.3,4.7-20.3
		c7-13,4.1-23.2,2.9-43.6c-1.2-21.8-3-39.6-1.1-61.5c0.3-3.4,10-47,6.1-46.5c5.3-0.7,34.1,2.4,38.3,6.3c8,7.2,8.9,46.7,9.4,58.2
		c0.4,8.9-2.8,17.7-2.8,26.7c0,10.7,3.8,20.7,4.4,31.3c0.6,11.1-1.7,22.4-4.7,33.1c-1.8,6.5-12.5,21.5-12.7,27
		c-0.1,2.5,30.3-1.5,32.8-3.8c7.4-6.6,5.4-34.2,3.1-45.2c-2.5-12-0.1-31.3-0.4-45.1c-0.3-11.7-3.5-17.9-2.5-28.3s7.5-34.3,14.7-42
		c10-10.8,22.9,0.6,38.3-3.7c36.1-10.2,82.1-44.5,106.5,4c6.7,13.2,13.4,26.2,19.5,41c2.4,5.9,4.8,13.5,7,19.3
		c2.6,6.8,5.9,12.9,7.7,19.6c7.5,27.6-3.3,58-0.4,85.4c1.1,10.9-2.1,7,5.3,9.5c2.2,0.7,15.4-1,17.5-2.6c11.5-8.6,6.5-31.3,3.5-43.3
		c-3.8-15.2-10.4-31.2-11.5-46.9c-0.8-11.6,3-22-0.2-33.5c-3.3-11.8-11-20.6-13-33c-4.7-29.9,6.2-57.1,7.5-86.5
		c0.8-18.1,0-36.3,2.1-54.4c0.4-3.6-0.1-13.3,3-16c4-3.4,8.4,3.5,12.7,3.3c23.5-0.7,30-14.1,40.2-32.5c-13.3,9.6-17.5,10.8-32.5,8.3
		c-9.2-1.5-18.4,1-26.8-0.4c-9.4-1.6-12.5-8.9-18.3-16c-26.7-32.7-74.5-37-113.4-26.9c-9.1,2.4-18.5,6.4-28,5.5
		c-19.8-2-30.4-9.8-51.4-5.8C220.8,51.1,201,38.8,179.6,9.7z"/>
	<path fill="none" stroke="#009B77" stroke-width="3" stroke-linejoin="bevel" stroke-miterlimit="10" d="M183.9,177.7
		c21.3,37.2,54.3,2,52.6-28.3c-2.6-44.1,18.6-81.4,64.6-89.1c15.5-2.6,35.9-4.1,50.8,2.1c15.8,6.6,26,22.3,41.6,29.5
		c20.2,9.4,33.1-5.4,52.7-5.7c13.7-0.3,24.6,11.2,31.1,21.2c-14.5-0.3-5,45-8.8,60.7c-10.3-34.9-20.6-57.1-57.6-67.4
		c-14.1-3.9-26.5-4.8-39.4-13.3c-10.3-6.8-28-26.5-41.7-26.1c-42.8,1.4-34.6,78.5-47.2,103.5c-14.2,27.9-21.2,48.6-18,80.6
		c2.1,21.4,7.6,41.7-13.5,55.2c4-9.4,9.1-21.8,7.3-32.1c-2.3-13.8-15.8-23.2-20.3-36.2c-3.9-11.3-5.4-28.9-2.7-40.3
		c3.1-13.1,11.6-21.6,13.7-35.3c4.4-28.3-4.2-54,21.3-73.8c15.9-12.3,37.2-19.1,56.8-22.7c-14-0.4-28.2,0.1-42.1,2.2
		c-24.3,3.6-34.7,14.1-53.6,28.4c-24.5,18.4-25,23.3-16.3,51.1C222.2,164.8,210,189.1,183.9,177.7z"/>
	<path fill="none" stroke="#009B77" stroke-width="3" stroke-linejoin="bevel" stroke-miterlimit="10" d="M166.9,39.7
		c18,27.6,3.5,56.4,19.3,83.2c7.3,12.3,34.3,58.1-2.6,51.5c-0.4-0.1-2.4,11.8-7.8,11.8c-6.9-0.1-3.5,37.2-3.5,37.2s-3.8-37.3,3-38
		c5.6-0.6,8.3-12.6,8.8-13.2c14.1-20.6-17.4-48-24.4-64.3c-4.3-10-8.6-22.3-6.8-32.1C155,64.8,162.7,50.4,166.9,39.7z"/>
	<path fill="none" stroke="#009B77" stroke-width="3" stroke-linejoin="bevel" stroke-miterlimit="10" d="M174.4,248.7
		c25,19.5-10.3,30.4-1.9,49.5c3.9,8.8,10.9,10.6,17.4,0.8c6.8-10.4-1.2-19.2-9-26.5"/>
	<path fill="none" stroke="#009B77" stroke-width="3" stroke-linejoin="bevel" stroke-miterlimit="10" d="M327.4,58.2
		c19.7,22.5,27.1,47.8,40.3,73.9c6.7,13.1,13.8,29.9,24.4,40.4s21.5,12.8,28.2,28c6.7,15.1,10.6,32.3,16.6,47.8
		c4.6,11.9,13.3,26.6,14.4,39.6c0.7,8.3-3.4,36.3,15.2,28.2c10.5-4.6,8.4-15.6,3.4-19.9c-5.4-4.7-17.5,2-8.5,9"/>
	<path fill="none" stroke="#009B77" stroke-width="3" stroke-linejoin="bevel" stroke-miterlimit="10" d="M359.9,231.2
		c31.6-5.2-40.5-59.7-46.6-69.1c-9.8-15.1-11.7-37-6.5-54.3c4.2-13.8,25-29.3,25-43.2"/>
	<path fill="none" stroke="#009B77" stroke-width="3" stroke-linejoin="bevel" stroke-miterlimit="10" d="M351.9,233.9
		c27.3,22.6,44.1,49.1,35.3,85c-3.9,16-1.8,32.8-5,48.9c-3.1,15.4-10.8,33.1-16.7,47.9c9.6-1.3,18.7,1.4,23.5-1.5s5.2-11.2,9-21
		c4.8-12.4,0.6-27.2,4.6-40.8c4.9-16.8,21.1-32.8,21.6-51c0.3-10.8-7.6-18.1-10.6-28.2c-3.5-11.6-6.7-30.8-4.5-42.5"/>
	<path fill="none" stroke="#009B77" stroke-width="3" stroke-linejoin="bevel" stroke-miterlimit="10" d="M408.6,294.8
		c3.3-4.4,7.5-1.3,8.3,2.3c1,4.2-1.6,11.1-8,9.3c-7.7-2.1-9.4-14.6-3.7-19.3c6.2-5.2,18.5-3.9,18.8,12.5c0.4,32.8-58.6,5-11.6-30"/>
	<path fill="none" stroke="#009B77" stroke-width="3" stroke-linejoin="bevel" stroke-miterlimit="10" d="M257.4,316.2
		c5.3,1.4,4.6,6.4,2.3,8.5c-1.9,1.7-5.7,2.8-7.5-3.1c-4-13.3,13.4-19.3,16.3-3.4c1.7,9.1-7.8,24.6-18.7,15.3
		c-5.5-4.8,0.3-26.3,1.1-32.8"/>
	<path fill="none" stroke="#009B77" stroke-width="3" stroke-linejoin="bevel" stroke-miterlimit="10" d="M100.9-15.8
		c19,11.5,28.2,35.6-3,37"/>
	<path fill="none" stroke="#009B77" stroke-width="3" stroke-linejoin="bevel" stroke-miterlimit="10" d="M175.9-18.8
		c-8.9,2.3-20.7,6.5-24,16c-3.6,10.2,6.7,31.5,17.3,34"/>
	<path fill="none" stroke="#009B77" stroke-width="3" stroke-linejoin="bevel" stroke-miterlimit="10" d="M100.4-13.8
		c-8.7-19.5-35.9-12.8-53.2-12.3"/>
	<path fill="none" stroke="#009B77" stroke-width="3" stroke-linejoin="bevel" stroke-miterlimit="10" d="M173.9-23.3
		c10-11.7,23-9,36.5-6"/>
	<path fill="none" stroke="#009B77" stroke-width="3" stroke-linejoin="bevel" stroke-miterlimit="10" d="M169.9,387.2
		c7.9,1.6,17.2-5.1,25.3-5.1"/>
	<path fill="none" stroke="#009B77" stroke-width="3" stroke-linejoin="bevel" stroke-miterlimit="10" d="M240.4,400.7
		c0,0,26.5-11.5,30.5-9.5"/>
	<path fill="none" stroke="#009B77" stroke-width="3" stroke-linejoin="bevel" stroke-miterlimit="10" d="M374.4,395.7
		c0,0,19.5,1,23.5-2.5"/>
	<path fill="none" stroke="#009B77" stroke-width="3" stroke-linejoin="bevel" stroke-miterlimit="10" d="M459.6,406.5
		c7.9-2.3,23.7,0.4,30.8-5.8"/>
	<path fill="none" stroke="#009B77" stroke-width="3" stroke-linejoin="bevel" stroke-miterlimit="10" d="M163.4,5.7
		C177.5-23.6,183.9,18.8,163.4,5.7L163.4,5.7z"/>
	<path fill="none" stroke="#009B77" stroke-width="3" stroke-linejoin="bevel" stroke-miterlimit="10" d="M108.9,3.2
		C86.9-13.2,90.6,19.6,108.9,3.2L108.9,3.2z"/>
	<path fill="none" stroke="#009B77" stroke-width="3" stroke-linejoin="bevel" stroke-miterlimit="10" d="M222.4,44.2
		c10.3,5.5,34.9,19.5,25.5,33.5"/>
	<path fill="none" stroke="#009B77" stroke-width="3" stroke-linejoin="bevel" stroke-miterlimit="10" d="M289.4,46.2
		c12,6.6,28.7,12.5,42.5,12.5"/>
	<path fill="none" stroke="#009B77" stroke-width="3" stroke-linejoin="bevel" stroke-miterlimit="10" d="M182.4,174.7
		c6.7,10.4,8.3,20.6,8.2,32.7c-0.2,11.1-4.4,23.3,11.3,24.3"/>
	<path fill="none" stroke="#009B77" stroke-width="3" stroke-linejoin="bevel" stroke-miterlimit="10" d="M277.4,256.2
		c1.8-9.3,9-23.9,13.8-31.6c7.5-12.2,10.2-24.3,12.4-38.2c3.4-22.3-3.3-45.1,1.3-71.8"/>
	<path fill="none" stroke="#009B77" stroke-width="3" stroke-linejoin="bevel" stroke-miterlimit="10" d="M155.4,70.7
		c2.4,7.9,5.3,19.6,10.1,26.3c4.9,6.9,14.4,12.7,17.9,20.7"/>
	<path fill="none" stroke="#009B77" stroke-width="3" stroke-linecap="round" stroke-linejoin="bevel" stroke-miterlimit="10" d="
		M303.2,407.5c-12.4-17.8-6.2-34.3,3.9-51.1c7.6-12.6,27.6-36.2,21.4-52.3c-7.3-19-43-10.3-38,11.7c2.6,11.5,14.4,11.3,17.6,9.6
		c10.1-5.6,6.3-23.1-4.2-12.6"/>
	<path fill="none" stroke="#009B77" stroke-width="3" stroke-linecap="round" stroke-linejoin="bevel" stroke-miterlimit="10" d="
		M285.4,365.2c4-2.1,6.6,1.1,5,4.5s-7.3,5.9-12-1c-3.6-5.2,1.6-12.1,7-14c7.2-2.5,16.2,1.8,14.1,16.5"/>
	<path fill="none" stroke="#009B77" stroke-width="3" stroke-linecap="round" stroke-linejoin="bevel" stroke-miterlimit="10" d="
		M326.4,349.7c6.5,7.6,9.6-6.9,1-8c-11.8-1.5-13.8,19.4-0.2,20.8c10.9,1.2,16.3-5.9,17.7-12.3c2.4-11.8-11.2-26.8-25-13"/>
	<path fill="none" stroke="#009B77" stroke-width="3" stroke-linecap="round" stroke-miterlimit="10" d="M129.9,400.7
		c-3-15.2-5-31.3-2.6-46.7c3.6-22-8.3-51.5,3.6-71.6c7.8-13.1,20.9-11,25.5-3.6c3.6,5.7,7,18.7-2.3,22c-4.9,1.7-9.9-0.5-11-3.3
		c-1.8-4.8,2.8-13.2,6-6.3"/>
	<path fill="none" stroke="#009B77" stroke-width="3" stroke-linecap="round" stroke-miterlimit="10" d="M108.6,279.5
		c-12.9-8.3-18.1-26.1-34.2-29.3c1.8,18,5.3,23,22,25.6c18.5,2.8,23.4,12.1,29,30.6c-7.7-30.6-39.2,10.7-15.6,17.6
		c8.9,2.6,15.8-9.4,8.1-15.2c-2.6-2-6.5-1.5-8,1.2c-1.8,3.2-0.8,8.7,4.7,7"/>
	<path fill="none" stroke="#009B77" stroke-width="3" stroke-linejoin="bevel" stroke-miterlimit="10" d="M73.3,250.8
		c7.3-2.4,14.8-6.3,21.6-2.1c8.5,5.3,4.2,26.6,12.9,30.3"/>
	<path fill="none" stroke="#009B77" stroke-width="3" stroke-linecap="round" stroke-linejoin="bevel" stroke-miterlimit="10" d="
		M214.6,402c8.3-9.9-2-36-0.4-47.9c1.3-10.2,14.5-33.8,27.8-20.6c9.1,9-3.5,30.7-13.5,21.9c-4.7-4.2-4.6-10.1-1.2-13
		c3-2.6,9.6-2.9,6.8,4.9"/>
	<path fill="none" stroke="#009B77" stroke-width="3" stroke-linecap="round" stroke-linejoin="bevel" stroke-miterlimit="10" d="
		M210.4,328.9c0.4-0.4,1.9-0.2,2.5,1.5c0.9,2.5-0.8,8-6.5,5.2c-6.3-3-5.2-14.6,1.1-16.2c17-4.3,12.9,19.7,8.9,27.1"/>
	<path fill="none" stroke="#009B77" stroke-width="3" stroke-linecap="round" stroke-linejoin="bevel" stroke-miterlimit="10" d="
		M447.2,403.5c-6.6-15.7-6.7-31.5-4.4-48c0.3-2.3,0.5-16.2,5.2-20s9-1.3,9.6,4.4c0.3,2.5-1.1,6.2-5.4,6.2c-2.7,0.1-3.9-3.5-2.7-5.7"
		/>
	<path fill="none" stroke="#009B77" stroke-width="3" stroke-linecap="round" stroke-linejoin="bevel" stroke-miterlimit="10" d="
		M429.5,341.9c0-1.3,0.1-3.1,2.1-3.4c3.3-0.7,4.8,1.5,5,4.3c0.2,2.4-2.5,4.9-6.3,5c-8.7,0.3-9.6-13.5-4-16.3
		c15.3-7.7,16.3,17.1,16.7,23.3"/>
	<path fill="none" stroke="#009B77" stroke-width="2.1082" stroke-linejoin="bevel" stroke-miterlimit="10" d="M174.3-3.3
		c0,0-5.1,1.2-4.2,5.8s6.1,5.3,5.8,2.3S174.3-3.3,174.3-3.3z"/>
	<path fill="none" stroke="#009B77" stroke-width="2.1082" stroke-linejoin="bevel" stroke-miterlimit="10" d="M105.4,1.7
		c0,0-5.2-2.9-4.3,1.6c0.9,4.6,6.4,2.8,6-0.1C106.8,0.2,105.4,1.7,105.4,1.7z"/>
	<path fill="none" stroke="#009B77" stroke-width="2.1082" stroke-linejoin="bevel" stroke-miterlimit="10" d="M102.9,0.2
		c0,0,0,4.5,1.5,5l1.3-2.2L102.9,0.2z"/>
	<path fill="none" stroke="#009B77" stroke-width="2.1082" stroke-linejoin="bevel" stroke-miterlimit="10" d="M174.4,6.2
		c0,0-1.6-1.3-2.2-3.3c-0.2-0.5-0.3-1.1-0.3-1.7c0-3,2.4-4.4,2.4-4.4L174.4,6.2z"/>
	<path fill="none" stroke="#009B77" stroke-width="1.5" stroke-miterlimit="10" d="M76.9,249.8c0,0,8.3-2,13.7,1.3
		c5.3,3.3,10.7,22.3,10.7,22.3"/>
	<path fill="none" stroke="#009B77" stroke-width="1.5" stroke-miterlimit="10" d="M73.9,252.2c0,0,4.3,9.7,9.3,13.7
		s18.7,10,18.7,10s-13.3-8-15.7-12c-1.2-2-11.8-13.7-11.8-13.7"/>
	<path fill="none" stroke="#009B77" stroke-width="1.5" stroke-miterlimit="10" d="M149,291.7c0,0-2.4,2.4-1.4,4.8
		c1,2.3,6.6,4.8,9.2,2.1"/>
	<path fill="none" stroke="#009B77" stroke-width="1.5" stroke-miterlimit="10" d="M115.1,315.9c0,0-3.9-2.3-1-4
		c5.5-3.2,5.8,5.8,5.8,5.8"/>
	<path fill="none" stroke="#009B77" stroke-width="1.5" stroke-miterlimit="10" d="M230.1,355.9c0,0-3.8-6.8-1-8.8s4.6,0.6,4.6,0.6"
		/>
	<path fill="none" stroke="#009B77" stroke-width="1.5" stroke-miterlimit="10" d="M211.1,319.7c0,0-5.6,3.5-5.8,6.8
		c-0.2,4.9,4.9,6.4,4.7,3.3"/>
	<path fill="none" stroke="#009B77" stroke-width="1.5" stroke-miterlimit="10" d="M285,365.5c0,0,2.6,1.9,1.8,3.6
		c-0.8,1.7-7,0.2-7,0.2"/>
	<path fill="none" stroke="#009B77" stroke-width="1.5" stroke-miterlimit="10" d="M299.6,324.9c0,0,9.2-1.5,8.9-6.4
		s-4.6-4.9-4.6-4.9"/>
	<path fill="none" stroke="#009B77" stroke-width="1.5" stroke-miterlimit="10" d="M320.8,358.4c0,0,0.5-7.4,1.8-10.2
		c1.6-3.6,5.2-3.4,5.6-1.9c0.9,3.4-2.1,2.8-2.1,2.8"/>
	<path fill="none" stroke="#009B77" stroke-width="1.5" stroke-miterlimit="10" d="M166.2,18.3c0,0,1.8-2.1,3.7-9.6"/>
</g>
</svg>
