<svg version="1.1" id="home-goat" xmlns="http://www.w3.org/2000/svg" xmlns:xlink="http://www.w3.org/1999/xlink" x="0px" y="0px" viewBox="0 0 573.9 751.6" enable-background="new 0 0 573.9 751.6" xml:space="preserve">
<g id="home-goat-sub-lines">
	<path fill="none" stroke="#01B68C" stroke-width="2" stroke-miterlimit="10" d="M275.7,358.5c12,33.6,23.4,65.5,62.5,71.5"/>
	<path fill="none" stroke="#01B68C" stroke-width="2" stroke-miterlimit="10" d="M268.2,431.5c-10.5-14.5-21-29-31.5-43.5
		c-7,16.9,22.5,36.5,29.9,50.6c7.7,14.5,13.5,30.4,20.1,45.4c-6.4-14-18-32.3-32.3-39"/>
	<path fill="none" stroke="#01B68C" stroke-width="2" stroke-miterlimit="10" d="M193.2,318c-20.8,32.6-28.1,65.9-37.5,103"/>
	<path fill="none" stroke="#01B68C" stroke-width="2" stroke-miterlimit="10" d="M204.7,242.5c-3.2,3.4-9.5,5.9-16.3,12.2
		c-8.5,7.8-18,18.9-25,14.6c-13.8-8.5,5.5-37,10.9-44.7c-5,11.4-1,32.5,14.8,30.8"/>
	<path fill="none" stroke="#01B68C" stroke-width="2" stroke-miterlimit="10" d="M146.7,225.5c-23.8,27.1-40.6,55.2-36.2,92.4
		c3.1,25.9-2.1,50.7-12.5,74.9c-11.5,26.9-67.2,98.8-35.4,127.8"/>
	<path fill="none" stroke="#01B68C" stroke-width="2" stroke-miterlimit="10" d="M235,345c-10-0.5-25.2-10.7-27.3-19
		c20.9-0.2,44.5-0.8,57-17.5"/>
	<path fill="none" stroke="#01B68C" stroke-width="2" stroke-miterlimit="10" d="M272.2,361.5c-1.4,41.1,9.3,74.6,27.5,111"/>
	<path fill="none" stroke="#01B68C" stroke-width="2" stroke-miterlimit="10" d="M287.4,388.5c9,16.6,4.7,35.4,11.7,52.8
		c6.2,15.1,14,19.3,28.1,27.2c-0.5-28.1-19.8-36.8-28.8-61.5"/>
	<path fill="none" stroke="#01B68C" stroke-width="2" stroke-miterlimit="10" d="M222.2,230.5c-30.1,31.7-38.3,61-45.8,103.2"/>
	<path fill="none" stroke="#01B68C" stroke-width="2" stroke-miterlimit="10" d="M315.7,237.5c7.5,17.6,27,19.8,44,17"/>
	<path fill="none" stroke="#01B68C" stroke-width="2" stroke-miterlimit="10" d="M189.4,255.7c-29.9,16.9-23.9,81.2-26.7,110.8"/>
	<path fill="none" stroke="#01B68C" stroke-width="2" stroke-miterlimit="10" d="M262.9,313.4c1-13-0.4-30.8-13.8-36.9
		c-13.9-6.3-29.6,2.2-36,16c7.7-12.1,26.9-45.6,44.2-33.8C271.1,267.9,268,301,262.9,313.4z"/>
	<path fill="none" stroke="#01B68C" stroke-width="2" stroke-miterlimit="10" d="M109.2,500c-1.7,11.9-52.9,66.4-55.9,55.6
		c-1-3.7,18.2-18.4,19.7-19.8c10.5-10.2,19.9-21.5,29.2-32.7c-8.5,4.7-17,9.3-25.5,14c5.3,7.4-4.4,17.7-9.7,23.7"/>
	<path fill="none" stroke="#01B68C" stroke-width="2" stroke-miterlimit="10" d="M120.4,499.7c1,21.8-44.3,62.4-64.3,65.8
		c-34.8,6,9.3-39.4,17.1-47.8"/>
	<path fill="none" stroke="#01B68C" stroke-width="2" stroke-miterlimit="10" d="M127.9,501.5c0,0-25,45-40.5,55.5"/>
	<path fill="none" stroke="#01B68C" stroke-width="2" stroke-miterlimit="10" d="M133.7,505c-8.6,21.2-21.3,38.8-38.4,53.9
		c-3.3,2.9-52.9,39.9-51.9,27.9"/>
	<path fill="none" stroke="#01B68C" stroke-width="2" stroke-miterlimit="10" d="M138.7,507.3c1.4,8.2-6.1,17.2-10.5,22.9
		c-8,10.3-12.6,23.3-21.8,32.7c-8.4,8.4-47.6,39.7-60.7,33.1"/>
	<path fill="none" stroke="#01B68C" stroke-width="2" stroke-miterlimit="10" d="M43,544c-9,15-3.7,29,10,35"/>
	<path fill="none" stroke="#01B68C" stroke-width="2" stroke-miterlimit="10" d="M21.9,554.5c2,3.8,6.8,31.6,12.2,31.2"/>
	<path fill="none" stroke="#01B68C" stroke-width="2" stroke-miterlimit="10" d="M12.7,551c10.5,7.6,10.3,25.1,12.2,37"/>
	<path fill="none" stroke="#01B68C" stroke-width="2" stroke-miterlimit="10" d="M60.9,522.2c-32.1-3.4-6.8-47.4,2.8-65.9"/>
	<path fill="none" stroke="#01B68C" stroke-width="2" stroke-miterlimit="10" d="M158.7,220.5c-6.9,16-28.7,33.6-37.9,51.7
		c-12.5,24.6,5.1,57-10.6,79.3"/>
	<path fill="none" stroke="#01B68C" stroke-width="2" stroke-miterlimit="10" d="M172,213.7c-22,23.7-50.5,55-51.4,86
		c-0.5,17.3,4,30.1-1.2,47.7c-4.7,15.7-12.4,30.7-20.8,44.7"/>
	<path fill="none" stroke="#01B68C" stroke-width="2" stroke-miterlimit="10" d="M81.7,513c9.5-44.6,34.7-70.5,66-101.5"/>
	<path fill="none" stroke="#01B68C" stroke-width="2" stroke-miterlimit="10" d="M130.7,232c-13.9,14.3-20.1,34.2-25.5,53"/>
	<path fill="none" stroke="#01B68C" stroke-width="2" stroke-miterlimit="10" d="M79.2,514c-45.5-8.6,18.9-102.4,21.5-126.5"/>
	<path fill="none" stroke="#01B68C" stroke-width="2" stroke-miterlimit="10" d="M109.7,306.7c5.5,43.9-24.1,98.2-44,135.5
		c-11.8,22.1-32.4,83-63.5,83.8"/>
	<path fill="none" stroke="#01B68C" stroke-width="2" stroke-miterlimit="10" d="M5.2,516c27.1-10.4,35.8-42.8,46.6-67
		c18.9-42.3,50.4-74.5,49.4-133.5"/>
	<path fill="none" stroke="#01B68C" stroke-width="2" stroke-miterlimit="10" d="M139.2,322c-5.4-32.1,7.1-56.6,26.2-82.3"/>
	<path fill="none" stroke="#01B68C" stroke-width="2" stroke-miterlimit="10" d="M259.2,209.5c-20.6,11.2-36,34.6-45.5,55"/>
	<path fill="none" stroke="#01B68C" stroke-width="2" stroke-miterlimit="10" d="M154,319.7c-10,52-41.8,84.7-62.3,122.3"/>
	<path fill="none" stroke="#01B68C" stroke-width="2" stroke-miterlimit="10" d="M123.7,488c24.8-6.7,48.7-4.1,72.5,4.5"/>
	<path fill="none" stroke="#01B68C" stroke-width="2" stroke-miterlimit="10" d="M118.2,491c13.9-3.3,26.3,6.6,40,7.5
		c11.3,0.8,23.5-2.7,34.5-5"/>
	<path fill="none" stroke="#01B68C" stroke-width="2" stroke-miterlimit="10" d="M116.2,493.5c7.5-3.9,11.4,6.2,17.3,9.8
		c9.6,5.8,17,2.7,26.8,6"/>
	<path fill="none" stroke="#01B68C" stroke-width="2" stroke-miterlimit="10" d="M208.2,486c-29-21.1-45.9-3-75.5,0"/>
	<path fill="none" stroke="#01B68C" stroke-width="2" stroke-miterlimit="10" d="M231.7,473.5c-19.1,8.7-41.6-12.7-64-6"/>
	<path fill="none" stroke="#01B68C" stroke-width="2" stroke-miterlimit="10" d="M136,531c-7.8,13.1-6,43.7,5,54.3"/>
	<path fill="none" stroke="#01B68C" stroke-width="2" stroke-miterlimit="10" d="M96.2,585.5c29.7,14,39.7,51.4,49.5,80"/>
	<path fill="none" stroke="#01B68C" stroke-width="2" stroke-miterlimit="10" d="M72.2,600c13.9,27.7,43.7,41.4,53.5,72.5"/>
	<path fill="none" stroke="#01B68C" stroke-width="2" stroke-miterlimit="10" d="M103.2,580.5c18.4,7.3,29.6,32.5,37,49.5"/>
	<path fill="none" stroke="#01B68C" stroke-width="2" stroke-miterlimit="10" d="M125.7,547.5c-7.9,22.1,10.7,44.6,17,64.9
		c7.2,23.3,6.8,49,5.5,73.1"/>
	<path fill="none" stroke="#01B68C" stroke-width="2" stroke-miterlimit="10" d="M135.4,695.3c-1.8-24.1-12-62.7-35.7-74"/>
	<path fill="none" stroke="#01B68C" stroke-width="2" stroke-miterlimit="10" d="M95,644c12.7,24,25.7,32.5,37.4,57.8
		c-2.8-17.3-12-31.9-23.3-44.8c-14.4-16.5-25.6-44.6-45.9-54"/>
	<path fill="none" stroke="#01B68C" stroke-width="2" stroke-miterlimit="10" d="M107.4,574c0,0,19.7,4.7,22.8,21"/>
	<path fill="none" stroke="#01B68C" stroke-width="2" stroke-miterlimit="10" d="M142,526.3c-7.3,16.5-11.3,34.2-1.8,54.7"/>
	<path fill="none" stroke="#01B68C" stroke-width="2" stroke-miterlimit="10" d="M80.7,595.2c9.2,11.3,29.2,10,48.8,40.2
		c-6-14-27.2-39.5-41.8-45.5"/>
	<path fill="none" stroke="#01B68C" stroke-width="2" stroke-miterlimit="10" d="M138.2,686c-1-22.9-13.1-42.7-22.5-63"/>
	<path fill="none" stroke="#01B68C" stroke-width="2" stroke-miterlimit="10" d="M213.7,417c-10.6,22.4,1.8,41.7,19.5,55.5
		c-14.8-15.1-28.1-25-49.5-26.5"/>
	<path fill="none" stroke="#01B68C" stroke-width="2" stroke-miterlimit="10" d="M202.2,356c-10.7,12.2-9.6,28.8-16.3,42.8
		c-6.6,13.9-18.3,26.3-26.7,39.2c15.6-9.3,29.6-19.6,36.6-37.2c6.7-16.8,2.7-35.1,14.4-50.3"/>
	<path fill="none" stroke="#01B68C" stroke-width="2" stroke-miterlimit="10" d="M254.4,349.3c-18,9.5-27.1,42-36.7,58.7"/>
	<path fill="none" stroke="#01B68C" stroke-width="2" stroke-miterlimit="10" d="M391.2,288.5c0,0-17,9-30,3.5"/>
	<path fill="none" stroke="#01B68C" stroke-width="2" stroke-miterlimit="10" d="M309.7,236.5c-6.8,13.3-17.8,23.3-19,39
		c7.2-12.6,19.5-10.8,32-9.5"/>
	<path fill="none" stroke="#01B68C" stroke-width="2" stroke-miterlimit="10" d="M382.2,260.5c-11.1,12.1-37.2,6.4-46-6"/>
	<path fill="none" stroke="#01B68C" stroke-width="2" stroke-linecap="square" stroke-linejoin="bevel" stroke-miterlimit="10" d="
		M360.7,249c-14.6,8.1-31.7-1.9-44.5-9.5c13.4,19.6,31.2,34,56,33.5c-28.1,9.4-51.4-13.3-62.5-36.5c-9.7,28.5,63.5,66.1,73.5,41"/>
	<path fill="none" stroke="#01B68C" stroke-width="2" stroke-miterlimit="10" d="M271.7,212c9.5,30.7,8.8,66.6,7.5,98.5
		c-0.8,19.2-2.3,32.8,7,50.5c5.9,11.2,16.1,33.2,31.5,32"/>
	<path fill="none" stroke="#01B68C" stroke-width="2" stroke-miterlimit="10" d="M286.7,281c17.2,6.8,21.7,23.8,34.5,35.5"/>
	<path fill="none" stroke="#01B68C" stroke-width="2" stroke-miterlimit="10" d="M263.2,306c0.9-28.7-12.3-52.4-41.4-27.1"/>
	<path fill="none" stroke="#01B68C" stroke-width="2" stroke-miterlimit="10" d="M479.7,339.5c-14.3,18.3-49.8,18.4-66.4,18
		c-26.4-0.7-38.2-6.8-58-23"/>
	<path fill="none" stroke="#01B68C" stroke-width="2" stroke-miterlimit="10" d="M472.5,349.5c-43.8,28-75.2,13.8-106-3.7"/>
	<path fill="none" stroke="#01B68C" stroke-width="2" stroke-miterlimit="10" d="M473.7,363.7c-9.8,15-28.4,29.3-44.8,33.8
		c-12.1,3.3-24.5,3.1-34.8-4.9c-7.8-6.1-9.8-16.7-16.8-23.4c-11.9-11.5-33.1-13.3-46.5-16.7c-13.4-3.3-16.6-4.4-25.5-14.9
		c-3.3-3.8-12.9-21.3-18.7-22.1"/>
	<path fill="none" stroke="#01B68C" stroke-width="2" stroke-miterlimit="10" d="M192.7,331c-13.3,14.8-5.6,43.2-19,59.5"/>
	<path fill="none" stroke="#01B68C" stroke-width="2" stroke-miterlimit="10" d="M218.2,352c-11.8,12.2-12.5,32.7-20.8,48"/>
	<path fill="none" stroke="#01B68C" stroke-width="2" stroke-miterlimit="10" d="M230.7,382c-14.5,17.9-33.3,35.1-50,51"/>
	<path fill="none" stroke="#01B68C" stroke-width="2" stroke-miterlimit="10" d="M392.7,420.5c-30.2,9-68.7,1.6-86.8-26.5"/>
	<path fill="none" stroke="#01B68C" stroke-width="2" stroke-miterlimit="10" d="M370.2,413c-19.1,4.9-36.1,0.6-53.7-7.5
		c19.9-12.7,32.4,5.9,51.7,6"/>
	<path fill="none" stroke="#01B68C" stroke-width="2" stroke-miterlimit="10" d="M320.7,359.5c26.4,9.4,27.3,33.8,50.2,48.3
		c2.1,1.3,34.8,16.1,38,11.9c-4.3,5.8-30.4-16.4-32.4-19c-9.6-12-12.4-26.9-26.1-35.6c-14.3-9.1-40.7-1.3-47.3-19.4"/>
	<path fill="none" stroke="#01B68C" stroke-width="2" stroke-miterlimit="10" d="M478.9,358.7c-14.2,23-46.1,51.4-66.8,52
		c-15.9,0.4-23.7-11.1-30.1-22.8c-7.4-13.5-16.2-22.4-29.7-30.8"/>
	<path fill="none" stroke="#01B68C" stroke-width="2" stroke-miterlimit="10" d="M481.2,336c-27.9,9.9-54.8,14.1-83.9,5
		c-17.4-5.5-38.6-12-54.8-20.2c-9.9-5-28.5-16.3-31.9-27.8"/>
	<path fill="none" stroke="#01B68C" stroke-width="2" stroke-miterlimit="10" d="M290.7,278c11.3-0.3,15.4,9.8,23.9,15.1
		c13.2,8.2,29.2,9.7,44.3,11.5c29.9,3.6,51.3,17.2,81.3,3.9c-17.4,11.7-47.1-1.2-65.9-5.1c-24.1-5-38.2-16-58.1-27.9"/>
	<path fill="none" stroke="#01B68C" stroke-width="2" stroke-miterlimit="10" d="M436.7,315c-44.1,17.2-86.2,3.4-113-34.5"/>
	<path fill="none" stroke="#01B68C" stroke-width="2" stroke-miterlimit="10" d="M382.7,368.5c36,25.4,69.4,18.8,96-16.5"/>
	<path fill="none" stroke="#01B68C" stroke-width="2" stroke-miterlimit="10" d="M382.7,365.5c34.6,14.8,66.2,19,92.5-16.7"/>
	<path fill="none" stroke="#01B68C" stroke-width="2" stroke-miterlimit="10" d="M455.7,344c-28-9.7-65.1-12-94.4-15.1"/>
	<path fill="none" stroke="#01B68C" stroke-width="2" stroke-miterlimit="10" d="M455.9,321.2c-12.5,16.8-49.2,7.2-49.2,7.2"/>
	<path fill="none" stroke="#01B68C" stroke-width="2" stroke-miterlimit="10" d="M283.2,314.5c17.1,1.5,54.1,20.3,57.5,39
		C334.7,327.2,309.4,311.5,283.2,314.5c13.4,13.9,25.9,32.5,18.5,52.5"/>
	<path fill="none" stroke="#01B68C" stroke-width="2" stroke-miterlimit="10" d="M302.2,370.5c17.6-8.3,31.4,11.3,41,23"/>
	<path fill="none" stroke="#01B68C" stroke-width="2" stroke-miterlimit="10" d="M300.2,374c12.2,11.9,35,6.7,45,20"/>
	<path fill="none" stroke="#01B68C" stroke-width="2" stroke-miterlimit="10" d="M505.4,364c-38-11.5-54.2,70.3-92.1,64.5
		c-8.1-1.2-35.3-8.9-16.8,6.3c7.6,6.2,36.2,12.5,42.7,3.2"/>
	<path fill="none" stroke="#01B68C" stroke-width="2" stroke-miterlimit="10" d="M421.7,448c-36.8-18-59.5,22-94.5,20.5
		c33.7,10.8,59.8-32.6,96-16.5"/>
	<path fill="none" stroke="#01B68C" stroke-width="2" stroke-miterlimit="10" d="M339,428.3c-3.8,8.4-22.2,4-28.8-1
		c2.9,11.8,8.5,30.9,16,40.8"/>
	<path fill="none" stroke="#01B68C" stroke-width="2" stroke-miterlimit="10" d="M317,462.3c-16.6-5.9-11.7-45.7-21.2-59.3"/>
	<path fill="none" stroke="#01B68C" stroke-width="2" stroke-miterlimit="10" d="M308.9,426.7c10.2,6.9-1.1,41.6,18.3,41.8
		c21.5,0.3,14.5-39.7,40.5-35.5"/>
	<path fill="none" stroke="#01B68C" stroke-width="2" stroke-miterlimit="10" d="M528.7,369.5c-30.5,9.9-25.1,40.2-40.7,62.7
		c-15.2,21.9-43.4,22.1-67.8,20.8c47-1.7,58.7-81.8,106.5-84.5"/>
	<path fill="none" stroke="#01B68C" stroke-width="2" stroke-miterlimit="10" d="M542.7,371.5c-23.8,5.6-23.3,29-26.1,48.7
		c-3.2,22.8-22.4,40.2-45.9,44.3c17.9,0.1,44.8-5.4,55.6-21.2C540.5,422.3,526.5,392.7,542.7,371.5z"/>
	<path fill="none" stroke="#01B68C" stroke-width="2" stroke-miterlimit="10" d="M498.2,469.5c15.1-7.8,33.2-16.2,43.8-29.8
		c16.3-20.7,5.1-45.2,0.7-68.2"/>
	<path fill="none" stroke="#01B68C" stroke-width="2" stroke-miterlimit="10" d="M425.2,453c19.8-7.6,41.1-14.9,53.8-32.5
		c15.4-21.4,21.3-46.3,49.7-53"/>
	<path fill="none" stroke="#01B68C" stroke-width="2" stroke-miterlimit="10" d="M446.7,428.5c18.5-27.2,38.1-41.2,66.5-57
		c-16.6,2.4-32.6,6.8-45.5,18"/>
	<path fill="none" stroke="#01B68C" stroke-width="2" stroke-miterlimit="10" d="M378.7,436c-27.8-8.3-25.8,33.3-49,34
		c13.4,6.9,33.2,5.3,47.3,1"/>
	<path fill="none" stroke="#01B68C" stroke-width="2" stroke-miterlimit="10" d="M239.2,383c15.5,11.9,21.5,28.2,28,46"/>
	<path fill="none" stroke="#01B68C" stroke-width="2" stroke-miterlimit="10" d="M262.7,345.7c-5.6,17-9.5,47-3,64.3"/>
	<path fill="none" stroke="#01B68C" stroke-width="2" stroke-miterlimit="10" d="M223.7,406.5c0.2,20.8,5.7,46.6,20.8,61.9
		c12.4,12.7,30.4,18.7,43.2,32.1"/>
	<path fill="none" stroke="#01B68C" stroke-width="2" stroke-miterlimit="10" d="M217.2,482c37.7-6.3,67.3,27.4,86.5,55"/>
	<path fill="none" stroke="#01B68C" stroke-width="2" stroke-miterlimit="10" d="M409.7,519.5c14.6,3.6,31.6,9.3,46.7,8.1
		c13.7-1.2,38.9-19,51.8-13.1"/>
	<path fill="none" stroke="#01B68C" stroke-width="2" stroke-miterlimit="10" d="M355.7,529.5c18.5-4.2,26.3-11.8,38.6-25.1
		c14.4-15.5,34.9-19,55.4-19.4"/>
	<path fill="none" stroke="#01B68C" stroke-width="2" stroke-miterlimit="10" d="M508.2,489.5c-21,22.7-41.3,1.3-65.5,6.7
		c-15.4,3.4-32.1,16-46.5,22.8"/>
	<path fill="none" stroke="#01B68C" stroke-width="2" stroke-miterlimit="10" d="M544.7,457.5c-4.8,31-16.4,45.2-48.5,49
		c7.3,0,14.7,0,22,0c-10,2.3-20,4.7-30,7"/>
	<path fill="none" stroke="#01B68C" stroke-width="2" stroke-miterlimit="10" d="M429.9,468.7c-35.8-7.5-48.6,8.6-73.6,27.3
		c-21.5,16.1-41,8.4-62.3-3.4"/>
	<path fill="none" stroke="#01B68C" stroke-width="2" stroke-miterlimit="10" d="M279.2,455.7c6.8,10.8,12.5,21,10.2,34"/>
	<path fill="none" stroke="#01B68C" stroke-width="2" stroke-miterlimit="10" d="M369,475.7c-14.9,21.7-47.8,35.7-72.6,18.6"/>
	<path fill="none" stroke="#01B68C" stroke-width="2" stroke-miterlimit="10" d="M287.4,466.7c13.2,10.8,40.6,36.7,59.6,28.3"/>
	<path fill="none" stroke="#01B68C" stroke-width="2" stroke-miterlimit="10" d="M425.7,468c-23.2,3.5-36.4,17-50,32.3
		c-18.1,20.4-37,18-60,2.4"/>
	<path fill="none" stroke="#01B68C" stroke-width="2" stroke-miterlimit="10" d="M298.4,495.3c18.2,3.9,43.2,18.3,60.7,9.3
		c11.6-6,26.6-31.3,61.9-36.6"/>
	<path fill="none" stroke="#01B68C" stroke-width="2" stroke-miterlimit="10" d="M465.7,548.7c-26.9-14.3-41.2-11.2-67.2,2.5
		c-26.9,14.2-56.6,14.4-79.1-10.2"/>
	<path fill="none" stroke="#01B68C" stroke-width="2" stroke-miterlimit="10" d="M475.4,554.3c-45.1-30.1-97.1,50-142,6.3"/>
	<path fill="none" stroke="#01B68C" stroke-width="2" stroke-miterlimit="10" d="M329.9,550.7c13.8,18.9,29.4,33.7,54.5,36.2
		c34.1,3.4,58.1-44.7,89.6-33"/>
	<path fill="none" stroke="#01B68C" stroke-width="2" stroke-miterlimit="10" d="M447.7,541.3c-12.3-7.3-30-9-44.3-1.7
		c-6.9,3.5-16.4,17.3-23.5,19.5c-17.1,5.3-24.2-13-38.1-20.5c-12.7-6.9-23.2-8.4-33.2-19.1c-8-8.6-14.2-19.9-20.5-29.9
		c16.2,20.6,45.9,33.5,61.3,54"/>
	<path fill="none" stroke="#01B68C" stroke-width="2" stroke-miterlimit="10" d="M437,535c-18.8-14.9-39.7,7.3-58.4,9.9
		c-14.5,2-28.6-8.5-40.3-16.2"/>
	<path fill="none" stroke="#01B68C" stroke-width="2" stroke-miterlimit="10" d="M314.7,533.7c10.3,8.6,34.5,6.7,42.7,18.3"/>
	<path fill="none" stroke="#01B68C" stroke-width="2" stroke-miterlimit="10" d="M342.4,530.7c25.8,8.5,53.9,8,80-0.7"/>
	<path fill="none" stroke="#01B68C" stroke-width="2" stroke-miterlimit="10" d="M317,536.7c12.9,11.8,31.2,9.3,45,19"/>
	<path fill="none" stroke="#01B68C" stroke-width="2" stroke-miterlimit="10" d="M441.7,486.2c-26.3,0.8-44.7,31.1-75,40.1"/>
	<path fill="none" stroke="#01B68C" stroke-width="2" stroke-miterlimit="10" d="M476,555.3c-12.1,23.8,4.3,62.3-17.2,81
		c-26.1,22.8-29.8-31.8-46.4-33.7"/>
	<path fill="none" stroke="#01B68C" stroke-width="2" stroke-miterlimit="10" d="M410.7,599.3c27,20.4,57.7,10.3,62.7-38"/>
	<path fill="none" stroke="#01B68C" stroke-width="2" stroke-miterlimit="10" d="M376.2,595.5c45,12.5,30.7,82.3,70.5,71.2"/>
	<path fill="none" stroke="#01B68C" stroke-width="2" stroke-miterlimit="10" d="M314.7,537.7c16.3,29.1,30.7,59.8,37,92.8"/>
	<path fill="none" stroke="#01B68C" stroke-width="2" stroke-miterlimit="10" d="M337.4,567.7c12.5,18.8,13.7,39.4,23.8,58.9
		c15.2,29.4,42.5,34.4,79.5,42.4"/>
	<path fill="none" stroke="#01B68C" stroke-width="2" stroke-miterlimit="10" d="M443.7,667.5c-22.4,0.3-52.7-17.8-63.7-36.2
		c-11.4-19.2-23.8-36.9-35.7-55.7c11.8,12.1,23.5,25.5,37.2,35.5c23.1,17,15.4,21.8,29.1,46.8"/>
	<path fill="none" stroke="#01B68C" stroke-width="2" stroke-miterlimit="10" d="M367.7,748.5c-11.5-11.4-26.2-25.6-31.5-41.2
		c-6.6-19.3,1.2-45.2-10.1-63.3"/>
	<path fill="none" stroke="#01B68C" stroke-width="2" stroke-miterlimit="10" d="M293,587.7c8.9,19.1,17.8,38.3,21.2,59.2
		c4.6,29,10.8,66.1,37.8,83.1"/>
	<path fill="none" stroke="#01B68C" stroke-width="2" stroke-miterlimit="10" d="M331.7,660.3c-1,13.6,12.7,24,15.8,37.1
		c3.4,14,0.2,29.6,10.5,41.6"/>
	<path fill="none" stroke="#01B68C" stroke-width="2" stroke-miterlimit="10" d="M387.7,701.3c-6.6-8.7-13.2-17.5-19.3-26.6
		c-9.2-13.8-9.7-28.7-17-42.7"/>
	<path fill="none" stroke="#01B68C" stroke-width="2" stroke-miterlimit="10" d="M203.7,488c50.4,12.8,94.3,52.4,123.5,109.5
		c21.5,42,42.5,88.7,55.5,98"/>
	<path fill="none" stroke="#01B68C" stroke-width="2" stroke-miterlimit="10" d="M201.7,490.3c30.8,8.3,47.6,17.1,68.5,41.3
		c11.2,13,18.4,26.5,25,42.3c3.5,8.4,7.4,32.6,14.5,38.5"/>
	<path fill="none" stroke="#01B68C" stroke-width="2" stroke-miterlimit="10" d="M381.7,696c-27.2-23.4-47.6-49.9-59-83.9
		c-11-32.7-36-67.5-59-94.1"/>
	<path fill="none" stroke="#01B68C" stroke-width="2" stroke-miterlimit="10" d="M260.7,515.7c12,7,29.2,10.1,39,20.2"/>
	<path fill="none" stroke="#01B68C" stroke-width="2" stroke-miterlimit="10" d="M266.4,519.5c34,13.8,64.8,71.5,81.8,104.5"/>
	<path fill="none" stroke="#01B68C" stroke-width="2" stroke-miterlimit="10" d="M221.4,134.7c31.6-5.4,56.3,9.3,56.7,45.7"/>
	<path fill="none" stroke="#01B68C" stroke-width="2" stroke-miterlimit="10" d="M267.2,79.5c12.9,1.8,24.3,4.6,32.4,15.5
		c10.8,14.5,9.4,29.3,7.1,43.5"/>
	<path fill="none" stroke="#01B68C" stroke-width="2" stroke-miterlimit="10" d="M323.7,45c6.7,4.7,16.1,11.5,21.7,20
		c5.1,7.8,8.3,33.7,1.7,43"/>
	<path fill="none" stroke="#01B68C" stroke-width="2" stroke-miterlimit="10" d="M329.7,42.7c30,6.3,36.6,38.2,29.3,64.3"/>
	<path fill="none" stroke="#01B68C" stroke-width="2" stroke-miterlimit="10" d="M392,5c23.9,32,41.3,47.7,21.3,99"/>
	<path fill="none" stroke="#01B68C" stroke-width="2" stroke-miterlimit="10" d="M478.7,131c16.7-4.5,23.6-15.2,32-29.3"/>
	<path fill="none" stroke="#01B68C" stroke-width="2" stroke-miterlimit="10" d="M487.7,174.3c18.5,0.4,34.8-3.6,48-17.3"/>
	<path fill="none" stroke="#01B68C" stroke-width="2" stroke-miterlimit="10" d="M487,195.3c14.4,2.9,31.7-1.1,44-9"/>
	<path fill="none" stroke="#01B68C" stroke-width="2" stroke-miterlimit="10" d="M480.7,219.3c12.4,9.6,27.8,8.2,40.3-0.3"/>
	<path fill="none" stroke="#01B68C" stroke-width="2" stroke-miterlimit="10" d="M323.4,20.7c40,4.8,67.5,45.5,52.3,83.8"/>
	<path fill="none" stroke="#01B68C" stroke-width="2" stroke-miterlimit="10" d="M455.7,112.7c24.4-7.6,43.5-42.9,34.3-67.3"/>
	<path fill="none" stroke="#01B68C" stroke-width="2" stroke-miterlimit="10" d="M483.4,158.7c20-3.7,41.3-16.3,51.3-31"/>
	<path fill="none" stroke="#01B68C" stroke-width="2" stroke-miterlimit="10" d="M487.4,184.3c18.4-0.4,35.7-2.6,47.3-18.7"/>
	<path fill="none" stroke="#01B68C" stroke-width="2" stroke-miterlimit="10" d="M268.7,195.2c-6.2-12-16.4-23.8-29.3-25.6"/>
	<path fill="none" stroke="#01B68C" stroke-width="2" stroke-miterlimit="10" d="M208.7,170c0,0,18-6.7,30.7-0.3"/>
	<path fill="none" stroke="#01B68C" stroke-width="2" stroke-miterlimit="10" d="M285,171.3c1.2-17.8-2-43.3-17.3-51.7"/>
	<path fill="none" stroke="#01B68C" stroke-width="2" stroke-miterlimit="10" d="M300.7,146.7c1-16,0.7-32.7-13.7-47.7"/>
	<path fill="none" stroke="#01B68C" stroke-width="2" stroke-miterlimit="10" d="M340.7,109c4.7-16.3-0.3-33.6-8.3-42.3"/>
	<path fill="none" stroke="#01B68C" stroke-width="2" stroke-miterlimit="10" d="M95,241.7c12.4-11,40-39.7,58.7-28.7"/>
	<path fill="none" stroke="#01B68C" stroke-width="2" stroke-miterlimit="10" d="M91.4,228c12.6-11.8,27.7-28.6,45.9-30.1
		c13.3-1.1,23,6.2,34.4,12.1"/>
	<path fill="none" stroke="#01B68C" stroke-width="2" stroke-miterlimit="10" d="M82.7,199c9.6-9.5,36.9-25.2,60-22.7
		c12.5,1.4,25,16.7,32,24"/>
	<path fill="none" stroke="#01B68C" stroke-width="2" stroke-miterlimit="10" d="M277.7,219.3c17-53.7,45-79,90.7-107.3"/>
	<path fill="none" stroke="#01B68C" stroke-width="2" stroke-miterlimit="10" d="M294,33c13.7,1.7,21.7,1.3,36,9"/>
	<path fill="none" stroke="#01B68C" stroke-width="2" stroke-miterlimit="10" d="M364.7,55.3c8.1,14.3,6.5,35.5,2.3,51"/>
	<path fill="none" stroke="#01B68C" stroke-width="2" stroke-miterlimit="10" d="M412,48.7c6,16,1.7,40.2-4.7,56.7"/>
	<path fill="none" stroke="#01B68C" stroke-width="2" stroke-miterlimit="10" d="M467.4,124.7c18,0,30.4-17.3,38.3-32.3"/>
	<path fill="none" stroke="#01B68C" stroke-width="2" stroke-miterlimit="10" d="M516.4,113.7c-9,12.3-17,20-33.7,27"/>
	<path fill="none" stroke="#01B68C" stroke-width="2" stroke-miterlimit="10" d="M446,107.3c19-8.3,28.2-24.9,33.7-43"/>
	<path fill="none" stroke="#01B68C" stroke-width="2" stroke-miterlimit="10" d="M480.7,35.3c4.3,9.4,2.7,22.9-1.5,32.2"/>
	<path fill="none" stroke="#01B68C" stroke-width="2" stroke-miterlimit="10" d="M485.7,166.7c18.3-1.3,28-5,40-14.3"/>
	<path fill="none" stroke="#01B68C" stroke-width="2" stroke-miterlimit="10" d="M331.7,114c1-15-1-27-10.3-39.7"/>
	<path fill="none" stroke="#01B68C" stroke-width="2" stroke-miterlimit="10" d="M262.4,203.7c-7.3-8.5-18.7-11.6-28.7-10"/>
	<path fill="none" stroke="#01B68C" stroke-width="2" stroke-miterlimit="10" d="M258,206.3c-8.4-4-16.7-6.3-26.7-6.3"/>
	<path fill="none" stroke="#01B68C" stroke-width="2" stroke-miterlimit="10" d="M177.4,229.5c7.9-7.9,17.9-18.8,29.6-21.5"/>
	<path fill="none" stroke="#01B68C" stroke-width="2" stroke-miterlimit="10" d="M218.2,140c-9.6,1.3-19.4,2.7-27.2,9"/>
	<path fill="none" stroke="#01B68C" stroke-width="2" stroke-miterlimit="10" d="M193.7,141c7.3-5.9,18.9-7.9,28-6.7"/>
	<path fill="none" stroke="#01B68C" stroke-width="2" stroke-miterlimit="10" d="M177.2,188.2c8.9-8,19.1-15.3,31-17.8"/>
	<path fill="none" stroke="#01B68C" stroke-width="2" stroke-miterlimit="10" d="M270.7,191.2c-5.1-12.4-11.2-26.5-25.8-32"/>
	<path fill="none" stroke="#01B68C" stroke-width="2" stroke-miterlimit="10" d="M223.9,354.3c-5.8,11.2-15.7,27.2-21.5,38.3
		c4.3-13.3,24.9-26.7,33.3-37.3"/>
	<path fill="none" stroke="#01B68C" stroke-width="2" stroke-miterlimit="10" d="M206.7,345c-16.6,2-22.1,20.3-26,34"/>
	<path fill="none" stroke="#01B68C" stroke-width="2" stroke-miterlimit="10" d="M184.7,332.7c-10.3,23.7-9.7,43.3-15,64.8"/>
	<path fill="none" stroke="#01B68C" stroke-width="2" stroke-miterlimit="10" d="M167,236.3c-2,11.6-2,19.3,8.3,27"/>
	<path fill="none" stroke="#01B68C" stroke-width="2" stroke-miterlimit="10" d="M159.7,252c-14.1,19.7-18.8,42.7-20.5,66.5
		c3.9-18.9,7.6-37,23-50c0.8,0.7,1.7,1.3,2.5,2c-14.1,11.7-17.7,29.3-23,46"/>
	<path fill="none" stroke="#01B68C" stroke-width="2" stroke-miterlimit="10" d="M79.7,188c13.6-11.5,49.2-37,65-25"/>
	<path fill="none" stroke="#01B68C" stroke-width="2" stroke-miterlimit="10" d="M77.2,154c22.6-11.5,44.1-20.6,70-15.5"/>
	<path fill="none" stroke="#01B68C" stroke-width="2" stroke-miterlimit="10" d="M76.2,139.5c24.3-8.2,48.4-17.4,74.5-15.5"/>
	<path fill="none" stroke="#01B68C" stroke-width="2" stroke-miterlimit="10" d="M83.7,111c21.2-6.2,53.3-18.1,74-4.3
		c12.5,8.3,22.3,28.5,30,40.8"/>
	<path fill="none" stroke="#01B68C" stroke-width="2" stroke-miterlimit="10" d="M84.2,102.5c26.6-8.4,52-13.5,79.5-5.5"/>
	<path fill="none" stroke="#01B68C" stroke-width="2" stroke-miterlimit="10" d="M93.2,81c26.4-13.3,59.5-19.8,88.5-11.5"/>
	<path fill="none" stroke="#01B68C" stroke-width="2" stroke-miterlimit="10" d="M101.2,66.5c28.4-13,58.4-16.7,88-5"/>
	<path fill="none" stroke="#01B68C" stroke-width="2" stroke-miterlimit="10" d="M194.2,59"/>
	<path fill="none" stroke="#01B68C" stroke-width="2" stroke-miterlimit="10" d="M211.2,104"/>
	<path fill="none" stroke="#01B68C" stroke-width="2" stroke-miterlimit="10" d="M176.7,76.5"/>
	<path fill="none" stroke="#01B68C" stroke-width="2" stroke-miterlimit="10" d="M202.7,120"/>
	<path fill="none" stroke="#01B68C" stroke-width="2" stroke-miterlimit="10" d="M196.7,135c-9.5-15.9-18.7-29.1-30.7-43.3"/>
	<path fill="none" stroke="#01B68C" stroke-width="2" stroke-miterlimit="10" d="M179.7,172c-10.2-13.8-19-25.8-32-33"/>
	<path fill="none" stroke="#01B68C" stroke-width="2" stroke-miterlimit="10" d="M143.7,159.3c11.3,1.7,23.6,13.5,33,26"/>
	<path fill="none" stroke="#01B68C" stroke-width="2" stroke-miterlimit="10" d="M484.4,205.3c12.7,5.4,30,3.3,40.3-6.8"/>
	<path fill="none" stroke="#01B68C" stroke-width="2" stroke-miterlimit="10" d="M479.2,224.5c9.6,12,23.2,8.3,35.5,3"/>
	<path fill="none" stroke="#01B68C" stroke-width="2" stroke-miterlimit="10" d="M474.7,232c6.9,12.4,23.8,9.5,35,5.5"/>
	<path fill="none" stroke="#01B68C" stroke-width="2" stroke-miterlimit="10" d="M470.4,238.3c5.4,11.2,20.4,13.5,31.3,9.7"/>
	<path fill="none" stroke="#01B68C" stroke-width="2" stroke-miterlimit="10" d="M464.7,246c2.9,13.9,15.5,14.2,27,13"/>
	<path fill="none" stroke="#01B68C" stroke-width="2" stroke-miterlimit="10" d="M450.2,261c-1.7,13.3,17.6,17.3,27.8,19"/>
	<path fill="none" stroke="#01B68C" stroke-width="2" stroke-miterlimit="10" d="M441.7,266.5c-1.5,12.9,13.6,17.2,23.3,17.8"/>
	<path fill="none" stroke="#01B68C" stroke-width="2" stroke-miterlimit="10" d="M433.2,272c-2.4,11.5,14,15.4,23,15.5"/>
	<path fill="none" stroke="#01B68C" stroke-width="2" stroke-miterlimit="10" d="M423.2,273.5c-2.8,12.2,3.2,16.2,12.8,19.5"/>
	<path fill="none" stroke="#01B68C" stroke-width="2" stroke-miterlimit="10" d="M411.7,275c-3.9,6.7-2.9,13,3.3,16.7"/>
	<path fill="none" stroke="#01B68C" stroke-width="2" stroke-miterlimit="10" d="M535.7,138.5c-2.2,4.6-6.2,8.2-11,10"/>
	<path fill="none" stroke="#01B68C" stroke-width="2" stroke-miterlimit="10" d="M320.7,73.7c-17.7-18-36.5-23-55.3-23"/>
	<path fill="none" stroke="#01B68C" stroke-width="2" stroke-miterlimit="10" d="M302.2,86.5c-20.8-14-40.7-15.5-65-13"/>
	<path fill="none" stroke="#01B68C" stroke-width="2" stroke-miterlimit="10" d="M266.7,120.3c-17.2-15.7-41.2-11.6-61-3.8"/>
	<path fill="none" stroke="#01B68C" stroke-width="2" stroke-miterlimit="10" d="M362.7,54c-9.9-20.4-33.8-23.9-54-28"/>
	<path fill="none" stroke="#01B68C" stroke-width="2" stroke-miterlimit="10" d="M331,66.7c-14.7-23-31.4-23.7-49.3-27.7"/>
	<path fill="none" stroke="#01B68C" stroke-width="2" stroke-miterlimit="10" d="M261.2,129c-15.7-14.6-40.9-13.2-59.5-5.5"/>
	<path fill="none" stroke="#01B68C" stroke-width="2" stroke-miterlimit="10" d="M405.2,7c9.8,12.3,16.5,25.6,21.5,40.5"/>
	<path fill="none" stroke="#01B68C" stroke-width="2" stroke-miterlimit="10" d="M455.2,22c5.5,10,7.3,20.2,6,31.5"/>
	<path fill="none" stroke="#01B68C" stroke-width="2" stroke-linecap="square" stroke-linejoin="bevel" stroke-miterlimit="10" d="
		M436.1,13.8c17.2,26.9,5.3,65.3-9.9,90.2c2.1-2.1,2.2,2.6,4.2,0.3c11-12.7,21.2-34.9,22.3-51.8"/>
	<path fill="none" stroke="#01B68C" stroke-width="2" stroke-miterlimit="10" d="M525.2,96c-2.7,4.8-4.5,8.3-10.5,12"/>
	<path fill="none" stroke="#01B68C" stroke-width="2" stroke-miterlimit="10" d="M530.7,116c-0.7,5.6-4,10.1-9,13"/>
	<path fill="none" stroke="#01B68C" stroke-width="2" stroke-miterlimit="10" d="M514.7,74.5c-1.9,6.4-5.9,11.8-10,17"/>
	<path fill="none" stroke="#01B68C" stroke-width="2" stroke-miterlimit="10" d="M498.7,50.5c1.7,9.5-0.9,19-4,28"/>
	<path fill="none" stroke="#01B68C" stroke-width="2" stroke-miterlimit="10" d="M344.2,12.5c19.6,6.7,35.4,16.1,43.5,36"/>
	<path fill="none" stroke="#01B68C" stroke-width="2" stroke-miterlimit="10" d="M220.7,94.3c23.7-3.4,39.3-4.7,60.7,8.7"/>
	<path fill="none" stroke="#01B68C" stroke-width="2" stroke-miterlimit="10" d="M424.2,8.5c7.9,12.7,14,24.4,15,39.5"/>
	<path fill="none" stroke="#01B68C" stroke-width="2" stroke-miterlimit="10" d="M486.2,41c0,0,3,7.5,1.5,16.5"/>
	<path fill="none" stroke="#01B68C" stroke-width="2" stroke-miterlimit="10" d="M512.4,66.3c0,0-1.5,10-10,20"/>
	<path fill="none" stroke="#01B68C" stroke-width="2" stroke-miterlimit="10" d="M391.7,105c19-37-1.4-81.9-36.5-95"/>
	<path fill="none" stroke="#01B68C" stroke-width="2" stroke-miterlimit="10" d="M316.7,221c19.3-9,20-33.5,18.9-51.3
		c-1.5-24.5,13.4-39.1,33.6-50.7c-34.2,22.3-16.2,45.7-34.5,86.7"/>
	<path fill="none" stroke="#01B68C" stroke-width="2" stroke-miterlimit="10" d="M287.4,231.3c9.8-38.5,30.9-64.4,56.8-93.3"/>
	<path fill="none" stroke="#01B68C" stroke-width="2" stroke-miterlimit="10" d="M342.4,140.3c-21.3,14.7-11.7,35.9-15.1,56.1
		c-2.9,17.5-34.3,41.9-36.9,38.6c6-29.3,20.8-39.7,41.5-58.6c14.4-13.2,20.9-28.1,29.6-45.1c2.2-4.4,4.7-10,7.8-12.2"/>
	<path fill="none" stroke="#01B68C" stroke-width="2" stroke-miterlimit="10" d="M216.7,288c21.8-16.7,48,5.3,45.6,32.6"/>
	<path fill="none" stroke="#01B68C" stroke-width="2" stroke-miterlimit="10" d="M233.9,189c-25.8-1.7-45.1,9.2-59.6,30.3"/>
	<path fill="none" stroke="#01B68C" stroke-width="2" stroke-miterlimit="10" d="M232.2,201c-10.5-1.3-45,12.5-54.2,26.8"/>
	<path fill="none" stroke="#01B68C" stroke-width="2" stroke-miterlimit="10" d="M254.4,208c-25-5.7-37,4-46,8.3"/>
	<path fill="none" stroke="#01B68C" stroke-width="2" stroke-miterlimit="10" d="M185.2,241.5c20.5-16,45.9-27.5,71.5-32"/>
	<path fill="none" stroke="#01B68C" stroke-width="2" stroke-miterlimit="10" d="M243.2,158c-10.8-1.5-22.7-0.2-32.8,4"/>
	<path fill="none" stroke="#01B68C" stroke-width="2" stroke-miterlimit="10" d="M257.4,133c-9.3-6.7-18.9-8-29.2-7.5"/>
	<path fill="none" stroke="#01B68C" stroke-width="2" stroke-miterlimit="10" d="M288.2,99c-18.8-14.4-40.2-15-62.5-10.7"/>
	<path fill="none" stroke="#01B68C" stroke-width="2" stroke-miterlimit="10" d="M350.7,60.5c-8.4-6.6-15.1-13.3-24-16.2
		c-13.3-4.3-25.6-6.8-40.5-7.3"/>
	<path fill="none" stroke="#01B68C" stroke-width="2" stroke-miterlimit="10" d="M325.7,70c-4.3-9-11.8-13.1-21-16.3"/>
	<path fill="none" stroke="#01B68C" stroke-width="2" stroke-miterlimit="10" d="M314.7,78c-6.7-10-15.8-13.6-25.5-14.8"/>
	<path fill="none" stroke="#01B68C" stroke-width="2" stroke-miterlimit="10" d="M337.7,67.5c-4.6-9.6-10.6-16.3-20-20.2"/>
	<path fill="none" stroke="#01B68C" stroke-width="2" stroke-miterlimit="10" d="M375.7,51.7c-4-8-9.2-12.4-14.8-16.7"/>
	<path fill="none" stroke="#01B68C" stroke-width="2" stroke-miterlimit="10" d="M368.7,54c-4.6-6.6-9-13.2-16-17.5"/>
	<path fill="none" stroke="#01B68C" stroke-width="2" stroke-miterlimit="10" d="M359.2,56c-4-8.1-11.7-17.5-21.5-16"/>
	<path fill="none" stroke="#01B68C" stroke-width="2" stroke-miterlimit="10" d="M299.2,29.5C309.7,31,321,32,337,40"/>
	<path fill="none" stroke="#01B68C" stroke-width="2" stroke-miterlimit="10" d="M527.7,98c0,0-3,11.5-10.5,14.5"/>
	<path fill="none" stroke="#01B68C" stroke-width="2" stroke-miterlimit="10" d="M534.7,119.5c0,0-3.5,9.8-12,13.8"/>
	<path fill="none" stroke="#01B68C" stroke-width="2" stroke-miterlimit="10" d="M535.2,133c0,0-1,5-11,11"/>
	<path fill="none" stroke="#01B68C" stroke-width="2" stroke-miterlimit="10" d="M525.2,91c0,0-2,6-13,11.5"/>
	<path fill="none" stroke="#01B68C" stroke-width="2" stroke-miterlimit="10" d="M516.7,78c0,0-3,11.5-9,15.5"/>
	<path fill="none" stroke="#01B68C" stroke-width="2" stroke-miterlimit="10" d="M526.7,157.5c0,0,5.5,1,8.5-8"/>
	<path fill="none" stroke="#01B68C" stroke-width="2" stroke-miterlimit="10" d="M526.2,179.5c0,0,6,1.5,7.5-3"/>
	<path fill="none" stroke="#01B68C" stroke-width="2" stroke-miterlimit="10" d="M475.7,31.5c0,0,6,9.5,1,29.5"/>
	<path fill="none" stroke="#01B68C" stroke-width="2" stroke-miterlimit="10" d="M460.2,27c4.2,19.7,3.2,55.7-27.8,78.3"/>
	<path fill="none" stroke="#01B68C" stroke-width="2" stroke-miterlimit="10" d="M533,175.3c0,0,0.8,1.5-4.7,2"/>
	<path fill="none" stroke="#01B68C" stroke-width="2" stroke-miterlimit="10" d="M187.2,155c0,0,10.2-8.6,31-11.8
		c8.9-1.3,19.8-4,32.2,1.5"/>
	<path fill="none" stroke="#01B68C" stroke-width="2" stroke-miterlimit="10" d="M323.7,125.7c0,0,8.3-28.2-8.3-47.7"/>
	<path fill="none" stroke="#01B68C" stroke-width="2" stroke-miterlimit="10" d="M469.2,480c-17-15.4-44.5-9.2-61.5,3"/>
	<path fill="none" stroke="#01B68C" stroke-width="2" stroke-miterlimit="10" d="M312.7,552c-14.7-20.5-12-43.7-24.3-64.3"/>
	<path fill="none" stroke="#01B68C" stroke-width="2" stroke-miterlimit="10" d="M418.7,451c-14,6.7-26.8,6.6-41.5,9.8
		c-13.6,3-30.5,17-44.5,9.7"/>
	<path fill="none" stroke="#01B68C" stroke-width="2" stroke-miterlimit="10" d="M354.7,432.5c-5.5,9.2-34.2,14.5-42.3-1.8"/>
	<path fill="none" stroke="#01B68C" stroke-width="2" stroke-miterlimit="10" d="M326.2,457.5c0,0,22.2-14.3,30.2-25.8"/>
	<path fill="none" stroke="#01B68C" stroke-width="2" stroke-miterlimit="10" d="M311.5,429.2c13.3,14.4,28.3,2.6,41.2,1.8"/>
	<path fill="none" stroke="#01B68C" stroke-width="2" stroke-miterlimit="10" d="M391.7,424c17.5,17.3,43.7,17.6,58.5-3.5"/>
	<path fill="none" stroke="#01B68C" stroke-width="2" stroke-miterlimit="10" d="M134.7,473.5c5.5-9.1,11.5-18.8,19.5-26
		c12.1-10.8,30.2-16.2,35.5-33.5"/>
	<path fill="none" stroke="#01B68C" stroke-width="2" stroke-miterlimit="10" d="M20.7,168.3c34.4,19.2,63.5,51.6,78,88.7"/>
	<path fill="none" stroke="#01B68C" stroke-width="2" stroke-miterlimit="10" d="M95.2,300c-12.7-15.3-25.2-32-30.6-51.2
		C56.7,220.5,54,186.2,23,172"/>
	<path fill="none" stroke="#01B68C" stroke-width="2" stroke-miterlimit="10" d="M31.7,205c9.9,22.8,21.1,32.9,41.7,45
		c18.1,10.6,20,35.3,24.9,54.7c1.7-53.8-41.8-79.5-70.2-119.7c30.9,26.3,56.2,47.3,72.5,85.5"/>
	<path fill="none" stroke="#01B68C" stroke-width="2" stroke-miterlimit="10" d="M95.4,303.3c-15.8-47.2-52.5-80.1-72.7-125.8
		c38.1,18.2,64.3,38.3,76.5,81"/>
	<path fill="none" stroke="#01B68C" stroke-width="2" stroke-miterlimit="10" d="M525.4,200c-13.7,15-30,16.1-43.2,9.5"/>
	<path fill="none" stroke="#01B68C" stroke-width="2" stroke-miterlimit="10" d="M526.7,182c-12.1,7.7-26.4,11.1-40.5,7.5"/>
	<path fill="none" stroke="#01B68C" stroke-width="2" stroke-miterlimit="10" d="M461.7,249.5c2.7,12.4,14.7,15.6,26,14.5"/>
	<path fill="none" stroke="#01B68C" stroke-width="2" stroke-miterlimit="10" d="M427.7,274c-3.7,9.6,4,16,16.7,18"/>
	<path fill="none" stroke="#01B68C" stroke-width="2" stroke-miterlimit="10" d="M415.2,275.5c-2.5,8.2-1.2,14.1,5.8,17.5"/>
	<path fill="none" stroke="#01B68C" stroke-width="2" stroke-miterlimit="10" d="M404.2,279c-0.3,4,2.2,8.6,6,11.5"/>
	<path fill="none" stroke="#01B68C" stroke-width="2" stroke-miterlimit="10" d="M399.2,279c0,0-2.5,1.5,0,4.5"/>
	<path fill="none" stroke="#01B68C" stroke-width="2" stroke-miterlimit="10" d="M485.2,200.5c15.8,4.5,29.1-1.4,43.5-7.5"/>
	<path fill="none" stroke="#01B68C" stroke-width="2" stroke-miterlimit="10" d="M291.2,232.5c9.5-6.5,26.4-16.9,29.8-28.7
		c2.5-8.7-3.2-17-3.5-25.5c-0.4-10.9,4.4-18.5,8.7-28.3"/>
	<path fill="none" stroke="#01B68C" stroke-width="2" stroke-miterlimit="10" d="M40.7,234c17.3,12.3,23.1,33.5,35.5,50"/>
	<path fill="none" stroke="#01B68C" stroke-width="2" stroke-miterlimit="10" d="M30.7,196c23.8,25.7,43.1,50.2,71.5,71.5"/>
	<path fill="none" stroke="#01B68C" stroke-width="2" stroke-miterlimit="10" d="M378.2,278c-20.4,7.8-38.5-3.3-51.5-17.7"/>
	<path fill="none" stroke="#01B68C" stroke-width="2" stroke-miterlimit="10" d="M365.2,478c-20.9,18.5-41.1,12.3-61.8-3.7"/>
	<path fill="none" stroke="#01B68C" stroke-width="2" stroke-miterlimit="10" d="M290.9,427.8c3.4,23.5,10,39.4,36,40.8"/>
	<path fill="none" stroke="#01B68C" stroke-width="2" stroke-miterlimit="10" d="M349.2,475c-13.1,15.8-45.8-3.3-53.2-24.7"/>
	<path fill="none" stroke="#01B68C" stroke-width="2" stroke-miterlimit="10" d="M335,394c-7.3,7.7-17.7,10.9-27.3,5
		C316.6,396.2,326,397,335,394z"/>
	<path fill="none" stroke="#01B68C" stroke-width="2" stroke-miterlimit="10" d="M243.7,372c7.1,7.6,10.1,18.3,13.5,28
		c-3.1-8.4-4.6-18.3-14.5-20.5"/>
	<path fill="none" stroke="#01B68C" stroke-width="2" stroke-miterlimit="10" d="M255.7,361c-4.6,11.7-3.6,25.3,0.5,37"/>
	<path fill="none" stroke="#01B68C" stroke-width="2" stroke-miterlimit="10" d="M263.7,336.5c-9.2,17.4-34.8,39.9-38,59"/>
	<path fill="none" stroke="#01B68C" stroke-width="2" stroke-miterlimit="10" d="M189.7,412c13.8-25.2,43.9-24.7,49.5-57
		c-3.4,11.2-12,16.8-20.8,23.7c-15.1,11.8-23.1,22.3-30.5,40.1c-11.5,27.9-28.1,45.6-55.7,58.7c18.6-23.8,30.4-43.8,34.5-74"/>
	<path fill="none" stroke="#01B68C" stroke-width="2" stroke-miterlimit="10" d="M288.7,472.5c0.1,22.2,36.4,23.7,52,25.8
		c-22.3-2.7-46.1-9.6-53.7-33"/>
	<path fill="none" stroke="#01B68C" stroke-width="2" stroke-miterlimit="10" d="M261.7,309.3c-10.1,3.6-40.9,20.1-50.2,16.2
		c-6.3-2.6-4.6-3.4-3.5-12.5c0.4-3.2,5-25.2,11.1-23.6c-4-1.1-1,20.1,6.8,22.7c12.8,4.4,21-9.9,19.5-20.4"/>
	<path fill="none" stroke="#01B68C" stroke-width="2" stroke-miterlimit="10" d="M222.7,290c0.6,5.9,3.5,11.9,7,16.7
		c3.9-3,9.7-10,8.3-15.3"/>
	<path fill="none" stroke="#01B68C" stroke-width="2" stroke-miterlimit="10" d="M248.4,256.3c9.9-3.1,10.5-14.6,3-19.7
		c-0.6,9.8-7.5,18.7-14.7,25"/>
	<path fill="none" stroke="#01B68C" stroke-width="2" stroke-miterlimit="10" d="M273,216.7c9.5,13.3,13.4,26,13.7,42.3"/>
	<path fill="none" stroke="#01B68C" stroke-width="2" stroke-miterlimit="10" d="M270.4,211.3c-11.4,16.2,9.7,45.6,9.7,63"/>
	<path fill="none" stroke="#01B68C" stroke-width="2" stroke-miterlimit="10" d="M288,277.7c0.3-18.8,13-28.5,18.7-45"/>
	<path fill="none" stroke="#01B68C" stroke-width="2" stroke-miterlimit="10" d="M327,275.3c0,0-19.7-12.7-35.3-0.7"/>
	<path fill="none" stroke="#01B68C" stroke-width="2" stroke-miterlimit="10" d="M304,249c-7.3,7,0.3,14.7,8.7,16"/>
	<path fill="none" stroke="#01B68C" stroke-width="2" stroke-miterlimit="10" d="M292,272.3c5.9-4.8,8.9-11.8,8-19.3"/>
	<path fill="none" stroke="#01B68C" stroke-width="2" stroke-miterlimit="10" d="M362.7,343.7c-10-9.9-23-12-34.3-19.7
		c8.6,29,47.5,26.3,69.5,42"/>
	<path fill="none" stroke="#01B68C" stroke-width="2" stroke-miterlimit="10" d="M286.7,286c-0.9,11.5,3.4,22.1,14,27.7"/>
	<path fill="none" stroke="#01B68C" stroke-width="2" stroke-miterlimit="10" d="M284,295.7c-0.7,6.5,2.8,12.8,7.7,17"/>
	<path fill="none" stroke="#01B68C" stroke-width="2" stroke-miterlimit="10" d="M312.7,361.7c-3.5,0-6.5-1.9-8.3-5"/>
	<path fill="none" stroke="#01B68C" stroke-width="2" stroke-miterlimit="10" d="M219.7,290.3c-8.3,9.1-9.5,20.8-10,32.7"/>
	<path fill="none" stroke="#01B68C" stroke-width="2" stroke-miterlimit="10" d="M251.4,309.3c0,0-2.7-9-5.3-12.3"/>
	<path fill="none" stroke="#01B68C" stroke-width="2" stroke-miterlimit="10" d="M163.7,242c-3.5,10.1,0.1,22.7,11,26.3"/>
	<path fill="none" stroke="#01B68C" stroke-width="2" stroke-miterlimit="10" d="M171,230c-5,11.5,3.4,24.5,10.7,33"/>
	<path fill="none" stroke="#01B68C" stroke-width="2" stroke-miterlimit="10" d="M291.4,235.7c4.3-21.6,11.5-45.2,28.3-59.6
		c12.3-10.6,21.9-21.8,30.1-36c-8.8,36.7-21.8,70.5-54,91.3C294.1,232.3,293,234.7,291.4,235.7z"/>
	<path fill="none" stroke="#01B68C" stroke-width="2" stroke-miterlimit="10" d="M294,231c5.3-17.2,23.6-26.3,25-44"/>
	<path fill="none" stroke="#01B68C" stroke-width="2" stroke-miterlimit="10" d="M466.7,242.3c5,12.1,18,13.7,29.3,12.3"/>
	<path fill="none" stroke="#01B68C" stroke-width="2" stroke-miterlimit="10" d="M436.7,269.7c1.1,12.5,13.1,16.3,24,15.7"/>
	<path fill="none" stroke="#01B68C" stroke-width="2" stroke-miterlimit="10" d="M452.7,290.3c-9.6-0.9-23.7-4.9-23-17"/>
	<path fill="none" stroke="#01B68C" stroke-width="2" stroke-miterlimit="10" d="M445.4,265c-1.1,12,15.9,16,25.3,17"/>
	<path fill="none" stroke="#01B68C" stroke-width="2" stroke-miterlimit="10" d="M418.7,277.3c-2.6,7.9,2.1,12.8,8.7,15.7"/>
	<path fill="none" stroke="#01B68C" stroke-width="2" stroke-miterlimit="10" d="M347.9,475.8c-21.8-3.7-51.7,4.7-53.5-28.5"/>
	<path fill="none" stroke="#01B68C" stroke-width="2" stroke-miterlimit="10" d="M8.9,551.2c6.8,9.2,4.3,28.2,12,35.2"/>
	<path fill="none" stroke="#01B68C" stroke-width="2" stroke-miterlimit="10" d="M80.2,513.5c1.7,3.8-1.2,13.5-4.8,18.5
		c-0.4,0.6,4.7-4.3,5.2-4.8c5-6.1,12.3-15.2,12.3-19.9"/>
	<path fill="none" stroke="#01B68C" stroke-width="2" stroke-miterlimit="10" d="M1.2,531.7c28.5-4.4,38.8-31.3,50.5-51.2
		c-4.4,10.6-18.2,44.7,2.5,43"/>
	<path fill="none" stroke="#01B68C" stroke-width="2" stroke-miterlimit="10" d="M15.4,533c23.8-9,26.2-34,36.2-52.5"/>
	<path fill="none" stroke="#01B68C" stroke-width="2" stroke-miterlimit="10" d="M40.4,476c18.3-28,32-48.7,44.7-90.3"/>
	<path fill="none" stroke="#01B68C" stroke-width="2" stroke-miterlimit="10" d="M16.2,490.5c21.5-14.5,32.7-37.3,42.2-55.8"/>
	<path fill="none" stroke="#01B68C" stroke-width="2" stroke-miterlimit="10" d="M97.4,500.7c25-24.1,60.9-36.8,78-67.5"/>
	<path fill="none" stroke="#01B68C" stroke-width="2" stroke-miterlimit="10" d="M175.2,197c18.5-17.2,36-27.2,62.5-22"/>
	<path fill="none" stroke="#01B68C" stroke-width="2" stroke-miterlimit="10" d="M231.7,193.5c-29,0.2-47,18.5-54.7,30.2"/>
	<path fill="none" stroke="#01B68C" stroke-width="2" stroke-miterlimit="10" d="M274.2,219.5c15.2,32.2,3.4,63.3,4.8,95.8
		c0.9,21.7,12.5,73.3,40.2,75.2"/>
	<path fill="none" stroke="#01B68C" stroke-width="2" stroke-miterlimit="10" d="M343.7,279.7c-14.6,0-40-16.7-40-32.8"/>
	<path fill="none" stroke="#01B68C" stroke-width="2" stroke-miterlimit="10" d="M354.7,409c-13.1,0.7-24.8,0.6-37.2-3.7"/>
	<path fill="none" stroke="#01B68C" stroke-width="2" stroke-miterlimit="10" d="M335.4,386c-9.4-12.4-21.3-8.5-33.2-15.5"/>
	<path fill="none" stroke="#01B68C" stroke-width="2" stroke-miterlimit="10" d="M341.2,352c-10-2.3-19.6-6.4-27.7-12.7
		c-7.3-5.7-14.2-21.5-23.3-23.8"/>
	<path fill="none" stroke="#01B68C" stroke-width="2" stroke-miterlimit="10" d="M286.2,316c12.7,9.3,15.5,33.7,30.5,38.3
		c16.4,5,37.1-10.5,54.5-8.3c-26-6.2-36.1-26.4-67.4-32c-3.9-0.7-8-0.4-12.6-0.5c11,12,27.3,26.1,44,29.3"/>
	<path fill="none" stroke="#01B68C" stroke-width="2" stroke-miterlimit="10" d="M299.2,368.5c3.4-22.4-8.2-27.2-14.3-45.7
		c-4.3-12.9-0.2-31,0.8-44.3c4.6,15,12,31.2,28.5,35.5"/>
	<path fill="none" stroke="#01B68C" stroke-width="2" stroke-miterlimit="10" d="M291.7,276.5c25.3,0.4,39.5,24.2,62.6,31.6
		c26.9,8.6,53.5,17.1,81.4,5.4"/>
	<path fill="none" stroke="#01B68C" stroke-width="2" stroke-miterlimit="10" d="M453.7,258.7c0,0,1.7,6.3,5.3,10
		c3.7,3.7,18.3,8,23.3,8"/>
	<path fill="none" stroke="#01B68C" stroke-width="2" stroke-miterlimit="10" d="M396.4,296.5c0,0-6.5,0.8-14-0.5
		c-2.4-0.4-8-1.5-8-1.5"/>
	<path fill="none" stroke="#01B68C" stroke-width="2" stroke-miterlimit="10" d="M216.4,294.1c0,0-1.1,6.1,1,11.4
		c2.1,5.3,10.2,7.6,15.5,6.4c7.9-1.8,14-11.2,12.5-18.9"/>
	<path fill="none" stroke="#01B68C" stroke-width="2" stroke-miterlimit="10" d="M202.7,120c0,0-17-36-26-43.5"/>
	<path fill="none" stroke="#01B68C" stroke-width="2" stroke-miterlimit="10" d="M211.2,104c0,0-8.3-36.8-17.3-44.2"/>
	<path fill="none" stroke="#01B68C" stroke-width="2" stroke-miterlimit="10" d="M213.1,333.7c0,0,36,0.4,49.3-7.6"/>
	<path fill="none" stroke="#01B68C" stroke-width="2" stroke-miterlimit="10" d="M158.5,212c0,0,5-3.3,11.2,0.9"/>
</g>
<g id="home-goat-top-lines">
	<path fill="none" stroke="#029B78" stroke-width="5" stroke-linejoin="round" stroke-miterlimit="10" d="
		M256.7,209c8.8,0,30.9-43.3,36.9-51.3c7-9.4,12.9-21.3,22.1-28.7c1.9-1.5,8.2-1.7,10.2-3.2c2.4-1.7,4.2-9.2,9.6-12.6
		c4.8-3,12.3-5.1,18-6.1s6.7,2.9,11.2,2.5c3.8-0.4,3.4-4.8,7.3-5.1c2.7-0.2,8.4,1.1,11.4,1.3c8.5,0.4,16.9-1.5,25.2-1.8
		c3.9-0.2,7.8-0.3,11.7-0.2c5.6,0.2,11.1,0.9,16.6,2c-0.2,1.5-0.5,3-0.7,4.5c3.9,0.9,7.5-2.7,12.1-1.3c5.7,1.7,11.5,4.9,16.2,8.3
		c1,0.8-5.7,4.7-4.7,5.6c8.3,7.4,17.4-2.1,21.4,14.6c2.6,11-3.9,8.3-3.3,15.8c0.3,3.1,5.8,6.6,6.9,9.6c2,5.3,1.5,13.5,1.6,19.1
		c0.1,13.3-2.2,26.8-7.3,39.2c-14.8,35.8-49.7,59.1-88.6,56.7c15.3,18.4,44.6,20,64.7,10.8c4.5-2,25.7-9.1,28.8-11.9
		c3.2-3-3.1-5.1-1.1-7.9c6.7-9.7,16.8-17.4,23.7-27.2c23.9-33.6,33.5-74.9,27.5-115.8c-0.8-5.2-0.9-12.9-1.8-16.8
		c-0.4-1.6,3.8-5.1,3.1-6.5c-0.9-2.1-8.1-6-10.1-8.4c-4.8-5.7-9.2-16.4-12.2-23.3c-1.1-2.5,2.6-7,1-9.3c-1.7-2.4-6.9-2.4-9-4.3
		c-8.5-8-22.1-22.4-31.4-28.4c-4.8-3.1-9-1.3-14.9-3.1c-9.1-2.8-17-10.4-25-14.4c-3.5-1.8-5.4-4.8-8.6-5.7c-1.9-0.5-4.8,3.4-6.7,3.2
		c-9.4-0.9-19-2.7-28.2-3.9c-5.7-0.7-7.6-2.3-12.4-2c-6.9,0.4-20,5.8-28,8.1C267.7,34,209.6,87.8,181.5,168.8
		c-7,20.2-18.1,90.2,22.9,72.3C222.8,233.1,239.9,219.4,256.7,209z"/>
	<path fill="none" stroke="#029B78" stroke-width="5" stroke-linejoin="round" stroke-miterlimit="10" d="
		M269.7,204"/>
	<path fill="none" stroke="#029B78" stroke-width="5" stroke-linejoin="round" stroke-miterlimit="10" d="
		M100.4,258.3C75.5,207.3,68.4,147,87.6,93c7.4-20.8,19.3-35.5,40-43.7c19.7-7.8,53.9-17.5,70.8,0.6c7.7,8.2,19.2,39.4,17.4,50.5
		c-1.3,7.7-12.8,20.5-16.4,27.2c-7.9,14.8-13.7,30.3-18.5,46.3c-5.7,19.1-2,39-20.7,46.1C134.7,229.5,118.8,237.7,100.4,258.3z"/>
	<path fill="none" stroke="#029B78" stroke-width="5" stroke-linejoin="round" stroke-miterlimit="10" d="
		M291,246.3c9.9-17.2,28-14.4,40.8-26.2c8.4-7.7,14.4-23.9,20.1-33.6c7.3-12.6,45.3-77,11.7-76.1c-22.6,0.6-53.7,36.4-65.9,53.3
		c-7.3,10.1-24.4,32.5-24.9,45.2C272.3,219,287.5,234.7,291,246.3z"/>
	<path fill="none" stroke="#029B78" stroke-width="5" stroke-linejoin="round" stroke-miterlimit="10" d="
		M101,309.7c-10.3-14.2-22.8-21.4-35.4-32.4c-18.7-16.3-26.6-46.9-32.7-70c-1.4-5.4-15.8-39.1-11.4-41c6.2-2.7,26.7,17.1,30.9,20.4
		c23.9,18.7,31.9,26.1,41.8,54.1C102.2,263.7,100.7,285.4,101,309.7z"/>
	<path fill="none" stroke="#029B78" stroke-width="5" stroke-linejoin="round" stroke-miterlimit="10" d="
		M106.7,251.3c-0.1,70.9-24.9,126-58.3,187C33.3,466,8.3,497,1.2,527.4C-2,540.9,10,582.6,22.7,589c4.6,2.3,9.6,0.7,14,2.4
		c6.2,2.4,11.5,10.2,18.2,11.2c12.2,1.8,27.5-9.5,37.1-15.8c23.5-15.5,28.3-39.7,46.6-59.7c12.6-13.8,40.2-33.6,59.1-34.7
		c31.7-1.9,62.9,30.2,75.9,55c11.6,22,22.1,46,24.9,71c2.6,23.2-3,48.5,9.8,69.4c14.3,23.5,40.1,43,60,61.8
		c-4.3-12.1-11.1-23.4-11.2-36.4c0-14.6,3.5-19.4-4.2-31.8c-11.2-18-24.5-34-34.7-53.2C302.7,599,288,566.7,269,539.6
		c19.7,28.2,34.7,62.2,50.4,92.8c9.5,18.6,16.7,36.8,34.7,49c12.4,8.3,26.3,14.8,38.9,22.8c-6.3-9.3-14.7-19.8-18.2-30.5
		c-4.2-13-3.5-12.7,5.9-11.2c16.3,2.5,28,12.8,46.3,11.1c19.5-1.8,35.7-11.5,44-29.2c13.2-28,3.2-55,6.5-83.5
		c1.4-12.4-1-7.8,14.4-13.3c15.7-5.6,33.2-13.9,43-28.1c-23.3-15.8-32.9,14.6-52.8,18.8c-25.2,5.3-55.5-5.9-76.6-19.4
		c29.5-3.8,59.2-6.1,89-5.1c19,0.7,44.6-7.6,50.6-29c2.9-10.3-0.6-20.1,0.1-30.3c0.5-6.9,3.4-13.6,4.9-20.6
		c5.2-24.5,0.6-50.9,19.5-70.3c-7.8,5.5-46.1,12.4-44.5-1.9c-5.3,0.3-57.2,1.7-38.8-12.8c-13.2,7.5-3.3-11.5,0-16
		c-11.8,2.6-40.7,8.4-28.7-14c-6.6,1.7-15.7,3.1-22.2,0.6c0,0,3.8-12.5,4.2-14.6c-4.7,1-45.3,0.7-42.9-5.7c0.5-1.4,6.7-2.7,8.2-3
		c-15.9,2.4-21.1-13.5-5.3-9.3c-6.9-2.4-15.3-2.4-15.3-10c-2.4,1-14.6,1-12.1-4.3c2.6-5.4,10.2-4.3,10.1-13.1
		c-14.8,2.1-36-2.7-13.6-12.5c-11.6,5.1-54.4-7.1-64.4-16.2"/>
	<path fill="none" stroke="#029B78" stroke-width="5" stroke-linejoin="round" stroke-miterlimit="10" d="
		M165.4,505.3c-31,20.7-31.6,48.9-14.3,79c-3.3-1.5-7.4-1.2-10.7-2.7c19.1,38.5,17.2,77.8,4.7,118c1.4-22.8,3.1-45.1-3.5-67.1
		c-4.2-13.9-8.8-27.8-13.4-41.6c-1.7-5.2-5.9-27.3-11.2-30.3c5.1,2.9-31,30.3-31.2,30.6c-4.2,4.7-2.5,10.2,7.2,13.9
		c11.2,4.3,21.2,13.3,28.5,22.8c7.5,9.7,22,28.5,23,41.6c0.9,11.9-10.4,23.5-10.8,37.4c-5.3-14.7-17-21-26.5-32.3
		c-9.5-11.4-10.1-26.3-17.8-38c-8.5-12.9-24.6-23.6-35.7-34.4"/>
	<path fill="none" stroke="#029B78" stroke-width="5" stroke-linejoin="round" stroke-miterlimit="10" d="
		M255,307.7c-2.9-13.7-15.7-25.1-30.5-20.8c-15,4.3-17.8,24.1-18.1,37.5C222.6,318.8,238.8,313.2,255,307.7z"/>
	<path fill="#029B78" d="M62.4,520.3c-2.4,8.4-18.3,22.2-24,32.7c0.6-1.5,3.3-12.7-0.8-12.7c-2.7,0-1.4,29.9-0.6,31.7
		c4.5,11.2-0.3,6.1,8.2,7.2c10.1,1.3,34-17.7,41.4-23.2c8.6-6.5,11.2-8.6,18.5-16.5c-13.1,16.1-21,25.9-39,36.6
		c-7.8,4.6-18.3,12.3-27.3,14.4c-1.7,0.4-21.7-1-17.9-3.9c8.8-6.9,14.3-1.3,11.8-16.1c-2.9-17.2-15.8-10.5-26.2-19.3
		C-21.4,527.6,49.3,524.4,62.4,520.3z"/>
	<path fill="none" stroke="#029B78" stroke-width="5" stroke-linejoin="round" stroke-miterlimit="10" d="
		M240.4,297c0,13.5-20.7,13.5-20.7,0C219.7,283.7,240.4,283,240.4,297z"/>
	<path fill="none" stroke="#029B78" stroke-width="5" stroke-linejoin="round" stroke-miterlimit="10" d="
		M280.4,224c16-50.7,51.8-79.5,89.3-109.7c6.8,14.8-17.9,52-23.6,66.3c-6,15.1-8.5,27.3-21.8,36.4c-10,6.9-22.2,15.2-32.3,22.3
		C289.1,234.2,278.6,229.6,280.4,224z"/>
	<path fill="none" stroke="#029B78" stroke-width="5" stroke-linejoin="round" stroke-miterlimit="10" d="
		M196.4,492.3c13.9-11.1,32.8-19.3,50.3-13.8c12.6,4,30.3,24.5,42.7,24.5c-11.2,0-49.8-24.6-57-34.4c-16.8-22.9-16-57.3,0.1-78.4
		c24.9-32.6,43.1-59.5,41.7-102.5c-0.4-10.4-0.5-21.1-4-31c-2.6-7.4-11.8-16.6-11.4-24.8c0.3-6.3,7.8-16.6,13-20.8"/>
	<path fill="none" stroke="#029B78" stroke-width="5" stroke-linejoin="round" stroke-miterlimit="10" d="
		M64.7,520.7c21.3-6.7,47.1-33.5,59.4-48.4c15.7-18.8,20.1-42,26.4-65.2c11.2-41.2,28.5-79.4,47.6-117.6"/>
	<path fill="none" stroke="#029B78" stroke-width="5" stroke-linejoin="round" stroke-miterlimit="10" d="
		M256.4,227.7c-8.4,13.1,12.1,40.5,13.3,55.5c1.5,19.6-6.4,55.2-27.8,62.2c-30.5,9.9-48.7-20.5-38.2-45.7
		C215.1,272,238.5,251.1,256.4,227.7z"/>
	<path fill="none" stroke="#029B78" stroke-width="5" stroke-linejoin="round" stroke-miterlimit="10" d="
		M291,246.3c-12,29.7-10,68.3-0.1,97.9c4.6,13.8,7.9,34.2,20.8,42.8c9.4,6.3,26.9,7.4,38,10c-23.1-8.4-41,5-58.1-15.4
		c-17.6-21-17.5-41.5-19.2-67.2"/>
	<path fill="none" stroke="#029B78" stroke-width="5" stroke-linejoin="round" stroke-miterlimit="10" d="
		M314.4,535.7c18.2,29,47.5,65,85.1,63.3c22.7-1,43.5-13.1,59.9-28c1.7-1.6,18.3-16.9,17.5-18.6c-1.3-3.1-16-7.7-18.4-8.8
		c-13.5-6.1-27.2-14.2-41.4-18.7c-26.6-8.5-52.6,13.2-78.7,2.1c-23.2-9.9-47.8-35-63-54c-17.7-21.9-40.5-47.1-48.4-74.7
		c-5.4,0,1.1,28,1.6,29.5c6.1,18,17,25.8,31.5,36.4c16.4,12.1,21.8,22.1,30.2,40.1C296.2,516.9,307.7,522.9,314.4,535.7z"/>
	<path fill="none" stroke="#029B78" stroke-width="5" stroke-linejoin="round" stroke-miterlimit="10" d="
		M260.7,224c-35.7,20.3-70.8,57.5-67.7,96.5c1.7,22.1,14.6,32.1,37.3,33.5c23.3,1.4,31.8-16.1,42.1-34.3"/>
	<path fill="none" stroke="#029B78" stroke-width="5" stroke-linejoin="round" stroke-miterlimit="10" d="
		M174.4,222.3c-26.4,21-45.4,49.2-42.5,83.6c2.1,25.5-0.1,33-9.6,57.3c-9.8,24.8-18.2,51.7-30.9,75.2C78.6,462.1,64.5,483,79.8,511"
		/>
	<path fill="none" stroke="#029B78" stroke-width="5" stroke-linejoin="round" stroke-miterlimit="10" d="
		M393.7,667c-28.6-8.9-41.5-28-48.5-54.5c-7.1-26.8-24.3-47.6-40.1-70.4c-23.5-33.8-57.2-50.3-97.4-57.1"/>
	<path fill="none" stroke="#029B78" stroke-width="5" stroke-linejoin="round" stroke-miterlimit="10" d="
		M533.2,370.2c-31.8,10.8-22.9,38.9-32.4,64.5C489.5,465,442.9,476.9,419,453"/>
	<path fill="none" stroke="#029B78" stroke-width="5" stroke-linejoin="round" stroke-miterlimit="10" d="
		M273,325.7c1.8,45.5-28.8,118.9,26.2,148.4c14.5,7.8,42.4,13.2,58.4,7.4c13.2-4.8,26.2-13.7,39.5-19.2c2.3-1,28-14.2,26.5-14.6"/>
	<path fill="none" stroke="#029B78" stroke-width="5" stroke-linejoin="round" stroke-miterlimit="10" d="
		M300.4,389.7c19.9,41.5,59.2,52.4,99.5,30.2c-23.3-1.1-40.2-11.4-55.2-29c-14.2-16.7-20.3-40.3-44.3-21.2"/>
	<path fill="none" stroke="#029B78" stroke-width="5" stroke-linejoin="round" stroke-miterlimit="10" d="
		M73,516.5C123.7,488.2,193.7,450,227.2,396"/>
	<path fill="none" stroke="#029B78" stroke-width="5" stroke-linejoin="round" stroke-miterlimit="10" d="
		M121.7,488.3c17-8.4,34.1-16.8,51.2-25c9.6-4.6,17.3-9,28.2-5.7c13.2,4,23,13.6,37.2,16.8"/>
	<path fill="none" stroke="#029B78" stroke-width="5" stroke-linejoin="round" stroke-miterlimit="10" d="
		M143.7,523.7c-6.3-47.8-59.5-12.1-83.5-1.2"/>
	<path fill="none" stroke="#029B78" stroke-width="5" stroke-linejoin="round" stroke-miterlimit="10" d="
		M523,365.7c-41.9-1.5-55.2,22.7-71.8,55.3c-9.6,18.9-17.5,29.1-38.2,21.7c-15.8-5.6-31-5.8-46.8-11.7"/>
	<path fill="none" stroke="#029B78" stroke-width="5" stroke-linejoin="round" stroke-miterlimit="10" d="
		M249.2,63c40.8-2.1,76.8,18,67.2,64.7"/>
	<path fill="none" stroke="#029B78" stroke-width="5" stroke-linejoin="round" stroke-miterlimit="10" d="
		M381.7,105.7C408,65.1,371,24.9,331,16.4"/>
	<path fill="none" stroke="#029B78" stroke-width="5" stroke-linejoin="round" stroke-miterlimit="10" d="
		M77.7,173.3c14.6-15.6,45.5-32.3,68-24.7c10.5,3.6,23.6,19.9,32.7,27.7"/>
	<path fill="none" stroke="#029B78" stroke-width="5" stroke-linejoin="round" stroke-miterlimit="10" d="
		M187,155.7c-9.7-12-20.1-31.5-32.6-40.2c-20.3-14-57.4-0.1-75.7,12.8"/>
	<path fill="none" stroke="#029B78" stroke-width="5" stroke-linejoin="round" stroke-miterlimit="10" d="
		M87.7,93c20.3-9.1,61-21.5,81.6-8.4c12.2,7.8,22.2,29.3,31.1,41"/>
	<path fill="none" stroke="#029B78" stroke-width="5" stroke-linejoin="round" stroke-miterlimit="10" d="
		M84.4,213c11-13.6,39.8-31.5,57.8-28.6c11.7,1.9,22,13.5,31.5,20.6"/>
	<path fill="none" stroke="#029B78" stroke-width="5" stroke-linejoin="round" stroke-miterlimit="10" d="
		M158.4,219.7c-36.7-52.7-0.3-129.1,40.7-166"/>
	<path fill="none" stroke="#029B78" stroke-width="5" stroke-linejoin="round" stroke-miterlimit="10" d="
		M291,161c4.2-18.6,0.3-43.1-17.1-53.4c-16.4-9.7-48.4-12.3-63.5,0"/>
	<path fill="none" stroke="#029B78" stroke-width="5" stroke-linejoin="round" stroke-miterlimit="10" d="
		M437.1,105.8c29.5-17.3,37.2-46.6,30-78.1"/>
	<path fill="none" stroke="#029B78" stroke-width="5" stroke-linejoin="round" stroke-miterlimit="10" d="
		M478.4,150.7c27.8-7.8,39.4-25.1,54.7-48.3"/>
	<path fill="none" stroke="#029B78" stroke-width="5" stroke-linejoin="round" stroke-miterlimit="10" d="
		M274,186.3c-10-48.7-57.2-42.9-91.3-21.8"/>
	<path fill="none" stroke="#029B78" stroke-width="5" stroke-linejoin="round" stroke-miterlimit="10" d="
		M174.4,205.7c27.2-23.7,61.2-38.5,89.3-8"/>
	<path fill="none" stroke="#029B78" stroke-width="5" stroke-linejoin="round" stroke-miterlimit="10" d="
		M464,118c25.8-12.9,37.8-30.8,42.2-59.5"/>
	<path fill="none" stroke="#029B78" stroke-width="5" stroke-linejoin="round" stroke-miterlimit="10" d="
		M375.4,5.7c32.7,27.2,35.8,58.1,27.7,98"/>
	<path fill="none" stroke="#029B78" stroke-width="5" stroke-linejoin="round" stroke-miterlimit="10" d="
		M418.8,8.9c18.2,32.4,14.8,60.6,2.6,94.4"/>
	<path fill="none" stroke="#029B78" stroke-width="5" stroke-linejoin="round" stroke-miterlimit="10" d="
		M229.2,226c3.5-93.1,78-167.9,169.5-176.9c53-5.2,98.9,12.8,118.5,66.4c8.8,24,15,59.2,8,84.6c-4.3,15.7-25.7,24.4-42.2,14.8"/>
	<path fill="none" stroke="#029B78" stroke-width="5" stroke-linejoin="round" stroke-miterlimit="10" d="
		M215.2,234c-41.8-99.5,74.2-193.9,163.3-203.1c48.1-5,98.2,4.3,128.6,44.7c18.7,24.8,38.2,77.5,25.2,107.4"/>
	<path fill="none" stroke="#029B78" stroke-width="5" stroke-linejoin="round" stroke-miterlimit="10" d="
		M209,77.7c-16.3,19.3-33.6,41.2-39.9,66c-6,23.9-6.4,50.2-7.4,74.7"/>
	<path fill="none" stroke="#029B78" stroke-width="5" stroke-linejoin="round" stroke-miterlimit="10" d="
		M379,526.3c30.6-15.8,56.6-42.6,91.8-46.8c13-1.6,77.8-9.2,74.7-28.3c1.4,8.2-31.9,17.3-35.6,17.7c-17.2,1.7-32.6-3.9-49.5-1.3
		c-21.5,3.3-38-2.1-55.7,14.4c-17.3,16.2-32.4,42.8-57.4,47.9"/>
	<path fill="none" stroke="#029B78" stroke-width="5" stroke-linejoin="round" stroke-miterlimit="10" d="
		M298.7,369c13.9-7.3,30-15,45.8-16.4c25.9-2.3,37.3,20,56.8,32.8c33.9,22.2,66.6-17.7,88.3-41.4c-16,37.5-48.8,72.1-91,77"/>
	<path fill="none" stroke="#029B78" stroke-width="5" stroke-linejoin="round" stroke-miterlimit="10" d="
		M483.1,269c-11.3,3.2-23.3-2.2-25.4-14.5"/>
	<path fill="none" stroke="#029B78" stroke-width="5" stroke-linejoin="round" stroke-miterlimit="10" d="
		M395.4,599.2c16.5-1.5,19.1,4.9,22.2,25.8c2.9,19.6,23.9,59,46.7,30.6"/>
	<path fill="none" stroke="#029B78" stroke-width="5" stroke-linejoin="round" stroke-miterlimit="10" d="
		M389.7,521.7c14.8-3.2,29.7-5.6,44.8-7.1c18.5-1.8,41.9,2.2,58.6-7.5c9-5.2,11.9-13.9,19-20.7c9.2-8.7,20.3-13.4,28.3-24
		c-22.5,23.7-46,34.4-77.2,23.3c-21.6-7.7-46.2-10.2-66,3.8"/>
	<path fill="none" stroke="#029B78" stroke-width="5" stroke-linejoin="round" stroke-miterlimit="10" d="
		M287.7,279c29.7,13.8,53.5,40.9,86.3,47.9c10.9,2.3,24.5,1.6,35.4,0.2c7.7-1,16.4-2.2,22.7-7.1c1.8-1.4,11.7-14.9,9-15.3
		c-0.5,0-0.9,0.1-1.3,0.3c-4.6,11.8-56-4.7-67.8-8.6C346,288,315.3,264.9,287.7,279z"/>
	<path fill="none" stroke="#029B78" stroke-width="5" stroke-linejoin="round" stroke-miterlimit="10" d="
		M283.9,314.9c19.4-16.8,61.4,15.2,80.2,26.8c38.2,23.5,85.2,10.7,122.2-8.6c-15.7,21.9-27.3,35.4-54.7,36.1
		c-18,0.5-36.2-1.5-54-4.1"/>
	<path fill="none" stroke="#029B78" stroke-width="5" stroke-linejoin="round" stroke-miterlimit="10" d="
		M73.7,599c39.7,29.2,51.2,60.7,60,108"/>
	<path fill="none" stroke="#029B78" stroke-width="5" stroke-linejoin="round" stroke-miterlimit="10" d="
		M214,351c-22.3,1.7-35.8,32.9-46.4,49.6c-17.8,27.9-20.7,69.5-48.6,90.4"/>
	<path fill="none" stroke="#029B78" stroke-width="5" stroke-linejoin="round" stroke-miterlimit="10" d="
		M273.7,345.5c-0.6,23.7,5.9,41.7,12.7,63.8c6.6,21.2,1.8,48.2,17.3,65.7"/>
	<path fill="none" stroke="#029B78" stroke-width="5" stroke-linejoin="round" stroke-miterlimit="10" d="
		M87.4,447c34.1-27.4,69-58.7,66.2-105.6c-2-33.7,17.8-76.8,48.5-99.1c-29.7,21.3-56.8,60.2-70.3,92.2"/>
	<path fill="none" stroke="#029B78" stroke-width="5" stroke-linejoin="round" stroke-miterlimit="10" d="
		M164.2,98.5c12.9,12.5,19.7,27.9,27,44"/>
	<path fill="none" stroke="#029B78" stroke-width="5" stroke-linejoin="round" stroke-miterlimit="10" d="
		M150.7,129.5c11.6,12.1,23.2,23.5,31,38.5"/>
	<path fill="none" stroke="#029B78" stroke-width="5" stroke-linejoin="round" stroke-miterlimit="10" d="
		M143.7,166c14.3,5.3,23.6,16.4,32,27.7"/>
	<path fill="none" stroke="#029B78" stroke-width="5" stroke-linejoin="round" stroke-miterlimit="10" d="
		M229.7,82.5c11.6-3.5,23.7-3.6,35.5-1.5"/>
	<path fill="none" stroke="#029B78" stroke-width="5" stroke-linejoin="round" stroke-miterlimit="10" d="
		M198.2,132c9.2-4.5,19.6-10.1,30-8"/>
	<path fill="none" stroke="#029B78" stroke-width="5" stroke-linejoin="round" stroke-miterlimit="10" d="
		M178.7,179.7c7-10.2,18.5-15,30.8-16.5"/>
	<path fill="none" stroke="#029B78" stroke-width="5" stroke-linejoin="round" stroke-miterlimit="10" d="
		M209,216.3c-13.3,7.3-20.1,11.3-29,19.3"/>
	<path fill="none" stroke="#029B78" stroke-width="5" stroke-linejoin="round" stroke-miterlimit="10" d="
		M266.7,47.5c11.5-2.6,28,0,37.7,6.5"/>
	<path fill="none" stroke="#029B78" stroke-width="5" stroke-linejoin="round" stroke-miterlimit="10" d="
		M444.2,17.5c8.1,10.2,9.9,21.3,8.5,34"/>
	<path fill="none" stroke="#029B78" stroke-width="5" stroke-linejoin="round" stroke-miterlimit="10" d="
		M520.7,83.5c-2,5.5-5.6,10.4-10.5,13.5"/>
	<path fill="none" stroke="#029B78" stroke-width="5" stroke-linejoin="round" stroke-miterlimit="10" d="
		M227.4,287.7c0,3.9,1.9,8.7,3.3,12.3c1.3-3.2,3.3-8.6,2.7-12"/>
	<path fill="none" stroke="#029B78" stroke-width="5" stroke-linejoin="round" stroke-miterlimit="10" d="
		M254.4,307.9c0,0-2.8-8.5-5.8-12.9"/>
	<path fill="none" stroke="#029B78" stroke-width="5" stroke-linejoin="round" stroke-miterlimit="10" d="
		M205.2,113.5c0,0-13.7-36.5-19.9-45.7"/>
</g>
</svg>
