<svg version="1.1" xmlns="http://www.w3.org/2000/svg" xmlns:xlink="http://www.w3.org/1999/xlink" x="0px" y="0px" viewBox="0 0 100 90" enable-background="new 0 0 100 90" xml:space="preserve" class="logo-svg">
	<path d="M19.1,42.7c17.4,0,20.5-19.9,10.4-29c-8.5-7.8-20.6-2-19.7,9.1c0.4,5.2,4.6,9,8.4,9.1c3.5,0,7.2-2,7.5-5.8c0.1-2.7-3.9-4.6-3.9-4.6S20.3,24,18.1,25c-2.4,1-5.4,0.6-5.7-2.5c-0.7-7.3,7.5-11.7,13.7-6.7s4.4,20-6.4,20.3C8,36.4,2.6,24,8.1,14.4c3.6-6.3,12.2-9,18.4-7c6.9,2.2,14.4,11,11.7,26.9l10.2,2.8c0,0,0.6-39.2-28.1-36.9c-17,1.2-21.7,17-20,26.1C2.3,35.7,10.2,42.7,19.1,42.7z"/>
	<path d="M79.8,0.1C51-2,51.7,37,51.7,37l10.2-2.8C59.3,18.2,66.8,9.6,73.6,7.2c6-2,14.7,0.6,18.4,7c5.5,9.6,0.2,22-11.6,21.7C69.6,35.8,67.8,21,74,15.8c6.2-5.1,14.5-0.6,13.7,6.7c-0.2,3-3.4,3.5-5.7,2.5s-3.6-3.5-3.6-3.5s-4,1.9-3.9,4.6c0.2,3.7,4,5.8,7.5,5.8c3.7-0.1,8-4,8.4-9.1c0.9-11.1-11.2-16.9-19.7-9.1c-10.1,9.1-6.9,29,10.4,29c8.9,0,16.7-7,18.6-16.6C101.5,17.1,96.7,1.3,79.8,0.1z"/>
	<path d="M69.1,42.9c-2.9-2.1-5.5-5.4-5.5-5.4L50,41.3l-13.4-3.8c0,0-2.6,3.3-5.5,5.4C17.1,53.3,1.3,38.1,1.3,38.1l9.2,17.2l6.5,1.1l13.4-5.1l1.4,12.2l11.4,25.1l7,1.4l7.1-1.4l11.4-25.1L70,51.3l13.4,5.1l6.5-1.1l9.2-17.2C98.9,38.1,83.3,53.3,69.1,42.9z"/>
</svg>
