<?xml version="1.0" encoding="UTF-8" standalone="no"?>
<svg width="526px" height="654px" viewBox="0 0 526 654" version="1.1" xmlns="http://www.w3.org/2000/svg" xmlns:xlink="http://www.w3.org/1999/xlink" xmlns:sketch="http://www.bohemiancoding.com/sketch/ns">
    <!-- Generator: Sketch 3.3.2 (12043) - http://www.bohemiancoding.com/sketch -->
    <title>illustration</title>
    <desc>Created with Sketch.</desc>
    <defs></defs>
    <g id="Page-1" stroke="none" stroke-width="1" fill="none" fill-rule="evenodd" sketch:type="MSPage">
        <g id="Work-detail" sketch:type="MSArtboardGroup" transform="translate(-483.000000, -6046.000000)">
            <g id="quote" sketch:type="MSLayerGroup" transform="translate(0.000000, 6051.000000)">
                <g id="illustration" transform="translate(483.000000, 0.000000)">
                    <path d="M235.906172,434.761723 C226.211718,444.862227 210.451886,444.862227 200.757432,434.761723 L44.8848273,272.468445 C5.16802054,232.523235 5.16802054,167.834328 44.8848273,127.939874 C84.601634,88.020042 149.011382,88.020042 188.728189,127.939874 L218.319113,164.052983 L247.910037,127.939874 C287.652222,88.020042 352.06197,88.020042 391.753399,127.939874 C431.495584,167.834328 431.495584,232.523235 391.753399,272.468445 L235.906172,434.761723" id="heart" stroke="#1A1A1A" stroke-width="10" sketch:type="MSShapeGroup"></path>
                    <path d="M219,448.5 L219,524" id="Line" stroke="#1A1A1A" stroke-width="10" stroke-linecap="square" sketch:type="MSShapeGroup"></path>
                    <circle id="Oval-5" stroke="#1A1A1A" stroke-width="10" sketch:type="MSShapeGroup" cx="220" cy="584" r="60"></circle>
                    <text id="“" sketch:type="MSTextLayer" font-family="Sentinel" font-size="200" font-weight="420" line-spacing="80" fill="#222222">
                        <tspan x="174" y="654">“</tspan>
                    </text>
                    <path d="M315.5,201.5 L446.56105,70.4389455" id="Line" stroke="#1A1A1A" stroke-width="10" stroke-linecap="square" sketch:type="MSShapeGroup"></path>
                    <path d="M7.5,509.5 L138.56105,378.438946" id="Line-Copy" stroke="#1A1A1A" stroke-width="10" stroke-linecap="square" sketch:type="MSShapeGroup"></path>
                    <g id="arrow" transform="translate(0.000000, 445.000000)" stroke="#1A1A1A" stroke-width="10" stroke-linecap="square" sketch:type="MSShapeGroup">
                        <path d="M5,63.5 L5,0.428611875" id="Line"></path>
                        <path d="M5.5,67 L75,67" id="Line"></path>
                    </g>
                    <g id="arrow-copy" transform="translate(410.000000, 35.000000)" stroke="#1A1A1A" stroke-width="10" stroke-linecap="square" sketch:type="MSShapeGroup">
                        <path d="M5,63.5 L5,0.428611875" id="Line"></path>
                        <path d="M5.5,67 L75,67" id="Line"></path>
                    </g>
                    <g id="arrow-copy-2" transform="translate(446.000000, 0.000000)" stroke="#1A1A1A" stroke-width="10" stroke-linecap="square" sketch:type="MSShapeGroup">
                        <path d="M5,63.5 L5,0.428611875" id="Line"></path>
                        <path d="M5.5,67 L75,67" id="Line"></path>
                    </g>
                </g>
            </g>
        </g>
    </g>
</svg>